<svg width="117" height="120" viewBox="0 0 117 120" fill="none" xmlns="http://www.w3.org/2000/svg">
<path d="M101.842 98.4968C52.4565 122 21.8074 102.336 2.18788 90.3917C0.973837 89.639 -1.08962 90.5677 0.700712 92.6241C7.23694 100.549 28.6575 119.652 56.6177 119.652C84.597 119.652 101.242 104.385 103.324 101.722C105.393 99.081 103.932 97.6244 101.841 98.4968H101.842ZM115.712 90.8371C114.385 89.1101 107.647 88.7882 103.407 89.3091C99.1599 89.815 92.7851 92.4106 93.3393 93.9691C93.6237 94.5529 94.2042 94.291 97.1218 94.0287C100.047 93.7368 108.243 92.7025 109.951 94.9349C111.666 97.1828 107.337 107.891 106.546 109.618C105.782 111.345 106.838 111.79 108.273 110.64C109.688 109.49 112.251 106.513 113.97 102.299C115.678 98.0622 116.719 92.152 115.711 90.8371H115.712Z" fill="#535366"/>
<path fill-rule="evenodd" clip-rule="evenodd" d="M68.6355 50.5384C68.6355 56.7053 68.7913 61.8482 65.6743 67.3248C63.1585 71.7779 59.1733 74.5162 54.7207 74.5162C48.6425 74.5162 45.1027 69.8852 45.1027 63.0505C45.1027 49.5586 57.1915 47.1098 68.6355 47.1098V50.5384ZM84.5983 89.1213C83.5518 90.0561 82.0379 90.1232 80.8581 89.4995C75.604 85.1361 74.6687 83.1102 71.7746 78.9467C63.0918 87.8078 56.947 90.4569 45.6818 90.4569C32.3681 90.4569 21.9932 82.2415 21.9932 65.7888C21.9932 52.943 28.9621 44.1932 38.8687 39.9189C47.4627 36.1337 59.4629 35.4659 68.6355 34.4198V32.3714C68.6355 28.6087 68.9246 24.1561 66.7208 20.9058C64.7836 17.9892 61.088 16.7869 57.8373 16.7869C51.8041 16.7869 46.4162 19.8813 45.1027 26.2932C44.8352 27.7184 43.7892 29.1211 42.3644 29.1878L27.0023 27.5406C25.7113 27.2505 24.2866 26.2045 24.6428 24.2227C28.1826 5.61079 44.991 0 60.041 0C67.7443 0 77.8073 2.04844 83.8855 7.88167C91.5888 15.0725 90.8539 24.6681 90.8539 35.1097V59.7777C90.8539 67.1915 93.9263 70.4418 96.8204 74.4495C97.8444 75.8743 98.0673 77.589 96.7758 78.6571C93.5476 81.3508 87.8035 86.3605 84.6424 89.1659L84.5978 89.1213" fill="#535366"/>
<path d="M101.842 98.4968C52.4565 122 21.8074 102.336 2.18788 90.3917C0.973837 89.639 -1.08962 90.5677 0.700712 92.6241C7.23694 100.549 28.6575 119.652 56.6177 119.652C84.597 119.652 101.242 104.385 103.324 101.722C105.393 99.081 103.932 97.6244 101.841 98.4968H101.842ZM115.712 90.8371C114.385 89.1101 107.647 88.7882 103.407 89.3091C99.1599 89.815 92.7851 92.4106 93.3393 93.9691C93.6237 94.5529 94.2042 94.291 97.1218 94.0287C100.047 93.7368 108.243 92.7025 109.951 94.9349C111.666 97.1828 107.337 107.891 106.546 109.618C105.782 111.345 106.838 111.79 108.273 110.64C109.688 109.49 112.251 106.513 113.97 102.299C115.678 98.0622 116.719 92.152 115.711 90.8371H115.712Z" fill="#535366"/>
<path fill-rule="evenodd" clip-rule="evenodd" d="M68.6355 50.5384C68.6355 56.7053 68.7913 61.8482 65.6743 67.3248C63.1585 71.7779 59.1733 74.5162 54.7207 74.5162C48.6425 74.5162 45.1027 69.8852 45.1027 63.0505C45.1027 49.5586 57.1915 47.1098 68.6355 47.1098V50.5384ZM84.5983 89.1213C83.5518 90.0561 82.0379 90.1232 80.8581 89.4995C75.604 85.1361 74.6687 83.1102 71.7746 78.9467C63.0918 87.8078 56.947 90.4569 45.6818 90.4569C32.3681 90.4569 21.9932 82.2415 21.9932 65.7888C21.9932 52.943 28.9621 44.1932 38.8687 39.9189C47.4627 36.1337 59.4629 35.4659 68.6355 34.4198V32.3714C68.6355 28.6087 68.9246 24.1561 66.7208 20.9058C64.7836 17.9892 61.088 16.7869 57.8373 16.7869C51.8041 16.7869 46.4162 19.8813 45.1027 26.2932C44.8352 27.7184 43.7892 29.1211 42.3644 29.1878L27.0023 27.5406C25.7113 27.2505 24.2866 26.2045 24.6428 24.2227C28.1826 5.61079 44.991 0 60.041 0C67.7443 0 77.8073 2.04844 83.8855 7.88167C91.5888 15.0725 90.8539 24.6681 90.8539 35.1097V59.7777C90.8539 67.1915 93.9263 70.4418 96.8204 74.4495C97.8444 75.8743 98.0673 77.589 96.7758 78.6571C93.5476 81.3508 87.8035 86.3605 84.6424 89.1659L84.5978 89.1213" fill="#535366"/>
</svg>
