<svg width="128" height="56" viewBox="0 0 128 56" fill="none" xmlns="http://www.w3.org/2000/svg">
<mask id="mask0_4329_431" style="mask-type:luminance" maskUnits="userSpaceOnUse" x="31" y="20" width="67" height="16">
<path d="M97.5314 20H31V35.3774H97.5314V20Z" fill="white"/>
</mask>
<g mask="url(#mask0_4329_431)">
<path d="M53.0614 33.5587V32.8124C52.7295 33.0908 52.3504 33.3075 51.9421 33.4523C51.5271 33.6022 51.0888 33.678 50.6475 33.6762C50.1143 33.6815 49.5857 33.5761 49.0954 33.3665C48.6253 33.1642 48.1984 32.8735 47.838 32.5102C47.4765 32.1404 47.1913 31.703 46.9985 31.223C46.7917 30.7169 46.6871 30.1748 46.6907 29.628C46.6868 29.083 46.7914 28.5427 46.9985 28.0386C47.3867 27.1102 48.1107 26.3623 49.026 25.9442C49.9413 25.5262 50.9807 25.4687 51.9365 25.7832C52.3368 25.9147 52.7144 26.1073 53.0558 26.3541V25.7105H54.5986V33.5587H53.0614ZM48.2111 29.6112C48.2017 29.9705 48.2651 30.3279 48.3975 30.662C48.5299 30.996 48.7286 31.2999 48.9816 31.5551C49.226 31.8104 49.521 32.0121 49.8476 32.1473C50.1742 32.2825 50.5254 32.3483 50.8788 32.3405C51.3 32.3445 51.7175 32.2606 52.1044 32.0942C52.4689 31.9379 52.793 31.7005 53.0521 31.4003V27.8353C52.787 27.5421 52.461 27.3103 52.097 27.1562C51.7122 26.9913 51.2975 26.9074 50.8788 26.91C50.5267 26.902 50.1767 26.9663 49.8504 27.0988C49.5241 27.2313 49.2284 27.4292 48.9816 27.6804C48.7268 27.9319 48.5265 28.2331 48.3929 28.5652C48.2594 28.8974 48.1956 29.2534 48.2055 29.6112H48.2111Z" fill="white"/>
<path d="M57.5648 22.4252V33.5586H56.022V22.7647L57.5648 22.4252Z" fill="white"/>
<path d="M60.5403 22.4252V33.5586H58.9995V22.7647L60.5403 22.4252Z" fill="white"/>
<path d="M67.9876 33.5586V32.8123C67.6556 33.0907 67.2764 33.3074 66.8681 33.4522C66.4531 33.6022 66.0149 33.6779 65.5736 33.6761C65.0379 33.6799 64.5074 33.5718 64.0158 33.3589C63.5457 33.1567 63.119 32.866 62.7585 32.5027C62.3968 32.1328 62.1118 31.6954 61.919 31.2155C61.7122 30.7093 61.6076 30.1672 61.6112 29.6205C61.6073 29.0755 61.712 28.5352 61.919 28.031C62.3087 27.1027 63.0341 26.3556 63.9505 25.9388C64.8671 25.5221 65.907 25.4665 66.8626 25.7831C67.2596 25.9155 67.6339 26.108 67.9725 26.3539V25.7103H69.5154V33.5586H67.9876ZM63.1371 29.6111C63.1278 29.9704 63.1912 30.3278 63.3236 30.6619C63.4559 30.9959 63.6547 31.2997 63.9076 31.555C64.152 31.8103 64.4469 32.012 64.7737 32.1472C65.1002 32.2824 65.4514 32.3482 65.8048 32.3404C66.2261 32.3442 66.6434 32.2604 67.0303 32.0941C67.395 31.9377 67.719 31.7004 67.9783 31.4001V27.8352C67.713 27.542 67.387 27.3102 67.0229 27.1561C66.6382 26.9911 66.2236 26.9073 65.8048 26.9099C65.4528 26.9019 65.1027 26.9662 64.7765 27.0987C64.4502 27.2312 64.1545 27.4291 63.9076 27.6803C63.6528 27.9318 63.4524 28.2329 63.3189 28.5651C63.1854 28.8973 63.1217 29.2533 63.1316 29.6111H63.1371Z" fill="white"/>
<path d="M73.9065 33.5586H72.4144L70.2242 25.7104H71.7166L73.2277 31.4786L75.0315 25.7104H76.3578L78.1452 31.4786L79.673 25.7104H81.1224L78.9212 33.5586H77.44L75.6826 27.8073L73.9065 33.5586Z" fill="white"/>
<path d="M88.4818 32.665C87.6193 33.3518 86.5451 33.7172 85.4428 33.6985C84.3516 33.7031 83.3013 33.283 82.514 32.527C82.1386 32.1614 81.8421 31.7227 81.6427 31.2379C81.3294 30.4924 81.2404 29.6716 81.3868 28.8763C81.5334 28.0809 81.9088 27.3456 82.4673 26.7607C82.8314 26.3878 83.2667 26.092 83.7475 25.8907C84.2283 25.6895 84.7445 25.5869 85.2657 25.5892C85.774 25.5866 86.2773 25.6901 86.7433 25.8931C87.2096 26.0961 87.6281 26.3942 87.9724 26.7682C88.3162 27.1498 88.5853 27.5928 88.7652 28.074C88.9634 28.5907 89.0626 29.14 89.0582 29.6933V30.1391H82.8611C82.9577 30.769 83.2782 31.3429 83.7637 31.7557C84.2492 32.1686 84.8673 32.3927 85.5044 32.3871C85.8773 32.3878 86.2477 32.3247 86.5994 32.2005C86.9276 32.0892 87.2316 31.9164 87.4949 31.6912L88.4818 32.665ZM85.2265 26.882C84.6602 26.8745 84.1124 27.0818 83.6931 27.4621C83.2496 27.8579 82.9561 28.394 82.8611 28.9807H87.5248C87.4235 28.4087 87.1393 27.885 86.715 27.4883C86.3185 27.0975 85.7833 26.8795 85.2265 26.882Z" fill="white"/>
<path d="M96.9627 32.665C96.1002 33.3517 95.026 33.7171 93.9238 33.6985C93.3683 33.702 92.8177 33.5942 92.3045 33.3813C91.8184 33.1827 91.3752 32.8926 90.9985 32.5269C90.6237 32.1609 90.3271 31.7223 90.1275 31.2379C89.815 30.4921 89.7268 29.6716 89.8732 28.8765C90.0196 28.0814 90.3944 27.3462 90.9518 26.7606C91.3082 26.3959 91.733 26.1049 92.2018 25.9044C92.6875 25.697 93.2109 25.5922 93.739 25.5966C94.2475 25.594 94.7506 25.6975 95.2168 25.9005C95.6828 26.1036 96.1016 26.4016 96.4459 26.7755C96.7897 27.1572 97.0588 27.6002 97.2387 28.0814C97.4367 28.5981 97.5361 29.1473 97.5317 29.7007V30.1465H91.3343C91.4329 30.7763 91.7553 31.3494 92.2421 31.7609C92.729 32.1724 93.3479 32.3947 93.9853 32.387C94.3582 32.3878 94.7286 32.3247 95.0804 32.2004C95.4088 32.0896 95.7128 31.9167 95.9758 31.6912L96.9627 32.665ZM93.709 26.8819C93.1423 26.8739 92.5936 27.0813 92.1738 27.4621C91.735 27.858 91.4442 28.3916 91.3492 28.975H96.0132C95.9119 28.403 95.6276 27.8794 95.2034 27.4826C95.0062 27.2891 94.7726 27.1364 94.5161 27.0333C94.2596 26.9303 93.9856 26.8788 93.709 26.8819Z" fill="white"/>
<path fill-rule="evenodd" clip-rule="evenodd" d="M40.7734 29.1261C40.6708 26.3801 40.904 23.9549 41.3592 20.6679C41.3706 20.5849 41.3642 20.5004 41.3403 20.4201C41.3164 20.3398 41.2756 20.2655 41.2207 20.2023C41.1657 20.139 41.0979 20.0882 41.0217 20.0534C40.9455 20.0185 40.8628 20.0003 40.779 20H33.7983C33.7162 20.0001 33.635 20.0174 33.5601 20.0508C33.4851 20.0843 33.418 20.1331 33.3632 20.1941C33.3083 20.2552 33.2669 20.327 33.2415 20.4051C33.2162 20.4832 33.2076 20.5657 33.2162 20.6473L33.2349 20.8339C33.5781 24.1172 33.8318 26.5293 33.8188 29.1205C32.9328 28.7211 31.9719 28.515 31 28.5161V30.5047C31.0056 30.6605 31.0668 30.8092 31.1726 30.9238C31.2783 31.0385 31.4216 31.1115 31.5764 31.1296C32.1998 31.2196 32.7951 31.4478 33.3188 31.7975C33.4486 31.8833 33.5732 31.9767 33.6919 32.0773C34.2653 32.5562 34.7022 33.1778 34.9586 33.8794C35.1291 34.3469 35.2162 34.8406 35.216 35.3382C35.216 35.3486 35.2202 35.3586 35.2275 35.3659C35.2349 35.3733 35.2448 35.3774 35.2552 35.3774H39.3593C39.3645 35.3774 39.3696 35.3764 39.3743 35.3744C39.3791 35.3725 39.3834 35.3696 39.3871 35.3659C39.3907 35.3623 39.3936 35.358 39.3955 35.3532C39.3975 35.3485 39.3985 35.3434 39.3985 35.3382C39.3966 34.5336 39.6231 33.7449 40.0517 33.064C40.4804 32.383 41.0936 31.8377 41.82 31.4915C42.1987 31.3113 42.6025 31.1893 43.0176 31.1296C43.1728 31.1119 43.3165 31.0391 43.4227 30.9244C43.5288 30.8097 43.5902 30.6608 43.5959 30.5047V28.5161C42.6223 28.5157 41.6599 28.7237 40.7734 29.1261ZM40.169 26.7009L40.0738 29.4992C39.2847 29.9734 38.5979 30.5999 38.0535 31.3423C37.7564 31.7535 37.5062 32.1965 37.3073 32.6631C37.1084 32.1965 36.8581 31.7535 36.5611 31.3423C36.0097 30.5886 35.3117 29.9541 34.509 29.4768C34.509 27.2792 34.3878 25.4622 34.2534 23.3691C34.2255 22.9531 34.1975 22.5259 34.1695 22.0819C34.4587 22.0648 34.7304 21.9378 34.9291 21.727C35.1278 21.5162 35.2385 21.2374 35.2385 20.9477H39.2978C39.3005 21.2332 39.4109 21.5073 39.6071 21.7148C39.8032 21.9224 40.0706 22.0482 40.3555 22.067L40.169 26.7009Z" fill="white"/>
<path fill-rule="evenodd" clip-rule="evenodd" d="M38.8483 26.9603C38.8476 27.266 38.7563 27.5646 38.5859 27.8184C38.4155 28.0723 38.1737 28.2699 37.891 28.3864C37.6084 28.5029 37.2976 28.533 36.9978 28.4729C36.6981 28.4128 36.4229 28.2652 36.2069 28.0488C35.9911 27.8323 35.8441 27.5568 35.7848 27.2569C35.7254 26.957 35.7562 26.6462 35.8734 26.3638C35.9906 26.0815 36.1888 25.8402 36.443 25.6704C36.6973 25.5006 36.9961 25.41 37.3018 25.41C37.5052 25.41 37.7066 25.4502 37.8945 25.5281C38.0824 25.606 38.253 25.7203 38.3967 25.8643C38.5403 26.0083 38.6542 26.1792 38.7317 26.3673C38.8092 26.5553 38.8488 26.7568 38.8483 26.9603Z" fill="white"/>
</g>
</svg>
