<svg width="128" height="56" viewBox="0 0 128 56" fill="none" xmlns="http://www.w3.org/2000/svg">
<g clip-path="url(#clip0_4329_206)">
<path d="M37.0041 26.2901H42.8923L41.6321 27.5503H37.0041V29.4289H39.7535L37 32.1824L37.5906 32.7725L40.3436 30.019V32.7684H42.2222V28.1404L43.4747 26.8884V32.7684H45.9794V23.7855H37.0041V26.2901Z" fill="white"/>
<path d="M75.1697 30.2436L76.7927 29.5581C77.1006 30.533 77.8026 31.3438 79.0649 31.3438C80.0029 31.3438 80.6341 30.8024 80.6341 30.1533C80.6341 28.1875 75.5663 29.4677 75.5663 26.0236C75.5663 24.5986 76.8107 23.5344 78.776 23.5344C80.4893 23.5344 81.9323 24.4365 82.329 25.7706L80.7064 26.4562C80.4719 25.5546 79.6242 25.0497 78.7945 25.0497C77.9288 25.0497 77.3874 25.3919 77.3874 25.9877C77.3874 27.7369 82.4916 26.4023 82.4916 30.1353C82.4916 31.7045 81.121 32.9129 79.0649 32.9129C76.8466 32.9129 75.5843 31.5423 75.1697 30.2436Z" fill="white"/>
<path d="M83.1549 30.2436L84.778 29.5581C85.0858 30.533 85.7878 31.3438 87.0506 31.3438C87.9881 31.3438 88.6192 30.8024 88.6192 30.1533C88.6192 28.1875 83.5516 29.4677 83.5516 26.0236C83.5516 24.5986 84.7959 23.5344 86.7617 23.5344C88.4751 23.5344 89.9175 24.4365 90.3147 25.7706L88.6916 26.4562C88.4571 25.5546 87.6094 25.0497 86.7797 25.0497C85.9145 25.0497 85.3732 25.3919 85.3732 25.9877C85.3732 27.7369 90.4768 26.4023 90.4768 30.1353C90.4768 31.7045 89.1062 32.9129 87.0501 32.9129C84.8323 32.9129 83.5695 31.5423 83.1549 30.2436Z" fill="white"/>
<path d="M74.129 27.1059V32.7688H72.2012V31.3803C71.6783 32.2998 70.5591 32.913 69.3517 32.913C67.5481 32.913 66.3037 31.7769 66.3037 30.2262C66.3037 28.4405 67.6923 27.4846 70.4878 27.1988L72.2012 27.0161V26.8893C72.2012 25.7712 71.4258 25.0862 70.2354 25.0862C69.1352 25.0862 68.3598 25.7353 68.2342 26.8175L66.4669 26.4927C66.7553 24.7075 68.3065 23.535 70.2359 23.535C72.5419 23.535 74.129 24.8332 74.129 27.1059ZM72.2012 28.8546V28.4759L70.4699 28.6746C68.991 28.8367 68.2336 29.378 68.2336 30.1714C68.2336 30.8928 68.8289 31.3977 69.7484 31.3977C71.2775 31.3977 72.1811 30.334 72.2012 28.8546Z" fill="white"/>
<path d="M64.6464 25.3746C63.3123 25.3746 62.1398 26.5645 62.1398 29.377V32.7678H60.174V23.6792H62.1398V25.4105C62.6268 24.3283 63.8172 23.535 64.9174 23.535C65.2602 23.535 65.6568 23.5863 65.9272 23.6971L65.819 25.5932C65.4942 25.4464 65.0611 25.3746 64.6464 25.3746Z" fill="white"/>
<path d="M51.7301 31.6143V32.7689H49.7643V20.0001H51.7301V24.8153C52.2709 24.0579 53.3352 23.5325 54.5072 23.5325C57.2483 23.5325 58.8175 25.4824 58.8175 28.2215C58.8175 30.9607 57.2483 32.9105 54.4707 32.9105C53.2628 32.9131 52.1626 32.3718 51.7301 31.6143ZM56.8517 28.2241C56.8517 26.4204 55.8054 25.2479 54.2183 25.2479C52.6312 25.2479 51.5854 26.4199 51.5854 28.2241C51.5854 30.0093 52.6317 31.2002 54.2183 31.2002C55.8049 31.2002 56.8517 30.0098 56.8517 28.2241Z" fill="white"/>
</g>
<defs>
<clipPath id="clip0_4329_206">
<rect width="54" height="12.913" fill="white" transform="translate(37 20)"/>
</clipPath>
</defs>
</svg>
