<svg width="128" height="56" viewBox="0 0 128 56" fill="none" xmlns="http://www.w3.org/2000/svg">
<path d="M54.4859 28.0843C55.0021 28.1351 55.4336 28.3466 55.7806 28.719C56.136 29.0828 56.3137 29.5694 56.3137 30.1786C56.3137 30.9486 56.0598 31.5536 55.5521 31.9936C55.0529 32.4337 54.3632 32.6537 53.4832 32.6537H50.3481V23.7689H53.3182C54.2067 23.7689 54.9048 23.9762 55.4125 24.3908C55.9202 24.797 56.174 25.3597 56.174 26.0789C56.174 27.1959 55.6113 27.8643 54.4859 28.0843ZM53.2547 25.0508H51.8078V27.4878H53.2547C53.7117 27.4878 54.0671 27.382 54.3209 27.1705C54.5832 26.9505 54.7144 26.6501 54.7144 26.2693C54.7144 25.8801 54.5875 25.5797 54.3336 25.3681C54.0798 25.1566 53.7201 25.0508 53.2547 25.0508ZM53.4578 31.3717C53.8978 31.3717 54.2405 31.2532 54.4859 31.0163C54.7313 30.7794 54.854 30.4494 54.854 30.0263C54.854 29.654 54.7271 29.3536 54.4732 29.1251C54.2194 28.8882 53.8851 28.7697 53.4705 28.7697H51.8078V31.3717H53.4578ZM56.9478 32.6537V26.7389H58.3313V27.8813C58.4328 27.4836 58.6317 27.1832 58.9278 26.9801C59.224 26.7685 59.5498 26.6628 59.9052 26.6628C60.1336 26.6628 60.3156 26.6797 60.451 26.7135V27.9828C60.3071 27.9659 60.1252 27.9574 59.9052 27.9574C59.4144 27.9574 59.0294 28.1393 58.7501 28.5032C58.4709 28.8586 58.3313 29.3705 58.3313 30.039V32.6537H56.9478ZM62.2686 25.5966C62.074 25.7912 61.8286 25.8885 61.5325 25.8885C61.2363 25.8885 60.9909 25.7912 60.7963 25.5966C60.6017 25.3935 60.5044 25.1481 60.5044 24.8604C60.5044 24.5727 60.6017 24.3316 60.7963 24.1369C60.9909 23.9339 61.2363 23.8323 61.5325 23.8323C61.8286 23.8323 62.074 23.9339 62.2686 24.1369C62.4632 24.3316 62.5606 24.5727 62.5606 24.8604C62.5606 25.1481 62.4632 25.3935 62.2686 25.5966ZM60.8344 32.6537V26.7389H62.2179V32.6537H60.8344ZM67.5871 23.7689H68.9706V32.6537H67.5871V31.854C67.4179 32.1417 67.1514 32.3744 66.7875 32.5521C66.4321 32.7213 66.0683 32.806 65.6959 32.806C64.7736 32.806 64.0586 32.514 63.5509 31.9302C63.0432 31.3463 62.7893 30.6017 62.7893 29.6963C62.7893 28.7993 63.0559 28.0589 63.589 27.4751C64.1221 26.8828 64.8371 26.5866 65.734 26.5866C66.1317 26.5866 66.4956 26.6712 66.8256 26.8405C67.1556 27.0097 67.4094 27.2424 67.5871 27.5386V23.7689ZM65.899 31.5748C66.466 31.5748 66.8975 31.3971 67.1937 31.0417C67.4983 30.6863 67.6506 30.2378 67.6506 29.6963C67.6506 29.1547 67.4983 28.7063 67.1937 28.3509C66.8975 27.9955 66.466 27.8178 65.899 27.8178C65.3659 27.8178 64.9428 27.9955 64.6298 28.3509C64.3251 28.6978 64.1728 29.1463 64.1728 29.6963C64.1728 30.2463 64.3251 30.699 64.6298 31.0544C64.9428 31.4013 65.3659 31.5748 65.899 31.5748ZM74.337 26.7389H75.7205V32.3998C75.7205 33.5844 75.3651 34.4348 74.6543 34.951C74.1889 35.2979 73.512 35.4714 72.6235 35.4714C71.7604 35.4714 71.0665 35.2937 70.5419 34.9383C69.9411 34.5322 69.628 33.9948 69.6027 33.3264H71.0496C71.1765 33.9948 71.6969 34.3291 72.6108 34.3291C73.1947 34.3291 73.6262 34.1852 73.9054 33.8975C74.1931 33.6183 74.337 33.1529 74.337 32.5013V31.854C74.1678 32.1417 73.9012 32.3744 73.5374 32.5521C73.182 32.7213 72.8181 32.806 72.4458 32.806C71.5488 32.806 70.8381 32.514 70.3134 31.9302C69.7973 31.3379 69.5392 30.5932 69.5392 29.6963C69.5392 28.8078 69.81 28.0674 70.3515 27.4751C70.9015 26.8828 71.6123 26.5866 72.4839 26.5866C72.8816 26.5866 73.2454 26.6712 73.5754 26.8405C73.9054 27.0097 74.1593 27.2424 74.337 27.5386V26.7389ZM72.6489 31.5748C73.1904 31.5748 73.6177 31.3971 73.9308 31.0417C74.2439 30.6778 74.4004 30.2294 74.4004 29.6963C74.4004 29.1632 74.2439 28.719 73.9308 28.3636C73.6177 27.9997 73.1904 27.8178 72.6489 27.8178C72.1327 27.8178 71.7139 27.9955 71.3923 28.3509C71.0792 28.6978 70.9227 29.1463 70.9227 29.6963C70.9227 30.2463 71.0792 30.699 71.3923 31.0544C71.7139 31.4013 72.1327 31.5748 72.6489 31.5748ZM82.0893 29.3917C82.0893 29.544 82.0766 29.7978 82.0513 30.1532H77.6596C77.6766 30.6186 77.8289 30.9782 78.1166 31.2321C78.4043 31.4775 78.802 31.6002 79.3097 31.6002C79.9612 31.6002 80.4012 31.3759 80.6297 30.9275H82.0259C81.9328 31.4775 81.6324 31.9302 81.1247 32.2856C80.6255 32.6325 80.0205 32.806 79.3097 32.806C78.3789 32.806 77.6427 32.5267 77.1012 31.9683C76.5598 31.4098 76.289 30.6525 76.289 29.6963C76.289 28.7486 76.5556 27.9955 77.0885 27.437C77.63 26.8701 78.3535 26.5866 79.2589 26.5866C80.1051 26.5866 80.7862 26.8489 81.3024 27.3735C81.827 27.8897 82.0893 28.5624 82.0893 29.3917ZM77.6596 29.0997H80.7312C80.7228 28.6428 80.5874 28.2916 80.3251 28.0463C80.0712 27.8009 79.7074 27.6782 79.2335 27.6782C78.7512 27.6782 78.3704 27.8093 78.0912 28.0716C77.8119 28.334 77.6681 28.6767 77.6596 29.0997ZM85.2895 32.806C84.384 32.806 83.6648 32.5225 83.1317 31.9556C82.6071 31.3802 82.3448 30.6271 82.3448 29.6963C82.3448 28.7655 82.6071 28.0166 83.1317 27.4497C83.6648 26.8743 84.384 26.5866 85.2895 26.5866C86.1018 26.5866 86.7533 26.7939 87.2441 27.2085C87.7433 27.6147 88.0268 28.1605 88.0945 28.8459H86.711C86.5587 28.1605 86.0849 27.8178 85.2895 27.8178C84.7987 27.8178 84.4137 27.9828 84.1344 28.3128C83.8637 28.6343 83.7283 29.0955 83.7283 29.6963C83.7283 30.2971 83.8637 30.7625 84.1344 31.0925C84.4137 31.414 84.7987 31.5748 85.2895 31.5748C86.0764 31.5748 86.5502 31.2532 86.711 30.6102H88.0945C88.0268 31.2786 87.7433 31.8117 87.2441 32.2094C86.7533 32.6071 86.1018 32.806 85.2895 32.806ZM91.2576 32.806C90.3353 32.806 89.6203 32.514 89.1126 31.9302C88.6049 31.3463 88.351 30.6017 88.351 29.6963C88.351 28.7993 88.6175 28.0589 89.1506 27.4751C89.6837 26.8828 90.3987 26.5866 91.2957 26.5866C91.6934 26.5866 92.0572 26.6712 92.3872 26.8405C92.7172 27.0097 92.9711 27.2424 93.1488 27.5386V26.7389H94.5323V32.6537H93.1488V31.854C92.9796 32.1417 92.713 32.3744 92.3492 32.5521C91.9938 32.7213 91.6299 32.806 91.2576 32.806ZM91.4607 31.5748C92.0276 31.5748 92.4592 31.3971 92.7553 31.0417C93.0599 30.6863 93.2123 30.2378 93.2123 29.6963C93.2123 29.1547 93.0599 28.7063 92.7553 28.3509C92.4592 27.9955 92.0276 27.8178 91.4607 27.8178C90.9276 27.8178 90.5045 27.9955 90.1914 28.3509C89.8868 28.6978 89.7345 29.1463 89.7345 29.6963C89.7345 30.2463 89.8868 30.699 90.1914 31.0544C90.5045 31.4013 90.9276 31.5748 91.4607 31.5748ZM95.545 32.6537V26.7389H96.9285V27.8813C97.0301 27.4836 97.2289 27.1832 97.5251 26.9801C97.8212 26.7685 98.147 26.6628 98.5024 26.6628C98.7309 26.6628 98.9128 26.6797 99.0482 26.7135V27.9828C98.9043 27.9659 98.7224 27.9574 98.5024 27.9574C98.0116 27.9574 97.6266 28.1393 97.3474 28.5032C97.0682 28.8586 96.9285 29.3705 96.9285 30.039V32.6537H95.545ZM103.537 23.7689H104.921V32.6537H103.537V31.854C103.368 32.1417 103.101 32.3744 102.737 32.5521C102.382 32.7213 102.018 32.806 101.646 32.806C100.724 32.806 100.009 32.514 99.5009 31.9302C98.9932 31.3463 98.7393 30.6017 98.7393 29.6963C98.7393 28.7993 99.0059 28.0589 99.539 27.4751C100.072 26.8828 100.787 26.5866 101.684 26.5866C102.082 26.5866 102.446 26.6712 102.776 26.8405C103.106 27.0097 103.359 27.2424 103.537 27.5386V23.7689ZM101.849 31.5748C102.416 31.5748 102.847 31.3971 103.144 31.0417C103.448 30.6863 103.601 30.2378 103.601 29.6963C103.601 29.1547 103.448 28.7063 103.144 28.3509C102.847 27.9955 102.416 27.8178 101.849 27.8178C101.316 27.8178 100.893 27.9955 100.58 28.3509C100.275 28.6978 100.123 29.1463 100.123 29.6963C100.123 30.2463 100.275 30.699 100.58 31.0544C100.893 31.4013 101.316 31.5748 101.849 31.5748Z" fill="white"/>
<path fill-rule="evenodd" clip-rule="evenodd" d="M28.1531 19.6504C28.1531 18.6537 28.9647 17.8457 29.9659 17.8457H40.5215C41.5227 17.8457 42.3343 18.6537 42.3343 19.6504V31.0905C41.2907 30.6913 40.6531 30.5877 40.6531 30.5877C40.6531 30.5877 39.2298 30.2836 38.1152 30.1518C37.0671 30.0279 35.4164 30.0094 35.4164 30.0094C35.4164 30.0094 31.4616 30.0086 28.7854 30.8902C28.5639 30.9632 28.3533 31.0373 28.1531 31.1122V19.6504ZM28.1531 31.9895V32.0518C24.578 33.2432 23.9224 34.6793 23.9224 34.6793C23.9224 34.6793 25.0517 33.7547 28.1531 32.9564V37.1952C28.1531 38.1919 28.9647 39 29.9659 39H40.5215C41.5227 39 42.3343 38.1919 42.3343 37.1952V32.9187C44.7013 33.5507 46.6352 34.6615 46.6352 34.6615C46.6352 34.6615 46.2034 33.7362 44.2325 32.7932C43.4982 32.4418 42.8539 32.193 42.3343 32.019V31.9643C42.0634 31.8811 41.7851 31.8038 41.5021 31.7354C39.8461 31.2907 37.8969 30.9579 35.4164 30.997C35.2654 30.9993 35.1214 31.0014 34.9833 31.0034C33.0827 31.0308 32.2926 31.0422 29.7416 31.5931C29.1567 31.7194 28.6285 31.8532 28.1531 31.9895Z" fill="white"/>
</svg>
