<svg width="128" height="56" viewBox="0 0 128 56" fill="none" xmlns="http://www.w3.org/2000/svg">
<path d="M41.5643 31.5374L43.0751 30.4234L41.9501 28.8572L43.7983 28.2437L43.1876 26.4676L41.3554 27.065V25.079H39.4268V27.065L37.5947 26.4676L37 28.2437L38.8482 28.8572L37.7232 30.4234L39.234 31.5374L40.3911 29.9551L41.5643 31.5374Z" fill="white"/>
<path d="M51.051 32.8555C52.2778 32.8555 53.3553 32.6227 54.2836 32.1571C55.2118 31.6916 55.8496 31.0528 56.197 30.2408L52.7447 29.4125C52.6035 29.6507 52.381 29.8348 52.077 29.9647C51.773 30.0946 51.4202 30.1596 51.0185 30.1596C50.5516 30.1596 50.1554 30.0757 49.8297 29.9079C49.504 29.74 49.2706 29.4991 49.1294 29.1852H56.311V28.4056C56.311 27.0739 55.8279 25.9831 54.8617 25.1332C53.8955 24.2833 52.609 23.8583 51.0022 23.8583C49.4063 23.8583 48.0899 24.2806 47.0531 25.1251C46.0163 25.9696 45.4979 27.0414 45.4979 28.3407C45.4979 29.6832 46.0082 30.7713 47.0287 31.605C48.0492 32.4386 49.39 32.8555 51.051 32.8555ZM52.5655 27.3825H49.1783C49.3303 27.0901 49.5583 26.8655 49.8623 26.7085C50.1662 26.5515 50.5299 26.473 50.9533 26.473C51.3876 26.473 51.7513 26.5596 52.0444 26.7329C52.3375 26.9061 52.5113 27.1226 52.5655 27.3825ZM61.2942 32.8555C61.8804 32.8555 62.4233 32.7635 62.9227 32.5794C63.4221 32.3953 63.8075 32.1517 64.0789 31.8486V32.6606H67.6941V21H64.0789V24.8652C63.8075 24.5621 63.4221 24.3185 62.9227 24.1344C62.4233 23.9503 61.8804 23.8583 61.2942 23.8583C59.9263 23.8583 58.827 24.2779 57.9965 25.1169C57.166 25.956 56.7507 27.036 56.7507 28.3569C56.7507 29.6778 57.166 30.7578 57.9965 31.5969C58.827 32.4359 59.9263 32.8555 61.2942 32.8555ZM62.255 30.0297C61.6905 30.0297 61.2291 29.8781 60.8708 29.5749C60.5125 29.2718 60.3334 28.8658 60.3334 28.3569C60.3334 27.848 60.5125 27.442 60.8708 27.1389C61.2291 26.8357 61.6905 26.6841 62.255 26.6841C62.8087 26.6841 63.2647 26.8357 63.6229 27.1389C63.9812 27.442 64.1603 27.8372 64.1603 28.3244V28.3894C64.1603 28.8766 63.9812 29.2718 63.6229 29.5749C63.2647 29.8781 62.8087 30.0297 62.255 30.0297ZM73.4427 35.6163C75.3317 35.6163 76.8028 35.2266 77.8559 34.447C78.9089 33.6675 79.4355 32.5632 79.4355 31.134V24.0532H75.8203V24.8165C75.5488 24.5242 75.1634 24.2914 74.664 24.1182C74.1646 23.9449 73.6218 23.8583 73.0355 23.8583C71.6785 23.8583 70.582 24.2562 69.746 25.052C68.9101 25.8478 68.4921 26.8736 68.4921 28.1295C68.4921 29.3746 68.9046 30.3842 69.7297 31.1584C70.5548 31.9325 71.6568 32.3196 73.0355 32.3196C73.6218 32.3196 74.1646 32.2356 74.664 32.0678C75.1634 31.9 75.5488 31.6699 75.8203 31.3776V31.5075C75.8203 31.9514 75.6031 32.3033 75.1689 32.5632C74.7346 32.823 74.1863 32.9529 73.5241 32.9529C73.0138 32.9529 72.5877 32.8961 72.2457 32.7824C71.9038 32.6687 71.6079 32.482 71.3582 32.2221L68.5084 33.6675C68.8775 34.2846 69.5017 34.7637 70.3811 35.1048C71.2605 35.4458 72.281 35.6163 73.4427 35.6163ZM73.9964 29.7211C73.4318 29.7211 72.9704 29.5776 72.6121 29.2907C72.2539 29.0038 72.0747 28.6167 72.0747 28.1295C72.0747 27.6423 72.2539 27.2553 72.6121 26.9683C72.9704 26.6814 73.4318 26.538 73.9964 26.538C74.55 26.538 75.006 26.6841 75.3643 26.9765C75.7225 27.2688 75.9017 27.6423 75.9017 28.097V28.162C75.9017 28.6167 75.7225 28.9903 75.3643 29.2826C75.006 29.5749 74.55 29.7211 73.9964 29.7211ZM85.7866 32.8555C87.0133 32.8555 88.0909 32.6227 89.0191 32.1571C89.9473 31.6916 90.5852 31.0528 90.9326 30.2408L87.4802 29.4125C87.339 29.6507 87.1165 29.8348 86.8125 29.9647C86.5085 30.0946 86.1557 30.1596 85.754 30.1596C85.2872 30.1596 84.8909 30.0757 84.5652 29.9079C84.2395 29.74 84.0061 29.4991 83.8649 29.1852H91.0466V28.4056C91.0466 27.0739 90.5634 25.9831 89.5972 25.1332C88.631 24.2833 87.3445 23.8583 85.7377 23.8583C84.1418 23.8583 82.8254 24.2806 81.7886 25.1251C80.7518 25.9696 80.2334 27.0414 80.2334 28.3407C80.2334 29.6832 80.7437 30.7713 81.7642 31.605C82.7847 32.4386 84.1255 32.8555 85.7866 32.8555ZM87.301 27.3825H83.9138C84.0658 27.0901 84.2938 26.8655 84.5978 26.7085C84.9018 26.5515 85.2654 26.473 85.6888 26.473C86.1231 26.473 86.4868 26.5596 86.7799 26.7329C87.0731 26.9061 87.2468 27.1226 87.301 27.3825Z" fill="white"/>
</svg>
