<svg width="128" height="56" viewBox="0 0 128 56" fill="none" xmlns="http://www.w3.org/2000/svg">
<g clip-path="url(#clip0_4329_155)">
<path d="M39.9282 32.7086C39.0086 32.7086 38.1796 32.5013 37.4413 32.0869C36.7031 31.6595 36.1202 31.0831 35.6928 30.3577C35.2653 29.6324 35.0516 28.8099 35.0516 27.8903C35.0516 26.9837 35.2589 26.1677 35.6733 25.4423C36.1008 24.717 36.6707 24.1471 37.3831 23.7326C38.1084 23.3052 38.9179 23.0915 39.8116 23.0915C40.6665 23.0915 41.4177 23.2858 42.0653 23.6743C42.7259 24.0629 43.2375 24.6004 43.6002 25.2869C43.9758 25.9734 44.1636 26.7505 44.1636 27.6183C44.1636 27.7479 44.1571 27.8903 44.1442 28.0458C44.1312 28.1882 44.1053 28.3566 44.0664 28.5509H36.2756V27.0938H43.1339L42.4927 27.6572C42.4927 27.0355 42.3826 26.5109 42.1625 26.0835C41.9423 25.6431 41.6314 25.3063 41.2299 25.0732C40.8284 24.8271 40.3426 24.7041 39.7728 24.7041C39.1769 24.7041 38.6524 24.8336 38.199 25.0926C37.7457 25.3517 37.396 25.7143 37.1499 26.1806C36.9038 26.6469 36.7808 27.1974 36.7808 27.832C36.7808 28.4796 36.9103 29.0496 37.1693 29.5417C37.4284 30.021 37.7975 30.3966 38.2768 30.6686C38.756 30.9276 39.3065 31.0572 39.9282 31.0572C40.4463 31.0572 40.919 30.9665 41.3465 30.7852C41.7869 30.6039 42.1625 30.3319 42.4733 29.9692L43.6002 31.1155C43.1598 31.6336 42.6158 32.0286 41.9682 32.3006C41.3335 32.5726 40.6535 32.7086 39.9282 32.7086ZM52.5981 32.5143V27.1326C52.5981 26.4332 52.378 25.8568 51.9376 25.4035C51.4972 24.9502 50.9273 24.7235 50.2279 24.7235C49.7616 24.7235 49.3471 24.8271 48.9844 25.0343C48.6217 25.2416 48.3368 25.5265 48.1296 25.8892C47.9223 26.2519 47.8187 26.6663 47.8187 27.1326L47.0999 26.7246C47.0999 26.0252 47.2553 25.4035 47.5662 24.8595C47.877 24.3155 48.3109 23.8881 48.8679 23.5772C49.4248 23.2534 50.053 23.0915 50.7524 23.0915C51.4518 23.0915 52.0671 23.2663 52.5981 23.6161C53.1421 23.9658 53.5695 24.4256 53.8804 24.9955C54.1913 25.5524 54.3467 26.1482 54.3467 26.7829V32.5143H52.5981ZM46.0702 32.5143V23.2858H47.8187V32.5143H46.0702ZM60.9301 32.7086C60.0234 32.7086 59.2009 32.4949 58.4627 32.0674C57.7373 31.64 57.161 31.0636 56.7335 30.3383C56.319 29.6 56.1118 28.784 56.1118 27.8903C56.1118 26.9837 56.319 26.1677 56.7335 25.4423C57.161 24.717 57.7373 24.1471 58.4627 23.7326C59.2009 23.3052 60.0234 23.0915 60.9301 23.0915C61.6424 23.0915 62.303 23.2275 62.9118 23.4995C63.5205 23.7585 64.0451 24.1406 64.4855 24.6458L63.3198 25.8115C63.0348 25.4747 62.6851 25.2222 62.2706 25.0538C61.8691 24.8724 61.4222 24.7818 60.9301 24.7818C60.3472 24.7818 59.8291 24.9178 59.3758 25.1898C58.9224 25.4488 58.5663 25.8115 58.3072 26.2778C58.0482 26.744 57.9187 27.2816 57.9187 27.8903C57.9187 28.4991 58.0482 29.0366 58.3072 29.5029C58.5663 29.9692 58.9224 30.3383 59.3758 30.6103C59.8291 30.8823 60.3472 31.0183 60.9301 31.0183C61.4222 31.0183 61.8691 30.9341 62.2706 30.7657C62.6851 30.5844 63.0413 30.3253 63.3392 29.9886L64.4855 31.1543C64.0581 31.6465 63.5335 32.0286 62.9118 32.3006C62.303 32.5726 61.6424 32.7086 60.9301 32.7086ZM70.2459 32.7086C69.3392 32.7086 68.5232 32.4949 67.7979 32.0674C67.0725 31.64 66.4962 31.0636 66.0688 30.3383C65.6413 29.6 65.4276 28.7776 65.4276 27.8709C65.4276 26.9772 65.6413 26.1741 66.0688 25.4618C66.4962 24.7364 67.0725 24.1601 67.7979 23.7326C68.5232 23.3052 69.3392 23.0915 70.2459 23.0915C71.1396 23.0915 71.9491 23.3052 72.6744 23.7326C73.4127 24.1471 73.9956 24.717 74.423 25.4423C74.8504 26.1677 75.0641 26.9772 75.0641 27.8709C75.0641 28.7776 74.8504 29.6 74.423 30.3383C73.9956 31.0636 73.4127 31.64 72.6744 32.0674C71.9491 32.4949 71.1396 32.7086 70.2459 32.7086ZM70.2459 31.0183C70.8287 31.0183 71.3468 30.8823 71.8002 30.6103C72.2535 30.3383 72.6097 29.9692 72.8687 29.5029C73.1278 29.0236 73.2573 28.4796 73.2573 27.8709C73.2573 27.2751 73.1213 26.744 72.8493 26.2778C72.5902 25.8115 72.234 25.4488 71.7807 25.1898C71.3403 24.9178 70.8287 24.7818 70.2459 24.7818C69.663 24.7818 69.1449 24.9178 68.6916 25.1898C68.2382 25.4488 67.8821 25.8115 67.623 26.2778C67.364 26.744 67.2345 27.2751 67.2345 27.8709C67.2345 28.4796 67.364 29.0236 67.623 29.5029C67.8821 29.9692 68.2382 30.3383 68.6916 30.6103C69.1449 30.8823 69.663 31.0183 70.2459 31.0183ZM77.0343 32.5143V23.2858H78.7829V32.5143H77.0343ZM78.7829 27.2492L78.1223 26.9578C78.1223 25.7791 78.3943 24.8401 78.9383 24.1406C79.4823 23.4412 80.2659 23.0915 81.2891 23.0915C81.7554 23.0915 82.1764 23.1757 82.552 23.3441C82.9276 23.4995 83.2773 23.765 83.601 24.1406L82.4548 25.3258C82.2606 25.1185 82.0468 24.9696 81.8137 24.8789C81.5806 24.7882 81.3086 24.7429 80.9977 24.7429C80.3501 24.7429 79.819 24.9502 79.4046 25.3646C78.9901 25.7791 78.7829 26.4073 78.7829 27.2492ZM88.803 32.7086C87.8835 32.7086 87.0544 32.5013 86.3161 32.0869C85.5778 31.6595 84.995 31.0831 84.5675 30.3577C84.1401 29.6324 83.9264 28.8099 83.9264 27.8903C83.9264 26.9837 84.1338 26.1677 84.5481 25.4423C84.9755 24.717 85.5453 24.1471 86.2578 23.7326C86.983 23.3052 87.7927 23.0915 88.6864 23.0915C89.5412 23.0915 90.2926 23.2858 90.9401 23.6743C91.6006 24.0629 92.1121 24.6004 92.4749 25.2869C92.8504 25.9734 93.0384 26.7505 93.0384 27.6183C93.0384 27.7479 93.032 27.8903 93.0189 28.0458C93.0058 28.1882 92.9801 28.3566 92.9412 28.5509H85.1504V27.0938H92.0086L91.3675 27.6572C91.3675 27.0355 91.2573 26.5109 91.0372 26.0835C90.8172 25.6431 90.5063 25.3063 90.1047 25.0732C89.703 24.8271 89.2173 24.7041 88.6475 24.7041C88.0516 24.7041 87.527 24.8336 87.0738 25.0926C86.6206 25.3517 86.2709 25.7143 86.0247 26.1806C85.7784 26.6469 85.6555 27.1974 85.6555 27.832C85.6555 28.4796 85.7852 29.0496 86.0441 29.5417C86.303 30.021 86.6721 30.3966 87.1515 30.6686C87.6309 30.9276 88.1812 31.0572 88.803 31.0572C89.3212 31.0572 89.7938 30.9665 90.2212 30.7852C90.6618 30.6039 91.0372 30.3319 91.3481 29.9692L92.4749 31.1155C92.0344 31.6336 91.4904 32.0286 90.8429 32.3006C90.2081 32.5726 89.5281 32.7086 88.803 32.7086Z" fill="white"/>
</g>
<defs>
<clipPath id="clip0_4329_155">
<rect width="58.2854" height="10.2" fill="white" transform="translate(34.8573 22.8)"/>
</clipPath>
</defs>
</svg>
