<svg width="184" height="28" viewBox="0 0 184 28" fill="none" xmlns="http://www.w3.org/2000/svg">
<path d="M161.907 4.22129C161.907 2.41891 162.466 1.7974 163.398 1.7974C164.33 1.7974 165.076 2.1703 165.946 4.22129L171.229 16.2165V23.7989C171.229 25.6013 170.483 26.0985 168.432 26.3471V26.8443H178.19V26.3471C176.077 26.0985 175.393 25.5391 175.393 23.7989V16.2165L180.49 4.65635C181.484 2.41891 182.479 1.9217 183.97 1.6731V1.17589H176.823V1.6731C179.247 1.9217 180.117 2.60536 179.433 4.22129L174.958 14.4762L170.359 3.97269C169.738 2.54321 170.111 2.10815 172.783 1.73525V1.23804H157.432V1.73525C159.856 2.10815 160.601 2.54321 160.601 4.28344V18.3296L149.352 1.23804H143.821V1.73525C145.623 1.98385 146.182 2.54321 146.182 4.28344V23.8611C146.182 25.6635 145.685 26.285 145.064 26.285C144.504 26.285 144.193 26.0364 143.386 23.8611L135.057 1.11373H134.56L126.543 22.8666C125.672 25.2905 124.305 26.0985 122.938 26.4093V26.9065H130.272V26.4093C127.723 26.1607 126.915 25.1662 127.475 23.5503L129.277 18.5782H136.86L138.6 23.2396C139.346 25.3527 138.911 25.9742 136.735 26.3471V26.8443H150.657V26.3471C148.233 25.9742 147.488 25.5391 147.488 23.7989V6.27228L161.099 26.9065H161.907V4.22129ZM63.7699 13.979C63.7699 6.02368 67.5611 1.85955 71.9738 1.85955C74.5842 1.85955 76.2623 2.41891 77.2567 3.47548C78.0025 4.22129 78.5619 5.27786 79.1834 6.95594H79.6806V1.61094C77.1324 1.11373 74.8328 0.802979 72.5332 0.802979C65.883 0.802979 58.9842 5.09141 58.9842 13.979C58.9842 22.8666 65.883 27.1551 72.0981 27.1551C74.8328 27.1551 77.2567 26.72 79.5563 26.0364L80.3021 21.0021L79.867 20.8778C79.3077 21.9344 78.624 22.8666 77.8782 23.6746C76.2623 25.2905 74.087 26.1607 71.9117 26.1607C67.6854 26.0985 63.7699 22.0587 63.7699 13.979ZM118.898 14.7248C118.339 14.7248 117.593 14.6627 116.847 14.5384V2.10815H118.898C122.316 2.10815 123.808 3.91054 123.808 8.38542C123.808 12.9225 122.254 14.7248 118.898 14.7248ZM39.0337 1.17589V7.32885H39.5309C40.2767 3.41333 41.8305 2.1703 44.4409 2.1703H45.6839V23.7989C45.6839 25.6013 44.9381 26.0985 42.8871 26.3471V26.8443H52.6448V26.3471C50.5317 26.0985 49.848 25.5391 49.848 23.7989V2.10815H51.091C53.7014 2.10815 55.2552 3.35118 56.001 7.2667H56.4982V1.11373H39.0337V1.17589ZM31.2648 27.1551C35.4911 27.1551 39.966 24.7312 39.966 19.7591C39.966 16.838 38.4122 14.4141 35.6775 12.9225L30.8297 10.25C28.2815 8.82048 27.5357 7.51531 27.5357 5.65077C27.5357 3.53763 29.0895 1.85955 32.0106 1.85955C33.4401 1.85955 34.4967 2.23246 35.3668 3.04042C36.1126 3.78624 36.8584 5.02926 37.5421 7.2667H37.9771V1.61094C36.2369 1.11373 34.4345 0.802979 32.3214 0.802979C28.1572 0.802979 25.0497 3.41333 25.0497 7.82606C25.0497 10.6229 26.6035 13.1711 29.1517 14.6627L33.6265 17.1487C36.1747 18.5782 36.9827 19.9455 36.9827 21.9965C36.9827 24.4204 34.4967 26.1607 31.762 26.1607C29.9596 26.1607 28.468 25.5391 27.4114 24.4826C26.7278 23.7989 25.9819 22.7423 25.4847 21.375H28.4058V20.8778C27.5979 20.6914 27.1007 20.5671 26.417 18.9511L20.6991 5.34001H20.2019L14.6083 18.6404C13.8625 20.4428 13.3653 20.7535 12.4951 20.8778V21.375H17.4672V20.8778C15.6649 20.6914 15.1676 19.8212 15.6027 18.7025L16.4728 16.5894H21.5071L22.6258 19.1997C23.123 20.3806 22.3772 20.6914 20.5748 20.8157V21.3129H24.5525V26.2228C26.5413 26.7822 29.0895 27.1551 31.2648 27.1551ZM94.4104 26.9065L101.806 6.33443L102.366 23.8611C102.428 25.6013 101.744 26.0985 99.6311 26.3471V26.8443H120.017V26.3471C117.593 25.9742 116.847 25.5391 116.847 23.7989V15.5328C117.655 15.6571 118.463 15.7193 119.084 15.7193C123.994 15.7193 128.221 13.9169 128.221 8.44757C128.221 2.97827 123.994 1.17589 119.084 1.17589H110.321V1.6731C112.123 1.9217 112.683 2.48106 112.683 4.22129V23.7989C112.683 25.6013 111.937 26.3471 109.886 26.3471H109.824C107.649 26.3471 106.716 25.5391 106.654 23.8611L105.908 4.28344C105.846 2.48106 106.468 1.9217 108.394 1.6731V1.17589H102.366L95.7777 19.6348L89.1897 1.17589H82.726V1.6731C84.6527 1.9217 85.2742 2.54321 85.212 4.28344L84.5284 23.0531C84.4662 24.9176 83.4718 26.0364 81.6694 26.3471V26.8443H88.506V26.3471C86.7658 26.0985 85.7714 24.9798 85.8335 23.0531L86.3929 5.96153L93.9132 26.8443L94.4104 26.9065ZM74.5842 21.4993C77.8782 21.4993 82.1045 18.5782 82.1045 13.979C82.1045 9.44199 77.9403 6.45874 74.5842 6.45874C71.2902 6.45874 67.0639 9.37984 67.0639 13.979C67.0639 18.5161 71.228 21.4993 74.5842 21.4993ZM74.5842 7.51531C76.6973 7.51531 78.1268 9.25554 78.1268 13.979C78.1268 18.7647 76.6352 20.4428 74.5842 20.4428C72.471 20.4428 71.0416 18.7025 71.0416 13.979C71.0416 9.19339 72.471 7.51531 74.5842 7.51531ZM136.549 17.5216H129.65L133.068 8.07467L136.549 17.5216ZM21.1963 15.595H16.97L19.0832 10.4364L21.1963 15.595ZM13.1167 16.9001H13.6139V9.19339H13.1167C12.3087 11.928 11.5007 12.5496 10.0091 12.5496H7.15014V2.10815H11.6872C14.2975 2.10815 15.8513 3.35118 16.5971 7.2667H17.0943V1.11373H0.624268V1.61094C2.42665 1.85955 2.98601 2.41891 2.98601 4.15914V23.7368C2.98601 25.5391 2.42665 26.0364 0.624268 26.285V26.7822H10.3199V26.285C7.89596 25.9121 7.15014 25.477 7.15014 23.7368V13.4818H10.0091C11.4386 13.544 12.3087 14.1655 13.1167 16.9001Z" fill="#535366"/>
</svg>
