<svg width="128" height="56" viewBox="0 0 128 56" fill="none" xmlns="http://www.w3.org/2000/svg">
<g clip-path="url(#clip0_4329_346)">
<path d="M93.0201 33.3018C95.3566 36.2563 100.256 36.5879 103.316 34.0555C106.557 31.3723 107.009 26.5637 104.311 23.3227C104.25 23.2474 104.19 23.172 104.13 23.0966C101.642 20.2929 96.7434 19.72 94.3165 22.0113C96.3967 23.6845 98.0699 25.825 100.708 26.7747C101.567 27.0762 102.215 27.8902 102.11 28.7946C102.004 29.7895 102.366 30.3925 103.029 30.9653C103.18 31.1311 103.316 31.2969 103.436 31.4929C102.366 32.4878 101.266 33.0154 99.8185 32.5028C99.1402 32.2617 98.8538 32.0205 98.9593 31.2969C99.0648 30.5432 99.0799 29.7895 99.1402 29.0358L98.8538 29.0057C98.7181 29.7895 98.5372 30.5583 98.4618 31.3421C98.3865 32.0657 98.1302 32.6385 97.3464 32.6687C96.5474 32.6988 95.8389 32.337 95.6731 31.508C95.5525 30.905 95.643 30.2417 95.7485 29.6237C95.9143 28.5384 96.1555 27.453 96.3515 26.3828L96.0349 26.3074C95.839 27.0159 95.643 27.7394 95.4169 28.5384C94.422 27.5887 93.4573 26.8049 92.0252 27.5133C90.9851 28.0258 90.8796 28.2821 91.5127 29.2167C91.7087 29.5031 91.9197 29.7895 92.1157 30.091C92.8694 31.1763 93.5175 32.3521 94.9948 32.6234C95.1757 32.6536 95.3264 32.9551 95.6731 33.347L93.0201 33.3018ZM66.8666 31.4929V24.0915C65.7059 23.7147 64.9974 24.1217 64.5 25.1467C64.1533 25.8853 63.6408 26.5486 63.2187 27.242C63.083 27.1666 63.0077 27.1365 62.9926 27.0913C62.5555 26.4129 62.1334 25.7346 61.7113 25.0563C60.9425 23.8202 60.8822 23.8051 59.405 24.1367V31.4929H60.837V26.2471L63.1433 29.6991L65.3442 26.3979L65.5401 26.4883V31.508L66.8666 31.4929ZM43.6827 24.8452C42.2055 23.6544 40.2006 23.5187 38.7083 24.4081C37.3366 25.2673 36.6281 26.8802 36.9296 28.4781C37.1858 29.9403 37.9998 30.9502 39.4017 31.4175C40.9393 31.915 42.3864 31.6587 43.7129 30.7241C43.8636 30.6186 43.9692 30.4528 43.9842 30.2568C44.0144 29.277 43.9993 28.2972 43.9993 27.3324H40.9543V28.4781H42.8537C42.5974 29.1112 42.522 29.7594 42.1753 30.0156C41.2408 30.6789 39.8539 30.4075 39.0852 29.5785C38.2561 28.659 38.1355 27.3023 38.8289 26.2622C39.462 25.2824 40.5323 24.9206 41.693 25.3125C42.0698 25.4482 42.4316 25.6441 42.8537 25.825L43.6827 24.8452ZM75.9714 31.4024C74.9915 29.1263 74.0117 26.8651 73.0771 24.589C72.8661 24.0614 72.5948 23.9559 72.0672 23.9408C71.5396 23.9257 71.2683 24.0764 71.0723 24.589C70.2131 26.6993 69.2936 28.7946 68.4042 30.8899C68.3439 31.0708 68.2836 31.2517 68.2534 31.4477C69.2785 31.7642 69.791 31.3572 70.0774 30.4377C70.3638 29.5483 70.7557 28.7042 71.1024 27.845C71.3888 27.1516 71.6753 26.4732 72.0521 25.5839C72.7757 27.3777 73.4691 28.9001 74.0117 30.4678C74.3735 31.4477 74.9162 31.7793 75.9714 31.4024ZM82.8451 24.0312H76.71V25.3577H79.0465V31.4778H80.4785V25.2974H82.8451V24.0312ZM30.1312 27.1365V31.4778H35.7086V30.2116H31.5783V28.3575H35.1358V27.1365H30.1312ZM84.1415 27.1365V31.4929H89.7038V30.1814H85.6489V28.3424H89.2064V27.1365H84.1415ZM50.9635 25.3276V31.4627H52.3503V25.2824H54.6567V24.0463H48.5667V25.3125L50.9635 25.3276ZM23.5137 31.4778H28.7896V30.2116H24.9457V24.0312H23.5137V31.4778ZM45.778 24.0162V31.4778H47.1196V24.0162H45.778ZM57.4454 31.4778V24.0463H56.0585V31.4778H57.4454ZM29.9051 25.2221H35.4523V24.0463H29.9051V25.2221ZM89.4777 24.0614H83.9305V25.2221H89.4777V24.0614Z" fill="#FDFDFE"/>
</g>
<defs>
<clipPath id="clip0_4329_346">
<rect width="83.661" height="15.873" fill="white" transform="translate(22.6695 20.127)"/>
</clipPath>
</defs>
</svg>
