<svg width="128" height="56" viewBox="0 0 128 56" fill="none" xmlns="http://www.w3.org/2000/svg">
<g clip-path="url(#clip0_4329_393)">
<path d="M42.9622 33.2381C43.3535 33.298 43.7488 33.3287 44.1446 33.3299C44.5165 33.3286 44.8878 33.2979 45.2548 33.2381L45.5062 25.6105L47.9435 30.926C48.1033 30.956 48.2646 30.9767 48.4268 30.988C48.5818 30.9983 48.7379 31.004 48.8929 31.004C49.072 31.004 49.2511 30.996 49.4302 30.9799C49.6093 30.965 49.7826 30.9466 49.9503 30.926L52.5655 25.7185L52.8881 33.2381C53.2854 33.2994 53.6869 33.3301 54.0889 33.3299C54.5206 33.328 54.9517 33.2973 55.3793 33.2381L54.7697 22.1596C54.3367 22.0965 53.8996 22.0654 53.4621 22.0666C53.0481 22.0634 52.6346 22.0945 52.2257 22.1596L49.1799 28.507L46.2226 22.1596C45.766 22.0974 45.3058 22.0663 44.8449 22.0666C44.3842 22.0679 43.924 22.099 43.4673 22.1596L42.9656 33.2381H42.9622ZM42.9622 33.2381C43.3535 33.298 43.7488 33.3287 44.1446 33.3299C44.5165 33.3286 44.8878 33.2979 45.2548 33.2381L45.5062 25.6105L47.9435 30.926C48.1033 30.956 48.2646 30.9767 48.4268 30.988C48.5818 30.9983 48.7379 31.004 48.8929 31.004C49.072 31.004 49.2511 30.996 49.4302 30.9799C49.6093 30.965 49.7826 30.9466 49.9503 30.926L52.5655 25.7185L52.8881 33.2381C53.2854 33.2994 53.6869 33.3301 54.0889 33.3299C54.5206 33.328 54.9517 33.2973 55.3793 33.2381L54.7697 22.1596C54.3367 22.0965 53.8996 22.0654 53.4621 22.0666C53.0481 22.0634 52.6346 22.0945 52.2257 22.1596L49.1799 28.507L46.2226 22.1596C45.766 22.0974 45.3058 22.0663 44.8449 22.0666C44.3842 22.0679 43.924 22.099 43.4673 22.1596L42.9656 33.2381H42.9622Z" fill="white"/>
<path d="M62.0552 24.5016L64.1481 31.0167L64.8691 33.2381C65.3084 33.2999 65.7514 33.3305 66.195 33.33C66.6741 33.3289 67.1526 33.2982 67.6278 33.2381L63.5959 22.1596C63.3215 22.1286 63.0701 22.1056 62.8439 22.0895C62.6178 22.0735 62.3847 22.0666 62.1448 22.0666C61.8704 22.0666 61.619 22.0746 61.3928 22.0895C61.1666 22.1045 60.9267 22.1286 60.6753 22.1596L56.6078 33.2381C57.0414 33.2994 57.4787 33.3301 57.9166 33.33C58.3313 33.3289 58.7454 33.2967 59.1553 33.2335L62.0552 24.5016ZM66.195 33.33C66.6741 33.3289 67.1526 33.2982 67.6278 33.2381L63.5959 22.1596C63.3215 22.1286 63.0701 22.1056 62.8439 22.0895C62.6178 22.0735 62.3847 22.0666 62.1448 22.0666" fill="white"/>
<path d="M68.7184 33.2381C69.0979 33.3 69.4818 33.3307 69.8664 33.3299C70.2562 33.3301 70.6455 33.2993 71.0305 33.2381V26.196L76.0474 33.2381C76.4092 33.2964 76.775 33.3271 77.1415 33.3299C77.4878 33.3262 77.8332 33.2955 78.1748 33.2381V22.1595C77.8196 22.0968 77.4596 22.0657 77.099 22.0665C76.6852 22.068 76.272 22.0991 75.8626 22.1595V29.2165L70.8882 22.1595C70.5211 22.0988 70.1499 22.0677 69.778 22.0665C69.4235 22.0682 69.0699 22.0993 68.7207 22.1595V33.2381H68.7184ZM68.7184 33.2381C69.0979 33.3 69.4818 33.3307 69.8664 33.3299C70.2562 33.3301 70.6455 33.2993 71.0305 33.2381V26.196L76.0474 33.2381C76.4092 33.2964 76.775 33.3271 77.1415 33.3299C77.4878 33.3262 77.8332 33.2955 78.1748 33.2381V22.1595C77.8196 22.0968 77.4596 22.0657 77.099 22.0665C76.6852 22.068 76.272 22.0991 75.8626 22.1595V29.2165L70.8882 22.1595C70.5211 22.0988 70.1499 22.0677 69.778 22.0665C69.4235 22.0682 69.0699 22.0993 68.7207 22.1595V33.2381H68.7184Z" fill="white"/>
<path d="M79.425 33.2381C79.8045 33.2999 80.1886 33.3306 80.573 33.3299C80.9629 33.3301 81.3522 33.2993 81.7371 33.2381V26.196L86.7552 33.2381C87.1167 33.2965 87.482 33.3272 87.8481 33.3299C88.1944 33.3262 88.5399 33.2955 88.8814 33.2381V22.1595C88.5266 22.0968 88.1671 22.0657 87.8068 22.0665C87.3931 22.0679 86.9798 22.099 86.5704 22.1595V29.2165L81.589 22.1595C81.2218 22.0988 80.8501 22.0677 80.4778 22.0665C80.1234 22.0683 79.7698 22.0994 79.4204 22.1595V33.2381H79.425ZM79.425 33.2381C79.8045 33.2999 80.1886 33.3306 80.573 33.3299C80.9629 33.3301 81.3522 33.2993 81.7371 33.2381V26.196L86.7552 33.2381C87.1167 33.2965 87.482 33.3272 87.8481 33.3299C88.1944 33.3262 88.5399 33.2955 88.8814 33.2381V22.1595C88.5266 22.0968 88.1671 22.0657 87.8068 22.0665C87.3931 22.0679 86.9798 22.099 86.5704 22.1595V29.2165L81.589 22.1595C81.2218 22.0988 80.8501 22.0677 80.4778 22.0665C80.1234 22.0683 79.7698 22.0994 79.4204 22.1595V33.2381H79.425Z" fill="white"/>
<path d="M95.5113 24.5015L97.6042 31.0166L98.3263 33.2381C98.7655 33.2998 99.2087 33.3305 99.6523 33.3299C100.131 33.3289 100.61 33.2982 101.085 33.2381L97.0543 22.1595C96.7787 22.1285 96.5285 22.1056 96.3011 22.0906C96.0738 22.0757 95.8419 22.0677 95.602 22.0677C95.3276 22.0677 95.0762 22.0746 94.85 22.0906C94.6239 22.1067 94.3839 22.1285 94.1337 22.1595L90.0604 33.2381C90.4936 33.2994 90.9305 33.3301 91.368 33.3299C91.7828 33.3289 92.1968 33.2966 92.6068 33.2335L95.5067 24.5015H95.5113ZM99.6511 33.3299C100.13 33.3289 100.609 33.2982 101.084 33.2381L97.0531 22.1595C96.7776 22.1285 96.5273 22.1056 96.3 22.0906C96.0727 22.0757 95.8408 22.0677 95.6008 22.0677" fill="white"/>
<path d="M100.721 23.5016C100.682 23.5016 100.641 23.5016 100.599 23.5016H100.343V24.1273H100.125V22.6038H100.599C100.976 22.6038 101.242 22.6796 101.242 23.0493C101.252 23.1434 101.227 23.2379 101.172 23.3149C101.117 23.3919 101.036 23.446 100.944 23.4671L101.295 24.1296H101.052L100.721 23.5016ZM100.343 22.7967V23.311H100.615C100.845 23.311 101.02 23.2926 101.02 23.0539C101.02 22.8151 100.843 22.7967 100.615 22.7967H100.343Z" fill="white"/>
<path d="M100.63 24.6657C100.373 24.6657 100.122 24.5895 99.9084 24.4467C99.6946 24.3039 99.528 24.101 99.4297 23.8635C99.3313 23.626 99.3056 23.3647 99.3558 23.1126C99.4059 22.8605 99.5296 22.629 99.7115 22.4472C99.8932 22.2655 100.125 22.1417 100.377 22.0916C100.629 22.0414 100.89 22.0672 101.128 22.1655C101.365 22.2639 101.568 22.4304 101.711 22.6442C101.854 22.8579 101.93 23.1091 101.93 23.3662C101.929 23.7106 101.792 24.0409 101.549 24.2844C101.305 24.528 100.975 24.6651 100.63 24.6657ZM100.63 22.2549C100.411 22.2549 100.197 22.3198 100.015 22.4416C99.8327 22.5633 99.6907 22.7363 99.6069 22.9388C99.523 23.1412 99.501 23.364 99.5437 23.5789C99.5866 23.7938 99.6921 23.9912 99.8469 24.1461C100.002 24.301 100.199 24.4065 100.414 24.4493C100.629 24.492 100.852 24.4701 101.054 24.3862C101.257 24.3024 101.43 24.1604 101.552 23.9782C101.673 23.796 101.738 23.5818 101.738 23.3627C101.737 23.0696 101.62 22.7889 101.412 22.5819C101.205 22.375 100.923 22.2586 100.63 22.2583V22.2549Z" fill="white"/>
<path d="M37.6973 26.0663C37.7896 25.9788 37.8634 25.8737 37.9143 25.7571C37.9651 25.6406 37.9921 25.515 37.9935 25.3878V22.3225C37.9949 22.2726 37.9824 22.2232 37.9572 22.18C37.9321 22.1368 37.8953 22.1015 37.8511 22.078C37.8346 22.072 37.8168 22.07 37.7994 22.072C37.7818 22.074 37.765 22.08 37.7501 22.0895L32.0249 25.9515L34.6826 27.7757C34.709 27.8346 34.7276 27.8968 34.7377 27.9606C34.6939 28.0424 34.6416 28.1194 34.5816 28.1902L37.6973 26.0686" fill="white"/>
<path d="M26.3536 26.0767C26.2613 25.9889 26.1875 25.8836 26.1366 25.7669C26.0857 25.6501 26.0588 25.5244 26.0574 25.397V22.3318C26.0558 22.2819 26.0681 22.2326 26.0931 22.1893C26.1181 22.1461 26.1546 22.1108 26.1986 22.0872C26.2152 22.0813 26.2329 22.0792 26.2505 22.0812C26.268 22.0832 26.2848 22.0892 26.2996 22.0987L32.0329 25.9515L29.3683 27.7884C29.3414 27.8472 29.3225 27.9094 29.3121 27.9732C29.357 28.0496 29.4097 28.1212 29.4694 28.1868L26.3536 26.0767Z" fill="white"/>
<path d="M26.4362 29.771C26.4362 29.771 26.0654 29.5208 26.0654 29.9685V33.0544C26.0654 33.0544 26.0654 33.5021 26.4362 33.2519L28.6497 31.7594C28.6497 31.7594 29.0216 31.5092 28.6497 31.2589L26.4362 29.7664V29.771Z" fill="white"/>
<path d="M37.6308 29.771C37.6308 29.771 38.0016 29.5208 38.0016 29.9685V33.0544C38.0016 33.0544 38.0016 33.5021 37.6308 33.2519L35.4139 31.7583C35.4139 31.7583 35.0419 31.508 35.4139 31.2577L37.6273 29.7653L37.6308 29.771Z" fill="white"/>
<path d="M32.0146 29.7802C32.1552 29.78 32.2928 29.7402 32.4118 29.6654L34.6046 28.173C34.9754 27.9215 34.6046 27.6713 34.6046 27.6713L32.0295 25.9423L29.4602 27.6713C29.4602 27.6713 29.0894 27.9215 29.4602 28.173L31.653 29.6654C31.7724 29.7401 31.9104 29.7798 32.0513 29.7802H32.0157" fill="#FF5100"/>
<path d="M32.0364 29.7814H32.0238C31.8918 29.7767 31.7635 29.7371 31.6518 29.6666L29.4591 28.1741C29.4137 28.1509 29.3749 28.1167 29.3462 28.0745C29.3175 28.0324 29.2999 27.9837 29.2949 27.933C29.3026 27.8804 29.3213 27.83 29.3498 27.7851C29.3782 27.7402 29.4159 27.7018 29.4602 27.6724L32.0295 25.9435L34.6103 27.677C34.6545 27.7065 34.6919 27.7449 34.7202 27.7898C34.7485 27.8347 34.767 27.8851 34.7745 27.9376C34.7698 27.9884 34.7523 28.0372 34.7236 28.0794C34.6949 28.1216 34.6559 28.1557 34.6103 28.1787L32.4176 29.6712C32.306 29.7417 32.1776 29.7813 32.0456 29.786" fill="white"/>
</g>
<defs>
<clipPath id="clip0_4329_393">
<rect width="76" height="11.3656" fill="white" transform="translate(26 22)"/>
</clipPath>
</defs>
</svg>
