<svg width="128" height="56" viewBox="0 0 128 56" fill="none" xmlns="http://www.w3.org/2000/svg">
<path d="M47.0117 26.5973C46.9923 26.6092 46.9867 26.6398 46.9949 26.6891C47.0016 26.7249 47.0035 26.7555 47.0005 26.7808C46.6447 29.462 46.2747 32.1334 45.8905 34.7952C45.8861 34.8253 45.8712 34.8529 45.8484 34.8728C45.8256 34.8928 45.7964 34.9038 45.7662 34.9038L43.0918 34.897C43.0785 34.897 43.0654 34.8942 43.0533 34.8886C43.0413 34.883 43.0306 34.8749 43.0219 34.8648C43.0133 34.8547 43.007 34.8428 43.0034 34.8301C42.9998 34.8173 42.9991 34.8038 43.0012 34.7907L45.1788 21.1063C45.1835 21.0766 45.1986 21.0496 45.2211 21.0301C45.2437 21.0106 45.2723 21 45.3019 21L48.0401 21.0067C48.0755 21.0068 48.1098 21.0194 48.1369 21.0423C48.1639 21.0653 48.182 21.0971 48.1878 21.132C48.4064 22.4286 48.6582 23.6599 48.9431 24.8259C49.0326 25.1892 49.2054 25.6226 49.4612 26.1262C49.6738 26.5447 49.9335 26.8875 50.2401 27.1546C50.5407 27.4157 50.9145 27.6022 51.3613 27.7141C52.4497 27.9864 53.3644 27.6671 54.1051 26.7562C54.4371 26.3467 54.7042 25.7879 54.9064 25.0799C55.2801 23.7669 55.5647 22.4409 55.7602 21.1018C55.7642 21.0736 55.7783 21.0477 55.7999 21.029C55.8215 21.0103 55.8491 21 55.8777 21H58.6573C58.6851 20.9999 58.712 21.0098 58.7332 21.0279C58.7543 21.046 58.7683 21.071 58.7726 21.0985L60.9434 34.7639C60.946 34.7812 60.9449 34.799 60.94 34.8158C60.9352 34.8327 60.9268 34.8483 60.9154 34.8616C60.9041 34.8749 60.89 34.8855 60.8741 34.8928C60.8583 34.9001 60.8411 34.9038 60.8237 34.9038H58.2164C58.174 34.9039 58.1329 34.8885 58.1008 34.8605C58.0687 34.8326 58.0478 34.7939 58.0418 34.7516C57.7233 32.4509 57.4118 30.1804 57.1075 27.9401C57.1067 27.9357 57.0758 27.7533 57.0146 27.3929C56.9795 27.1848 56.9597 26.9748 56.9553 26.7629C56.953 26.6607 56.9195 26.6186 56.8546 26.6365C56.8402 26.6403 56.8265 26.6491 56.8147 26.662C56.803 26.6749 56.7936 26.6916 56.7874 26.7103C56.5465 27.4362 56.2163 28.0528 55.7971 28.5601C55.1182 29.3822 54.2786 29.9256 53.2782 30.1905C52.5478 30.3829 51.8086 30.4105 51.0603 30.2733C50.1002 30.0965 49.2643 29.6649 48.5526 28.9786C48.2243 28.663 47.9438 28.3064 47.7111 27.9088C47.4821 27.5186 47.2971 27.0994 47.1561 26.651C47.1517 26.6369 47.1441 26.6241 47.1339 26.6134C47.1238 26.6026 47.1112 26.5944 47.0973 26.5892C47.0834 26.5841 47.0685 26.5821 47.0537 26.5835C47.0388 26.5849 47.0245 26.5896 47.0117 26.5973Z" fill="white"/>
<path d="M80.7735 34.7024C80.7732 34.7514 80.7558 34.7992 80.724 34.8381C80.6921 34.877 80.6478 34.9048 80.5978 34.9172C80.1957 35.0179 79.797 35.0642 79.4016 35.056C78.1408 35.0276 77.3109 34.4267 76.9118 33.2533C76.7977 32.919 76.741 32.5087 76.7417 32.0223C76.7432 28.4131 76.7439 24.776 76.7439 21.1108C76.7439 21.0963 76.7468 21.082 76.7523 21.0686C76.7578 21.0552 76.7659 21.0431 76.7761 21.0329C76.7863 21.0227 76.7984 21.0146 76.8117 21.0092C76.825 21.0037 76.8393 21.001 76.8536 21.0012L79.1845 21.0068C79.2124 21.0068 79.2392 21.018 79.2589 21.0379C79.2786 21.0578 79.2897 21.0849 79.2897 21.1131C79.2897 24.3828 79.2897 27.6362 79.2897 30.8731C79.2897 31.4669 79.3289 31.8549 79.4072 32.0369C79.6012 32.4845 80.0271 32.6553 80.6851 32.5494C80.6987 32.5473 80.7126 32.5481 80.7258 32.5517C80.739 32.5554 80.7513 32.5618 80.7617 32.5705C80.7721 32.5792 80.7805 32.5901 80.7862 32.6023C80.7919 32.6145 80.7948 32.6277 80.7948 32.6412L80.7735 34.7024Z" fill="white"/>
<path d="M62.9252 26.3154C63.7353 25.4537 64.7327 24.961 65.9174 24.8371C66.6202 24.764 67.2927 24.8293 67.935 25.033C68.5587 25.2314 69.1327 25.5559 69.6572 26.0065C70.7135 26.9151 71.2767 28.1282 71.3469 29.6455C71.364 30.0081 71.3726 30.3584 71.3726 30.6963C71.3726 30.7215 71.3626 30.7457 71.3447 30.7636C71.3269 30.7814 71.3027 30.7914 71.2775 30.7914H64.221C64.1985 30.7915 64.1764 30.7972 64.1567 30.808C64.137 30.8188 64.1202 30.8344 64.108 30.8533C64.0958 30.8721 64.0885 30.8938 64.0867 30.9162C64.0849 30.9386 64.0888 30.9611 64.0979 30.9816C64.3553 31.562 64.7201 32.0026 65.1923 32.3032C65.619 32.574 66.1431 32.7191 66.7645 32.7385C67.6933 32.7676 68.5449 32.4893 69.3192 31.9037C69.338 31.8895 69.3595 31.8793 69.3824 31.8739C69.4053 31.8684 69.4292 31.8678 69.4526 31.872C69.476 31.8762 69.4984 31.8851 69.5183 31.8983C69.5383 31.9114 69.5555 31.9285 69.5688 31.9485L70.5994 33.4994C70.6272 33.5413 70.6379 33.5921 70.6294 33.6415C70.6208 33.6909 70.5937 33.7349 70.5535 33.7646C69.7187 34.3749 68.8347 34.7695 67.9014 34.9485C66.678 35.1828 65.5422 35.053 64.494 34.5591C63.798 34.2316 63.206 33.7863 62.7181 33.223C61.9319 32.3136 61.5354 31.2047 61.5286 29.8962C61.5219 28.5079 61.9874 27.3143 62.9252 26.3154ZM68.2248 27.7275C67.857 27.4001 67.4367 27.205 66.9637 27.1423C66.7347 27.1117 66.4892 27.1005 66.2274 27.1087C65.9678 27.1169 65.7246 27.1602 65.4978 27.2385C64.7428 27.4989 64.2669 28.0498 64.0699 28.8913C64.0667 28.9053 64.0667 28.9199 64.0699 28.9339C64.0731 28.9479 64.0794 28.961 64.0883 28.9723C64.0972 28.9835 64.1085 28.9927 64.1214 28.999C64.1343 29.0053 64.1484 29.0087 64.1628 29.0088C65.5765 29.0297 67.0133 29.0364 68.4732 29.029C68.4807 29.029 68.5292 29.0316 68.6187 29.0368C68.8254 29.0487 68.8947 28.9435 68.8268 28.7212C68.6978 28.3005 68.4971 27.9693 68.2248 27.7275Z" fill="white"/>
<path d="M75.155 25.0285H72.767C72.7237 25.0285 72.6887 25.0636 72.6887 25.1068V34.8266C72.6887 34.8699 72.7237 34.9049 72.767 34.9049H75.155C75.1982 34.9049 75.2333 34.8699 75.2333 34.8266V25.1068C75.2333 25.0636 75.1982 25.0285 75.155 25.0285Z" fill="white"/>
<path d="M84.4897 25.0285H82.1219C82.0718 25.0285 82.0312 25.0691 82.0312 25.1191V34.812C82.0312 34.8621 82.0718 34.9027 82.1219 34.9027H84.4897C84.5398 34.9027 84.5804 34.8621 84.5804 34.812V25.1191C84.5804 25.0691 84.5398 25.0285 84.4897 25.0285Z" fill="white"/>
</svg>
