<svg width="128" height="56" viewBox="0 0 128 56" fill="none" xmlns="http://www.w3.org/2000/svg">
<path d="M36.8247 20C40.3982 20 43.9715 20 47.5447 20C47.7122 20.002 47.8337 20.0159 47.9092 20.0416C48.1693 20.1307 48.3416 20.2888 48.426 20.5158C48.4635 20.6164 48.4844 20.8081 48.4886 21.0908C48.5106 22.5926 48.5091 23.9698 48.484 25.2226C48.4673 26.0537 48.2529 26.8277 47.8406 27.5445C47.7278 27.7406 47.6032 27.9242 47.4668 28.0952C47.0159 28.6605 46.4567 29.0971 45.7892 29.4049C45.2344 29.6608 44.6722 29.7965 44.1027 29.8121C43.8033 29.8203 43.11 29.8257 42.023 29.8284C42.0021 29.8284 41.9059 29.8257 41.7345 29.8204C41.6381 29.8175 41.5418 29.8196 41.4456 29.8267C41.4036 29.8296 41.3646 29.828 41.3286 29.8217C41.3254 29.8212 41.322 29.8213 41.3188 29.8222C41.3156 29.823 41.3126 29.8245 41.3101 29.8267C41.3076 29.8288 41.3055 29.8315 41.3041 29.8345C41.3027 29.8375 41.302 29.8408 41.302 29.8441C41.2949 31.7669 41.2959 33.6887 41.305 35.6094C41.3059 35.7844 41.3 35.8982 41.2873 35.9509C41.2067 36.2867 41.0198 36.5012 40.7266 36.5943C40.6282 36.6256 40.4616 36.6416 40.2268 36.6422C39.841 36.6431 39.4553 36.6487 39.0697 36.6589C38.5422 36.6589 38.0146 36.6589 37.4871 36.6589C37.2461 36.6527 37.0051 36.6454 36.7641 36.6372C36.4814 36.6279 36.26 36.6118 36.1001 36.5889C35.199 36.4612 34.4104 36.109 33.7345 35.5324C33 34.9056 32.4968 34.1372 32.2249 33.2272C32.0918 32.7823 32.0169 32.3068 32 31.8008C32 31.1844 32 30.5681 32 29.9517C32.0104 29.7804 32.0128 29.609 32.007 29.4373C32.0128 28.8173 32.0104 28.1975 32 27.5778C32 26.3866 32 25.1955 32 24.0045C32.038 23.1857 32.2801 22.4453 32.7263 21.7832C32.8516 21.5973 32.9904 21.4243 33.1428 21.2644C33.7134 20.6658 34.4131 20.2744 35.2418 20.0903C35.5044 20.0319 35.7704 20.0047 36.0398 20.0087C36.3017 20.0127 36.5633 20.0098 36.8247 20ZM47.4664 20.0127C47.4664 20.0115 47.466 20.0104 47.4652 20.0096C47.4644 20.0088 47.4633 20.0083 47.4621 20.0083H39.4192C39.4181 20.0083 39.417 20.0088 39.4161 20.0096C39.4153 20.0104 39.4149 20.0115 39.4149 20.0127C39.4149 20.0138 39.4153 20.0149 39.4161 20.0157C39.417 20.0165 39.4181 20.017 39.4192 20.017H47.4621C47.4633 20.017 47.4644 20.0165 47.4652 20.0157C47.466 20.0149 47.4664 20.0138 47.4664 20.0127ZM38.9854 22.135C38.602 21.7872 38.1612 21.5802 37.663 21.514C37.5648 21.5011 37.3432 21.4876 36.998 21.4736C36.6011 21.4577 36.2428 21.4607 35.9232 21.4826C35.0967 21.5395 34.4421 21.9094 33.9594 22.5925C33.7302 22.9172 33.581 23.2866 33.512 23.7006C33.4866 23.8519 33.4745 24.0733 33.4756 24.365C33.4836 26.6999 33.4861 29.0348 33.483 31.3697C33.4825 31.7375 33.4846 31.9595 33.4893 32.0357C33.5437 32.9215 33.892 33.6678 34.5342 34.2747C35.0135 34.7273 35.5907 35.004 36.2657 35.1046C36.3663 35.1195 36.4825 35.1294 36.6142 35.1343C36.7308 35.1385 36.8475 35.1407 36.9643 35.1409C37.9221 35.1423 38.8773 35.1429 39.83 35.1429C39.8349 35.1429 39.8395 35.141 39.843 35.1376C39.8464 35.1341 39.8483 35.1295 39.8483 35.1246C39.8459 31.6691 39.8452 28.2218 39.8463 24.7828C39.8463 24.7421 39.8483 24.6744 39.8523 24.5795C39.8554 24.5116 39.8561 24.4436 39.8543 24.3756C39.853 24.3292 39.8501 24.2274 39.8457 24.0701C39.8359 23.7343 39.7723 23.4132 39.6548 23.1069C39.5117 22.7342 39.2886 22.4102 38.9854 22.135ZM41.1034 21.491C40.8846 21.4881 40.6606 21.4913 40.4314 21.5006C40.4296 21.5007 40.4278 21.5012 40.4262 21.5022C40.4246 21.5032 40.4233 21.5045 40.4224 21.5061C40.4214 21.5077 40.4209 21.5095 40.4209 21.5113C40.4208 21.5132 40.4212 21.515 40.4221 21.5166C40.4534 21.5766 40.4866 21.6311 40.5217 21.6802C40.9721 22.3137 41.2274 23.0197 41.2873 23.7982C41.3015 23.9821 41.307 24.1864 41.3037 24.4109C41.2983 24.7814 41.2957 24.9671 41.2957 24.968C41.2957 26.0564 41.2957 27.1521 41.2957 28.2551C41.2957 28.2982 41.317 28.3233 41.3596 28.3304C41.4109 28.3389 41.4646 28.3431 41.5206 28.3431C41.8704 28.3433 42.2202 28.346 42.5701 28.3511C42.9645 28.3569 43.3588 28.3554 43.7528 28.3468C44.0432 28.3403 44.2645 28.3248 44.4169 28.3001C45.1108 28.1873 45.6967 27.8688 46.1747 27.3446C46.7367 26.728 47.0165 25.9901 47.0143 25.1309C47.0112 24.0341 47.0097 22.9374 47.0097 21.8408C47.0097 21.7082 47.0018 21.6005 46.986 21.5176C46.9851 21.513 46.9826 21.5089 46.9789 21.5059C46.9753 21.5029 46.9707 21.5013 46.966 21.5013C45.1915 21.5 43.417 21.4986 41.6425 21.4973C41.6394 21.4973 41.4597 21.4952 41.1034 21.491ZM32.0253 27.5771C32.0253 27.5761 32.0249 27.5751 32.0242 27.5743C32.0234 27.5736 32.0224 27.5731 32.0213 27.5731H32.0207C32.0196 27.5731 32.0186 27.5736 32.0178 27.5743C32.0171 27.5751 32.0167 27.5761 32.0167 27.5771V29.8147C32.0167 29.8158 32.0171 29.8168 32.0178 29.8176C32.0186 29.8183 32.0196 29.8187 32.0207 29.8187H32.0213C32.0224 29.8187 32.0234 29.8183 32.0242 29.8176C32.0249 29.8168 32.0253 29.8158 32.0253 29.8147V27.5771Z" fill="white"/>
<path d="M80.1099 27.4272C80.1327 27.4956 80.1442 27.4937 80.1442 27.4215V23.3698C80.1442 23.3647 80.1462 23.3599 80.1497 23.3563C80.1533 23.3528 80.1581 23.3508 80.1632 23.3508H81.939C81.9426 23.3508 81.9461 23.3515 81.9495 23.3528C81.9528 23.3542 81.9558 23.3562 81.9583 23.3588C81.9609 23.3613 81.9629 23.3643 81.9642 23.3676C81.9656 23.3709 81.9663 23.3745 81.9663 23.3781C81.955 26.5297 81.9566 29.685 81.971 32.844C81.9712 32.8778 81.9676 32.9111 81.96 32.944C81.9568 32.9582 81.9492 32.9708 81.9386 32.9799C81.928 32.989 81.915 32.9939 81.9017 32.9939H80.554C80.5469 32.9939 80.5399 32.9918 80.534 32.9879C80.528 32.984 80.5234 32.9785 80.5207 32.9719C80.3277 32.5093 80.2183 32.0195 80.1925 31.5026C80.1894 31.44 80.1771 31.4381 80.1555 31.497C80.0707 31.7304 79.9527 31.9556 79.8017 32.1727C79.6662 32.3674 79.5189 32.5293 79.3599 32.6581C79.1826 32.8014 78.9908 32.9126 78.7845 32.9919C78.5675 33.075 78.3376 33.1275 78.0948 33.1495C77.8671 33.17 77.6452 33.1691 77.4291 33.1469C77.1848 33.1215 76.9493 33.0626 76.7228 32.9699C76.5171 32.886 76.3263 32.774 76.1504 32.6341C75.8407 32.3876 75.5915 32.0778 75.4027 31.7049C75.2472 31.3981 75.1325 31.0873 75.0586 30.7723C75.0148 30.5864 74.9786 30.3673 74.9499 30.1149C74.8766 29.4679 74.9088 28.8311 75.0466 28.2045C75.1187 27.876 75.247 27.5567 75.4314 27.2466C75.7912 26.6418 76.2942 26.2344 76.9403 26.0245C77.1487 25.957 77.3661 25.9147 77.5927 25.8976C77.8488 25.8785 78.1052 25.889 78.362 25.9292C78.5948 25.9657 78.8131 26.0363 79.017 26.1411C79.2072 26.2389 79.3852 26.3701 79.5511 26.5349C79.8119 26.7937 79.9981 27.0911 80.1099 27.4272ZM77.4111 31.5536C77.5786 31.7002 77.7655 31.7984 77.9719 31.8481C78.1609 31.8934 78.3661 31.9031 78.5876 31.8771C78.8872 31.842 79.1528 31.7277 79.3842 31.5343C79.6396 31.3206 79.831 31.0575 79.9583 30.745C80.0338 30.5593 80.0852 30.3441 80.1125 30.0993C80.1403 29.8501 80.1481 29.5739 80.1358 29.2707C80.1252 29.0079 80.0933 28.7675 80.0402 28.5493C79.9851 28.3226 79.8995 28.1191 79.7833 27.939C79.4331 27.3965 78.9064 27.1491 78.2034 27.1966C77.6728 27.2324 77.2836 27.468 77.036 27.9033C76.9582 28.0397 76.8958 28.2025 76.8487 28.3917C76.8047 28.5688 76.7787 28.7424 76.7708 28.9125C76.7608 29.1204 76.7566 29.4008 76.7584 29.7538C76.7606 30.1867 76.8451 30.6017 77.0116 30.9989C77.1023 31.2152 77.2354 31.4001 77.4111 31.5536Z" fill="white"/>
<path d="M55.7029 32.9223C55.7104 32.9787 55.6829 33.0046 55.6202 33C55.5683 32.9962 55.5418 32.9943 55.5409 32.9943C54.9814 32.997 54.4219 32.9949 53.8624 32.988C53.858 32.9879 53.8539 32.9861 53.8508 32.9829C53.8478 32.9797 53.8461 32.9754 53.8461 32.971V23.8606C53.8461 23.8551 53.8482 23.8499 53.852 23.8461C53.8558 23.8422 53.861 23.84 53.8664 23.8399C55.1369 23.8359 56.3969 23.8387 57.6463 23.8482C58.0181 23.8511 58.4262 23.9293 58.8704 24.0828C59.4428 24.2807 59.8753 24.629 60.1678 25.1276C60.2744 25.3091 60.3599 25.5131 60.4243 25.7397C60.5112 26.0449 60.5597 26.3723 60.5699 26.7219C60.5835 27.1868 60.5346 27.6139 60.4233 28.0033C60.3054 28.4155 60.1024 28.7708 59.8143 29.0691C59.6646 29.2242 59.4889 29.3587 59.2872 29.4726C58.9876 29.6419 58.6606 29.7613 58.3063 29.8308C57.9656 29.8979 57.6429 29.9315 57.3381 29.9317C56.7932 29.9324 56.2522 29.9362 55.7149 29.9431C55.7096 29.9431 55.7046 29.9453 55.7009 29.9489C55.6973 29.9526 55.6952 29.9576 55.6952 29.9627C55.6905 30.9189 55.6884 31.8694 55.6889 32.814C55.6889 32.8154 55.6935 32.8515 55.7029 32.9223ZM58.231 28.2562C58.4178 28.1042 58.5519 27.9218 58.6332 27.7088C58.6969 27.5411 58.7376 27.3248 58.7551 27.0601C58.7771 26.7282 58.7317 26.4107 58.6188 26.1075C58.5293 25.8678 58.3777 25.6799 58.1641 25.5438C58.0545 25.474 57.9198 25.4169 57.7599 25.3725C57.6042 25.329 57.458 25.3068 57.3214 25.3059C56.7821 25.3019 56.2574 25.3011 55.7472 25.3036C55.7316 25.3036 55.7167 25.3099 55.7057 25.3209C55.6947 25.332 55.6885 25.3469 55.6885 25.3625L55.6889 28.545C55.6889 28.5541 55.6925 28.5629 55.6989 28.5693C55.7054 28.5757 55.7141 28.5794 55.7232 28.5794C56.1694 28.5794 56.6106 28.5795 57.0466 28.5797C57.3806 28.5799 57.7014 28.5164 58.0088 28.3891C58.0894 28.3556 58.1635 28.3113 58.231 28.2562Z" fill="white"/>
<path d="M65.2774 31.7638C65.273 31.7661 65.2697 31.7707 65.2677 31.7778C65.1525 32.1954 64.9318 32.527 64.6057 32.7727C64.4378 32.8995 64.2396 32.9962 64.011 33.0626C63.6852 33.1574 63.3378 33.1928 62.9688 33.1689C62.7085 33.152 62.4684 33.0994 62.2485 33.0113C62.0359 32.9262 61.849 32.8086 61.6878 32.6584C61.3779 32.3701 61.2008 31.999 61.1563 31.5449C61.1255 31.2291 61.1466 30.943 61.2196 30.6867C61.2847 30.4583 61.4065 30.2665 61.5851 30.1113C61.682 30.0271 61.7799 29.9445 61.879 29.8634C61.9805 29.7806 62.0918 29.7141 62.2128 29.6642C62.363 29.6022 62.6009 29.5247 62.9265 29.4316C63.3745 29.3034 63.8243 29.1824 64.2759 29.0684C64.5624 28.996 64.7896 28.9128 64.9576 28.8189C65.1586 28.7063 65.2589 28.5209 65.2584 28.2628C65.2578 27.8981 65.097 27.6482 64.7763 27.5132C64.6108 27.4434 64.4165 27.3991 64.1932 27.3802C63.6337 27.3329 63.0924 27.3978 62.5693 27.5748C62.3788 27.6392 62.2113 27.7043 62.0669 27.77C61.9057 27.8433 61.7486 27.9316 61.5958 28.0349C61.5838 28.0431 61.5779 28.04 61.5781 28.0256L61.5858 26.8965C61.5858 26.8861 61.5898 26.8758 61.5971 26.8675C61.927 26.4934 62.3311 26.2317 62.8096 26.0822C63.2951 25.9307 63.8258 25.8635 64.4015 25.8806C64.7144 25.8899 65.0045 25.9278 65.2717 25.9942C65.5007 26.0511 65.7073 26.1307 65.8915 26.2331C66.4543 26.5456 66.81 27.0389 66.9586 27.7131C66.9966 27.885 67.0239 28.0511 67.0406 28.2115C67.0526 28.3257 67.0582 28.4934 67.0576 28.7146C67.0536 29.8723 67.0611 31.0299 67.0802 32.1873C67.0827 32.3404 67.0905 32.4725 67.1036 32.5838C67.1184 32.7131 67.1378 32.8441 67.1615 32.9769C67.1619 32.979 67.1618 32.9811 67.1613 32.9832C67.1608 32.9852 67.1598 32.9871 67.1584 32.9887C67.157 32.9903 67.1553 32.9916 67.1534 32.9925C67.1515 32.9934 67.1493 32.9939 67.1472 32.9939H65.6246C65.6174 32.994 65.6104 32.9919 65.6045 32.988C65.5985 32.9841 65.5938 32.9785 65.5909 32.9719C65.4203 32.5912 65.3205 32.1929 65.2914 31.7768C65.2912 31.7747 65.2907 31.7725 65.2898 31.7706C65.289 31.7686 65.2878 31.7669 65.2864 31.7656C65.285 31.7643 65.2835 31.7635 65.2819 31.7632C65.2803 31.7629 65.2788 31.7631 65.2774 31.7638ZM63.2344 31.8621C63.3334 31.9556 63.4495 32.0178 63.5825 32.0487C63.9908 32.1433 64.3434 32.081 64.6404 31.8618C64.8112 31.7356 64.9507 31.5657 65.0588 31.352C65.1792 31.1148 65.2434 30.8569 65.2514 30.5784C65.2614 30.221 65.2634 29.8635 65.2574 29.5059C65.2574 29.4948 65.2528 29.4922 65.2434 29.4982C64.9282 29.7055 64.5955 29.8777 64.2452 30.015C63.9278 30.1392 63.767 30.2022 63.7628 30.2042C63.5793 30.2882 63.4292 30.3747 63.3123 30.4638C63.1313 30.6022 63.0286 30.7743 63.0041 30.9802C62.9841 31.1481 62.9907 31.3148 63.0238 31.4803C63.0538 31.6305 63.124 31.7577 63.2344 31.8621Z" fill="white"/>
<path d="M87.1226 31.7839C86.9062 32.5097 86.4224 32.9514 85.6712 33.1089C85.3252 33.1813 84.9766 33.1956 84.6254 33.1519C84.4264 33.127 84.2357 33.0733 84.0533 32.9906C83.4216 32.7039 83.0744 32.2107 83.0118 31.511C82.9896 31.262 83.0045 31.0153 83.0565 30.771C83.1073 30.5333 83.2132 30.3322 83.374 30.1676C83.4613 30.0783 83.5778 29.9787 83.7235 29.8688C83.8516 29.7719 83.9905 29.6936 84.1399 29.6339C84.1746 29.6201 84.3247 29.5709 84.5904 29.4863C84.8958 29.389 85.2043 29.3023 85.516 29.2264C85.8625 29.142 86.1452 29.0672 86.3642 29.0022C86.4804 28.9675 86.6095 28.9161 86.7514 28.8479C86.8944 28.7793 86.9953 28.6798 87.0539 28.5494C87.1039 28.4383 87.1217 28.3058 87.1072 28.1519C87.0777 27.8351 86.9029 27.6167 86.5828 27.4965C86.3949 27.4261 86.1839 27.3842 85.9498 27.3709C85.4114 27.3403 84.8912 27.4119 84.3892 27.5858C84.2053 27.6496 84.0453 27.7122 83.9094 27.7737C83.7515 27.8453 83.6014 27.9298 83.4593 28.0273C83.4426 28.0388 83.4343 28.0345 83.4343 28.0143L83.4363 26.9075C83.4363 26.8965 83.4401 26.886 83.4469 26.8778C83.6697 26.611 83.9377 26.401 84.2509 26.2478C84.5521 26.1003 84.8684 25.9992 85.1998 25.9446C85.7602 25.8524 86.3122 25.8484 86.8557 25.9326C87.0463 25.9621 87.2348 26.0123 87.4214 26.0832C87.6151 26.1567 87.7871 26.2459 87.9375 26.3507C88.3375 26.6297 88.61 27.0146 88.7548 27.5055C88.8623 27.8691 88.9155 28.241 88.9144 28.621C88.9113 29.726 88.9141 30.8311 88.9227 31.9361C88.9254 32.2848 88.9546 32.6312 89.0103 32.9753C89.0107 32.9773 89.0106 32.9794 89.01 32.9814C89.0095 32.9834 89.0085 32.9853 89.0072 32.9868C89.0058 32.9884 89.0042 32.9897 89.0023 32.9906C89.0004 32.9915 88.9984 32.9919 88.9963 32.992L87.4721 32.988C87.4671 32.988 87.4622 32.9865 87.458 32.9838C87.4538 32.9811 87.4505 32.9772 87.4484 32.9726C87.2769 32.5957 87.1744 32.2 87.1409 31.7855C87.1382 31.7527 87.1321 31.7521 87.1226 31.7839ZM85.1135 31.8898C85.1684 31.9365 85.2229 31.9707 85.2771 31.9924C85.5032 32.0826 85.7308 32.1113 85.9598 32.0784C86.1817 32.0466 86.3813 31.957 86.5588 31.8095C86.7443 31.6551 86.8821 31.4607 86.9723 31.2261C87.0389 31.0524 87.0811 30.8707 87.0989 30.681C87.1047 30.6186 87.1102 30.4335 87.1156 30.1256C87.1191 29.9177 87.1173 29.7099 87.1102 29.5023C87.1098 29.4909 87.105 29.4886 87.0959 29.4953C86.8889 29.6454 86.667 29.7692 86.4302 29.8668C86.1132 29.9974 85.799 30.134 85.4873 30.2766C85.3765 30.3272 85.2721 30.3888 85.1741 30.4615C84.9607 30.6194 84.8504 30.8332 84.8433 31.1028C84.8384 31.2814 84.8574 31.437 84.9003 31.5696C84.9414 31.6967 85.0124 31.8034 85.1135 31.8898Z" fill="white"/>
<path d="M70.6049 32.8373L70.0865 32.8357C70.0815 32.8357 70.0766 32.8341 70.0725 32.8313C70.0684 32.8284 70.0653 32.8244 70.0635 32.8197L67.596 26.0692C67.5951 26.0667 67.5948 26.064 67.5951 26.0614C67.5954 26.0588 67.5964 26.0563 67.5979 26.0542C67.5994 26.052 67.6014 26.0502 67.6037 26.049C67.6061 26.0478 67.6087 26.0472 67.6113 26.0472H69.4315C69.4381 26.0472 69.4447 26.0493 69.4501 26.0533C69.4555 26.0572 69.4596 26.0628 69.4618 26.0692L71.2486 31.346C71.2551 31.3649 71.2614 31.3648 71.2676 31.3457L72.9695 26.0655C72.9709 26.0608 72.9738 26.0566 72.9776 26.0537C72.9814 26.0508 72.9861 26.0492 72.9908 26.0492L74.645 26.0472C74.6475 26.0472 74.6498 26.0478 74.652 26.0489C74.6541 26.0501 74.656 26.0517 74.6574 26.0537C74.6588 26.0557 74.6597 26.0579 74.66 26.0604C74.6604 26.0628 74.6601 26.0652 74.6594 26.0675C73.8599 28.3462 73.0603 30.6223 72.2605 32.8956C72.2596 32.8979 72.2354 32.9693 72.1878 33.1099C72.0506 33.5168 71.8594 33.8944 71.6144 34.2427C71.4692 34.4493 71.3207 34.6133 71.169 34.7348C70.8789 34.9676 70.5424 35.1157 70.1595 35.1792C69.8409 35.2321 69.5228 35.2424 69.2049 35.2102C68.9657 35.1862 68.7692 35.1499 68.6155 35.1013C68.4223 35.0404 68.2424 34.9478 68.0758 34.8234C68.0625 34.8136 68.0518 34.8008 68.0444 34.7861C68.037 34.7714 68.0331 34.7552 68.0331 34.7388V33.7033C68.0331 33.7003 68.0339 33.6974 68.0352 33.6947C68.0366 33.6921 68.0385 33.6898 68.0409 33.6881C68.0433 33.6863 68.0461 33.6852 68.049 33.6847C68.0519 33.6842 68.0549 33.6844 68.0578 33.6853C68.4993 33.8254 68.952 33.8893 69.4158 33.8769C69.53 33.8737 69.63 33.8632 69.716 33.8452C70.1223 33.7599 70.3907 33.5267 70.5213 33.1455C70.5497 33.0631 70.5648 33.0194 70.5666 33.0143C70.5855 32.9614 70.6024 32.9079 70.6172 32.8537C70.6177 32.8518 70.6178 32.8498 70.6174 32.8478C70.6171 32.8459 70.6162 32.8441 70.6151 32.8425C70.6139 32.8409 70.6123 32.8396 70.6106 32.8388C70.6088 32.8379 70.6069 32.8374 70.6049 32.8373Z" fill="white"/>
<path d="M92.4614 32.8373L91.9399 32.8357C91.935 32.8357 91.9301 32.8342 91.9261 32.8313C91.922 32.8284 91.9189 32.8244 91.9173 32.8197L89.4558 26.0648C89.4551 26.0631 89.4549 26.0612 89.4552 26.0593C89.4555 26.0575 89.4562 26.0557 89.4573 26.0542C89.4584 26.0527 89.4599 26.0514 89.4616 26.0505C89.4633 26.0497 89.4652 26.0492 89.4671 26.0492L91.2882 26.0472C91.2933 26.0472 91.2982 26.0488 91.3023 26.0517C91.3063 26.0546 91.3094 26.0588 91.3109 26.0635L93.0964 31.3367C93.1057 31.3645 93.1149 31.3645 93.124 31.3367L94.8253 26.0582C94.8262 26.055 94.8281 26.0522 94.8308 26.0502C94.8334 26.0483 94.8366 26.0472 94.8399 26.0472L96.4978 26.0492C96.5004 26.0492 96.5029 26.0498 96.5051 26.051C96.5074 26.0522 96.5093 26.0539 96.5108 26.0559C96.5123 26.058 96.5132 26.0603 96.5136 26.0628C96.5139 26.0653 96.5137 26.0678 96.5128 26.0702C95.6761 28.4508 94.8427 30.8226 94.0126 33.1855C93.8949 33.5202 93.7311 33.8504 93.5212 34.1761C93.2264 34.6327 92.831 34.9412 92.3348 35.1016C92.1435 35.1634 91.9255 35.2026 91.6807 35.2192C91.3407 35.2426 91.0017 35.2203 90.6639 35.1526C90.3969 35.0991 90.1509 34.9881 89.9259 34.8197C89.9146 34.8114 89.9055 34.8005 89.8992 34.7879C89.8929 34.7754 89.8896 34.7615 89.8896 34.7475V33.7023C89.8896 33.6994 89.8903 33.6966 89.8916 33.694C89.8929 33.6914 89.8948 33.6892 89.8972 33.6875C89.8995 33.6858 89.9022 33.6847 89.905 33.6843C89.9079 33.6838 89.9108 33.6841 89.9135 33.6849C90.3658 33.8284 90.827 33.8927 91.2972 33.8779C91.476 33.8723 91.6474 33.8341 91.8113 33.7632C92.0603 33.6553 92.2388 33.4766 92.3467 33.2272C92.3783 33.1541 92.4204 33.0296 92.473 32.8537C92.4736 32.8518 92.4737 32.8499 92.4734 32.8479C92.4731 32.846 92.4723 32.8442 92.4712 32.8426C92.4701 32.8411 92.4686 32.8398 92.4669 32.8388C92.4652 32.8379 92.4633 32.8374 92.4614 32.8373Z" fill="white"/>
</svg>
