<svg width="48" height="48" viewBox="0 0 48 48" fill="none" xmlns="http://www.w3.org/2000/svg">
<path d="M38.6769 18.5945H34.2504V30.1456H38.6769V18.5945Z" fill="white" fill-opacity="0.5"/>
<path d="M39.1403 14.9686C39.1403 15.7275 38.8874 16.3598 38.3815 16.7814C37.8756 17.2029 37.2432 17.4559 36.4844 17.4559C35.7256 17.4559 35.0933 17.2451 34.5874 16.7814C34.0815 16.3598 33.8285 15.7275 33.8285 14.9686C33.8285 14.1676 34.0815 13.5775 34.5874 13.1137C35.0933 12.65 35.7256 12.4392 36.4844 12.4392C37.2432 12.4392 37.8756 12.65 38.3815 13.1137C38.8874 13.5353 39.1403 14.1676 39.1403 14.9686Z" fill="white" fill-opacity="0.5"/>
<path d="M45.717 27.9119L11.8648 38.5355L2 11.6813L37.5385 9.69995L45.717 27.9119Z" fill="white" fill-opacity="0.25"/>
<path d="M20.1277 22.5151C20.1277 23.1896 19.9591 23.7799 19.664 24.3279C19.3688 24.8338 18.9473 25.2976 18.3992 25.6348C17.8512 25.9721 17.1767 26.225 16.4179 26.3936C15.659 26.5622 14.8158 26.6466 13.8463 26.6466H13.1718V30.1035H8.78741V18.5945H13.9306C15.8699 18.5945 17.3875 18.9317 18.4836 19.5641C19.5796 20.1965 20.1277 21.2083 20.1277 22.5151ZM15.912 22.5573C15.912 21.5456 15.1531 21.0397 13.6777 21.0397H13.1296V24.1171H13.6355C14.3522 24.1171 14.9423 23.9906 15.3217 23.7376C15.7012 23.5269 15.912 23.1054 15.912 22.5573Z" fill="white" fill-opacity="0.5"/>
<path d="M31.0043 30.1045C30.3299 30.231 29.571 30.3154 28.6857 30.3154C27.4631 30.3154 26.367 30.1889 25.4396 29.8937C24.4699 29.5986 23.669 29.2192 22.9945 28.7133C22.32 28.2074 21.8141 27.575 21.4768 26.8584C21.1396 26.0996 20.9709 25.2986 20.9709 24.4133C20.9709 23.528 21.1396 22.727 21.519 21.9682C21.8984 21.2515 22.4042 20.6192 23.0788 20.0712C23.7533 19.5653 24.5543 19.1437 25.4817 18.8485C26.4092 18.5535 27.421 18.427 28.5171 18.427C29.3602 18.427 30.1612 18.4691 30.8779 18.5956C31.5945 18.7643 31.5945 18.7643 32.1425 18.975V22.0525C31.721 21.7996 31.2151 21.5887 30.6671 21.4623C30.119 21.2937 29.5288 21.2093 28.9386 21.2093C27.9268 21.2093 27.1259 21.5045 26.4935 22.0104C25.8611 22.5584 25.5661 23.3173 25.5661 24.3712C25.5661 24.8771 25.6503 25.3407 25.8611 25.7624C26.072 26.1417 26.3249 26.479 26.6621 26.732C26.9994 26.9849 27.3788 27.1957 27.8425 27.3222C28.3063 27.4487 28.7699 27.5329 29.2758 27.5329C29.7817 27.5329 30.3299 27.4908 30.8356 27.3643C31.3415 27.2379 31.8897 27.1114 32.4377 26.8584V29.7672C31.7632 29.9359 31.6788 29.9781 31.0043 30.1045Z" fill="white" fill-opacity="0.5"/>
</svg>
