<svg width="128" height="56" viewBox="0 0 128 56" fill="none" xmlns="http://www.w3.org/2000/svg">
<path d="M61.5074 26.3122C63.262 26.3159 65.0168 26.317 66.7718 26.3153C67.7024 26.3146 68.5617 26.11 69.3498 25.7016C69.6493 25.5464 69.9359 25.3598 70.2096 25.1419C71.071 24.4556 71.6701 23.5858 72.0069 22.5326C72.1111 22.2064 72.1819 21.8718 72.2192 21.5288C72.3511 20.3214 72.1066 19.2039 71.4858 18.1763C71.3104 17.8861 71.1058 17.6121 70.8721 17.3545C69.9679 16.3574 68.8412 15.7667 67.4919 15.5824C67.2551 15.5502 66.9371 15.5342 66.538 15.5346C66.2272 15.5346 65.9166 15.5358 65.6062 15.5382C65.5981 15.5382 65.5902 15.5401 65.5831 15.5438C65.576 15.5474 65.57 15.5527 65.5656 15.5592C64.7974 16.654 63.8118 17.4597 62.6088 17.9764C61.83 18.3108 61.0076 18.4913 60.1418 18.5181C59.8012 18.5287 59.4594 18.5116 59.1165 18.4667C57.871 18.3036 56.7545 17.8395 55.767 17.0744C55.4946 16.8636 55.2416 16.6332 55.0079 16.3831C54.5635 15.9075 54.1851 15.3763 53.8726 14.7893C53.8693 14.7833 53.8675 14.7766 53.8674 14.7698C53.8673 14.763 53.8689 14.7563 53.8721 14.7503C54.4453 13.6456 55.2455 12.7625 56.2728 12.1008C56.5558 11.9186 56.857 11.7558 57.1763 11.6126C58.8665 10.8533 60.5907 10.7999 62.3487 11.4522C63.7097 11.9573 64.8078 12.8389 65.6432 14.097C65.6474 14.1036 65.6532 14.1091 65.6601 14.1128C65.6669 14.1166 65.6745 14.1186 65.6822 14.1186C66.0413 14.1173 66.4002 14.1193 66.759 14.1248C67.1698 14.131 67.511 14.1548 67.7827 14.1962C69.3818 14.4405 70.7332 15.1453 71.8368 16.3106C72.0773 16.5642 72.2929 16.8297 72.4834 17.1073C73.1841 18.1252 73.5759 19.2587 73.6588 20.5076C73.7109 21.2919 73.6185 22.075 73.3818 22.8569C72.9257 24.3621 72.0725 25.563 70.8223 26.4597C69.8283 27.1727 68.7176 27.5858 67.4903 27.6988C67.2758 27.7187 66.9335 27.7286 66.4634 27.7286C64.8102 27.7286 63.157 27.7286 61.5038 27.7286C61.5004 27.7286 61.4971 27.7293 61.4939 27.7306C61.4908 27.7319 61.488 27.7338 61.4856 27.7362C61.4832 27.7385 61.4813 27.7414 61.48 27.7445C61.4787 27.7476 61.4781 27.751 61.4781 27.7543C61.4781 30.0586 61.4781 32.3628 61.4781 34.667C61.4781 35.0182 61.4238 35.3682 61.3152 35.717C61.2158 36.0357 61.0709 36.3447 60.8804 36.6442C60.2883 37.5744 59.4339 38.136 58.3173 38.3289C57.6961 38.4362 57.0821 38.38 56.4753 38.1603C56.1569 38.0452 55.8547 37.8869 55.5686 37.6855C54.7504 37.1098 54.2409 36.3235 54.0401 35.3264C53.9963 35.1085 53.9744 34.8214 53.9744 34.465C53.9744 33.0722 53.9744 31.6796 53.9744 30.2871C53.9744 29.8831 53.9971 29.5667 54.0427 29.3378C54.2404 28.3497 54.7583 27.5616 55.5964 26.9736C56.047 26.6577 56.5481 26.4549 57.0997 26.3651C57.3053 26.3319 57.6469 26.3153 58.1245 26.3153C58.7629 26.3153 59.401 26.3153 60.039 26.3153C60.0424 26.3153 60.0457 26.3146 60.0488 26.3133C60.052 26.312 60.0548 26.3101 60.0572 26.3077C60.0596 26.3053 60.0615 26.3025 60.0628 26.2994C60.064 26.2963 60.0647 26.2929 60.0647 26.2896C60.0647 25.0859 60.0647 23.8824 60.0647 22.679C60.0647 22.3086 60.0848 22.0536 60.1248 21.9138C60.2009 21.6482 60.3469 21.4269 60.5627 21.2497C60.8125 21.0438 61.1036 20.9333 61.4359 20.9182C61.4414 20.918 61.4468 20.9188 61.4519 20.9207C61.457 20.9226 61.4617 20.9255 61.4656 20.9292C61.4696 20.933 61.4727 20.9375 61.4748 20.9425C61.477 20.9475 61.4781 20.9529 61.4781 20.9583L61.4812 26.286C61.4812 26.2929 61.4839 26.2996 61.4888 26.3045C61.4938 26.3094 61.5004 26.3122 61.5074 26.3122ZM64.0854 14.3684C63.1133 13.2394 61.881 12.598 60.3885 12.4442C60.3717 12.4424 60.3693 12.4478 60.3813 12.4601L62.3081 14.3926C62.3239 14.4085 62.3427 14.4212 62.3634 14.4298C62.3842 14.4385 62.4064 14.4429 62.4289 14.4429L64.1085 14.4398C64.1267 14.4398 64.1309 14.4323 64.1213 14.4172C64.1104 14.3998 64.0984 14.3835 64.0854 14.3684ZM61.4452 14.4296C60.8415 13.8258 60.2425 13.2267 59.6484 12.6323C59.5651 12.5494 59.5184 12.505 59.5081 12.4992C59.4553 12.47 59.3871 12.4616 59.3035 12.474C58.8173 12.5459 58.412 12.6455 58.0875 12.7726C58.0849 12.7736 58.0825 12.7753 58.0807 12.7775C58.0788 12.7797 58.0776 12.7823 58.0769 12.7851C58.0763 12.7879 58.0764 12.7908 58.0772 12.7935C58.078 12.7963 58.0794 12.7988 58.0814 12.8008C58.5799 13.3134 59.0834 13.821 59.5919 14.3237C59.5936 14.3254 59.6057 14.3393 59.6284 14.3653C59.6732 14.4167 59.7416 14.4426 59.8334 14.4429C60.3721 14.4446 60.9079 14.4436 61.4411 14.4398C61.4507 14.4398 61.452 14.4364 61.4452 14.4296ZM56.1612 13.9958C56.0345 14.1222 55.9073 14.2642 55.7799 14.4219C55.7689 14.4359 55.7723 14.4429 55.7902 14.4429L58.7767 14.4398C58.7939 14.4398 58.7963 14.4335 58.7839 14.4208L57.4497 13.081C57.4444 13.0755 57.4374 13.0719 57.4298 13.0708C57.4222 13.0697 57.4144 13.0711 57.4076 13.0748C56.9447 13.3215 56.5292 13.6285 56.1612 13.9958ZM56.2907 15.6605C56.6193 15.9599 56.9854 16.2222 57.3891 16.4473C57.4003 16.4536 57.4132 16.4559 57.426 16.4541C57.4388 16.4522 57.4507 16.4463 57.46 16.4371L58.7932 15.1039C58.8059 15.0915 58.8033 15.0854 58.7855 15.0854H55.7891C55.7717 15.0854 55.7684 15.0922 55.7794 15.1059C55.9404 15.3119 56.1109 15.4967 56.2907 15.6605ZM61.4257 15.1054C61.439 15.0921 61.4361 15.0854 61.4169 15.0854H59.7646C59.7478 15.0854 59.7312 15.0886 59.7158 15.095C59.7003 15.1013 59.6863 15.1106 59.6746 15.1224L58.0788 16.7244C58.0767 16.7264 58.0752 16.7289 58.0744 16.7317C58.0735 16.7344 58.0733 16.7373 58.0738 16.7401C58.0743 16.7429 58.0755 16.7455 58.0773 16.7477C58.079 16.7499 58.0813 16.7516 58.0839 16.7526C58.5174 16.926 58.9667 17.0324 59.432 17.0718C59.4402 17.0725 59.4484 17.0714 59.4561 17.0686C59.4637 17.0659 59.4706 17.0615 59.4762 17.0559L61.4257 15.1054ZM64.0026 15.2457C64.0348 15.2094 64.0734 15.169 64.1183 15.1244C64.144 15.0984 64.1385 15.0854 64.1018 15.0854H62.4238C62.4029 15.0854 62.3823 15.0894 62.3632 15.0974C62.344 15.1053 62.3267 15.117 62.3122 15.1316L60.3813 17.0687C60.3693 17.0807 60.3719 17.0858 60.389 17.0841C61.8373 16.9382 63.0419 16.3254 64.0026 15.2457ZM56.1941 36.379C56.6515 36.7758 57.1727 36.9678 57.7576 36.9551C58.0358 36.9493 58.3006 36.8965 58.5521 36.7968C58.8139 36.6934 59.0473 36.5477 59.2521 36.36C59.6935 35.9553 59.9554 35.4676 60.038 34.8967C60.0558 34.7734 60.0647 34.4313 60.0647 33.8704C60.0647 31.8543 60.0647 29.8211 60.0647 27.7708C60.0647 27.7596 60.0603 27.7489 60.0524 27.741C60.0445 27.7331 60.0337 27.7286 60.0226 27.7286C59.3633 27.7286 58.7175 27.7286 58.085 27.7286C57.7036 27.7286 57.4153 27.7524 57.22 27.8001C56.5765 27.9567 56.0739 28.3236 55.712 28.901C55.5877 29.0993 55.4977 29.3203 55.4422 29.564C55.4059 29.7236 55.3877 29.9578 55.3877 30.2665C55.3877 31.5977 55.3877 32.9288 55.3877 34.26C55.3877 34.7054 55.4133 35.0259 55.4643 35.2216C55.5825 35.6738 55.8258 36.0597 56.1941 36.379Z" fill="white"/>
<path d="M58.326 44.9846C58.0132 44.5413 57.8561 44.0187 57.8547 43.4171C57.854 43.0758 57.8987 42.7575 57.9888 42.4622C58.0837 42.1504 58.2326 41.8718 58.4355 41.6265C58.8086 41.1752 59.3035 40.9016 59.9203 40.8057C60.6717 40.6885 61.3739 40.8197 62.027 41.1994C62.1157 41.2508 62.1731 41.3044 62.1991 41.3602C62.2238 41.4133 62.2327 41.4706 62.2259 41.5319C62.2193 41.5888 62.196 41.6388 62.156 41.682C62.0491 41.7974 61.912 41.8115 61.7448 41.7241C61.3323 41.5086 60.8997 41.4043 60.4471 41.4111C60.0654 41.4166 59.7347 41.4937 59.4551 41.6424C59.0865 41.8384 58.8228 42.1473 58.6642 42.5691C58.5326 42.9185 58.4925 43.2956 58.5439 43.7003C58.6227 44.3252 58.9009 44.782 59.3786 45.0705C59.6575 45.2394 59.9828 45.3333 60.3546 45.3521C60.837 45.3761 61.3016 45.2711 61.7484 45.0371C61.821 44.999 61.8954 44.9833 61.9715 44.9898C62.0465 44.9963 62.1094 45.0288 62.1601 45.0874C62.2344 45.1738 62.2509 45.2702 62.2094 45.3768C62.182 45.4481 62.1214 45.5113 62.0275 45.5664C61.5207 45.8635 60.9607 46.0079 60.3474 45.9997C59.8797 45.9935 59.457 45.8834 59.0794 45.6692C58.7786 45.4986 58.5274 45.2704 58.326 44.9846Z" fill="white"/>
<path d="M50.0031 40.8H49.9918C49.807 40.8 49.6572 40.9498 49.6572 41.1346V45.6276C49.6572 45.8124 49.807 45.9622 49.9918 45.9622H50.0031C50.1879 45.9622 50.3377 45.8124 50.3377 45.6276V41.1346C50.3377 40.9498 50.1879 40.8 50.0031 40.8Z" fill="white"/>
<path d="M52.7054 41.7796C52.7016 43.0395 52.7006 44.3091 52.7023 45.5885C52.7026 45.7965 52.6165 45.9176 52.4438 45.9519C52.33 45.9745 52.2332 45.9558 52.1534 45.8958C52.0653 45.8297 52.0213 45.7273 52.0213 45.5885C52.0213 44.2125 52.0213 42.8366 52.0213 41.4609C52.0213 41.2639 52.0431 41.1241 52.0866 41.0416C52.1637 40.8963 52.2961 40.8144 52.4839 40.7959C52.6679 40.7777 52.8195 40.8262 52.9387 40.9413C52.9562 40.9578 53.043 41.0787 53.1993 41.3042C54.0264 42.4972 54.8539 43.6901 55.6817 44.8828C55.7057 44.9171 55.7269 44.9529 55.7454 44.9903C55.7502 44.9998 55.7566 45.0079 55.7633 45.0131C55.77 45.0183 55.7766 45.0202 55.7819 45.0185C55.7932 45.0151 55.7989 44.9995 55.7989 44.9718C55.7989 43.7013 55.7989 42.4308 55.7989 41.1603C55.7989 41.0832 55.8093 41.022 55.8302 40.9768C55.8638 40.9042 55.91 40.8577 55.969 40.8375C56.1633 40.7714 56.3056 40.8039 56.3961 40.9352C56.4434 41.0037 56.467 41.113 56.467 41.2631C56.467 42.5079 56.467 43.7525 56.467 44.9969C56.467 45.3557 56.4601 45.5611 56.4464 45.6132C56.3783 45.8725 56.1667 45.9885 55.8117 45.9611C55.7449 45.956 55.6765 45.926 55.6066 45.8712C55.5635 45.8373 55.5155 45.7826 55.4627 45.7072C54.5554 44.4062 53.6476 43.0936 52.7393 41.7693C52.7167 41.7364 52.7054 41.7398 52.7054 41.7796Z" fill="white"/>
<path d="M63.8494 40.7995H63.8351C63.6545 40.7995 63.5082 40.9458 63.5082 41.1264V45.6358C63.5082 45.8163 63.6545 45.9627 63.8351 45.9627H63.8494C64.03 45.9627 64.1763 45.8163 64.1763 45.6358V41.1264C64.1763 40.9458 64.03 40.7995 63.8494 40.7995Z" fill="white"/>
<path d="M73.9513 44.628L71.5439 44.6249C71.5339 44.6249 71.5241 44.628 71.5158 44.6336C71.5074 44.6393 71.501 44.6474 71.4972 44.6568C71.3622 44.9908 71.2215 45.3275 71.0752 45.6667C71.0276 45.7777 70.9801 45.8531 70.9328 45.8928C70.8534 45.9603 70.7598 45.9831 70.6522 45.9612C70.4977 45.93 70.4107 45.8466 70.3911 45.7109C70.3802 45.6358 70.4024 45.5324 70.458 45.4005C71.0401 44.0145 71.6269 42.6302 72.2182 41.2477C72.2947 41.0685 72.3652 40.9508 72.43 40.8946C72.5496 40.7911 72.6979 40.7625 72.8751 40.8088C73.0495 40.8544 73.1696 40.9678 73.2354 41.149C73.2741 41.2566 73.294 41.3114 73.295 41.3135C73.8744 42.6672 74.4478 44.0234 75.0152 45.3819C75.0772 45.5313 75.0993 45.6478 75.0815 45.7314C75.0486 45.8836 74.9299 45.9601 74.7253 45.9612C74.651 45.9615 74.584 45.9322 74.5244 45.8733C74.4887 45.8377 74.4531 45.7777 74.4175 45.6934C74.2708 45.3477 74.1272 45.0006 73.9868 44.6521C73.9839 44.645 73.979 44.6389 73.9727 44.6346C73.9663 44.6303 73.9589 44.628 73.9513 44.628ZM72.7199 41.7257L71.7845 43.9783C71.7831 43.9816 71.7826 43.9852 71.783 43.9887C71.7833 43.9923 71.7845 43.9957 71.7865 43.9986C71.7885 44.0016 71.7912 44.004 71.7943 44.0056C71.7975 44.0073 71.801 44.0082 71.8045 44.0082H73.6738C73.6778 44.0081 73.6817 44.0071 73.6853 44.0052C73.6888 44.0033 73.6918 44.0005 73.694 43.9972C73.6963 43.9938 73.6976 43.99 73.6981 43.986C73.6985 43.982 73.6979 43.978 73.6964 43.9742L72.7661 41.7257C72.7507 41.6887 72.7353 41.6887 72.7199 41.7257Z" fill="white"/>
<path d="M77.1439 45.2514C78.2989 45.2569 79.0688 45.2579 79.4536 45.2545C79.5876 45.2535 79.6885 45.2947 79.7563 45.3783C79.8218 45.4589 79.8447 45.5534 79.8252 45.662C79.8084 45.7532 79.7601 45.8236 79.6802 45.8733C79.6268 45.9062 79.5492 45.9226 79.4474 45.9226C78.6268 45.924 77.8062 45.9231 76.9856 45.9201C76.8328 45.9197 76.7207 45.8959 76.6495 45.8486C76.5748 45.7993 76.5194 45.7318 76.4835 45.6461C76.4591 45.5889 76.447 45.5058 76.447 45.3968C76.447 44.0037 76.447 42.6105 76.447 41.2174C76.447 41.0851 76.4692 40.9895 76.5138 40.9306C76.5614 40.8679 76.6258 40.8276 76.707 40.8098C76.7793 40.7937 76.8504 40.8018 76.9203 40.834C77.0615 40.8991 77.1281 41.018 77.1202 41.1906C77.1168 41.2605 77.1151 41.2974 77.1151 41.3011C77.1134 42.6093 77.1144 43.9175 77.1182 45.2257C77.1182 45.2291 77.1188 45.2324 77.1201 45.2355C77.1214 45.2387 77.1233 45.2415 77.1257 45.2439C77.1281 45.2463 77.1309 45.2481 77.134 45.2494C77.1372 45.2507 77.1405 45.2514 77.1439 45.2514Z" fill="white"/>
<path d="M81.1162 45.8419C80.9901 45.7473 80.9273 45.62 80.9276 45.46C80.93 44.0504 80.9312 42.6408 80.9312 41.2312C80.9312 41.1061 80.9459 41.0157 80.9754 40.9598C81.0265 40.8622 81.1113 40.8086 81.2298 40.799C81.3751 40.7877 81.4799 40.8363 81.5444 40.9449C81.581 41.0069 81.5994 41.108 81.5994 41.2482C81.5994 42.5745 81.5994 43.895 81.5994 45.2097C81.5994 45.2216 81.6041 45.2329 81.6126 45.2413C81.6211 45.2497 81.6326 45.2544 81.6446 45.2544C82.398 45.2531 83.1422 45.2539 83.8772 45.257C84.0197 45.2577 84.1213 45.2803 84.182 45.3248C84.2505 45.3755 84.292 45.4458 84.3063 45.5356C84.319 45.6161 84.3057 45.6913 84.2663 45.7612C84.1998 45.8787 84.0905 45.934 83.9384 45.9272C83.8715 45.9241 83.8369 45.9226 83.8345 45.9226C83.0252 45.9226 82.2159 45.9226 81.4066 45.9226C81.2846 45.9226 81.1878 45.8957 81.1162 45.8419Z" fill="white"/>
<path d="M86.394 43.139C86.8981 42.4236 87.3956 41.7037 87.8866 40.9794C87.9839 40.8358 88.1034 40.7782 88.2453 40.8067C88.3591 40.8296 88.4403 40.8901 88.4889 40.9881C88.5256 41.0614 88.5331 41.1404 88.5115 41.225C88.4985 41.2768 88.4624 41.3436 88.4031 41.4255C87.8412 42.2043 87.2839 42.9864 86.7312 43.7717C86.7215 43.7854 86.7163 43.8017 86.7163 43.8184C86.7125 44.4297 86.7115 45.0411 86.7132 45.6527C86.7135 45.7322 86.6878 45.7996 86.6361 45.8547C86.5926 45.9017 86.5333 45.9335 86.4583 45.9503C86.3137 45.9832 86.1986 45.9447 86.1129 45.8347C86.0701 45.7795 86.0483 45.7017 86.0476 45.6013C86.0445 45.0175 86.0437 44.4242 86.0451 43.8215C86.0451 43.8008 86.0388 43.7807 86.0271 43.764C85.4552 42.9639 84.8842 42.1618 84.3141 41.3576C84.2658 41.2894 84.2425 41.2166 84.2442 41.1392C84.2459 41.0683 84.2699 40.9999 84.3161 40.9341C84.4213 40.7841 84.5726 40.7604 84.7699 40.8632C84.8015 40.8797 84.8595 40.9502 84.9442 41.075C85.4132 41.7661 85.8866 42.4541 86.3642 43.139C86.3659 43.1413 86.3682 43.1432 86.3708 43.1445C86.3734 43.1459 86.3762 43.1465 86.3791 43.1465C86.382 43.1465 86.3849 43.1459 86.3875 43.1445C86.3901 43.1432 86.3923 43.1413 86.394 43.139Z" fill="white"/>
<path d="M39.2208 45.9385C39.0749 45.8919 39.0015 45.7795 39.0008 45.6013C38.9978 44.1479 39.0031 42.6944 39.0168 41.2409C39.0182 41.1128 39.0421 41.0193 39.0887 40.9603C39.1597 40.8702 39.2623 40.8272 39.3966 40.8313C39.4548 40.833 39.4853 40.8339 39.4881 40.8339C40.2504 40.8267 40.8477 40.8312 41.2797 40.8473C41.5696 40.8582 41.8416 40.9273 42.0959 41.0544C42.3573 41.1853 42.5617 41.3646 42.709 41.5925C42.9448 41.9577 43.0085 42.3785 42.9002 42.8548C42.7871 43.3506 42.4962 43.697 42.0275 43.894C41.7884 43.9944 41.5389 44.0501 41.2792 44.061C40.7827 44.0826 40.2657 44.0905 39.7281 44.0847C39.7226 44.0846 39.7172 44.0856 39.7121 44.0876C39.707 44.0897 39.7024 44.0927 39.6985 44.0965C39.6946 44.1004 39.6916 44.1049 39.6895 44.11C39.6874 44.115 39.6864 44.1204 39.6865 44.1258C39.6878 44.6044 39.6871 45.0668 39.6844 45.5129C39.6834 45.6675 39.6585 45.7785 39.6099 45.846C39.5249 45.9635 39.3952 45.9943 39.2208 45.9385ZM41.2957 41.4995C40.7985 41.4679 40.2737 41.4633 39.7214 41.4856C39.7145 41.4859 39.708 41.4888 39.7032 41.4938C39.6984 41.4988 39.6957 41.5054 39.6957 41.5123L39.6895 43.4139C39.6895 43.4208 39.6923 43.4273 39.6971 43.4321C39.7019 43.4369 39.7084 43.4396 39.7152 43.4396C40.1381 43.4434 40.561 43.4448 40.9842 43.4438C41.1579 43.4434 41.328 43.4235 41.4946 43.3841C41.6823 43.3396 41.8346 43.268 41.9515 43.1693C42.1269 43.0216 42.2312 42.8342 42.2645 42.607C42.2953 42.3987 42.2605 42.2 42.1601 42.0109C41.9936 41.6956 41.7054 41.5252 41.2957 41.4995Z" fill="white"/>
<path d="M44.8676 43.9732C44.8638 44.533 44.8628 45.0929 44.8645 45.6528C44.8648 45.7686 44.8172 45.8546 44.7216 45.9108C44.6424 45.9574 44.5549 45.9721 44.459 45.955C44.3394 45.9337 44.2582 45.8674 44.2154 45.7561C44.1941 45.7009 44.1835 45.605 44.1835 45.4683C44.1835 44.144 44.1835 42.8199 44.1835 41.4959C44.1835 41.4939 44.1818 41.4385 44.1783 41.3299C44.1746 41.2021 44.1902 41.098 44.2251 41.0174C44.2775 40.8972 44.3836 40.8369 44.5433 40.8365C44.9709 40.8351 45.3985 40.8345 45.8261 40.8345C45.8285 40.8345 45.9326 40.8328 46.1386 40.8293C46.5758 40.8214 46.9563 40.8788 47.2801 41.0015C47.756 41.1817 48.0515 41.5029 48.1666 41.9652C48.2543 42.3167 48.2141 42.6537 48.0458 42.9761C47.9657 43.13 47.867 43.2562 47.7498 43.3549C47.6354 43.4508 47.4966 43.5365 47.3335 43.6119C47.2951 43.6297 47.296 43.6451 47.3361 43.6581C47.5722 43.7356 47.7512 43.8764 47.8732 44.0806C47.9592 44.2242 48.0297 44.4296 48.0849 44.6968C48.1377 44.9528 48.1606 45.2372 48.1538 45.55C48.1521 45.6264 48.1452 45.6901 48.1332 45.7412C48.1188 45.8011 48.0842 45.8519 48.0294 45.8933C47.8965 45.9947 47.7505 45.9923 47.5915 45.8861C47.5178 45.8368 47.4826 45.7677 47.4856 45.679C47.4949 45.4203 47.4836 45.163 47.4517 44.907C47.3979 44.4743 47.1934 44.1837 46.8381 44.0354C46.713 43.9833 46.5324 43.9548 46.2963 43.9501C45.8287 43.9401 45.361 43.9391 44.8933 43.947C44.8864 43.947 44.8799 43.9497 44.8751 43.9546C44.8703 43.9596 44.8676 43.9662 44.8676 43.9732ZM47.2189 41.718C47.0215 41.5857 46.7923 41.5136 46.5312 41.5016C45.9974 41.4776 45.4512 41.4695 44.8927 41.4774C44.8852 41.4776 44.878 41.4806 44.8727 41.486C44.8674 41.4914 44.8645 41.4987 44.8645 41.5062V43.268C44.8645 43.2799 44.869 43.2912 44.8772 43.2997C44.8854 43.3081 44.8965 43.313 44.9082 43.3133C45.3947 43.3235 45.8662 43.3187 46.3226 43.2989C46.4994 43.2913 46.6395 43.2742 46.743 43.2475C46.893 43.2084 47.0239 43.1526 47.1356 43.0799C47.4964 42.8442 47.6076 42.5065 47.4692 42.0669C47.4212 41.9138 47.3378 41.7974 47.2189 41.718Z" fill="white"/>
<path d="M66.5437 44.114C66.5403 44.5909 66.5391 45.0679 66.5401 45.5448C66.5405 45.6644 66.5262 45.7509 66.4975 45.8044C66.4492 45.8945 66.3693 45.9468 66.258 45.9612C66.1158 45.9797 66.0092 45.9403 65.9383 45.8429C65.8944 45.7826 65.8725 45.6848 65.8725 45.5495C65.8725 44.1238 65.8725 42.6981 65.8725 41.2724C65.8725 41.1418 65.8877 41.0496 65.9182 40.9958C65.9549 40.9321 66.0094 40.8865 66.0817 40.8591C66.1248 40.8427 66.1922 40.8345 66.2837 40.8345C66.7976 40.8345 67.3116 40.8334 67.8255 40.8314C68.0263 40.8307 68.2243 40.8487 68.4197 40.8853C68.6269 40.9241 68.8139 40.9864 68.9804 41.0724C69.6523 41.4195 69.9141 42.0083 69.7657 42.8389C69.6979 43.2182 69.4955 43.5212 69.1587 43.7481C68.824 43.9732 68.4181 44.0852 67.9412 44.0842C67.4841 44.0832 67.027 44.0845 66.5699 44.0883C66.5665 44.0883 66.5631 44.089 66.5599 44.0903C66.5567 44.0916 66.5538 44.0934 66.5514 44.0958C66.549 44.0982 66.547 44.101 66.5457 44.1042C66.5444 44.1073 66.5437 44.1106 66.5437 44.114ZM68.8046 41.7447C68.6915 41.6467 68.5569 41.5799 68.4006 41.5442C68.2043 41.4997 68.0169 41.4774 67.8384 41.4774C67.4272 41.4771 67.0042 41.4769 66.5694 41.4769C66.5618 41.4769 66.5545 41.4799 66.5491 41.4853C66.5437 41.4907 66.5406 41.4981 66.5406 41.5057V43.3975C66.5406 43.4095 66.5454 43.421 66.5539 43.4295C66.5624 43.438 66.5739 43.4428 66.5859 43.4428C66.9926 43.4428 67.4058 43.4426 67.8255 43.4423C68.0739 43.4419 68.2924 43.4121 68.4808 43.3528C68.8447 43.2381 69.0554 42.9848 69.113 42.5932C69.1633 42.2495 69.0606 41.9667 68.8046 41.7447Z" fill="white"/>
</svg>
