<svg width="91" height="91" viewBox="0 0 91 91" fill="none" xmlns="http://www.w3.org/2000/svg">
<g clip-path="url(#clip0_3677_1086)">
<path d="M45.3258 51.387C48.3114 51.387 50.7317 48.9667 50.7317 45.9811C50.7317 42.9955 48.3114 40.5752 45.3258 40.5752C42.3402 40.5752 39.9199 42.9955 39.9199 45.9811C39.9199 48.9667 42.3402 51.387 45.3258 51.387Z" fill="white"/>
<path d="M45.3258 57.0564C61.3461 57.0564 74.3331 52.0977 74.3331 45.9809C74.3331 39.8641 61.3461 34.9054 45.3258 34.9054C29.3056 34.9054 16.3185 39.8641 16.3185 45.9809C16.3185 52.0977 29.3056 57.0564 45.3258 57.0564Z" stroke="white" stroke-width="2.63703"/>
<path d="M35.7342 51.5187C43.7443 65.3927 54.5322 74.1604 59.8295 71.102C65.1268 68.0436 62.9277 54.3172 54.9175 40.4432C46.9074 26.5692 36.1195 17.8015 30.8222 20.8599C25.5249 23.9183 27.724 37.6447 35.7342 51.5187Z" stroke="white" stroke-width="2.63703"/>
<path d="M35.7342 40.4433C27.7241 54.3172 25.5249 68.0437 30.8222 71.1021C36.1196 74.1605 46.9074 65.3927 54.9176 51.5188C62.9277 37.6448 65.1269 23.9184 59.8295 20.8599C54.5322 17.8015 43.7443 26.5693 35.7342 40.4433Z" stroke="white" stroke-width="2.63703"/>
</g>
<defs>
<clipPath id="clip0_3677_1086">
<rect width="60.6516" height="53.9628" fill="white" transform="translate(15 19)"/>
</clipPath>
</defs>
</svg>
