<svg width="128" height="56" viewBox="0 0 128 56" fill="none" xmlns="http://www.w3.org/2000/svg">
<g clip-path="url(#clip0_4329_315)">
<mask id="mask0_4329_315" style="mask-type:luminance" maskUnits="userSpaceOnUse" x="20" y="19" width="88" height="18">
<path d="M107 19.7999H20.9999V36.5969H107V19.7999Z" fill="white"/>
</mask>
<g mask="url(#mask0_4329_315)">
<path d="M49.7143 26.4812C48.4118 26.1342 48.0239 26.0232 48.0239 25.5512C48.0239 25.0655 48.4812 24.774 49.2432 24.774C50.0053 24.774 50.5734 24.9961 51.0168 25.4402L51.0584 25.4818L52.1114 24.2188L52.0838 24.191C51.3909 23.4971 50.4903 23.1639 49.2571 23.1639C47.8022 23.1639 46.278 24.0939 46.278 25.6346C46.278 27.078 47.5528 27.5638 48.98 27.9663C50.2686 28.3272 50.5734 28.4798 50.5734 29.0212C50.5734 29.618 50.13 29.9095 49.1601 29.9095C48.2317 29.9095 47.3588 29.382 46.9292 28.8824L46.8877 28.8407L45.8069 30.076L45.8346 30.1038C46.3473 30.7978 47.8022 31.5334 49.2848 31.5334C51.1 31.5334 52.2777 30.534 52.2777 28.9656C52.2638 27.4389 51.3355 26.8975 49.7143 26.4812Z" fill="white"/>
<path d="M57.3906 28.5909C57.3906 29.5208 56.9887 29.9789 56.1712 29.9789C55.4507 29.9789 55.1874 29.6596 55.1874 28.813V25.3292H53.5386V29.16C53.5386 30.6312 54.3977 31.5056 55.8248 31.5056C56.5315 31.5056 57.0442 31.2835 57.3906 30.8394V31.3946H59.0394V25.3292H57.3906V28.5909Z" fill="white"/>
<path d="M64.2078 25.2042C63.321 25.2042 62.6975 25.4956 62.3095 26.1064V25.3291H60.6606V33.8096H62.3095V30.6172C62.6975 31.228 63.321 31.5194 64.2078 31.5194C65.8844 31.5194 67.0067 30.2564 67.0067 28.3687C67.0067 26.4811 65.8844 25.2042 64.2078 25.2042ZM65.3717 28.3549C65.3717 29.3403 64.7759 29.9788 63.8614 29.9788C62.9331 29.9788 62.3095 29.3264 62.3095 28.3549C62.3095 27.3833 62.9331 26.731 63.8614 26.731C64.7759 26.7448 65.3717 27.3833 65.3717 28.3549Z" fill="white"/>
<path d="M71.1498 25.2042C69.293 25.2042 67.949 26.5227 67.949 28.3549C67.949 30.2425 69.2376 31.5055 71.1498 31.5055C72.2998 31.5055 73.3668 31.0475 73.921 30.3119L73.9487 30.2841L72.8679 29.2987L72.8402 29.3264C72.3275 29.8677 71.9396 30.0204 71.1914 30.0204C70.3461 30.0204 69.8057 29.6179 69.6533 28.8545H74.115V28.341C74.115 26.5088 72.8957 25.2042 71.1498 25.2042ZM69.681 27.6608C69.875 27.0224 70.3877 26.6893 71.1498 26.6893C71.8703 26.6893 72.2583 26.9946 72.4107 27.6608H69.681Z" fill="white"/>
<path d="M76.8724 26.1758V25.3292H75.2234V31.3946H76.8724V28.3549C76.8724 27.3278 77.3712 26.967 78.7708 26.967H79.0478V25.3292H79.0059C77.9808 25.3292 77.288 25.6068 76.8724 26.1758Z" fill="white"/>
<path d="M86.9179 25.2042C86.0172 25.2042 85.3802 25.5373 85.0333 26.1896C84.7289 25.5095 84.1051 25.2042 83.08 25.2042C82.3593 25.2042 81.8187 25.454 81.4586 25.9537V25.3152H79.8097V31.3806H81.4586V28.1328C81.4586 27.1889 81.8605 26.6893 82.6225 26.6893C83.4676 26.6893 83.6482 27.1612 83.6482 27.9107V31.4084H85.2828V28.1328C85.2828 27.1473 85.6571 26.6893 86.4747 26.6893C87.306 26.6893 87.4586 27.1196 87.4586 27.9107V31.4084H89.1075V27.6747C89.0931 25.9676 88.4143 25.2042 86.9179 25.2042Z" fill="white"/>
<path d="M93.2779 25.2042C91.449 25.2042 90.022 26.5921 90.022 28.3549C90.022 30.1176 91.449 31.5055 93.2779 31.5055C95.1069 31.5055 96.5339 30.1176 96.5339 28.3549C96.5339 26.5921 95.1069 25.2042 93.2779 25.2042ZM94.8993 28.3549C94.8993 29.3403 94.2618 29.9788 93.2779 29.9788C92.2941 29.9788 91.6565 29.3403 91.6565 28.3549C91.6565 27.3694 92.2941 26.731 93.2779 26.731C94.2618 26.7448 94.8993 27.3833 94.8993 28.3549Z" fill="white"/>
<path d="M97.6565 31.8109C97.6565 32.1996 97.4765 32.2829 97.1577 32.2829C96.8114 32.2829 96.6171 32.1996 96.4095 31.9775L96.3677 31.9359L95.6338 33.1851L95.6476 33.2128C95.952 33.6015 96.5339 33.8235 97.2271 33.8235C98.1691 33.8235 99.3054 33.5182 99.3054 32.0469V25.3292H97.6565V31.8109Z" fill="white"/>
<path d="M98.4741 22.5671C97.9197 22.5671 97.4765 23.0112 97.4765 23.5664C97.4765 24.1216 97.9197 24.5658 98.4741 24.5658C99.0285 24.5658 99.4717 24.1216 99.4717 23.5664C99.4717 23.0112 99.0142 22.5671 98.4741 22.5671Z" fill="white"/>
<path d="M103.67 25.2042C101.841 25.2042 100.414 26.5921 100.414 28.3549C100.414 30.1176 101.841 31.5055 103.67 31.5055C105.499 31.5055 106.926 30.1176 106.926 28.3549C106.926 26.5921 105.499 25.2042 103.67 25.2042ZM105.277 28.3549C105.277 29.3403 104.64 29.9788 103.656 29.9788C102.673 29.9788 102.035 29.3403 102.035 28.3549C102.035 27.3694 102.673 26.731 103.656 26.731C104.64 26.731 105.277 27.3833 105.277 28.3549Z" fill="white"/>
<path d="M40.1813 28.4243L42.4676 19.9161H32.5882C28.7778 19.9161 25.674 23.0112 25.674 26.842L29.1796 26.7449C29.6923 26.731 30.1357 26.4257 30.3435 25.9537L31.7152 22.692L32.9762 25.69C33.2533 26.3424 33.8214 26.842 34.5003 27.0224L40.1813 28.4243Z" fill="white"/>
<path d="M23.36 27.9525L21.0738 36.4607H30.9532C34.7637 36.4607 37.8674 33.3655 37.8674 29.5347L34.3618 29.6319C33.8491 29.6458 33.4057 29.9512 33.1979 30.4231L31.8261 33.6848L30.5652 30.6868C30.2881 30.0345 29.72 29.5347 29.0411 29.3543L23.36 27.9525Z" fill="white"/>
</g>
</g>
<defs>
<clipPath id="clip0_4329_315">
<rect width="86.0003" height="17.2001" fill="white" transform="translate(20.9999 19.7999)"/>
</clipPath>
</defs>
</svg>
