<svg width="128" height="56" viewBox="0 0 128 56" fill="none" xmlns="http://www.w3.org/2000/svg">
<path d="M70.6078 31.0183C68.8998 30.0512 67.4419 28.7934 66.2343 27.2448C65.9458 26.8746 65.5869 26.5943 65.1577 26.404C64.6937 26.1982 64.2267 26.1262 63.7567 26.188C63.6132 26.2068 63.1754 26.3419 62.4434 26.5935C61.0327 27.0784 59.5958 27.471 58.1327 27.7711C57.97 27.8042 57.8185 27.8028 57.6784 27.7669C57.4991 27.7217 57.3248 27.6613 57.1554 27.5857C57.0776 27.551 57.0288 27.5074 57.0089 27.455C56.983 27.386 57.0034 27.3284 57.0702 27.282C57.1077 27.2561 57.1606 27.242 57.2291 27.2398C57.8701 27.2155 58.5106 27.1824 59.1506 27.1405C59.1666 27.1394 59.1807 27.1358 59.1928 27.1297C59.2391 27.106 59.2375 27.0873 59.1878 27.0735C57.8174 26.6856 56.4804 26.2062 55.1768 25.6352C55.1639 25.6297 55.1524 25.6221 55.1429 25.6127C55.1334 25.6033 55.1261 25.5924 55.1213 25.5806C55.0463 25.3952 55.1175 25.3078 55.3348 25.3183C56.4327 25.3723 57.1292 25.403 57.4244 25.4101C57.431 25.4104 57.4377 25.4094 57.4439 25.4074C57.4501 25.4053 57.4556 25.4022 57.4599 25.3984C57.4642 25.3945 57.4673 25.3901 57.4687 25.3853C57.4702 25.3806 57.47 25.3757 57.4682 25.3712C57.4616 25.3541 57.4434 25.3401 57.4136 25.329C56.153 24.8678 54.8549 24.2552 53.5192 23.4911C53.4492 23.4508 53.4028 23.4144 53.3802 23.3818C53.3294 23.3096 53.3449 23.2412 53.4265 23.1766C53.4647 23.1464 53.5143 23.1324 53.5647 23.1377L55.4134 23.3322C55.5635 23.3476 55.5718 23.3198 55.4383 23.2486C53.4853 22.2076 51.6233 20.958 49.8524 19.4999C49.8304 19.4816 49.8153 19.4587 49.8094 19.4345C49.779 19.3076 49.8281 19.2301 49.9567 19.202C49.9808 19.1966 50.008 19.2007 50.0336 19.2135C55.0402 21.8131 60.3398 23.1636 65.9322 23.2652C66.2379 23.2707 66.519 23.3112 66.7755 23.3868C67.0342 23.4629 67.2828 23.5907 67.5211 23.77C68.0314 24.1523 68.3804 24.6598 68.5679 25.2926C68.6226 25.4763 68.6501 25.5693 68.6507 25.5715C68.9817 26.5888 69.4253 27.5548 69.9814 28.4695C70.0007 28.5015 70.0026 28.5018 69.9872 28.4704C69.5199 27.5308 69.1511 26.5563 68.8807 25.5467C68.7136 24.9205 68.587 24.5222 68.5009 24.3517C68.0546 23.4635 67.2814 22.9736 66.1813 22.882C64.9466 22.7788 63.6223 22.5893 62.2083 22.3135C62.034 22.2793 61.8941 22.2076 61.7888 22.0983C61.7193 22.0266 61.6834 21.9897 61.6812 21.9874C60.8266 21.2007 60.0115 20.3749 59.2358 19.5098C59.2171 19.4889 59.206 19.4638 59.2044 19.4386C59.195 19.293 59.2527 19.2273 59.3773 19.2417C59.4259 19.2472 59.4932 19.2729 59.5793 19.3186C60.1458 19.6215 60.7083 19.9136 61.2666 20.195C61.4376 20.2811 61.4572 20.2549 61.3254 20.1164C60.3279 19.0687 59.4113 17.9554 58.5755 16.7765C58.5588 16.7529 58.5501 16.7267 58.5506 16.702C58.5528 16.5972 58.5995 16.5381 58.6905 16.5249C58.7434 16.5172 58.8044 16.5354 58.8734 16.5795C59.4179 16.9254 59.9649 17.2515 60.5144 17.5577C60.5657 17.5863 60.5737 17.5772 60.5384 17.5303C59.1801 15.7147 58.0061 13.7869 57.0164 11.7467C56.9822 11.6766 56.9725 11.6157 56.9874 11.5638C57.0144 11.4695 57.0804 11.4342 57.1852 11.4579C57.2382 11.4702 57.2853 11.5003 57.3184 11.5431C60.6567 15.8391 64.7003 19.2009 69.4493 21.6283C70.0705 21.9455 70.4313 22.143 70.5317 22.2208C70.8671 22.4801 71.1234 22.8169 71.3005 23.2312C71.5228 23.7515 71.5923 24.2888 71.509 24.8433C71.4731 25.0822 71.4549 25.203 71.4544 25.2057C71.2569 26.9353 71.3625 28.6314 71.7713 30.2942C71.8017 30.4167 71.8566 30.5298 71.936 30.6335C72.0094 30.729 72.107 30.8001 72.2289 30.847C72.5699 30.9789 72.8168 30.9066 72.9696 30.6302C73.0457 30.4934 73.0882 30.276 73.097 29.9781C73.1318 28.8152 73.1067 27.653 73.0217 26.4917C72.9809 25.9406 72.9417 25.3892 72.9042 24.8375C72.8838 24.5363 72.9461 24.1812 73.0912 23.7724C73.4074 22.8842 73.9546 22.2495 74.7331 21.8683C75.2373 21.6211 75.7716 21.5116 76.336 21.5397C76.9594 21.5712 77.5387 21.7654 78.0738 22.1223C78.2432 22.2354 78.4239 22.3425 78.6159 22.4434C79.0605 22.6779 79.4335 22.9926 79.7347 23.3876C79.871 23.5664 80.0329 23.8505 80.2205 24.24C80.3628 24.5357 80.5026 24.8325 80.64 25.1304C80.7857 25.4449 80.9018 25.7701 80.9884 26.1061C81.0193 26.2253 80.9887 26.244 80.8965 26.1624C80.5545 25.8589 80.1923 25.5583 79.81 25.2603C79.709 25.182 79.586 25.1199 79.4409 25.0742C78.753 24.8557 78.1897 24.4662 77.7511 23.9057C77.5503 23.6491 77.4041 23.4867 77.3125 23.4183C77.115 23.2715 76.9059 23.1808 76.6852 23.146C76.0226 23.0428 75.4812 23.2359 75.0608 23.7253C74.7833 24.0486 74.6619 24.4328 74.6967 24.878C74.8103 26.3477 74.9331 27.8166 75.0649 29.2846C75.2823 31.7082 74.7915 33.9359 73.5927 35.9678C73.307 36.4516 72.9878 36.9013 72.6353 37.3167C71.192 39.0154 69.3723 40.0961 67.176 40.559C66.6293 40.6743 66.0826 40.7413 65.5358 40.7601C64.4854 40.7954 63.4367 40.6765 62.3896 40.4034C62.3487 40.3929 62.3468 40.3775 62.3838 40.3571C63.3211 39.8319 63.9931 39.1185 64.3996 38.2171C64.4289 38.152 64.5522 37.7779 64.7696 37.0949C64.9615 36.4908 65.2131 35.9171 65.5243 35.3736C65.5629 35.3058 65.5474 35.2898 65.4779 35.3256C65.185 35.4779 64.8882 35.6214 64.5875 35.756C64.491 35.7996 64.4195 35.8208 64.3732 35.8197C64.2904 35.8186 64.2402 35.7739 64.2226 35.6856C64.2126 35.6382 64.2209 35.5797 64.2474 35.5102C64.3632 35.2029 64.4738 34.9014 64.5792 34.6057C64.6024 34.5395 64.5831 34.5227 64.5213 34.5552C63.9255 34.8686 63.3192 35.1593 62.7024 35.4274C62.6124 35.4666 62.5424 35.4809 62.4922 35.4705C62.4188 35.455 62.3796 35.404 62.3747 35.3174C62.3719 35.2727 62.3854 35.2156 62.4152 35.1461C62.5498 34.836 62.6618 34.518 62.7512 34.1919C62.7584 34.1654 62.749 34.1574 62.7231 34.1679C61.714 34.5745 60.6876 34.9301 59.6438 35.2346C59.555 35.26 59.4852 35.2617 59.4344 35.2396C59.36 35.207 59.3354 35.1464 59.3608 35.0575C59.3746 35.0095 59.4088 34.9632 59.4634 34.9185C59.8397 34.6112 60.2189 34.3072 60.6013 34.0066C60.689 33.9376 60.6782 33.9147 60.569 33.9379C59.3051 34.2077 58.0034 34.4143 56.6639 34.5577C56.6264 34.562 56.5884 34.5532 56.5563 34.5329C56.4459 34.4634 56.4236 34.3858 56.4892 34.3003C56.5174 34.2634 56.5709 34.2245 56.6498 34.1837C57.2042 33.8968 57.7554 33.6035 58.3032 33.304C58.3506 33.2786 58.3562 33.2585 58.3197 33.2436C58.3076 33.2386 58.293 33.2375 58.2759 33.2403C56.9171 33.4455 55.5508 33.5724 54.1771 33.6209C54.085 33.6242 54.0152 33.6044 53.9677 33.5613C53.8933 33.494 53.8933 33.4218 53.9677 33.3445C54.0014 33.3103 54.0555 33.2783 54.1299 33.2485C54.7705 32.9953 55.3925 32.7341 55.996 32.4649C56.0909 32.4224 56.0862 32.4039 55.982 32.4094C54.5746 32.4872 53.1678 32.4831 51.7615 32.397C51.6545 32.3904 51.574 32.373 51.5199 32.3449C51.4029 32.2842 51.39 32.2014 51.481 32.0966C51.5207 32.0503 51.5811 32.0144 51.6622 31.989C52.2575 31.8004 52.8108 31.6161 53.3223 31.4362C53.4729 31.3833 53.4685 31.3518 53.309 31.3419C51.046 31.2045 48.8607 30.868 46.7533 30.3323C46.6617 30.3086 46.5985 30.2738 46.5638 30.228C46.5014 30.1458 46.5254 30.0667 46.6358 29.9905C46.6572 29.976 46.6845 29.9688 46.7136 29.9698C52.1654 30.1971 57.3813 29.2471 62.3614 27.1198C62.965 26.8622 63.3881 26.716 63.6309 26.6812C64.3299 26.5814 64.9814 26.7582 65.5855 27.2117C65.7654 27.3463 65.9447 27.5118 66.1234 27.7082C66.3181 27.9211 66.4175 28.0296 66.4213 28.0334C67.3658 29.0088 68.47 29.8623 69.7339 30.5938C70.082 30.7957 70.3725 30.9394 70.6053 31.025C70.6324 31.0349 70.6332 31.0327 70.6078 31.0183Z" fill="white"/>
</svg>
