<svg width="165" height="53" viewBox="0 0 165 53" fill="none" xmlns="http://www.w3.org/2000/svg">
<path fill-rule="evenodd" clip-rule="evenodd" d="M0 0.60083V52.7274H164.229V0.60083H0ZM14.7524 37.0234H15.5864C17.88 37.0234 18.6621 38.7956 18.6621 41.1936C18.6621 43.513 18.0886 45.2074 16.2641 45.2074H14.7524V37.0234ZM15.7429 28.9439C17.3847 28.9439 17.8802 30.221 17.8802 32.5664C17.8802 34.8079 17.7758 36.2936 15.5867 36.2936H14.7527V28.9439H15.7429ZM17.6195 45.937C21.5292 45.937 23.6139 44.0342 23.6139 41.2456C23.6139 39.2911 21.9459 36.8148 17.4371 36.6847V36.6326C20.9554 36.3198 22.832 34.5474 22.832 32.5407C22.832 30.0126 20.7468 28.2143 16.8376 28.2143H8.23663V28.8659L9.53969 29.0483C9.90458 29.0745 10.0611 29.3088 10.0611 29.6998V44.4776C10.0611 44.8684 9.90484 45.0771 9.53969 45.1294L8.23663 45.2857V45.9372H17.6195V45.937ZM25.4384 42.0278C25.4384 44.8946 27.2105 46.1977 29.1653 46.1977C31.0678 46.1977 32.736 45.3375 33.726 42.627H33.7784V45.1551C33.7784 46.0932 34.5603 46.1974 35.1856 46.1974C36.2282 46.1974 37.9223 46.0673 39.512 45.9367V45.2852L38.4694 45.1548C38.1048 45.1025 37.9482 44.8941 37.9482 44.503V35.1725C37.9482 34.2082 38.0003 33.348 38.1045 32.8266L37.9482 32.6441L31.6929 33.5043V34.1561H33.2569C33.6218 34.1561 33.7781 34.2864 33.7781 34.6773V40.4112C33.7781 42.1574 32.8138 43.6691 31.2498 43.6691C30.1291 43.6691 29.608 42.9393 29.608 41.9226V35.1723C29.608 34.2079 29.6601 33.3478 29.7645 32.8263L29.608 32.6439L23.8741 33.504V34.1558H24.9164C25.2813 34.1558 25.4378 34.2862 25.4378 34.677V42.0278H25.4384ZM44.7512 46.1977C47.7484 46.1977 49.8074 44.5033 49.8074 42.0278C49.8074 39.6819 48.6347 38.6655 45.4027 37.2059L45.2921 37.1569C44.3824 36.7548 43.396 36.3189 43.396 35.0167C43.396 34.1307 43.9955 33.375 45.1423 33.375C46.7541 33.375 47.3749 34.6726 48.2624 36.5275C48.3075 36.6219 48.3534 36.7178 48.4002 36.8151H49.0517L48.9213 33.1661C46.8885 32.7753 46.0545 32.6449 44.8815 32.6449C41.4933 32.6449 39.9295 34.4691 39.9295 36.5546C39.9295 38.6395 40.9459 39.7342 43.422 40.8548C45.5331 41.8192 46.1063 42.6011 46.1063 43.6698C46.1063 44.7904 45.4027 45.4681 44.308 45.4681C42.5097 45.4681 41.6755 44.0871 40.6331 42.028H39.9814L40.3203 45.6768C42.2749 46.0676 43.5 46.1977 44.7512 46.1977ZM51.2408 29.2567C51.2408 30.56 52.2831 31.3416 53.5865 31.3416C54.8898 31.3416 55.9321 30.56 55.9321 29.2567C55.9321 27.9536 54.8898 27.1715 53.5865 27.1715C52.2831 27.1715 51.2408 27.9536 51.2408 29.2567ZM55.6717 35.173C55.6717 34.2087 55.7237 33.3485 55.8279 32.8271L55.6717 32.6447L49.9377 33.5048V34.1566H50.9801C51.345 34.1566 51.5013 34.287 51.5013 34.6778V44.4776C51.5013 44.8684 51.3452 45.0509 50.9801 45.1294L49.9377 45.2857V45.9372H57.2354V45.2857L56.1931 45.1294C55.8282 45.0511 55.6719 44.8687 55.6719 44.4776V35.173H55.6717ZM63.7512 32.6447L58.017 33.5048V34.1566H59.0597C59.4245 34.1566 59.5808 34.287 59.5808 34.6778V44.4776C59.5808 44.8684 59.4245 45.0509 59.0597 45.1294L58.017 45.2857V45.9372H65.3147V45.2857L64.2724 45.1294C63.9075 45.0511 63.7512 44.8687 63.7512 44.4776V38.4309C63.7512 36.6847 64.7153 35.173 66.2531 35.173C67.3999 35.173 67.9211 35.9287 67.9211 36.9192V44.4776C67.9211 44.8684 67.8949 45.025 67.5303 45.1294L66.8788 45.2857V45.9372H73.655V45.2857L72.6124 45.1294C72.2475 45.0511 72.0912 44.8687 72.0912 44.4776V36.8151C72.0912 33.948 70.2929 32.6449 68.3383 32.6449C66.4356 32.6449 64.7938 33.5312 63.8033 36.2418H63.7512V35.1733C63.7512 34.2089 63.8033 33.3488 63.9075 32.8274L63.7512 32.6447ZM80.1446 33.3747C81.6822 33.3747 82.3337 34.9644 81.8649 37.9878H77.5644C77.6945 35.4856 78.4505 33.3747 80.1446 33.3747ZM85.5136 38.6655C86.2958 33.8959 83.0379 32.6449 80.1705 32.6449C76.9126 32.6449 73.1336 34.8602 73.1336 39.5518C73.1336 43.9826 76.2611 46.1979 79.9101 46.1979C82.5685 46.1979 84.5234 44.6601 85.3835 43.2788L85.0445 42.8879C84.0805 43.7219 82.9855 44.1912 81.7086 44.1912C78.8156 44.1912 77.4602 41.7673 77.5647 38.6657H85.5136V38.6655ZM91.4036 46.1977C94.4007 46.1977 96.4598 44.5033 96.4598 42.0278C96.4598 39.6819 95.2868 38.6655 92.0551 37.2059L91.9439 37.1566C91.0345 36.7546 90.0481 36.3186 90.0481 35.0167C90.0481 34.1307 90.6476 33.375 91.7946 33.375C93.406 33.375 94.0269 34.6724 94.9144 36.5269C94.9597 36.6216 95.0057 36.7176 95.0525 36.8151H95.7038L95.5737 33.1661C93.5408 32.7753 92.7066 32.6449 91.5339 32.6449C88.1454 32.6449 86.5816 34.4691 86.5816 36.5546C86.5816 38.6395 87.5981 39.7342 90.0743 40.8548C92.1852 41.8192 92.7587 42.6011 92.7587 43.6698C92.7587 44.7904 92.0551 45.4681 90.9604 45.4681C89.1621 45.4681 88.3279 44.0871 87.2852 42.028H86.6337L86.9725 45.6768C88.9275 46.0676 90.1526 46.1977 91.4036 46.1977ZM101.829 46.1977C104.826 46.1977 106.885 44.5033 106.885 42.0278C106.885 39.6819 105.713 38.6655 102.481 37.2059L102.369 37.1566C101.46 36.7546 100.474 36.3186 100.474 35.0167C100.474 34.1307 101.073 33.375 102.22 33.375C103.832 33.375 104.453 34.6732 105.341 36.5286C105.386 36.6227 105.431 36.7182 105.478 36.8151H106.129L105.999 33.1661C103.967 32.7753 103.132 32.6449 101.959 32.6449C98.5709 32.6449 97.0071 34.4691 97.0071 36.5546C97.0071 38.6395 98.0235 39.7342 100.5 40.8548C102.611 41.8192 103.184 42.6011 103.184 43.6698C103.184 44.7904 102.48 45.4681 101.386 45.4681C99.5876 45.4681 98.7533 44.0871 97.711 42.028H97.0592L97.3979 45.6768C99.3533 46.0676 100.578 46.1977 101.829 46.1977ZM116.033 28.9439H117.336C119.422 28.9439 119.943 30.6901 119.943 33.2441C119.943 35.7984 119.422 37.6229 117.336 37.6229H116.033V28.9439ZM118.64 38.3526C122.81 38.3526 124.895 36.0067 124.895 33.2441C124.895 30.4815 122.81 28.2141 118.64 28.2141H109.517V28.8656L110.821 29.048C111.185 29.0742 111.342 29.3085 111.342 29.6996V44.4774C111.342 44.8682 111.186 45.0768 110.821 45.1292L109.517 45.2854V45.937H118.379V45.2854L116.554 45.1292C116.19 45.0768 116.033 44.8684 116.033 44.4774V38.3524H118.64V38.3526ZM131.411 33.3747C133.157 33.3747 133.756 35.7463 133.756 39.4212C133.756 43.0963 133.183 45.4679 131.411 45.4679C129.638 45.4679 129.065 43.0963 129.065 39.4212C129.065 35.7463 129.638 33.3747 131.411 33.3747ZM131.411 46.1977C135.242 46.1977 138.187 43.513 138.187 39.4212C138.187 35.3293 135.242 32.6447 131.411 32.6447C127.553 32.6447 124.634 35.329 124.634 39.4212C124.634 43.5133 127.553 46.1977 131.411 46.1977ZM143.947 46.1977C146.944 46.1977 149.003 44.5033 149.003 42.0278C149.003 39.6819 147.83 38.6655 144.598 37.2059L144.487 37.1566C143.578 36.7546 142.591 36.3186 142.591 35.0167C142.591 34.1307 143.191 33.375 144.337 33.375C145.95 33.375 146.571 34.6735 147.458 36.5294L147.512 36.6422L147.595 36.8151H148.247L148.117 33.1661C146.084 32.7753 145.25 32.6449 144.077 32.6449C140.689 32.6449 139.125 34.4691 139.125 36.5546C139.125 38.6395 140.141 39.7342 142.617 40.8548C144.729 41.8192 145.302 42.6011 145.302 43.6698C145.302 44.7904 144.598 45.4681 143.503 45.4681C141.705 45.4681 140.871 44.0871 139.828 42.028H139.177L139.516 45.6768C141.471 46.0676 142.696 46.1977 143.947 46.1977ZM149.655 33.114V33.6613H151.218V43.3308C151.218 45.5461 152.391 46.1977 154.476 46.1977C155.988 46.1977 157.473 45.8069 158.516 45.2854L158.412 44.6077C157.891 44.8161 157.448 44.9464 156.952 44.9464C156.118 44.9464 155.389 44.686 155.389 42.9395V33.6611H158.255V32.9051H155.389V29.7776H154.737L152.521 32.2015C152.078 32.6706 151.661 32.9313 151.062 32.9834L149.655 33.114ZM10.2698 23.0784V7.54492H8.54976C8.15868 7.54492 7.95032 7.59676 7.76787 7.93574L5.70885 11.5064H5.05732V6.81487H20.1741V11.5062H19.5223L17.4374 7.93548C17.2549 7.62268 17.0466 7.54467 16.6555 7.54467H14.9614V23.0784C14.9614 23.4692 15.1176 23.6779 15.4825 23.73L16.7856 23.8862V24.538H8.44531V23.8862L9.74863 23.73C10.1135 23.6779 10.2698 23.4692 10.2698 23.0784ZM26.2983 6.03288L20.5641 6.89303V7.54455H21.6067C21.9716 7.54455 22.1279 7.67491 22.1279 8.06573V23.0781C22.1279 23.4689 21.9716 23.6513 21.6067 23.7296L20.5641 23.8859V24.5377H27.8618V23.8859L26.8195 23.7296C26.4546 23.6513 26.2983 23.4689 26.2983 23.0781V17.0316C26.2983 15.2854 27.2626 13.7737 28.8002 13.7737C29.947 13.7737 30.4682 14.5294 30.4682 15.5199V23.0783C30.4682 23.4691 30.442 23.6257 30.0771 23.7299L29.4256 23.8861V24.5379H36.2021V23.8861L35.1595 23.7299C34.7948 23.6516 34.6383 23.4691 34.6383 23.0783V15.4155C34.6383 12.5487 32.84 11.2454 30.8854 11.2454C28.9827 11.2454 27.3406 12.1317 26.3501 14.8422H26.298V8.56098C26.298 7.59665 26.3501 6.7365 26.4543 6.21532L26.2983 6.03288ZM44.9332 16.5885C45.4022 13.5651 44.751 11.9752 43.2131 11.9752C41.519 11.9752 40.7633 14.0866 40.6329 16.5885H44.9332ZM43.2393 11.2457C46.1061 11.2457 49.364 12.4966 48.5821 17.2662H40.6329C40.5285 20.3678 41.8836 22.7917 44.7766 22.7917C46.0538 22.7917 47.1485 22.3224 48.1128 21.4884L48.4518 21.8795C47.5916 23.2606 45.6368 24.7984 42.9786 24.7984C39.3296 24.7984 36.2021 22.5831 36.2021 18.1525C36.2021 13.4612 39.9814 11.2457 43.2393 11.2457Z" fill="#535366"/>
</svg>
