<svg width="128" height="56" viewBox="0 0 128 56" fill="none" xmlns="http://www.w3.org/2000/svg">
<g clip-path="url(#clip0_4329_120)">
<path d="M23.1573 24.0826V26.0855H22.9665C22.8498 25.6244 22.7202 25.2931 22.5782 25.0915C22.436 24.8901 22.2411 24.7291 21.9932 24.6096C21.8545 24.5446 21.6118 24.5117 21.2656 24.5117H20.7252V30.2027C20.7252 30.5813 20.7455 30.8184 20.7868 30.9126C20.8278 31.0075 20.908 31.0898 21.0277 31.1609C21.1472 31.232 21.3104 31.2677 21.5176 31.2677H21.7586V31.4585H17.9115V31.2677H18.1537C18.3653 31.2677 18.5358 31.2294 18.665 31.1529C18.7583 31.1019 18.8318 31.0142 18.8858 30.8906C18.9252 30.8033 18.9448 30.5742 18.9448 30.2025V24.5117H18.4044C17.9015 24.5117 17.5365 24.617 17.309 24.8279C16.9896 25.1218 16.788 25.5412 16.7035 26.0855H16.5127V24.0826H23.1573Z" fill="white"/>
<path d="M26.6005 27.9137V30.2027C26.6005 30.5813 26.621 30.8184 26.6623 30.9126C26.7034 31.0075 26.7842 31.0898 26.9046 31.1609C27.0247 31.232 27.187 31.2677 27.3916 31.2677H27.6339V31.4585H23.7868V31.2677H24.0301C24.2427 31.2677 24.4141 31.2294 24.544 31.1529C24.6375 31.1019 24.7097 31.0142 24.7603 30.8906C24.8 30.8033 24.8199 30.5742 24.8199 30.2025V25.3383C24.8199 24.9599 24.8 24.7229 24.7603 24.6286C24.7205 24.5338 24.6403 24.4508 24.5195 24.3797C24.3988 24.3088 24.2356 24.2734 24.0299 24.2734H23.7866V24.0826H27.6334V24.2732H27.3912C27.1796 24.2732 27.0091 24.3116 26.8799 24.3879C26.7866 24.4391 26.7129 24.5262 26.6593 24.6498C26.6197 24.7371 26.6003 24.9668 26.6003 25.3383V27.4368H29.1915V25.3383C29.1915 24.9599 29.1716 24.7229 29.1318 24.6286C29.0921 24.5338 29.011 24.4508 28.8885 24.3797C28.7658 24.3088 28.6017 24.2734 28.3962 24.2734H28.1583V24.0826H32.0052V24.2732H31.7673C31.5508 24.2732 31.3796 24.3116 31.2534 24.3879C31.1594 24.4391 31.0855 24.5262 31.0317 24.6498C30.9919 24.7371 30.9721 24.9668 30.9721 25.3383V30.2027C30.9721 30.5813 30.9917 30.8184 31.0315 30.9126C31.0712 31.0075 31.1523 31.0898 31.2748 31.1609C31.3973 31.232 31.5618 31.2677 31.7673 31.2677H32.0052V31.4585H28.1583V31.2677H28.3962C28.6125 31.2677 28.7839 31.2294 28.9101 31.1529C29.0039 31.1019 29.0776 31.0142 29.1318 30.8906C29.1716 30.8033 29.1915 30.5742 29.1915 30.2025V27.9137H26.6005Z" fill="white"/>
<path d="M35.2686 24.5117V27.5003H35.4162C35.886 27.5003 36.2266 27.3527 36.4381 27.0577C36.6492 26.7626 36.7841 26.3273 36.8424 25.7517H37.0332V29.6303H36.8424C36.7988 29.2092 36.7067 28.8638 36.5665 28.5946C36.4262 28.326 36.2633 28.1451 36.0775 28.0526C35.8916 27.9597 35.6219 27.9135 35.2686 27.9135V29.9903C35.2686 30.3962 35.2859 30.6444 35.3203 30.735C35.3546 30.8257 35.4188 30.8999 35.5132 30.9578C35.6075 31.0161 35.7596 31.0446 35.9699 31.0446H36.41C37.0985 31.0446 37.6502 30.8858 38.0651 30.5684C38.48 30.2509 38.778 29.7656 38.9593 29.113H39.1635L38.8316 31.4582H32.4549V31.2674H32.6982C32.9108 31.2674 33.0822 31.2292 33.2121 31.1527C33.3059 31.1017 33.3778 31.014 33.4284 30.8904C33.4682 30.8031 33.488 30.574 33.488 30.2023V25.3383C33.488 25.0036 33.479 24.7974 33.461 24.7209C33.4247 24.5939 33.3582 24.4955 33.2609 24.4266C33.1237 24.3246 32.9363 24.2734 32.6982 24.2734H32.4549V24.0826H38.6226V26.2604H38.4318C38.3255 25.7296 38.1764 25.3487 37.9843 25.1177C37.7919 24.8869 37.5201 24.7172 37.1689 24.609C36.9637 24.5437 36.5794 24.5115 36.0157 24.5115L35.2686 24.5117Z" fill="white"/>
<path d="M46.5208 31.2677V31.4585H42.6739V31.2677H42.9172C43.1299 31.2677 43.3012 31.2294 43.4313 31.1529C43.5247 31.1019 43.5966 31.0142 43.6474 30.8906C43.6872 30.8033 43.7071 30.5742 43.7071 30.2025V25.3383C43.7071 24.9599 43.6872 24.7229 43.6474 24.6286C43.6077 24.5338 43.5277 24.4508 43.4069 24.3797C43.2861 24.3088 43.1227 24.2734 42.917 24.2734H42.6737V24.0826H46.5206V24.2732H46.2786C46.067 24.2732 45.8965 24.3116 45.7675 24.3879C45.6741 24.4391 45.6 24.5262 45.5464 24.6498C45.5071 24.7371 45.4872 24.9668 45.4872 25.3383V30.2027C45.4872 30.5813 45.5082 30.8184 45.5495 30.9126C45.5905 31.0075 45.6711 31.0898 45.7915 31.1609C45.9116 31.232 46.0741 31.2677 46.2788 31.2677H46.5208Z" fill="white"/>
<path d="M49.7451 28.1045V30.171C49.7451 30.5716 49.7697 30.8234 49.8192 30.9267C49.8687 31.0304 49.9556 31.1134 50.0803 31.1749C50.205 31.237 50.4377 31.2679 50.7785 31.2679V31.4587H46.9791V31.2679C47.3234 31.2679 47.5572 31.2361 47.6799 31.1726C47.8027 31.109 47.8889 31.0261 47.9381 30.9243C47.9874 30.8225 48.0125 30.5716 48.0125 30.1712V25.3701C48.0125 24.9696 47.9876 24.7177 47.9381 24.614C47.8887 24.5107 47.8018 24.4279 47.6771 24.3663C47.5524 24.3041 47.3199 24.2732 46.9791 24.2732V24.0826H50.4137C51.3077 24.0826 51.962 24.144 52.3762 24.2678C52.7905 24.3907 53.1282 24.6189 53.3902 24.9506C53.6518 25.283 53.7828 25.6719 53.7828 26.1186C53.7828 26.6632 53.5864 27.1131 53.1939 27.4687C52.9431 27.6937 52.5923 27.8627 52.1418 27.9751L53.912 30.4746C54.145 30.7927 54.3105 30.9908 54.4088 31.0693C54.5579 31.1801 54.7308 31.2406 54.9274 31.2517V31.4582H52.6036L50.2283 28.1043L49.7451 28.1045ZM49.7451 24.4957V27.7229H50.0543C50.5574 27.7229 50.9336 27.6766 51.1832 27.5841C51.4328 27.4917 51.629 27.3255 51.7723 27.0843C51.9151 26.8434 51.9866 26.5294 51.9866 26.1415C51.9866 25.5801 51.8555 25.1659 51.5931 24.8975C51.331 24.6299 50.9083 24.4957 50.326 24.4957H49.7451Z" fill="white"/>
<path d="M58.9057 31.2677V31.4585H55.0588V31.2677H55.3021C55.5148 31.2677 55.6861 31.2294 55.8162 31.1529C55.9096 31.1019 55.9815 31.0142 56.0323 30.8906C56.0721 30.8033 56.0919 30.5742 56.0919 30.2025V25.3383C56.0919 24.9599 56.0721 24.7229 56.0323 24.6286C55.9925 24.5338 55.9126 24.4508 55.7918 24.3797C55.671 24.3088 55.5076 24.2734 55.3019 24.2734H55.0586V24.0826H58.9055V24.2732H58.6634C58.4519 24.2732 58.2814 24.3116 58.1522 24.3879C58.0588 24.4391 57.9849 24.5262 57.9313 24.6498C57.892 24.7371 57.8721 24.9668 57.8721 25.3383V30.2027C57.8721 30.5813 57.8931 30.8184 57.9344 30.9126C57.9754 31.0075 58.056 31.0898 58.1762 31.1609C58.2965 31.232 58.4588 31.2677 58.6634 31.2677H58.9057Z" fill="white"/>
<path d="M64.3871 23.9236L64.4506 26.3875H64.228C64.1226 25.771 63.8633 25.2755 63.4505 24.8997C63.0378 24.5248 62.5911 24.337 62.1112 24.337C61.7401 24.337 61.4465 24.4353 61.2302 24.6319C61.0136 24.8286 60.9056 25.0553 60.9056 25.3115C60.9056 25.474 60.9438 25.6186 61.0206 25.7448C61.1264 25.9147 61.2963 26.0826 61.5299 26.2485C61.7013 26.3678 62.0973 26.5787 62.7184 26.8819C63.5873 27.3048 64.171 27.7037 64.4692 28.0793C64.7637 28.4553 64.9113 28.8851 64.9113 29.3689C64.9113 29.9828 64.6699 30.5114 64.1876 30.9539C63.7053 31.3967 63.0927 31.6176 62.3502 31.6176C62.1172 31.6176 61.8968 31.5938 61.6892 31.5471C61.4815 31.4998 61.2213 31.4114 60.9084 31.2809C60.7336 31.2089 60.5897 31.1726 60.4769 31.1726C60.382 31.1726 60.282 31.2094 60.1763 31.2824C60.0706 31.3561 59.9853 31.4672 59.9196 31.6178H59.7288V28.8356H59.9196C60.0801 29.6159 60.3896 30.211 60.8477 30.6209C61.3058 31.0309 61.7998 31.2359 62.3292 31.2359C62.7381 31.2359 63.0637 31.1257 63.3066 30.9057C63.5495 30.6858 63.6709 30.4293 63.6709 30.1367C63.6709 29.9631 63.6243 29.7955 63.5311 29.633C63.438 29.4705 63.2964 29.316 63.1067 29.1699C62.917 29.0238 62.5807 28.833 62.0991 28.5985C61.4236 28.2701 60.9387 27.99 60.6443 27.7584C60.35 27.5269 60.1238 27.2685 59.9658 26.983C59.8078 26.6973 59.7288 26.3825 59.7288 26.0387C59.7288 25.4529 59.9449 24.9541 60.3775 24.5418C60.8101 24.1295 61.3562 23.9236 62.0144 23.9236C62.2542 23.9236 62.4867 23.953 62.7123 24.0111C62.8833 24.0548 63.0912 24.1362 63.3364 24.2544C63.5819 24.3733 63.7535 24.4323 63.8518 24.4323C63.9462 24.4323 64.0206 24.4029 64.0752 24.3447C64.1299 24.2862 64.1809 24.1462 64.228 23.9236H64.3871Z" fill="white"/>
<path d="M68.4071 27.9137V30.2027C68.4071 30.5813 68.4278 30.8184 68.4689 30.9126C68.5101 31.0075 68.5907 31.0898 68.7111 31.1609C68.8315 31.232 68.9935 31.2677 69.1982 31.2677H69.4404V31.4585H65.5933V31.2677H65.8369C66.0493 31.2677 66.2206 31.2294 66.3507 31.1529C66.4445 31.1019 66.5165 31.0142 66.567 30.8906C66.6068 30.8033 66.6265 30.5742 66.6265 30.2025V25.3383C66.6265 24.9599 66.6066 24.7229 66.567 24.6286C66.5273 24.5338 66.4469 24.4508 66.3263 24.3797C66.2055 24.3088 66.0426 24.2734 65.8369 24.2734H65.5933V24.0826H69.4404V24.2732H69.1982C68.9866 24.2732 68.8161 24.3116 68.6871 24.3879C68.5935 24.4391 68.5201 24.5262 68.4663 24.6498C68.4267 24.7371 68.4073 24.9668 68.4073 25.3383V27.4368H70.9984V25.3383C70.9984 24.9599 70.9786 24.7229 70.9388 24.6286C70.899 24.5338 70.818 24.4508 70.6955 24.3797C70.5727 24.3088 70.4089 24.2734 70.2032 24.2734H69.9651V24.0826H73.8122V24.2732H73.574C73.3575 24.2732 73.1864 24.3116 73.0602 24.3879C72.9662 24.4391 72.8923 24.5262 72.8385 24.6498C72.7987 24.7371 72.779 24.9668 72.779 25.3383V30.2027C72.779 30.5813 72.7987 30.8184 72.8382 30.9126C72.878 31.0075 72.959 31.0898 73.0816 31.1609C73.2043 31.232 73.3685 31.2677 73.574 31.2677H73.8122V31.4585H69.9651V31.2677H70.2032C70.4195 31.2677 70.5909 31.2294 70.7171 31.1529C70.8111 31.1019 70.8848 31.0142 70.9388 30.8906C70.9788 30.8033 70.9984 30.5742 70.9984 30.2025V27.9137H68.4071Z" fill="white"/>
<path d="M83.8516 24.0826V26.0855H83.6608C83.5439 25.6244 83.4143 25.2931 83.2723 25.0915C83.1303 24.8901 82.9352 24.7291 82.6873 24.6096C82.5486 24.5446 82.3059 24.5117 81.9597 24.5117H81.4193V30.2027C81.4193 30.5813 81.4398 30.8184 81.4809 30.9126C81.5215 31.0075 81.6023 31.0898 81.7218 31.1609C81.8413 31.232 82.0045 31.2677 82.2117 31.2677H82.4527V31.4585H78.6056V31.2677H78.8478C79.0591 31.2677 79.2298 31.2294 79.3589 31.1529C79.4524 31.1019 79.5257 31.0142 79.5795 30.8906C79.6188 30.8033 79.6387 30.5742 79.6387 30.2025V24.5117H79.098C78.5954 24.5117 78.2302 24.617 78.0029 24.8279C77.6833 25.1218 77.4817 25.5412 77.3972 26.0855H77.2064V24.0826H83.8516Z" fill="white"/>
<path d="M88.328 31.2677V31.4585H84.4809V31.2677H84.7244C84.9369 31.2677 85.1082 31.2294 85.2383 31.1529C85.3321 31.1019 85.404 31.0142 85.4546 30.8906C85.4944 30.8033 85.5143 30.5742 85.5143 30.2025V25.3383C85.5143 24.9599 85.4942 24.7229 85.4546 24.6286C85.4148 24.5338 85.3345 24.4508 85.2139 24.3797C85.0931 24.3088 84.9302 24.2734 84.7244 24.2734H84.4809V24.0826H88.328V24.2732H88.0858C87.8742 24.2732 87.7037 24.3116 87.5747 24.3879C87.4811 24.4391 87.4077 24.5262 87.3538 24.6498C87.3143 24.7371 87.2949 24.9668 87.2949 25.3383V30.2027C87.2949 30.5813 87.3156 30.8184 87.3567 30.9126C87.3977 31.0075 87.4785 31.0898 87.5989 31.1609C87.7193 31.232 87.8811 31.2677 88.086 31.2677H88.328Z" fill="white"/>
<path d="M93.8917 28.9354L95.8817 24.0826H98.8802V24.2732H98.6421C98.4255 24.2732 98.2522 24.3121 98.1228 24.389C98.0325 24.4406 97.9603 24.5271 97.9065 24.6483C97.8665 24.7367 97.8468 24.9668 97.8468 25.3381V30.2025C97.8468 30.5811 97.8665 30.8182 97.9063 30.9124C97.946 31.0073 98.0271 31.0896 98.1496 31.1607C98.2721 31.2318 98.4363 31.2674 98.6421 31.2674H98.8802V31.4582H95.0331V31.2674H95.2712C95.4875 31.2674 95.6606 31.2292 95.7905 31.1527C95.8806 31.1017 95.9526 31.014 96.0068 30.8904C96.0466 30.8031 96.0665 30.574 96.0665 30.2023V24.7343L93.2588 31.4585H93.1278L90.2495 24.7834V29.98C90.2495 30.3439 90.2583 30.5677 90.2771 30.6511C90.3242 30.8329 90.4271 30.9809 90.5855 31.0959C90.7437 31.2104 90.9922 31.2677 91.3308 31.2677V31.4585H88.8032V31.2677H88.8797C89.0426 31.2713 89.1947 31.245 89.3363 31.1877C89.4776 31.1311 89.5843 31.0546 89.6569 30.9591C89.7293 30.8638 89.7855 30.73 89.8255 30.5574C89.8326 30.5169 89.8365 30.3298 89.8365 29.9959V25.3383C89.8365 24.9593 89.8162 24.7229 89.7767 24.6291C89.7365 24.5351 89.655 24.4527 89.5316 24.3808C89.4087 24.3093 89.2436 24.2734 89.037 24.2734H88.8032V24.0826H91.8187L93.8917 28.9354Z" fill="white"/>
<path d="M102.15 24.5117V27.5003H102.297C102.767 27.5003 103.108 27.3527 103.319 27.0577C103.531 26.7626 103.666 26.3273 103.724 25.7517H103.914V29.6303H103.724C103.68 29.2092 103.588 28.8638 103.448 28.5946C103.308 28.326 103.145 28.1451 102.959 28.0526C102.773 27.9597 102.503 27.9135 102.15 27.9135V29.9903C102.15 30.3962 102.167 30.6444 102.202 30.735C102.236 30.8257 102.3 30.8999 102.395 30.9578C102.489 31.0161 102.641 31.0446 102.851 31.0446H103.291C103.98 31.0446 104.531 30.8858 104.946 30.5684C105.361 30.2509 105.659 29.7656 105.84 29.113H106.044L105.713 31.4582H99.3363V31.2674H99.5797C99.7923 31.2674 99.9637 31.2292 100.093 31.1527C100.187 31.1017 100.259 31.014 100.31 30.8904C100.35 30.8031 100.369 30.574 100.369 30.2023V25.3383C100.369 25.0036 100.36 24.7974 100.342 24.7209C100.306 24.5939 100.239 24.4955 100.142 24.4266C100.005 24.3246 99.8176 24.2734 99.5794 24.2734H99.3361V24.0826H105.504V26.2604H105.313C105.207 25.7296 105.058 25.3487 104.865 25.1177C104.673 24.8869 104.401 24.7172 104.05 24.609C103.845 24.5437 103.461 24.5115 102.897 24.5115L102.15 24.5117Z" fill="white"/>
<path d="M111.761 23.9236L111.824 26.3875H111.602C111.496 25.771 111.237 25.2755 110.824 24.8997C110.411 24.5248 109.965 24.337 109.485 24.337C109.114 24.337 108.82 24.4353 108.604 24.6319C108.387 24.8286 108.279 25.0553 108.279 25.3115C108.279 25.474 108.318 25.6186 108.394 25.7448C108.5 25.9147 108.67 26.0826 108.904 26.2485C109.075 26.3678 109.471 26.5787 110.092 26.8819C110.961 27.3048 111.545 27.7037 111.843 28.0793C112.138 28.4553 112.285 28.8851 112.285 29.3689C112.285 29.9828 112.044 30.5114 111.561 30.9539C111.079 31.3967 110.467 31.6176 109.724 31.6176C109.491 31.6176 109.27 31.5938 109.063 31.5471C108.855 31.4998 108.595 31.4114 108.282 31.2809C108.107 31.2089 107.963 31.1726 107.851 31.1726C107.756 31.1726 107.656 31.2094 107.55 31.2824C107.445 31.3561 107.359 31.4672 107.294 31.6178H107.103V28.8356H107.294C107.454 29.6159 107.764 30.211 108.222 30.6209C108.68 31.0306 109.174 31.2359 109.703 31.2359C110.112 31.2359 110.437 31.1257 110.681 30.9057C110.923 30.6855 111.045 30.4293 111.045 30.1367C111.045 29.9631 110.998 29.7955 110.905 29.633C110.812 29.4705 110.67 29.316 110.481 29.1699C110.291 29.0238 109.955 28.833 109.473 28.5985C108.797 28.2701 108.313 27.99 108.018 27.7584C107.724 27.5267 107.498 27.2685 107.34 26.983C107.182 26.6973 107.103 26.3825 107.103 26.0387C107.103 25.4529 107.319 24.9541 107.751 24.5418C108.184 24.1295 108.73 23.9236 109.388 23.9236C109.628 23.9236 109.86 23.953 110.086 24.0111C110.257 24.0548 110.464 24.1362 110.71 24.2544C110.955 24.3733 111.127 24.4323 111.225 24.4323C111.32 24.4323 111.394 24.4029 111.449 24.3447C111.504 24.2862 111.554 24.1462 111.602 23.9236H111.761Z" fill="white"/>
</g>
<defs>
<clipPath id="clip0_4329_120">
<rect width="97.202" height="8.7727" fill="white" transform="translate(15.798 23.2526)"/>
</clipPath>
</defs>
</svg>
