<svg width="128" height="56" viewBox="0 0 128 56" fill="none" xmlns="http://www.w3.org/2000/svg">
<g clip-path="url(#clip0_4329_373)">
<path d="M47.6753 23H49.8374V30.4144H56.3237V32.3985H47.6753V23Z" fill="white"/>
<path d="M57.9452 23H67.6747V24.9841H63.891V32.3985H61.7289V24.9841H57.9452V23Z" fill="white"/>
<path fill-rule="evenodd" clip-rule="evenodd" d="M80.9835 23.9325C80.3289 23.3462 79.3858 23 78.2242 23H72.5396V32.3985H74.7017V29.1357H78.2637L80.1339 32.3985H82.8096L80.4707 28.6266C81.4073 28.0862 81.9642 27.1985 81.9642 26.1328C81.9642 25.3131 81.6357 24.5163 80.9835 23.9325ZM74.7017 27.1771V24.9841H78.1771C78.8107 24.9841 79.1863 25.1627 79.4056 25.3679C79.6344 25.5815 79.7435 25.8692 79.7435 26.1511C79.7435 26.4221 79.642 26.6644 79.4326 26.8403C79.2239 27.0153 78.8457 27.1771 78.1767 27.1771H74.7017Z" fill="white"/>
<path d="M86.0522 32.3985H88.3497L91.4575 25.6107L94.5657 32.3985H96.8628L92.5386 23H90.3765L86.0522 32.3985Z" fill="white"/>
<path d="M32 27.2565V23H34.1621V27.2894C34.1675 28.3723 34.4891 29.1007 35.0215 29.6061C35.5658 30.1178 36.2934 30.4144 37.4053 30.4144C38.5187 30.4144 39.2549 30.1167 39.7981 29.6056C40.3257 29.1043 40.6484 28.3681 40.6484 27.2559V23H42.8105V27.2565C42.8105 28.7842 42.3467 30.1152 41.3078 31.1004C40.2857 32.0643 38.9685 32.5029 37.4053 32.5029C35.8404 32.5029 34.5329 32.0623 33.5108 31.1004C32.4778 30.1204 32.007 28.7665 32 27.2565Z" fill="white"/>
</g>
<defs>
<clipPath id="clip0_4329_373">
<rect width="65" height="9.50292" fill="white" transform="translate(32 23)"/>
</clipPath>
</defs>
</svg>
