<svg width="128" height="56" viewBox="0 0 128 56" fill="none" xmlns="http://www.w3.org/2000/svg">
<g clip-path="url(#clip0_4329_803)">
<path d="M39.4251 25.1225L41.8481 23.7229L34.5791 19.5262L27.31 23.7229L29.733 25.1225L27.31 26.521L29.733 27.9196L27.31 29.3191L29.733 30.7177L27.31 32.1163L34.58 36.313L41.8481 32.1163L39.4261 30.7177L41.8481 29.3191L39.4251 27.9206L41.8481 26.521L39.4251 25.1225Z" fill="white"/>
<path d="M55.1224 23.4651H58.7114L61.9825 29.6293L62.7152 29.165C61.8856 27.8469 61.3845 26.6257 61.3845 25.2717V23.4651H63.9723V32.0096H60.9571L57.088 24.6979L56.3436 25.137C57.1122 26.3213 57.7112 27.8711 57.7112 29.3967V32.0087H55.1234V23.4651H55.1224Z" fill="white"/>
<path d="M81.9512 23.4651H85.5402L88.8112 29.6293L89.544 29.165C88.7143 27.8469 88.2132 26.6257 88.2132 25.2717V23.4651H90.801V32.0096H87.7858L83.9167 24.6979L83.1724 25.137C83.941 26.3213 84.5399 27.8711 84.5399 29.3967V32.0087H81.9521V23.4651H81.9512Z" fill="white"/>
<path d="M46.2648 23.5116H48.9573V28.0872C48.9573 29.3908 49.3799 29.9704 50.3336 29.9704C51.2873 29.9704 51.6982 29.3908 51.6982 28.0872V23.5116H54.4149V28.4013C54.4149 30.9125 53.0028 32.1686 50.3462 32.1686C47.6896 32.1686 46.2648 30.9125 46.2648 28.4013V23.5116Z" fill="white"/>
<path d="M64.7573 23.5116H69.1042C70.9515 23.5116 71.9779 24.3209 71.9779 25.5644C71.9779 26.5782 71.3499 27.2789 70.2275 27.5328C71.5195 27.75 72.3046 28.5709 72.3046 29.67C72.3046 31.1063 71.0727 31.9641 69.1653 31.9641H64.7583V23.5116H64.7573ZM68.6448 26.8321C69.176 26.8321 69.5142 26.5665 69.5142 26.1323C69.5142 25.6981 69.176 25.4326 68.6448 25.4326H67.3412V26.8331H68.6448V26.8321ZM68.6565 30.0315C69.2477 30.0315 69.6344 29.7659 69.6344 29.2706C69.6344 28.7754 69.2477 28.4982 68.6565 28.4982H67.3403V30.0315H68.6565Z" fill="white"/>
<path d="M78.114 30.4172H75.1676L74.6966 31.9631H72.0283L74.9263 23.5116H78.5366L81.4587 31.9631H78.585L78.114 30.4172ZM77.547 28.4614L77.2572 27.4718C77.076 26.8563 76.8831 26.1682 76.6776 25.4074L76.509 26.0112L76.0738 27.496L75.7724 28.4623H77.547V28.4614Z" fill="white"/>
<path d="M94.4695 27.5076L91.62 23.5116H94.7709L95.3379 24.3567L96.183 25.5644L96.9071 24.4411L97.5109 23.5116H100.662L97.8608 27.5202L101 31.9631H97.8249L97.0282 30.7555L96.8227 30.454L96.1704 29.4403L95.2894 30.7681L94.5044 31.9631H91.2924L94.4675 27.5076H94.4695Z" fill="white"/>
</g>
<defs>
<clipPath id="clip0_4329_803">
<rect width="73.69" height="16.7867" fill="white" transform="translate(27.31 19.5262)"/>
</clipPath>
</defs>
</svg>
