<svg width="128" height="56" viewBox="0 0 128 56" fill="none" xmlns="http://www.w3.org/2000/svg">
<path d="M71.1488 35.3812C72.279 35.3812 73.7184 35.39 74.8384 35.3783C75.3651 35.373 75.8137 35.1414 76.1491 34.7472C76.6302 34.187 76.7108 33.5307 76.3967 32.8738C76.0894 32.2316 75.5559 31.8728 74.817 31.8738C74.2762 31.8738 73.7352 31.8738 73.1941 31.8738C72.614 31.8738 71.7421 31.8806 71.145 31.8709C71.138 31.8708 71.1311 31.8721 71.1247 31.8747C71.1182 31.8773 71.1124 31.8811 71.1074 31.886C71.1024 31.8909 71.0985 31.8967 71.0958 31.9031C71.093 31.9095 71.0916 31.9163 71.0916 31.9233C71.0916 31.9718 71.0916 32.0505 71.0916 32.1786C71.1003 33.1389 71.0916 34.0996 71.0959 35.0603C71.0959 35.1997 71.0959 35.2793 71.0935 35.324C71.0929 35.3315 71.0938 35.339 71.0964 35.3461C71.0989 35.3532 71.1029 35.3597 71.1082 35.3652C71.1134 35.3706 71.1197 35.3748 71.1268 35.3776C71.1338 35.3804 71.1413 35.3816 71.1488 35.3812Z" fill="white"/>
<path d="M68.2254 30.5266C68.2258 30.514 68.2224 30.5015 68.2157 30.4908C68.2089 30.4801 68.1992 30.4717 68.1877 30.4665C68.1762 30.4613 68.1634 30.4596 68.1509 30.4617C68.1385 30.4637 68.1269 30.4694 68.1177 30.478C68.058 30.5334 67.9905 30.597 67.9623 30.6237C66.9671 31.5946 66.003 32.5961 64.9617 33.5195C64.9523 33.5281 64.9447 33.5386 64.9393 33.5502C64.934 33.5618 64.931 33.5743 64.9305 33.5871C64.93 33.5998 64.932 33.6125 64.9365 33.6245C64.9409 33.6365 64.9476 33.6475 64.9563 33.6569C65.5602 34.2758 67.6264 36.2492 68.1254 36.723C68.1346 36.7319 68.1462 36.7378 68.1587 36.74C68.1713 36.7422 68.1842 36.7406 68.1958 36.7353C68.2074 36.7301 68.2172 36.7215 68.2238 36.7107C68.2305 36.6998 68.2338 36.6872 68.2332 36.6745C68.2332 36.6745 68.2269 36.6745 68.2269 33.6268C68.2269 32.7194 68.2279 31.4723 68.2254 30.5266Z" fill="white"/>
<path d="M79.043 17.8153C79.0032 17.1829 78.7404 16.5852 78.3014 16.1283C77.8624 15.6714 77.2756 15.385 76.6453 15.32L76.6259 15.3069H76.3972H76.3705H67.7968H60.8838H52.627H52.6008H52.2959C52.2914 15.3149 52.286 15.3224 52.2799 15.3292C51.6355 15.4137 51.0438 15.7296 50.615 16.2181C50.1863 16.7066 49.9498 17.3343 49.9497 17.9842V20.8285L49.9565 20.8251C49.9565 22.6052 49.9565 24.3839 49.9565 26.1614C49.9565 29.6936 49.9667 33.2263 49.9565 36.759L49.9516 36.7556V38.3217C49.9516 39.032 50.2338 39.7133 50.7361 40.2156C51.2384 40.7178 51.9196 41 52.6299 41H56.1073H68.3104C68.3157 40.5082 68.2905 39.7213 68.3764 39.3815C68.5439 38.7193 68.9969 38.3547 69.578 38.0955C69.644 38.0659 69.7129 38.044 69.7789 38.0149C69.8139 37.9999 70.2251 37.8765 70.2251 37.8765L69.0891 37.8727L65.3166 37.8421C64.699 37.2192 62.9582 35.4983 62.9582 35.4983C62.3295 36.1036 61.3047 37.0935 60.6503 37.7246C60.6086 37.7652 60.5527 37.7879 60.4944 37.7877H57.0724C57.0528 37.7879 57.0337 37.7822 57.0174 37.7714C57.0011 37.7605 56.9885 37.745 56.9812 37.7268C56.9739 37.7087 56.9723 37.6887 56.9765 37.6696C56.9807 37.6505 56.9907 37.6331 57.0049 37.6197C57.4802 37.1653 58.8041 35.8968 59.5148 35.1963C59.9959 34.7215 60.7517 34.0555 61.243 33.5904C61.243 33.5904 59.1939 31.6121 58.2739 30.7558C57.9152 30.4218 57.1088 29.6567 56.8176 29.3814C56.809 29.3735 56.803 29.3631 56.8004 29.3516C56.7978 29.3402 56.7987 29.3283 56.803 29.3173C56.8073 29.3064 56.8148 29.2971 56.8245 29.2905C56.8342 29.2839 56.8456 29.2804 56.8574 29.2805C57.9142 29.2805 59.4303 29.2805 60.4663 29.2805C60.4887 29.2801 60.511 29.2842 60.5318 29.2926C60.5527 29.3009 60.5717 29.3133 60.5877 29.329C60.7818 29.5232 61.4809 30.2256 61.7887 30.5315C62.1411 30.8825 62.4999 31.2281 62.8606 31.5704L62.9723 31.6767C63.5898 31.0621 64.6335 30.0708 65.2971 29.4042C65.3776 29.3229 65.4871 29.2768 65.6015 29.2761H65.7991C68.9007 29.2843 72.0019 29.2712 75.103 29.2868H75.1622C75.9871 29.2887 76.7935 29.5303 77.4835 29.9823C78.1735 30.4343 78.7171 31.0771 79.0484 31.8325V17.8264L79.043 17.8153Z" fill="white"/>
<path d="M75.5913 37.8542C75.4576 37.8698 75.323 37.8771 75.1884 37.8761C73.9203 37.8649 72.6523 37.8712 71.3843 37.8722C71.0372 37.8722 71.0071 37.9004 71.0066 38.2412C71.0066 38.9693 71.0066 40.2097 71.0066 41C72.4481 41 73.8896 40.9991 75.3311 40.9971L75.3282 41H76.3719C77.0556 41.0001 77.7134 40.7386 78.2106 40.2693C78.7077 39.7999 79.0066 39.1582 79.0459 38.4756L79.0502 38.4679V35.3298C78.7478 36.0185 78.2685 36.6148 77.661 37.0582C77.0534 37.5016 76.3394 37.7762 75.5913 37.8542Z" fill="white"/>
</svg>
