<svg width="128" height="56" viewBox="0 0 128 56" fill="none" xmlns="http://www.w3.org/2000/svg">
<g clip-path="url(#clip0_4329_571)">
<path d="M28.2165 24.1295L25.6825 21.92L25 25.055L27.5335 27.264L28.2165 24.1295Z" fill="white"/>
<path d="M28.7125 23.5195L26.2065 21.389L35.3765 18.25L37.8825 20.3805L28.7125 23.5195Z" fill="white"/>
<path d="M28.3295 27.5185L28.9845 24.3055L38.1545 21.1665L36.636 28.015L33 29.26L33.705 25.6785L28.3295 27.5185Z" fill="white"/>
<path d="M37.4415 31.8705L39.975 34.08L40.6575 30.945L38.124 28.736L37.441 31.871L37.4415 31.8705Z" fill="white"/>
<path d="M36.945 32.4805L39.4515 34.611L30.2815 37.75L27.775 35.6195L36.945 32.4805Z" fill="white"/>
<path d="M37.3284 28.4815L36.6729 31.6945L27.5029 34.8335L29.0214 27.9845L32.6574 26.74L31.9524 30.3215L37.3284 28.4815Z" fill="white"/>
<path d="M53.167 30.062V31.25H47.662V30.305L51.1165 26.138H47.734V24.95H53.032V25.895L49.587 30.062H53.167Z" fill="white"/>
<path d="M65.2729 30.08V31.25H60.3979V24.95H65.1559V26.12H61.846V27.488H64.7695V28.622H61.846V30.08H65.2729Z" fill="white"/>
<path d="M72.729 24.95H74.186V30.062H77.343V31.25H72.729V24.95Z" fill="white"/>
<path d="M87.1721 31.358C86.2726 31.358 85.5711 31.109 85.0676 30.611C84.5696 30.113 84.3206 29.402 84.3206 28.478V24.95H85.7781V28.424C85.7781 29.552 86.2456 30.116 87.1811 30.116C87.6371 30.116 87.9846 29.981 88.2246 29.711C88.4646 29.435 88.5846 29.006 88.5846 28.424V24.95H90.0236V28.478C90.0236 29.402 89.7716 30.113 89.2681 30.611C88.7701 31.109 88.0716 31.358 87.1721 31.358Z" fill="white"/>
<path d="M99.8285 31.358C99.339 31.3591 98.8517 31.2925 98.3805 31.16C97.9185 31.022 97.547 30.845 97.265 30.629L97.7595 29.531C98.0295 29.729 98.3505 29.888 98.722 30.008C99.094 30.128 99.466 30.188 99.8375 30.188C100.252 30.188 100.557 30.128 100.755 30.008C100.953 29.882 101.052 29.717 101.052 29.513C101.052 29.363 100.992 29.24 100.872 29.144C100.758 29.042 100.608 28.961 100.422 28.901C100.179 28.8238 99.9332 28.7578 99.6845 28.703C99.205 28.589 98.812 28.475 98.5065 28.361C98.2008 28.2472 97.9286 28.0585 97.715 27.812C97.499 27.56 97.391 27.224 97.391 26.804C97.391 26.438 97.49 26.108 97.688 25.814C97.8855 25.514 98.1825 25.277 98.5785 25.103C98.98 24.929 99.469 24.842 100.045 24.842C100.442 24.8414 100.837 24.8898 101.223 24.986C101.607 25.082 101.943 25.22 102.23 25.4L101.781 26.507C101.199 26.177 100.617 26.012 100.036 26.012C99.6275 26.012 99.325 26.078 99.127 26.21C98.935 26.342 98.839 26.516 98.839 26.732C98.839 26.948 98.95 27.11 99.172 27.218C99.4 27.32 99.7445 27.422 100.207 27.524C100.686 27.638 101.079 27.752 101.385 27.866C101.687 27.9772 101.956 28.163 102.167 28.406C102.389 28.652 102.5 28.985 102.5 29.405C102.5 29.765 102.398 30.095 102.194 30.395C101.997 30.689 101.697 30.923 101.295 31.097C100.893 31.271 100.404 31.358 99.8285 31.358Z" fill="white"/>
</g>
<defs>
<clipPath id="clip0_4329_571">
<rect width="77.5" height="20" fill="white" transform="translate(25 18)"/>
</clipPath>
</defs>
</svg>
