<svg width="443" height="259" viewBox="0 0 443 259" fill="none" xmlns="http://www.w3.org/2000/svg">
<mask id="mask0_124_405" style="mask-type:alpha" maskUnits="userSpaceOnUse" x="0" y="0" width="443" height="259">
<rect x="0.0634766" width="442" height="259" fill="#5E43E7"/>
</mask>
<g mask="url(#mask0_124_405)">
<g opacity="0.1">
<path fill-rule="evenodd" clip-rule="evenodd" d="M146.638 -43.9119C145.486 -42.0241 145.367 -39.6929 146.299 -37.708C146.205 -37.8455 146.115 -37.9865 146.029 -38.1308L156.609 -19.807C156.542 -19.9279 156.48 -20.0504 156.422 -20.1743C158.317 -17.3897 161.718 -16.001 165.047 -16.7005L169.098 -17.5519L165.379 -11.4514C164.227 -9.56359 164.108 -7.23244 165.04 -5.24748C164.946 -5.38503 164.856 -5.52598 164.77 -5.67026L175.35 12.6535C175.283 12.5326 175.221 12.4101 175.163 12.2862C177.058 15.0708 180.459 16.4595 183.788 15.76L216.366 8.91468C227.761 6.52048 237.66 -0.475052 243.722 -10.4162L251.693 -23.4885C252.844 -25.3764 252.963 -27.7075 252.032 -29.6925C252.125 -29.5549 252.215 -29.414 252.301 -29.2697L241.722 -47.5935C241.788 -47.4725 241.85 -47.35 241.909 -47.2262C240.014 -50.0108 236.612 -51.3993 233.284 -50.7L229.232 -49.8487L232.952 -55.949C234.103 -57.8369 234.222 -60.168 233.291 -62.153C233.384 -62.0154 233.474 -61.8745 233.56 -61.7302L222.981 -80.054C223.047 -79.933 223.109 -79.8105 223.168 -79.6867C221.273 -82.4713 217.871 -83.8598 214.543 -83.1605L181.965 -76.3152C170.57 -73.9209 160.67 -66.9254 154.608 -56.9843L146.638 -43.9119ZM172.611 -18.29L167.611 -10.09C166.88 -8.8906 166.841 -7.39395 167.508 -6.15941L167.807 -5.64081C169.441 -2.90596 172.726 -1.56359 175.984 -2.29957L177.8 -2.70977L185.8 -15.8293C187.313 -18.3106 189.236 -20.4766 191.464 -22.2512L172.611 -18.29ZM211.402 -29.1134C216.877 -32.5539 221.545 -37.2422 224.981 -42.8767L227.363 -46.7839L233.821 -48.1408C236.216 -48.644 238.665 -47.5743 239.924 -45.4783L240.113 -45.1507C241.118 -43.3109 241.013 -41.0429 239.836 -39.2034L236.794 -34.449L211.402 -29.1134ZM187.629 -41.6244L162.611 -35.9727L169.291 -46.9284C172.443 -52.0978 177.591 -55.7355 183.516 -56.9804L216.078 -63.8224L213.425 -59.6747C207.592 -50.5573 198.257 -44.0252 187.629 -41.6244ZM182.979 -59.5396L218.053 -66.9095L221.095 -71.6639C222.272 -73.5034 222.377 -75.7714 221.372 -77.6112L221.182 -77.9388C219.924 -80.0348 217.475 -81.1045 215.08 -80.6013L182.502 -73.756C171.814 -71.5101 162.527 -64.948 156.841 -55.6229L148.87 -42.5505C148.139 -41.3511 148.1 -39.8545 148.766 -38.6199L149.066 -38.1013C150.7 -35.3665 153.985 -34.0241 157.243 -34.7601L159.059 -35.1703L167.059 -48.2898C170.586 -54.0751 176.347 -58.1463 182.979 -59.5396ZM206.37 -9.16386L181.352 -3.5122L188.032 -14.4679C191.184 -19.6373 196.332 -23.275 202.257 -24.5199L234.82 -31.3619L232.166 -27.2142C226.334 -18.0968 216.998 -11.5647 206.37 -9.16386Z" fill="white"/>
</g>
<g opacity="0.1">
<path fill-rule="evenodd" clip-rule="evenodd" d="M260.779 111.364C259.628 113.251 259.509 115.583 260.44 117.568C260.347 117.43 260.257 117.289 260.171 117.145L270.75 135.469C270.684 135.348 270.622 135.225 270.564 135.101C272.458 137.886 275.86 139.275 279.188 138.575L283.24 137.724L279.52 143.824C278.369 145.712 278.25 148.043 279.182 150.028C279.088 149.89 278.998 149.75 278.912 149.605L289.491 167.929C289.425 167.808 289.363 167.686 289.305 167.562C291.199 170.346 294.601 171.735 297.929 171.035L330.507 164.19C341.902 161.796 351.802 154.8 357.864 144.859L365.835 131.787C366.986 129.899 367.105 127.568 366.173 125.583C366.267 125.721 366.357 125.862 366.443 126.006L355.864 107.682C355.93 107.803 355.992 107.925 356.05 108.049C354.156 105.265 350.754 103.876 347.425 104.576L343.374 105.427L347.093 99.3265C348.245 97.4386 348.364 95.1075 347.432 93.1226C347.526 93.2601 347.616 93.401 347.702 93.5453L337.123 75.2215C337.189 75.3425 337.251 75.465 337.309 75.5888C335.415 72.8042 332.013 71.4157 328.684 72.115L296.106 78.9604C284.711 81.3546 274.812 88.3501 268.75 98.2912L260.779 111.364ZM286.753 136.986L281.753 145.186C281.022 146.385 280.983 147.882 281.649 149.116L281.949 149.635C283.582 152.37 286.868 153.712 290.126 152.976L291.941 152.566L299.941 139.446C301.454 136.965 303.378 134.799 305.605 133.024L286.753 136.986ZM325.543 126.162C331.018 122.722 335.687 118.033 339.123 112.399L341.505 108.492L347.963 107.135C350.358 106.632 352.807 107.701 354.065 109.797L354.254 110.125C355.26 111.965 355.154 114.233 353.978 116.072L350.936 120.827L325.543 126.162ZM301.771 113.651L276.753 119.303L283.433 108.347C286.585 103.178 291.733 99.54 297.658 98.2951L330.22 91.4532L327.567 95.6009C321.734 104.718 312.399 111.25 301.771 113.651ZM297.12 95.736L332.195 88.3661L335.236 83.6116C336.413 81.7721 336.519 79.5041 335.513 77.6644L335.324 77.3367C334.066 75.2407 331.617 74.1711 329.222 74.6742L296.644 81.5195C285.955 83.7654 276.669 90.3275 270.983 99.6526L263.012 112.725C262.28 113.924 262.242 115.421 262.908 116.656L263.207 117.174C264.841 119.909 268.126 121.251 271.385 120.515L273.2 120.105L281.2 106.986C284.728 101.2 290.489 97.1293 297.12 95.736ZM320.512 146.112L295.494 151.763L302.174 140.808C305.326 135.638 310.474 132.001 316.399 130.756L348.961 123.914L346.308 128.061C340.475 137.179 331.14 143.711 320.512 146.112Z" fill="white"/>
</g>
<g opacity="0.1">
<path fill-rule="evenodd" clip-rule="evenodd" d="M247.311 8.71909C246.16 10.6069 246.041 12.938 246.973 14.923C246.879 14.7854 246.789 14.6445 246.703 14.5002L257.282 32.824C257.216 32.703 257.154 32.5806 257.096 32.4567C258.99 35.2413 262.392 36.63 265.721 35.9305L269.772 35.0791L266.052 41.1796C264.901 43.0674 264.782 45.3985 265.714 47.3835C265.62 47.2459 265.53 47.105 265.444 46.9607L276.023 65.2845C275.957 65.1635 275.895 65.0411 275.837 64.9172C277.731 67.7018 281.133 69.0905 284.462 68.391L317.04 61.5457C328.434 59.1515 338.334 52.1559 344.396 42.2148L352.367 29.1425C353.518 27.2546 353.637 24.9235 352.706 22.9385C352.799 23.0761 352.889 23.217 352.975 23.3613L342.396 5.03751C342.462 5.15847 342.524 5.28095 342.582 5.40478C340.688 2.62017 337.286 1.23164 333.958 1.93098L329.906 2.7823L333.626 -3.31801C334.777 -5.20589 334.896 -7.53705 333.964 -9.52198C334.058 -9.38444 334.148 -9.2435 334.234 -9.09924L323.655 -27.423C323.721 -27.302 323.783 -27.1796 323.841 -27.0557C321.947 -29.8403 318.545 -31.2289 315.216 -30.5295L282.638 -23.6842C271.244 -21.29 261.344 -14.2944 255.282 -4.35332L247.311 8.71909ZM273.285 34.341L268.285 42.541C267.554 43.7404 267.515 45.237 268.181 46.4716L268.481 46.9902C270.115 49.725 273.4 51.0674 276.658 50.3314L278.474 49.9212L286.473 36.8017C287.986 34.3204 289.91 32.1544 292.137 30.3798L273.285 34.341ZM312.075 23.5176C317.55 20.0771 322.219 15.3888 325.655 9.75426L328.037 5.84711L334.495 4.49015C336.89 3.98703 339.339 5.0567 340.597 7.15266L340.787 7.48032C341.792 9.32008 341.687 11.5881 340.51 13.4276L337.468 18.182L312.075 23.5176ZM288.303 11.0066L263.285 16.6583L269.965 5.70261C273.117 0.53322 278.265 -3.10448 284.19 -4.34942L316.752 -11.1914L314.099 -7.04368C308.266 2.07367 298.931 8.60582 288.303 11.0066ZM283.652 -6.90857L318.727 -14.2785L321.769 -19.0329C322.945 -20.8724 323.051 -23.1404 322.046 -24.9802L321.856 -25.3078C320.598 -27.4038 318.149 -28.4735 315.754 -27.9704L283.176 -21.125C272.487 -18.8791 263.201 -12.317 257.515 -2.99192L249.544 10.0805C248.813 11.2799 248.774 12.7765 249.44 14.0111L249.74 14.5297C251.374 17.2645 254.659 18.6069 257.917 17.8709L259.733 17.4607L267.732 4.34121C271.26 -1.44412 277.021 -5.51528 283.652 -6.90857ZM307.044 43.4671L282.026 49.1188L288.706 38.1631C291.858 32.9937 297.006 29.356 302.931 28.1111L335.493 21.2691L332.84 25.4168C327.007 34.5342 317.672 41.0663 307.044 43.4671Z" fill="white"/>
</g>
<g opacity="0.1">
<path fill-rule="evenodd" clip-rule="evenodd" d="M363.227 161.85C362.076 163.738 361.957 166.069 362.889 168.054C362.795 167.917 362.705 167.776 362.619 167.632L373.198 185.955C373.132 185.834 373.07 185.712 373.012 185.588C374.906 188.373 378.308 189.761 381.637 189.062L385.688 188.21L381.968 194.311C380.817 196.199 380.698 198.53 381.63 200.515C381.536 200.377 381.446 200.236 381.36 200.092L391.939 218.416C391.873 218.295 391.811 218.172 391.753 218.049C393.647 220.833 397.049 222.222 400.378 221.522L432.956 214.677C444.35 212.283 454.25 205.287 460.312 195.346L468.283 182.274C469.434 180.386 469.553 178.055 468.622 176.07C468.715 176.207 468.805 176.348 468.891 176.493L458.312 158.169C458.378 158.29 458.44 158.412 458.498 158.536C456.604 155.752 453.202 154.363 449.874 155.062L445.822 155.914L449.542 149.813C450.693 147.925 450.812 145.594 449.88 143.609C449.974 143.747 450.064 143.888 450.15 144.032L439.571 125.708C439.637 125.829 439.699 125.952 439.757 126.076C437.863 123.291 434.461 121.902 431.132 122.602L398.554 129.447C387.16 131.841 377.26 138.837 371.198 148.778L363.227 161.85ZM389.201 187.472L384.201 195.672C383.47 196.872 383.431 198.368 384.097 199.603L384.397 200.122C386.031 202.856 389.316 204.199 392.574 203.463L394.39 203.053L402.389 189.933C403.902 187.452 405.826 185.286 408.053 183.511L389.201 187.472ZM427.991 176.649C433.466 173.208 438.135 168.52 441.571 162.886L443.953 158.978L450.411 157.621C452.806 157.118 455.255 158.188 456.513 160.284L456.703 160.612C457.708 162.451 457.603 164.719 456.426 166.559L453.384 171.313L427.991 176.649ZM404.219 164.138L379.201 169.79L385.881 158.834C389.033 153.665 394.181 150.027 400.106 148.782L432.668 141.94L430.015 146.088C424.182 155.205 414.847 161.737 404.219 164.138ZM399.568 146.223L434.643 138.853L437.685 134.098C438.861 132.259 438.967 129.991 437.962 128.151L437.772 127.824C436.514 125.728 434.065 124.658 431.67 125.161L399.092 132.006C388.403 134.252 379.117 140.814 373.431 150.139L365.46 163.212C364.729 164.411 364.69 165.908 365.356 167.142L365.656 167.661C367.29 170.396 370.575 171.738 373.833 171.002L375.649 170.592L383.648 157.473C387.176 151.687 392.937 147.616 399.568 146.223ZM422.96 196.598L397.942 202.25L404.622 191.294C407.774 186.125 412.922 182.487 418.847 181.242L451.409 174.4L448.756 178.548C442.923 187.666 433.588 194.198 422.96 196.598Z" fill="white"/>
</g>
<g opacity="0.1">
<path fill-rule="evenodd" clip-rule="evenodd" d="M-29.0773 57.5377C-30.2284 59.4255 -30.3474 61.7566 -29.416 63.7416C-29.5096 63.6041 -29.5995 63.4631 -29.6855 63.3188L-19.1063 81.6426C-19.1726 81.5216 -19.2348 81.3992 -19.2929 81.2753C-17.3983 84.0599 -13.9967 85.4486 -10.668 84.7491L-6.61645 83.8977L-10.3362 89.9982C-11.4874 91.886 -11.6063 94.2171 -10.6749 96.2021C-10.7685 96.0646 -10.8584 95.9236 -10.9445 95.7793L-0.365231 114.103C-0.431517 113.982 -0.493711 113.86 -0.551815 113.736C1.34281 116.52 4.74439 117.909 8.07304 117.21L40.6511 110.364C52.0458 107.97 61.9456 100.975 68.0072 91.0334L75.9781 77.9611C77.1293 76.0732 77.2483 73.7421 76.3168 71.7571C76.4104 71.8947 76.5003 72.0356 76.5864 72.1799L66.0071 53.8561C66.0734 53.9771 66.1356 54.0996 66.1937 54.2234C64.2991 51.4388 60.8976 50.0502 57.5689 50.7496L53.5173 51.6009L57.237 45.5006C58.3882 43.6127 58.5072 41.2816 57.5758 39.2966C57.6693 39.4342 57.7592 39.5751 57.8453 39.7194L47.2661 21.3956C47.3323 21.5166 47.3945 21.639 47.4527 21.7629C45.5581 18.9783 42.1565 17.5897 38.8278 18.2891L6.24977 25.1344C-5.14495 27.5287 -15.0447 34.5242 -21.1064 44.4653L-29.0773 57.5377ZM-3.10354 83.1596L-8.1035 91.3596C-8.83487 92.559 -8.87365 94.0556 -8.20728 95.2902L-7.90787 95.8088C-6.27409 98.5436 -2.9889 99.886 0.26923 99.15L2.08504 98.7398L10.0847 85.6203C11.5977 83.139 13.5216 80.973 15.7488 79.1984L-3.10354 83.1596ZM35.6868 72.3362C41.1618 68.8957 45.8305 64.2074 49.2661 58.5729L51.6485 54.6657L58.1065 53.3088C60.5014 52.8056 62.9506 53.8753 64.2087 55.9713L64.3979 56.2989C65.4035 58.1387 65.2979 60.4067 64.1211 62.2462L61.0796 67.0006L35.6868 72.3362ZM11.9143 59.8252L-13.1039 65.4769L-6.42362 54.5212C-3.27157 49.3518 1.87615 45.7141 7.80152 44.4692L40.3636 37.6272L37.7103 41.7749C31.8776 50.8923 22.5424 57.4244 11.9143 59.8252ZM7.26379 41.91L42.3385 34.5401L45.38 29.7857C46.5568 27.9462 46.6624 25.6782 45.6568 23.8384L45.4677 23.5108C44.2095 21.4148 41.7603 20.3451 39.3654 20.8483L6.7875 27.6936C-3.9012 29.9395 -13.1876 36.5016 -18.8737 45.8267L-26.8446 58.8991C-27.576 60.0985 -27.6147 61.5951 -26.9484 62.8297L-26.649 63.3483C-25.0152 66.0831 -21.73 67.4255 -18.4718 66.6895L-16.656 66.2793L-8.65633 53.1598C-5.12872 47.3745 0.632364 43.3033 7.26379 41.91ZM30.6554 92.2857L5.63716 97.9374L12.3175 86.9817C15.4695 81.8123 20.6172 78.1746 26.5426 76.9297L59.1047 70.0877L56.4514 74.2354C50.6187 83.3528 41.2835 89.8849 30.6554 92.2857Z" fill="white"/>
</g>
<g opacity="0.1">
<path fill-rule="evenodd" clip-rule="evenodd" d="M85.0643 212.813C83.9132 214.701 83.7942 217.032 84.7256 219.017C84.632 218.879 84.5421 218.738 84.4561 218.594L95.0353 236.918C94.969 236.797 94.9068 236.675 94.8487 236.551C96.7433 239.335 100.145 240.724 103.474 240.024L107.525 239.173L103.805 245.274C102.654 247.161 102.535 249.493 103.467 251.477C103.373 251.34 103.283 251.199 103.197 251.055L113.776 269.378C113.71 269.258 113.648 269.135 113.59 269.011C115.484 271.796 118.886 273.185 122.215 272.485L154.793 265.64C166.187 263.245 176.087 256.25 182.149 246.309L190.12 233.236C191.271 231.349 191.39 229.017 190.458 227.033C190.552 227.17 190.642 227.311 190.728 227.455L180.149 209.132C180.215 209.252 180.277 209.375 180.335 209.499C178.441 206.714 175.039 205.326 171.71 206.025L167.659 206.876L171.379 200.776C172.53 198.888 172.649 196.557 171.717 194.572C171.811 194.71 171.901 194.85 171.987 194.995L161.408 176.671C161.474 176.792 161.536 176.914 161.594 177.038C159.7 174.254 156.298 172.865 152.969 173.564L120.391 180.41C108.997 182.804 99.0969 189.8 93.0352 199.741L85.0643 212.813ZM111.038 238.435L106.038 246.635C105.307 247.834 105.268 249.331 105.934 250.566L106.234 251.084C107.868 253.819 111.153 255.161 114.411 254.425L116.227 254.015L124.226 240.896C125.739 238.414 127.663 236.248 129.89 234.474L111.038 238.435ZM149.828 227.612C155.303 224.171 159.972 219.483 163.408 213.848L165.79 209.941L172.248 208.584C174.643 208.081 177.092 209.151 178.35 211.247L178.54 211.574C179.545 213.414 179.439 215.682 178.263 217.522L175.221 222.276L149.828 227.612ZM126.056 215.101L101.038 220.752L107.718 209.797C110.87 204.627 116.018 200.99 121.943 199.745L154.505 192.903L151.852 197.05C146.019 206.168 136.684 212.7 126.056 215.101ZM121.405 197.185L156.48 189.816L159.522 185.061C160.698 183.222 160.804 180.954 159.798 179.114L159.609 178.786C158.351 176.69 155.902 175.621 153.507 176.124L120.929 182.969C110.24 185.215 100.954 191.777 95.2679 201.102L87.297 214.174C86.5656 215.374 86.5269 216.871 87.1932 218.105L87.4926 218.624C89.1264 221.359 92.4116 222.701 95.6698 221.965L97.4856 221.555L105.485 208.435C109.013 202.65 114.774 198.579 121.405 197.185ZM144.797 247.561L119.779 253.213L126.459 242.257C129.611 237.088 134.759 233.45 140.684 232.205L173.246 225.363L170.593 229.511C164.76 238.628 155.425 245.16 144.797 247.561Z" fill="white"/>
</g>
<g opacity="0.1">
<path fill-rule="evenodd" clip-rule="evenodd" d="M436.497 9.91392C435.346 11.8017 435.227 14.1329 436.158 16.1178C436.065 15.9803 435.975 15.8393 435.889 15.695L446.468 34.0188C446.402 33.8979 446.339 33.7754 446.281 33.6515C448.176 36.4362 451.578 37.8248 454.906 37.1253L458.958 36.274L455.238 42.3744C454.087 44.2622 453.968 46.5934 454.899 48.5783C454.806 48.4408 454.716 48.2998 454.63 48.1555L465.209 66.4793C465.143 66.3584 465.081 66.2359 465.022 66.1121C466.917 68.8967 470.319 70.2853 473.647 69.5858L506.225 62.7405C517.62 60.3463 527.52 53.3508 533.581 43.4096L541.552 30.3373C542.703 28.4494 542.823 26.1183 541.891 24.1333C541.985 24.2709 542.075 24.4118 542.161 24.5561L531.581 6.23234C531.648 6.35329 531.71 6.47577 531.768 6.59961C529.873 3.815 526.472 2.42647 523.143 3.12581L519.092 3.97712L522.811 -2.12318C523.962 -4.01106 524.081 -6.34222 523.15 -8.32715C523.244 -8.18962 523.333 -8.04868 523.419 -7.90441L512.84 -26.2282C512.907 -26.1072 512.969 -25.9847 513.027 -25.8609C511.132 -28.6455 507.731 -30.034 504.402 -29.3347L471.824 -22.4894C460.429 -20.0951 450.529 -13.0996 444.468 -3.15849L436.497 9.91392ZM462.471 35.5358L457.471 43.7358C456.739 44.9352 456.701 46.4319 457.367 47.6664L457.666 48.185C459.3 50.9198 462.585 52.2622 465.843 51.5262L467.659 51.116L475.659 37.9965C477.172 35.5152 479.096 33.3492 481.323 31.5746L462.471 35.5358ZM501.261 24.7124C506.736 21.2719 511.405 16.5836 514.84 10.9491L517.223 7.04194L523.681 5.68497C526.076 5.18185 528.525 6.25152 529.783 8.34748L529.972 8.67515C530.978 10.5149 530.872 12.7829 529.695 14.6224L526.654 19.3769L501.261 24.7124ZM477.489 12.2014L452.47 17.8531L459.151 6.89744C462.303 1.72804 467.45 -1.90966 473.376 -3.1546L505.938 -9.99655L503.285 -5.84885C497.452 3.26849 488.117 9.80064 477.489 12.2014ZM472.838 -5.71375L507.913 -13.0836L510.954 -17.8381C512.131 -19.6776 512.237 -21.9456 511.231 -23.7854L511.042 -24.113C509.784 -26.209 507.335 -27.2786 504.94 -26.7755L472.362 -19.9302C461.673 -17.6843 452.387 -11.1222 446.701 -1.79709L438.73 11.2753C437.998 12.4747 437.959 13.9714 438.626 15.2059L438.925 15.7245C440.559 18.4593 443.844 19.8017 447.102 19.0657L448.918 18.6555L456.918 5.53604C460.446 -0.249294 466.207 -4.32045 472.838 -5.71375ZM496.23 44.6619L471.211 50.3136L477.892 39.3579C481.044 34.1885 486.191 30.5508 492.117 29.3059L524.679 22.4639L522.026 26.6117C516.193 35.729 506.858 42.2611 496.23 44.6619Z" fill="white"/>
</g>
<g opacity="0.1">
<path fill-rule="evenodd" clip-rule="evenodd" d="M71.5956 110.169C70.4444 112.056 70.3254 114.387 71.2569 116.372C71.1633 116.235 71.0734 116.094 70.9873 115.95L81.5665 134.273C81.5003 134.152 81.4381 134.03 81.38 133.906C83.2746 136.691 86.6762 138.079 90.0048 137.38L94.0564 136.529L90.3366 142.629C89.1855 144.517 89.0665 146.848 89.9979 148.833C89.9043 148.695 89.8144 148.554 89.7284 148.41L100.308 166.734C100.241 166.613 100.179 166.491 100.121 166.367C102.016 169.151 105.417 170.54 108.746 169.84L141.324 162.995C152.719 160.601 162.618 153.605 168.68 143.664L176.651 130.592C177.802 128.704 177.921 126.373 176.99 124.388C177.083 124.526 177.173 124.666 177.259 124.811L166.68 106.487C166.746 106.608 166.808 106.73 166.867 106.854C164.972 104.07 161.57 102.681 158.242 103.38L154.19 104.232L157.91 98.1315C159.061 96.2436 159.18 93.9124 158.249 91.9275C158.342 92.065 158.432 92.206 158.518 92.3502L147.939 74.0265C148.005 74.1474 148.067 74.2699 148.126 74.3937C146.231 71.6091 142.829 70.2206 139.501 70.9199L106.923 77.7653C95.5279 80.1595 85.6281 87.1551 79.5665 97.0961L71.5956 110.169ZM97.5693 135.79L92.5693 143.99C91.838 145.19 91.7992 146.686 92.4656 147.921L92.765 148.44C94.3988 151.174 97.6839 152.517 100.942 151.781L102.758 151.371L110.758 138.251C112.271 135.77 114.194 133.604 116.422 131.829L97.5693 135.79ZM136.36 124.967C141.835 121.527 146.503 116.838 149.939 111.204L152.321 107.297L158.779 105.94C161.174 105.436 163.623 106.506 164.882 108.602L165.071 108.93C166.076 110.77 165.971 113.038 164.794 114.877L161.752 119.631L136.36 124.967ZM112.587 112.456L87.5689 118.108L94.2492 107.152C97.4013 101.983 102.549 98.345 108.474 97.1L141.036 90.2581L138.383 94.4058C132.55 103.523 123.215 110.055 112.587 112.456ZM107.937 94.5409L143.011 87.171L146.053 82.4165C147.23 80.577 147.335 78.309 146.33 76.4693L146.141 76.1416C144.882 74.0457 142.433 72.976 140.038 73.4791L107.46 80.3244C96.7716 82.5703 87.4852 89.1325 81.7992 98.4575L73.8283 111.53C73.0969 112.729 73.0581 114.226 73.7245 115.461L74.0239 115.979C75.6577 118.714 78.9429 120.056 82.201 119.32L84.0168 118.91L92.0165 105.791C95.5441 100.005 101.305 95.9342 107.937 94.5409ZM131.328 144.917L106.31 150.568L112.99 139.613C116.142 134.443 121.29 130.805 127.215 129.561L159.778 122.719L157.124 126.866C151.292 135.984 141.956 142.516 131.328 144.917Z" fill="white"/>
</g>
<g opacity="0.1">
<path fill-rule="evenodd" clip-rule="evenodd" d="M187.512 263.3C186.36 265.188 186.241 267.519 187.173 269.504C187.079 269.367 186.989 269.226 186.903 269.081L197.483 287.405C197.416 287.284 197.354 287.162 197.296 287.038C199.191 289.822 202.592 291.211 205.921 290.512L209.972 289.66L206.253 295.761C205.102 297.648 204.983 299.98 205.914 301.965C205.82 301.827 205.73 301.686 205.644 301.542L216.224 319.866C216.157 319.745 216.095 319.622 216.037 319.498C217.932 322.283 221.333 323.672 224.662 322.972L257.24 316.127C268.635 313.733 278.534 306.737 284.596 296.796L292.567 283.724C293.718 281.836 293.837 279.505 292.906 277.52C292.999 277.657 293.089 277.798 293.175 277.942L282.596 259.619C282.662 259.74 282.724 259.862 282.783 259.986C280.888 257.201 277.486 255.813 274.158 256.512L270.106 257.363L273.826 251.263C274.977 249.375 275.096 247.044 274.165 245.059C274.258 245.197 274.348 245.338 274.434 245.482L263.855 227.158C263.921 227.279 263.983 227.402 264.042 227.525C262.147 224.741 258.745 223.352 255.417 224.052L222.839 230.897C211.444 233.291 201.544 240.287 195.482 250.228L187.512 263.3ZM213.485 288.922L208.485 297.122C207.754 298.321 207.715 299.818 208.382 301.053L208.681 301.571C210.315 304.306 213.6 305.648 216.858 304.912L218.674 304.502L226.674 291.383C228.187 288.901 230.11 286.735 232.338 284.961L213.485 288.922ZM252.276 278.099C257.751 274.658 262.419 269.97 265.855 264.335L268.237 260.428L274.695 259.071C277.09 258.568 279.539 259.638 280.798 261.734L280.987 262.061C281.992 263.901 281.887 266.169 280.71 268.009L277.668 272.763L252.276 278.099ZM228.503 265.588L203.485 271.239L210.165 260.284C213.317 255.114 218.465 251.477 224.39 250.232L256.952 243.39L254.299 247.537C248.466 256.655 239.131 263.187 228.503 265.588ZM223.853 247.672L258.927 240.303L261.969 235.548C263.146 233.709 263.251 231.441 262.246 229.601L262.057 229.273C260.798 227.177 258.349 226.108 255.954 226.611L223.376 233.456C212.688 235.702 203.401 242.264 197.715 251.589L189.744 264.662C189.013 265.861 188.974 267.358 189.641 268.592L189.94 269.111C191.574 271.846 194.859 273.188 198.117 272.452L199.933 272.042L207.933 258.922C211.46 253.137 217.221 249.066 223.853 247.672ZM247.244 298.048L222.226 303.7L228.906 292.744C232.058 287.575 237.206 283.937 243.131 282.692L275.694 275.85L273.04 279.998C267.208 289.115 257.872 295.647 247.244 298.048Z" fill="white"/>
</g>
<g opacity="0.1">
<path fill-rule="evenodd" clip-rule="evenodd" d="M-2.79311 263.538C-3.94426 265.426 -4.06325 267.757 -3.13182 269.742C-3.22541 269.604 -3.31531 269.463 -3.40136 269.319L7.17787 287.643C7.11158 287.522 7.04939 287.399 6.99128 287.276C8.88591 290.06 12.2875 291.449 15.6161 290.749L19.6677 289.898L15.948 295.998C14.7968 297.886 14.6778 300.217 15.6093 302.202C15.5157 302.065 15.4258 301.924 15.3397 301.78L25.9189 320.103C25.8527 319.982 25.7905 319.86 25.7324 319.736C27.627 322.521 31.0286 323.909 34.3572 323.21L66.9352 316.365C78.33 313.97 88.2298 306.975 94.2914 297.034L102.262 283.961C103.413 282.073 103.532 279.742 102.601 277.757C102.695 277.895 102.785 278.036 102.871 278.18L92.2913 259.856C92.3576 259.977 92.4198 260.1 92.4779 260.224C90.5833 257.439 87.1817 256.05 83.853 256.75L79.8015 257.601L83.5212 251.501C84.6724 249.613 84.7914 247.282 83.8599 245.297C83.9535 245.434 84.0434 245.575 84.1295 245.72L73.5502 227.396C73.6165 227.517 73.6787 227.639 73.7368 227.763C71.8422 224.979 68.4407 223.59 65.112 224.289L32.534 231.135C21.1392 233.529 11.2394 240.524 5.17781 250.466L-2.79311 263.538ZM23.1806 289.16L18.1807 297.36C17.4493 298.559 17.4105 300.056 18.0769 301.29L18.3763 301.809C20.0101 304.544 23.2953 305.886 26.5534 305.15L28.3692 304.74L36.3689 291.621C37.8819 289.139 39.8058 286.973 42.0329 285.199L23.1806 289.16ZM61.971 278.336C67.446 274.896 72.1146 270.208 75.5503 264.573L77.9327 260.666L84.3907 259.309C86.7856 258.806 89.2348 259.876 90.4929 261.972L90.6821 262.299C91.6876 264.139 91.5821 266.407 90.4053 268.246L87.3638 273.001L61.971 278.336ZM38.1985 265.825L13.1803 271.477L19.8606 260.521C23.0126 255.352 28.1603 251.714 34.0857 250.469L66.6478 243.627L63.9945 247.775C58.1618 256.893 48.8266 263.425 38.1985 265.825ZM33.548 247.91L68.6227 240.54L71.6642 235.786C72.841 233.946 72.9466 231.678 71.941 229.839L71.7518 229.511C70.4937 227.415 68.0445 226.345 65.6496 226.848L33.0717 233.694C22.383 235.94 13.0966 242.502 7.41052 251.827L-0.560404 264.899C-1.29177 266.099 -1.33055 267.595 -0.664184 268.83L-0.364774 269.349C1.26901 272.083 4.5542 273.426 7.81233 272.69L9.62814 272.28L17.6278 259.16C21.1555 253.375 26.9165 249.304 33.548 247.91ZM56.9396 298.286L31.9213 303.938L38.6016 292.982C41.7537 287.813 46.9014 284.175 52.8268 282.93L85.3889 276.088L82.7355 280.236C76.9028 289.353 67.5677 295.885 56.9396 298.286Z" fill="white"/>
</g>
<g opacity="0.1">
<path fill-rule="evenodd" clip-rule="evenodd" d="M348.639 60.6388C347.487 62.5266 347.368 64.8577 348.3 66.8427C348.206 66.7051 348.116 66.5642 348.03 66.4199L358.61 84.7437C358.543 84.6227 358.481 84.5002 358.423 84.3764C360.318 87.161 363.719 88.5497 367.048 87.8501L371.099 86.9988L367.38 93.0993C366.228 94.9871 366.109 97.3182 367.041 99.3032C366.947 99.1656 366.857 99.0247 366.771 98.8804L377.351 117.204C377.284 117.083 377.222 116.961 377.164 116.837C379.059 119.622 382.46 121.01 385.789 120.311L418.367 113.465C429.762 111.071 439.661 104.076 445.723 94.1344L453.694 81.0622C454.845 79.1743 454.964 76.8431 454.033 74.8582C454.126 74.9957 454.216 75.1367 454.302 75.2809L443.723 56.9572C443.789 57.0781 443.851 57.2006 443.91 57.3245C442.015 54.5399 438.613 53.1513 435.285 53.8507L431.233 54.702L434.953 48.6017C436.104 46.7138 436.223 44.3826 435.292 42.3977C435.385 42.5352 435.475 42.6762 435.561 42.8204L424.982 24.4967C425.048 24.6176 425.11 24.7401 425.168 24.864C423.274 22.0793 419.872 20.6908 416.544 21.3902L383.966 28.2355C372.571 30.6297 362.671 37.6253 356.609 47.5664L348.639 60.6388ZM374.612 86.2607L369.612 94.4607C368.881 95.6601 368.842 97.1567 369.509 98.3913L369.808 98.9098C371.442 101.645 374.727 102.987 377.985 102.251L379.801 101.841L387.801 88.7214C389.314 86.2401 391.237 84.0741 393.465 82.2994L374.612 86.2607ZM413.403 75.4372C418.878 71.9967 423.546 67.3085 426.982 61.6739L429.364 57.7668L435.822 56.4098C438.217 55.9067 440.666 56.9764 441.925 59.0723L442.114 59.4C443.119 61.2398 443.014 63.5078 441.837 65.3472L438.795 70.1017L413.403 75.4372ZM389.63 62.9263L364.612 68.578L371.292 57.6223C374.444 52.4529 379.592 48.8152 385.517 47.5703L418.079 40.7283L415.426 44.876C409.593 53.9933 400.258 60.5255 389.63 62.9263ZM384.98 45.0111L420.054 37.6412L423.096 32.8867C424.273 31.0473 424.378 28.7793 423.373 26.9395L423.183 26.6118C421.925 24.5159 419.476 23.4462 417.081 23.9493L384.503 30.7947C373.815 33.0405 364.528 39.6027 358.842 48.9278L350.871 62.0002C350.14 63.1996 350.101 64.6962 350.767 65.9308L351.067 66.4493C352.701 69.1842 355.986 70.5266 359.244 69.7906L361.06 69.3804L369.059 56.2609C372.587 50.4756 378.348 46.4044 384.98 45.0111ZM408.371 95.3868L383.353 101.038L390.033 90.0828C393.185 84.9134 398.333 81.2757 404.258 80.0308L436.821 73.1888L434.167 77.3365C428.334 86.4538 418.999 92.986 408.371 95.3868Z" fill="white"/>
</g>
<g opacity="0.1">
<path fill-rule="evenodd" clip-rule="evenodd" d="M-16.2609 160.893C-17.412 162.781 -17.531 165.112 -16.5996 167.097C-16.6932 166.96 -16.7831 166.819 -16.8691 166.675L-6.28991 184.998C-6.35619 184.877 -6.41838 184.755 -6.47649 184.631C-4.58187 187.416 -1.18028 188.804 2.14836 188.105L6.19996 187.253L2.48019 193.354C1.32905 195.242 1.21006 197.573 2.14149 199.558C2.0479 199.42 1.95799 199.279 1.87195 199.135L12.4512 217.459C12.3849 217.338 12.3227 217.215 12.2646 217.092C14.1592 219.876 17.5608 221.265 20.8894 220.565L53.4675 213.72C64.8622 211.326 74.762 204.33 80.8236 194.389L88.7945 181.317C89.9457 179.429 90.0647 177.098 89.1333 175.113C89.2268 175.25 89.3167 175.391 89.4028 175.536L78.8235 157.212C78.8898 157.333 78.952 157.455 79.0101 157.579C77.1155 154.794 73.714 153.406 70.3853 154.105L66.3337 154.957L70.0534 148.856C71.2046 146.968 71.3236 144.637 70.3922 142.652C70.4857 142.79 70.5757 142.931 70.6617 143.075L60.0825 124.751C60.1488 124.872 60.211 124.995 60.2691 125.119C58.3745 122.334 54.9729 120.945 51.6442 121.645L19.0662 128.49C7.67145 130.884 -2.22833 137.88 -8.28996 147.821L-16.2609 160.893ZM9.71286 186.515L4.7129 194.715C3.98153 195.915 3.94275 197.411 4.60912 198.646L4.90853 199.164C6.54232 201.899 9.8275 203.242 13.0856 202.506L14.9014 202.096L22.9012 188.976C24.4141 186.495 26.338 184.329 28.5652 182.554L9.71286 186.515ZM48.5032 175.692C53.9782 172.251 58.6469 167.563 62.0825 161.929L64.4649 158.021L70.9229 156.664C73.3178 156.161 75.767 157.231 77.0251 159.327L77.2143 159.655C78.2199 161.494 78.1143 163.762 76.9375 165.602L73.896 170.356L48.5032 175.692ZM24.7307 163.181L-0.287515 168.833L6.39278 157.877C9.54483 152.708 14.6926 149.07 20.6179 147.825L53.18 140.983L50.5267 145.131C44.694 154.248 35.3588 160.78 24.7307 163.181ZM20.0802 145.266L55.1549 137.896L58.1964 133.141C59.3732 131.302 59.4788 129.034 58.4732 127.194L58.2841 126.866C57.0259 124.771 54.5767 123.701 52.1819 124.204L19.6039 131.049C8.9152 133.295 -0.371214 139.857 -6.05725 149.182L-14.0282 162.255C-14.7595 163.454 -14.7983 164.951 -14.132 166.185L-13.8325 166.704C-12.1988 169.439 -8.91358 170.781 -5.65544 170.045L-3.83964 169.635L4.16007 156.516C7.68769 150.73 13.4488 146.659 20.0802 145.266ZM43.4718 195.641L18.4536 201.293L25.1339 190.337C28.2859 185.168 33.4336 181.53 39.359 180.285L71.9211 173.443L69.2678 177.591C63.4351 186.708 54.0999 193.241 43.4718 195.641Z" fill="white"/>
</g>
<g opacity="0.1">
<path fill-rule="evenodd" clip-rule="evenodd" d="M335.171 -42.0059C334.02 -40.1181 333.901 -37.7869 334.832 -35.802C334.738 -35.9395 334.649 -36.0805 334.563 -36.2248L345.142 -17.901C345.075 -18.0219 345.013 -18.1444 344.955 -18.2683C346.85 -15.4836 350.251 -14.095 353.58 -14.7945L357.632 -15.6458L353.912 -9.54538C352.761 -7.65759 352.642 -5.32644 353.573 -3.34148C353.48 -3.47903 353.39 -3.61998 353.304 -3.76425L363.883 14.5595C363.817 14.4386 363.754 14.3161 363.696 14.1923C365.591 16.9769 368.992 18.3655 372.321 17.666L404.899 10.8207C416.294 8.42649 426.194 1.43095 432.255 -8.51021L440.226 -21.5825C441.377 -23.4704 441.496 -25.8015 440.565 -27.7865C440.658 -27.6489 440.748 -27.508 440.834 -27.3637L430.255 -45.6875C430.321 -45.5665 430.384 -45.444 430.442 -45.3202C428.547 -48.1048 425.146 -49.4933 421.817 -48.794L417.765 -47.9427L421.485 -54.043C422.636 -55.9309 422.755 -58.262 421.824 -60.247C421.917 -60.1094 422.007 -59.9685 422.093 -59.8242L411.514 -78.148C411.58 -78.027 411.643 -77.9045 411.701 -77.7807C409.806 -80.5653 406.405 -81.9538 403.076 -81.2545L370.498 -74.4092C359.103 -72.0149 349.203 -65.0194 343.142 -55.0783L335.171 -42.0059ZM361.145 -16.384L356.145 -8.18398C355.413 -6.98459 355.374 -5.48795 356.041 -4.2534L356.34 -3.73481C357.974 -0.999957 361.259 0.342417 364.517 -0.393568L366.333 -0.803761L374.333 -13.9233C375.846 -16.4046 377.77 -18.5706 379.997 -20.3452L361.145 -16.384ZM399.935 -27.2074C405.41 -30.6479 410.079 -35.3362 413.514 -40.9707L415.897 -44.8779L422.355 -46.2348C424.749 -46.7379 427.199 -45.6683 428.457 -43.5723L428.646 -43.2447C429.652 -41.4049 429.546 -39.1369 428.369 -37.2974L425.328 -32.5429L399.935 -27.2074ZM376.162 -39.7184L351.144 -34.0667L357.824 -45.0224C360.976 -50.1918 366.124 -53.8295 372.05 -55.0744L404.612 -61.9164L401.958 -57.7687C396.126 -48.6513 386.79 -42.1192 376.162 -39.7184ZM371.512 -57.6335L406.587 -65.0034L409.628 -69.7579C410.805 -71.5974 410.91 -73.8654 409.905 -75.7052L409.716 -76.0328C408.458 -78.1288 406.008 -79.1984 403.613 -78.6953L371.036 -71.85C360.347 -69.6041 351.06 -63.042 345.374 -53.7169L337.403 -40.6445C336.672 -39.4451 336.633 -37.9484 337.3 -36.7139L337.599 -36.1953C339.233 -33.4605 342.518 -32.1181 345.776 -32.8541L347.592 -33.2643L355.592 -46.3838C359.119 -52.1691 364.88 -56.2403 371.512 -57.6335ZM394.903 -7.25786L369.885 -1.6062L376.566 -12.5619C379.718 -17.7313 384.865 -21.369 390.791 -22.6139L423.353 -29.4559L420.699 -25.3081C414.867 -16.1908 405.532 -9.65865 394.903 -7.25786Z" fill="white"/>
</g>
<g opacity="0.1">
<path fill-rule="evenodd" clip-rule="evenodd" d="M451.086 111.126C449.935 113.013 449.816 115.345 450.747 117.329C450.654 117.192 450.564 117.051 450.478 116.907L461.057 135.23C460.99 135.11 460.928 134.987 460.87 134.863C462.765 137.648 466.166 139.037 469.495 138.337L473.547 137.486L469.827 143.586C468.676 145.474 468.557 147.805 469.488 149.79C469.395 149.652 469.305 149.511 469.219 149.367L479.798 167.691C479.732 167.57 479.669 167.448 479.611 167.324C481.506 170.108 484.907 171.497 488.236 170.797L520.814 163.952C532.209 161.558 542.109 154.562 548.17 144.621L556.141 131.549C557.292 129.661 557.411 127.33 556.48 125.345C556.574 125.483 556.663 125.623 556.749 125.768L546.17 107.444C546.237 107.565 546.299 107.687 546.357 107.811C544.462 105.027 541.061 103.638 537.732 104.337L533.68 105.189L537.4 99.0885C538.551 97.2006 538.67 94.8694 537.739 92.8845C537.832 93.0221 537.922 93.163 538.008 93.3073L527.429 74.9835C527.495 75.1045 527.558 75.2269 527.616 75.3508C525.721 72.5662 522.32 71.1776 518.991 71.877L486.413 78.7223C475.018 81.1165 465.118 88.1121 459.057 98.0532L451.086 111.126ZM477.06 136.747L472.06 144.947C471.328 146.147 471.289 147.644 471.956 148.878L472.255 149.397C473.889 152.132 477.174 153.474 480.432 152.738L482.248 152.328L490.248 139.208C491.761 136.727 493.685 134.561 495.912 132.786L477.06 136.747ZM515.85 125.924C521.325 122.484 525.994 117.795 529.429 112.161L531.812 108.254L538.27 106.897C540.664 106.394 543.114 107.463 544.372 109.559L544.561 109.887C545.567 111.727 545.461 113.995 544.284 115.834L541.243 120.589L515.85 125.924ZM492.077 113.413L467.059 119.065L473.739 108.109C476.892 102.94 482.039 99.302 487.965 98.0571L520.527 91.2151L517.873 95.3628C512.041 104.48 502.706 111.012 492.077 113.413ZM487.427 95.4979L522.502 88.128L525.543 83.3736C526.72 81.5341 526.825 79.2661 525.82 77.4263L525.631 77.0987C524.373 75.0027 521.923 73.933 519.529 74.4361L486.951 81.2815C476.262 83.5273 466.975 90.0895 461.289 99.4146L453.319 112.487C452.587 113.686 452.548 115.183 453.215 116.418L453.514 116.936C455.148 119.671 458.433 121.013 461.691 120.277L463.507 119.867L471.507 106.748C475.034 100.962 480.795 96.8912 487.427 95.4979ZM510.818 145.874L485.8 151.525L492.481 140.57C495.633 135.4 500.78 131.763 506.706 130.518L539.268 123.676L536.614 127.823C530.782 136.941 521.447 143.473 510.818 145.874Z" fill="white"/>
</g>
<g opacity="0.1">
<path fill-rule="evenodd" clip-rule="evenodd" d="M58.7811 6.81308C57.63 8.70088 57.511 11.032 58.4424 13.017C58.3488 12.8794 58.2589 12.7385 58.1729 12.5942L68.7521 30.918C68.6858 30.797 68.6236 30.6745 68.5655 30.5507C70.4601 33.3353 73.8617 34.724 77.1904 34.0244L81.242 33.1731L77.5222 39.2736C76.371 41.1614 76.2521 43.4925 77.1835 45.4775C77.0899 45.3399 77 45.199 76.9139 45.0547L87.4932 63.3785C87.4269 63.2575 87.3647 63.135 87.3066 63.0112C89.2012 65.7958 92.6028 67.1845 95.9314 66.485L128.509 59.6397C139.904 57.2455 149.804 50.2499 155.866 40.3088L163.836 27.2365C164.988 25.3486 165.107 23.0175 164.175 21.0325C164.269 21.1701 164.359 21.311 164.445 21.4553L153.866 3.13151C153.932 3.25246 153.994 3.37494 154.052 3.49878C152.158 0.714167 148.756 -0.674361 145.427 0.0249789L141.376 0.876294L145.095 -5.22401C146.247 -7.11189 146.366 -9.44305 145.434 -11.428C145.528 -11.2904 145.618 -11.1495 145.704 -11.0052L135.124 -29.329C135.191 -29.208 135.253 -29.0856 135.311 -28.9617C133.416 -31.7463 130.015 -33.1349 126.686 -32.4355L94.1082 -25.5902C82.7134 -23.196 72.8137 -16.2004 66.752 -6.25932L58.7811 6.81308ZM84.7549 32.435L79.7549 40.635C79.0235 41.8344 78.9847 43.331 79.6511 44.5656L79.9505 45.0842C81.5843 47.819 84.8695 49.1614 88.1276 48.4254L89.9434 48.0152L97.9431 34.8957C99.4561 32.4144 101.38 30.2484 103.607 28.4737L84.7549 32.435ZM123.545 21.6116C129.02 18.1711 133.689 13.4828 137.125 7.84825L139.507 3.94111L145.965 2.58414C148.36 2.08102 150.809 3.15069 152.067 5.24665L152.256 5.57432C153.262 7.41407 153.156 9.68208 151.979 11.5216L148.938 16.276L123.545 21.6116ZM99.7727 9.10061L74.7545 14.7523L81.4348 3.79661C84.5868 -1.37279 89.7345 -5.01049 95.6599 -6.25543L128.222 -13.0974L125.569 -8.94968C119.736 0.167664 110.401 6.69981 99.7727 9.10061ZM95.1222 -8.81458L130.197 -16.1845L133.238 -20.9389C134.415 -22.7784 134.521 -25.0464 133.515 -26.8862L133.326 -27.2138C132.068 -29.3098 129.619 -30.3795 127.224 -29.8764L94.6459 -23.031C83.9572 -20.7852 74.6708 -14.223 68.9847 -4.89792L61.0138 8.17448C60.2824 9.37388 60.2437 10.8705 60.91 12.1051L61.2094 12.6237C62.8432 15.3585 66.1284 16.7009 69.3865 15.9649L71.2024 15.5547L79.2021 2.43521C82.7297 -3.35012 88.4908 -7.42128 95.1222 -8.81458ZM118.514 41.5611L93.4956 47.2128L100.176 36.2571C103.328 31.0877 108.476 27.45 114.401 26.2051L146.963 19.3631L144.31 23.5108C138.477 32.6282 129.142 39.1603 118.514 41.5611Z" fill="white"/>
</g>
<g opacity="0.1">
<path fill-rule="evenodd" clip-rule="evenodd" d="M172.923 162.088C171.772 163.976 171.653 166.307 172.584 168.292C172.49 168.155 172.401 168.014 172.314 167.87L182.894 186.193C182.827 186.072 182.765 185.95 182.707 185.826C184.602 188.611 188.003 189.999 191.332 189.3L195.384 188.449L191.664 194.549C190.513 196.437 190.394 198.768 191.325 200.753C191.231 200.615 191.142 200.474 191.056 200.33L201.635 218.654C201.568 218.533 201.506 218.41 201.448 218.287C203.343 221.071 206.744 222.46 210.073 221.76L242.651 214.915C254.046 212.521 263.946 205.525 270.007 195.584L277.978 182.512C279.129 180.624 279.248 178.293 278.317 176.308C278.41 176.445 278.5 176.586 278.586 176.731L268.007 158.407C268.073 158.528 268.136 158.65 268.194 158.774C266.299 155.99 262.898 154.601 259.569 155.3L255.517 156.152L259.237 150.051C260.388 148.163 260.507 145.832 259.576 143.847C259.669 143.985 259.759 144.126 259.845 144.27L249.266 125.946C249.332 126.067 249.395 126.19 249.453 126.314C247.558 123.529 244.156 122.141 240.828 122.84L208.25 129.685C196.855 132.079 186.955 139.075 180.894 149.016L172.923 162.088ZM198.896 187.71L193.896 195.91C193.165 197.11 193.126 198.606 193.793 199.841L194.092 200.36C195.726 203.094 199.011 204.437 202.269 203.701L204.085 203.291L212.085 190.171C213.598 187.69 215.522 185.524 217.749 183.749L198.896 187.71ZM237.687 176.887C243.162 173.446 247.83 168.758 251.266 163.124L253.649 159.216L260.107 157.86C262.501 157.356 264.951 158.426 266.209 160.522L266.398 160.85C267.403 162.689 267.298 164.957 266.121 166.797L263.08 171.551L237.687 176.887ZM213.914 164.376L188.896 170.028L195.576 159.072C198.728 153.903 203.876 150.265 209.802 149.02L242.364 142.178L239.71 146.326C233.878 155.443 224.542 161.975 213.914 164.376ZM209.264 146.461L244.338 139.091L247.38 134.336C248.557 132.497 248.662 130.229 247.657 128.389L247.468 128.062C246.21 125.966 243.76 124.896 241.365 125.399L208.788 132.244C198.099 134.49 188.812 141.052 183.126 150.377L175.155 163.45C174.424 164.649 174.385 166.146 175.052 167.38L175.351 167.899C176.985 170.634 180.27 171.976 183.528 171.24L185.344 170.83L193.344 157.711C196.871 151.925 202.632 147.854 209.264 146.461ZM232.655 196.837L207.637 202.488L214.317 191.533C217.47 186.363 222.617 182.725 228.543 181.48L261.105 174.639L258.451 178.786C252.619 187.904 243.283 194.436 232.655 196.837Z" fill="white"/>
</g>
<g opacity="0.1">
<path fill-rule="evenodd" clip-rule="evenodd" d="M159.455 59.4437C158.304 61.3315 158.185 63.6626 159.116 65.6476C159.023 65.5101 158.933 65.3691 158.847 65.2248L169.426 83.5486C169.36 83.4276 169.297 83.3052 169.239 83.1813C171.134 85.9659 174.536 87.3546 177.864 86.6551L181.916 85.8037L178.196 91.9042C177.045 93.792 176.926 96.1231 177.857 98.1081C177.764 97.9706 177.674 97.8296 177.588 97.6853L188.167 116.009C188.101 115.888 188.039 115.766 187.98 115.642C189.875 118.426 193.277 119.815 196.605 119.116L229.183 112.27C240.578 109.876 250.478 102.881 256.539 92.9394L264.51 79.8671C265.661 77.9792 265.781 75.6481 264.849 73.6631C264.943 73.8007 265.033 73.9416 265.119 74.0859L254.539 55.7621C254.606 55.8831 254.668 56.0056 254.726 56.1294C252.831 53.3448 249.43 51.9563 246.101 52.6556L242.05 53.5069L245.769 47.4066C246.92 45.5187 247.039 43.1876 246.108 41.2026C246.202 41.3402 246.291 41.4811 246.378 41.6254L235.798 23.3016C235.865 23.4226 235.927 23.5451 235.985 23.6689C234.09 20.8843 230.689 19.4958 227.36 20.1951L194.782 27.0404C183.387 29.4347 173.487 36.4302 167.426 46.3713L159.455 59.4437ZM185.429 85.0656L180.429 93.2656C179.697 94.465 179.659 95.9616 180.325 97.1962L180.624 97.7148C182.258 100.45 185.543 101.792 188.801 101.056L190.617 100.646L198.617 87.5263C200.13 85.045 202.054 82.879 204.281 81.1044L185.429 85.0656ZM224.219 74.2422C229.694 70.8017 234.363 66.1134 237.798 60.4789L240.181 56.5717L246.639 55.2148C249.034 54.7116 251.483 55.7813 252.741 57.8773L252.93 58.2049C253.936 60.0447 253.83 62.3127 252.653 64.1522L249.612 68.9066L224.219 74.2422ZM200.447 61.7312L175.428 67.3829L182.109 56.4272C185.261 51.2578 190.408 47.6201 196.334 46.3752L228.896 39.5332L226.243 43.6809C220.41 52.7983 211.075 59.3304 200.447 61.7312ZM195.796 43.816L230.871 36.4461L233.912 31.6917C235.089 29.8522 235.195 27.5842 234.189 25.7444L234 25.4168C232.742 23.3208 230.293 22.2511 227.898 22.7543L195.32 29.5996C184.631 31.8455 175.345 38.4076 169.659 47.7327L161.688 60.8051C160.956 62.0045 160.917 63.5011 161.584 64.7357L161.883 65.2543C163.517 67.9891 166.802 69.3315 170.06 68.5955L171.876 68.1853L179.876 55.0658C183.404 49.2805 189.165 45.2093 195.796 43.816ZM219.188 94.1917L194.169 99.8434L200.85 88.8877C204.002 83.7183 209.149 80.0806 215.075 78.8357L247.637 71.9937L244.984 76.1414C239.151 85.2588 229.816 91.7909 219.188 94.1917Z" fill="white"/>
</g>
<g opacity="0.1">
<path fill-rule="evenodd" clip-rule="evenodd" d="M275.371 212.575C274.22 214.463 274.101 216.794 275.032 218.779C274.939 218.642 274.849 218.501 274.763 218.356L285.342 236.68C285.276 236.559 285.213 236.437 285.155 236.313C287.05 239.098 290.452 240.486 293.78 239.787L297.832 238.935L294.112 245.036C292.961 246.924 292.842 249.255 293.773 251.24C293.68 251.102 293.59 250.961 293.504 250.817L304.083 269.141C304.017 269.02 303.955 268.897 303.896 268.773C305.791 271.558 309.193 272.947 312.521 272.247L345.099 265.402C356.494 263.008 366.394 256.012 372.455 246.071L380.426 232.999C381.578 231.111 381.697 228.78 380.765 226.795C380.859 226.932 380.949 227.073 381.035 227.217L370.455 208.894C370.522 209.015 370.584 209.137 370.642 209.261C368.747 206.476 365.346 205.088 362.017 205.787L357.966 206.639L361.685 200.538C362.836 198.65 362.955 196.319 362.024 194.334C362.118 194.472 362.207 194.613 362.294 194.757L351.714 176.433C351.781 176.554 351.843 176.677 351.901 176.8C350.006 174.016 346.605 172.627 343.276 173.327L310.698 180.172C299.303 182.566 289.404 189.562 283.342 199.503L275.371 212.575ZM301.345 238.197L296.345 246.397C295.613 247.597 295.575 249.093 296.241 250.328L296.54 250.846C298.174 253.581 301.459 254.924 304.717 254.188L306.533 253.777L314.533 240.658C316.046 238.177 317.97 236.011 320.197 234.236L301.345 238.197ZM340.135 227.374C345.61 223.933 350.279 219.245 353.714 213.61L356.097 209.703L362.555 208.346C364.95 207.843 367.399 208.913 368.657 211.009L368.846 211.337C369.852 213.176 369.746 215.444 368.569 217.284L365.528 222.038L340.135 227.374ZM316.363 214.863L291.344 220.514L298.025 209.559C301.177 204.389 306.324 200.752 312.25 199.507L344.812 192.665L342.159 196.813C336.326 205.93 326.991 212.462 316.363 214.863ZM311.712 196.948L346.787 189.578L349.828 184.823C351.005 182.984 351.111 180.716 350.105 178.876L349.916 178.548C348.658 176.452 346.209 175.383 343.814 175.886L311.236 182.731C300.547 184.977 291.261 191.539 285.575 200.864L277.604 213.937C276.872 215.136 276.834 216.633 277.5 217.867L277.799 218.386C279.433 221.121 282.718 222.463 285.976 221.727L287.792 221.317L295.792 208.197C299.32 202.412 305.081 198.341 311.712 196.948ZM335.104 247.323L310.085 252.975L316.766 242.019C319.918 236.85 325.065 233.212 330.991 231.967L363.553 225.125L360.9 229.273C355.067 238.39 345.732 244.923 335.104 247.323Z" fill="white"/>
</g>
</g>
</svg>
