<svg width="128" height="56" viewBox="0 0 128 56" fill="none" xmlns="http://www.w3.org/2000/svg">
<path d="M30.7786 31.7218C30.0692 31.7218 29.4281 31.5581 28.8552 31.2307C28.2913 30.9034 27.8412 30.4578 27.5047 29.8939C27.1773 29.321 27.0091 28.6799 27 27.9705V21.532C27 21.3683 27.0455 21.241 27.1364 21.1501C27.2364 21.05 27.3683 21 27.532 21C27.6866 21 27.8094 21.05 27.9003 21.1501C28.0003 21.241 28.0504 21.3683 28.0504 21.532V25.5424C28.3505 25.115 28.746 24.774 29.2371 24.5194C29.7373 24.2556 30.292 24.1238 30.9013 24.1238C31.6016 24.1238 32.229 24.292 32.7838 24.6285C33.3385 24.9559 33.775 25.406 34.0933 25.979C34.4207 26.5519 34.5844 27.1976 34.5844 27.916C34.5844 28.6435 34.4162 29.2937 34.0797 29.8666C33.7523 30.4396 33.3021 30.8943 32.7292 31.2307C32.1563 31.5581 31.5061 31.7218 30.7786 31.7218ZM30.7786 30.7669C31.306 30.7669 31.7789 30.6442 32.1972 30.3986C32.6155 30.144 32.9429 29.803 33.1794 29.3756C33.4249 28.9481 33.5477 28.4616 33.5477 27.916C33.5477 27.3794 33.4249 26.8975 33.1794 26.47C32.9429 26.0335 32.6155 25.6925 32.1972 25.447C31.7789 25.2014 31.306 25.0787 30.7786 25.0787C30.2602 25.0787 29.7919 25.2014 29.3735 25.447C28.9552 25.6925 28.6278 26.0335 28.3914 26.47C28.1549 26.8975 28.0367 27.3794 28.0367 27.916C28.0367 28.4616 28.1549 28.9481 28.3914 29.3756C28.6278 29.803 28.9552 30.144 29.3735 30.3986C29.7919 30.6442 30.2602 30.7669 30.7786 30.7669Z" fill="white"/>
<path d="M37.3949 31.6536C37.2312 31.6536 37.0993 31.6081 36.9993 31.5172C36.9083 31.4172 36.8629 31.2853 36.8629 31.1216V24.724C36.8629 24.5603 36.9083 24.433 36.9993 24.342C37.0993 24.242 37.2312 24.192 37.3949 24.192C37.5495 24.192 37.6722 24.242 37.7632 24.342C37.8632 24.433 37.9132 24.5603 37.9132 24.724V31.1216C37.9132 31.2853 37.8632 31.4172 37.7632 31.5172C37.6722 31.6081 37.5495 31.6536 37.3949 31.6536ZM37.3812 22.7733C37.1811 22.7733 37.0084 22.7006 36.8629 22.5551C36.7174 22.4096 36.6446 22.2322 36.6446 22.0231C36.6446 21.7957 36.7174 21.6184 36.8629 21.4911C37.0175 21.3547 37.1948 21.2865 37.3949 21.2865C37.5858 21.2865 37.7541 21.3547 37.8996 21.4911C38.0542 21.6184 38.1315 21.7957 38.1315 22.0231C38.1315 22.2322 38.0587 22.4096 37.9132 22.5551C37.7677 22.7006 37.5904 22.7733 37.3812 22.7733Z" fill="white"/>
<path d="M42.1973 31.6536C41.8336 31.6536 41.5062 31.5536 41.2152 31.3535C40.9333 31.1534 40.7105 30.8761 40.5468 30.5214C40.3922 30.1667 40.3149 29.7575 40.3149 29.2937V21.5184C40.3149 21.3638 40.3604 21.241 40.4513 21.1501C40.5513 21.05 40.6786 21 40.8332 21C40.9878 21 41.1106 21.05 41.2015 21.1501C41.3016 21.241 41.3516 21.3638 41.3516 21.5184V29.2937C41.3516 29.6848 41.4289 30.0031 41.5835 30.2486C41.7472 30.4941 41.9518 30.6169 42.1973 30.6169H42.5384C42.6748 30.6169 42.7839 30.6669 42.8657 30.7669C42.9476 30.8579 42.9885 30.9807 42.9885 31.1353C42.9885 31.2899 42.9294 31.4172 42.8112 31.5172C42.7021 31.6081 42.5566 31.6536 42.3747 31.6536H42.1973Z" fill="white"/>
<path d="M46.0472 31.6536C45.6834 31.6536 45.356 31.5536 45.065 31.3535C44.7831 31.1534 44.5603 30.8761 44.3966 30.5214C44.242 30.1667 44.1647 29.7575 44.1647 29.2937V21.5184C44.1647 21.3638 44.2102 21.241 44.3011 21.1501C44.4012 21.05 44.5285 21 44.6831 21C44.8377 21 44.9605 21.05 45.0514 21.1501C45.1514 21.241 45.2014 21.3638 45.2014 21.5184V29.2937C45.2014 29.6848 45.2787 30.0031 45.4333 30.2486C45.597 30.4941 45.8016 30.6169 46.0472 30.6169H46.3882C46.5246 30.6169 46.6337 30.6669 46.7156 30.7669C46.7974 30.8579 46.8384 30.9807 46.8384 31.1353C46.8384 31.2899 46.7793 31.4172 46.661 31.5172C46.5519 31.6081 46.4064 31.6536 46.2245 31.6536H46.0472Z" fill="white"/>
<path d="M51.2574 31.7218C50.5208 31.7218 49.866 31.5627 49.2931 31.2444C48.7293 30.917 48.2837 30.4668 47.9563 29.8939C47.638 29.321 47.4789 28.6662 47.4789 27.9296C47.4789 27.1839 47.6289 26.5291 47.929 25.9653C48.2382 25.3924 48.6611 24.9422 49.1976 24.6149C49.7342 24.2875 50.3526 24.1238 51.0528 24.1238C51.7439 24.1238 52.3441 24.2829 52.8534 24.6012C53.3718 24.9104 53.7719 25.3424 54.0538 25.8971C54.3357 26.4518 54.4767 27.0839 54.4767 27.7932C54.4767 27.9387 54.4312 28.0569 54.3403 28.1479C54.2493 28.2297 54.1311 28.2706 53.9856 28.2706H48.1882V27.3976H54.0947L53.5082 27.8205C53.5173 27.293 53.4218 26.8202 53.2217 26.4018C53.0216 25.9835 52.7352 25.6561 52.3623 25.4197C51.9986 25.1832 51.5621 25.065 51.0528 25.065C50.5344 25.065 50.0797 25.1878 49.6887 25.4333C49.2977 25.6789 48.993 26.0199 48.7747 26.4564C48.5656 26.8838 48.461 27.3749 48.461 27.9296C48.461 28.4844 48.5792 28.9754 48.8157 29.4028C49.0612 29.8303 49.3931 30.1667 49.8115 30.4123C50.2298 30.6578 50.7118 30.7806 51.2574 30.7806C51.5848 30.7806 51.9122 30.726 52.2396 30.6169C52.576 30.4987 52.8443 30.3532 53.0444 30.1804C53.1444 30.0985 53.2581 30.0576 53.3854 30.0576C53.5127 30.0485 53.6218 30.0804 53.7128 30.1531C53.831 30.2622 53.8901 30.3805 53.8901 30.5078C53.8992 30.6351 53.8492 30.7442 53.7401 30.8352C53.44 31.0898 53.058 31.3035 52.5942 31.4763C52.1304 31.64 51.6848 31.7218 51.2574 31.7218Z" fill="white"/>
<path d="M56.69 27.0566C56.7173 26.4928 56.8628 25.9881 57.1265 25.5424C57.3994 25.0968 57.7495 24.7467 58.1769 24.4921C58.6134 24.2375 59.0954 24.1101 59.6228 24.1101C60.0412 24.1101 60.364 24.1693 60.5914 24.2875C60.8187 24.4057 60.9051 24.5785 60.8505 24.8058C60.8142 24.9422 60.7505 25.0332 60.6596 25.0787C60.5777 25.1241 60.4731 25.1423 60.3458 25.1332C60.2276 25.1241 60.0912 25.115 59.9366 25.1059C59.4273 25.0605 58.9726 25.115 58.5725 25.2696C58.1814 25.4151 57.8677 25.6425 57.6313 25.9517C57.4039 26.2609 57.2902 26.6292 57.2902 27.0566H56.69ZM56.7719 31.6536C56.6082 31.6536 56.4809 31.6081 56.3899 31.5172C56.299 31.4263 56.2535 31.2989 56.2535 31.1353V24.7103C56.2535 24.5467 56.299 24.4193 56.3899 24.3284C56.4809 24.2375 56.6082 24.192 56.7719 24.192C56.9356 24.192 57.0629 24.2375 57.1538 24.3284C57.2448 24.4193 57.2902 24.5467 57.2902 24.7103V31.1353C57.2902 31.2989 57.2448 31.4263 57.1538 31.5172C57.0629 31.6081 56.9356 31.6536 56.7719 31.6536Z" fill="white"/>
<path d="M65.6796 31.7082C64.9793 31.7082 64.3609 31.549 63.8244 31.2307C63.2969 30.9034 62.8786 30.4578 62.5694 29.8939C62.2693 29.321 62.1193 28.6662 62.1193 27.9296C62.1193 27.1839 62.2784 26.5291 62.5967 25.9653C62.9241 25.3924 63.3697 24.9468 63.9335 24.6285C64.5064 24.3011 65.1566 24.1374 65.8842 24.1374C66.6208 24.1374 67.271 24.3011 67.8348 24.6285C68.3987 24.9468 68.8397 25.3924 69.158 25.9653C69.4854 26.5291 69.6536 27.1839 69.6627 27.9296L68.9261 28.0524C68.9261 28.7708 68.7851 29.4074 68.5032 29.9621C68.2304 30.5078 67.8485 30.9352 67.3574 31.2444C66.8663 31.5536 66.307 31.7082 65.6796 31.7082ZM65.8842 34.6956C65.2112 34.6956 64.5928 34.5637 64.029 34.3C63.4743 34.0453 63.0105 33.677 62.6376 33.195C62.5285 33.0586 62.483 32.9131 62.5012 32.7585C62.5285 32.613 62.6103 32.4948 62.7467 32.4039C62.8922 32.3038 63.0468 32.2675 63.2105 32.2947C63.3742 32.3311 63.5061 32.413 63.6061 32.5403C63.8608 32.8586 64.179 33.1086 64.561 33.2905C64.952 33.4724 65.4022 33.5633 65.9114 33.5633C66.3752 33.5633 66.7981 33.4497 67.1801 33.2223C67.562 33.0041 67.8667 32.6812 68.094 32.2538C68.3214 31.8355 68.435 31.3308 68.435 30.7397V28.7481L68.8579 27.7114L69.6627 27.9296V30.8079C69.6627 31.5354 69.499 32.1902 69.1716 32.7722C68.8534 33.3633 68.4078 33.8316 67.8348 34.1772C67.271 34.5228 66.6208 34.6956 65.8842 34.6956ZM65.8842 30.5896C66.3843 30.5896 66.8254 30.4759 67.2073 30.2486C67.5893 30.0212 67.8894 29.7075 68.1076 29.3074C68.3259 28.9072 68.435 28.448 68.435 27.9296C68.435 27.4113 68.3259 26.952 68.1076 26.5519C67.8894 26.1427 67.5893 25.8244 67.2073 25.597C66.8254 25.3697 66.3843 25.256 65.8842 25.256C65.3931 25.256 64.952 25.3697 64.561 25.597C64.179 25.8244 63.8789 26.1427 63.6607 26.5519C63.4424 26.952 63.3333 27.4113 63.3333 27.9296C63.3333 28.448 63.4424 28.9072 63.6607 29.3074C63.8789 29.7075 64.179 30.0212 64.561 30.2486C64.952 30.4759 65.3931 30.5896 65.8842 30.5896Z" fill="white"/>
<path d="M75.1843 31.7082C74.4295 31.7082 73.7611 31.549 73.1791 31.2307C72.6062 30.9034 72.156 30.4578 71.8287 29.8939C71.5013 29.321 71.3376 28.6662 71.3376 27.9296C71.3376 27.1839 71.4922 26.5291 71.8014 25.9653C72.1106 25.3924 72.538 24.9468 73.0836 24.6285C73.6293 24.3011 74.2613 24.1374 74.9797 24.1374C75.68 24.1374 76.2847 24.2966 76.794 24.6149C77.3032 24.9241 77.6943 25.356 77.9671 25.9108C78.2399 26.4564 78.3763 27.0884 78.3763 27.8069C78.3763 27.9615 78.3218 28.0933 78.2126 28.2024C78.1126 28.3025 77.9762 28.3525 77.8034 28.3525H72.197V27.3431H77.817L77.2578 27.7386C77.2487 27.2567 77.1532 26.8247 76.9713 26.4428C76.7894 26.0608 76.5302 25.7607 76.1938 25.5424C75.8573 25.3242 75.4526 25.2151 74.9797 25.2151C74.4614 25.2151 74.0112 25.3333 73.6293 25.5697C73.2564 25.8062 72.9699 26.129 72.7699 26.5382C72.5698 26.9475 72.4698 27.4113 72.4698 27.9296C72.4698 28.448 72.5835 28.9118 72.8108 29.321C73.0472 29.7211 73.3655 30.0394 73.7657 30.2759C74.1749 30.5123 74.6478 30.6305 75.1843 30.6305C75.4753 30.6305 75.7754 30.576 76.0846 30.4668C76.4029 30.3577 76.653 30.2304 76.8349 30.0849C76.9622 29.9849 77.0986 29.9348 77.2441 29.9348C77.3896 29.9258 77.5169 29.9667 77.6261 30.0576C77.7625 30.1849 77.8352 30.3259 77.8443 30.4805C77.8534 30.626 77.7898 30.7533 77.6534 30.8624C77.3442 31.108 76.9577 31.3126 76.4939 31.4763C76.0392 31.6309 75.6027 31.7082 75.1843 31.7082Z" fill="white"/>
<path d="M86.495 31.6673C86.3131 31.6673 86.1585 31.6081 86.0312 31.4899C85.9129 31.3626 85.8538 31.2126 85.8538 31.0398V27.6022C85.8538 27.0657 85.7538 26.6292 85.5537 26.2927C85.3537 25.9471 85.0854 25.6925 84.7489 25.5288C84.4124 25.356 84.0259 25.2696 83.5894 25.2696C83.1802 25.2696 82.8119 25.3515 82.4845 25.5152C82.1571 25.6789 81.8934 25.8971 81.6933 26.1699C81.5023 26.4428 81.4069 26.7565 81.4069 27.1112H80.5884C80.5975 26.5382 80.743 26.029 81.0249 25.5834C81.3068 25.1287 81.6888 24.774 82.1708 24.5194C82.6527 24.2556 83.1938 24.1238 83.794 24.1238C84.4306 24.1238 84.999 24.2602 85.4992 24.533C85.9993 24.7967 86.3949 25.1878 86.6859 25.7061C86.9769 26.2245 87.1224 26.8565 87.1224 27.6022V31.0398C87.1224 31.2126 87.0588 31.3626 86.9315 31.4899C86.8132 31.6081 86.6677 31.6673 86.495 31.6673ZM80.7794 31.6673C80.5975 31.6673 80.4474 31.6081 80.3292 31.4899C80.211 31.3717 80.1519 31.2216 80.1519 31.0398V24.8195C80.1519 24.6285 80.211 24.4785 80.3292 24.3693C80.4474 24.2511 80.5975 24.192 80.7794 24.192C80.9704 24.192 81.1204 24.2511 81.2295 24.3693C81.3478 24.4785 81.4069 24.6285 81.4069 24.8195V31.0398C81.4069 31.2216 81.3478 31.3717 81.2295 31.4899C81.1204 31.6081 80.9704 31.6673 80.7794 31.6673Z" fill="white"/>
<path d="M90.2283 31.6536C90.0373 31.6536 89.8827 31.5945 89.7645 31.4763C89.6463 31.3581 89.5872 31.208 89.5872 31.0261V24.8195C89.5872 24.6285 89.6463 24.4785 89.7645 24.3693C89.8827 24.2511 90.0373 24.192 90.2283 24.192C90.4102 24.192 90.5602 24.2511 90.6785 24.3693C90.7967 24.4785 90.8558 24.6285 90.8558 24.8195V31.0261C90.8558 31.208 90.7967 31.3581 90.6785 31.4763C90.5602 31.5945 90.4102 31.6536 90.2283 31.6536ZM90.2147 22.8961C89.9873 22.8961 89.7918 22.8143 89.6281 22.6506C89.4644 22.4869 89.3826 22.2868 89.3826 22.0504C89.3826 21.8139 89.4644 21.6184 89.6281 21.4638C89.8009 21.3001 90.001 21.2183 90.2283 21.2183C90.4466 21.2183 90.6376 21.3001 90.8012 21.4638C90.974 21.6184 91.0604 21.8139 91.0604 22.0504C91.0604 22.2868 90.9786 22.4869 90.8149 22.6506C90.6512 22.8143 90.4511 22.8961 90.2147 22.8961Z" fill="white"/>
<path d="M96.938 31.7082C96.1832 31.7082 95.5148 31.549 94.9328 31.2307C94.3598 30.9034 93.9097 30.4578 93.5823 29.8939C93.2549 29.321 93.0912 28.6662 93.0912 27.9296C93.0912 27.1839 93.2458 26.5291 93.555 25.9653C93.8642 25.3924 94.2916 24.9468 94.8373 24.6285C95.3829 24.3011 96.0149 24.1374 96.7334 24.1374C97.4336 24.1374 98.0384 24.2966 98.5476 24.6149C99.0569 24.9241 99.4479 25.356 99.7207 25.9108C99.9936 26.4564 100.13 27.0884 100.13 27.8069C100.13 27.9615 100.075 28.0933 99.9663 28.2024C99.8662 28.3025 99.7298 28.3525 99.5571 28.3525H93.9506V27.3431H99.5707L99.0114 27.7386C99.0023 27.2567 98.9068 26.8247 98.7249 26.4428C98.5431 26.0608 98.2839 25.7607 97.9474 25.5424C97.6109 25.3242 97.2063 25.2151 96.7334 25.2151C96.215 25.2151 95.7649 25.3333 95.3829 25.5697C95.0101 25.8062 94.7236 26.129 94.5235 26.5382C94.3235 26.9475 94.2234 27.4113 94.2234 27.9296C94.2234 28.448 94.3371 28.9118 94.5644 29.321C94.8009 29.7211 95.1192 30.0394 95.5193 30.2759C95.9285 30.5123 96.4014 30.6305 96.938 30.6305C97.229 30.6305 97.5291 30.576 97.8383 30.4668C98.1566 30.3577 98.4067 30.2304 98.5885 30.0849C98.7159 29.9849 98.8523 29.9348 98.9978 29.9348C99.1433 29.9258 99.2706 29.9667 99.3797 30.0576C99.5161 30.1849 99.5889 30.3259 99.598 30.4805C99.6071 30.626 99.5434 30.7533 99.407 30.8624C99.0978 31.108 98.7113 31.3126 98.2475 31.4763C97.7928 31.6309 97.3563 31.7082 96.938 31.7082Z" fill="white"/>
</svg>
