<svg width="802" height="802" viewBox="0 0 802 802" fill="none" xmlns="http://www.w3.org/2000/svg">
<circle cx="401" cy="401" r="401" fill="#010314"/>
<g clip-path="url(#clip0_4096_69)">
<path d="M108 414.368L102.87 414.368C102.791 413.541 102.78 412.738 102.63 411.971C102.348 410.516 101.461 409.731 99.9977 409.57C99.4783 409.526 98.9568 409.51 98.4356 409.523C90.1312 409.523 81.8263 409.523 73.5211 409.523L72.2285 409.523L72.2285 403.971L100.23 403.971C105.192 403.971 106.491 404.904 108.003 409.558L108 414.368Z" fill="white"/>
<path d="M92.0982 333.713L96.8773 333.713L96.8773 355.043C96.3608 354.814 95.8856 354.681 95.4982 354.417C89.6477 350.422 83.8026 346.418 77.9629 342.405C77.7121 342.233 77.4464 342.084 77.0301 341.827L77.0301 353.486L72.2285 353.486L72.2285 333.015C72.7714 333.238 73.2628 333.35 73.6515 333.614C79.3967 337.53 85.1311 341.455 90.8546 345.39C91.2144 345.641 91.5842 345.865 92.0982 346.199L92.0982 333.713Z" fill="white"/>
<path d="M72.251 355.348C72.9518 355.724 73.5047 355.975 73.9886 356.306C79.6987 360.203 85.4043 364.109 91.1052 368.022C91.3772 368.209 91.6668 368.369 92.0981 368.632L92.0981 356.233L96.886 356.233L96.886 377.523C96.2967 377.251 95.7702 377.09 95.3351 376.793C89.5682 372.856 83.8071 368.909 78.0518 364.951C77.7685 364.757 77.4763 364.575 77.0263 364.281L77.0263 375.996L72.251 375.996L72.251 355.348Z" fill="white"/>
<path d="M96.8729 425.798C96.9544 428.498 96.468 431.079 96.0141 433.68C95.6042 436.027 94.4922 437.465 92.2719 438.627C84.8175 442.533 79.3326 448.482 75.6405 456.065C75.2869 456.793 74.8293 457.186 74.0733 457.412C71.0645 458.306 68.0155 458.909 64.8663 458.93C64.4902 458.93 64.1241 458.93 63.6953 458.93L63.6953 449.481C76.859 446.974 84.7573 439.124 87.3123 425.798L96.8729 425.798Z" fill="#3314F5"/>
<path d="M84.1712 469.93L74.4463 469.93C74.4463 468.802 74.672 466.555 74.8525 465.491C75.2198 463.324 75.5821 462.046 76.0661 460.116C76.2064 459.554 76.3995 459.006 76.6427 458.48L76.7481 458.251C84.9284 454.239 91.6456 447.927 95.7051 439.763C96.1664 438.836 96.7356 438.275 97.7348 438.071C99.668 437.679 101.58 437.173 103.523 436.85C104.848 436.631 106.211 436.642 107.646 436.544L107.646 446.312C101.561 447.151 96.2492 449.682 91.8876 454.055C87.526 458.428 84.9898 463.757 84.1712 469.93Z" fill="#3314F5"/>
<path d="M87.1387 469.961C86.2173 458.021 96.678 448.28 107.729 449.229C107.729 450.733 107.729 452.249 107.729 453.767C107.729 454.846 107.648 457.459 107.648 457.459C107.648 457.459 105.775 457.668 104.83 458.048C99.7659 460.086 96.5552 463.77 95.2551 469.081C95.0909 469.753 94.8539 469.988 94.1644 469.977C91.84 469.938 89.5157 469.961 87.1387 469.961Z" fill="#3314F5"/>
<path d="M84.3516 425.73C84.6124 429.359 83.9291 432.673 82.2881 435.729C78.5834 442.63 72.7212 446.134 64.9521 446.539C63.9378 446.592 63.6006 446.539 63.6006 446.539C63.7034 444.593 63.6583 441.317 63.6219 439.367C63.6094 438.7 63.7987 438.421 64.4869 438.246C70.5648 436.69 74.4475 432.844 76.076 426.776C76.3067 425.915 76.6239 425.688 77.4626 425.709C79.7142 425.768 81.9696 425.73 84.3516 425.73Z" fill="#3314F5"/>
<path d="M107.666 469.916L97.5562 469.916C96.4742 464.999 102.274 459.021 107.666 459.51L107.666 469.916Z" fill="#3314F5"/>
<path d="M74.054 425.798C74.5668 431.127 69.1057 436.544 63.7148 436.017L63.7148 425.798L74.054 425.798Z" fill="#3314F5"/>
<path d="M77.542 455.901C81.0523 448.521 86.3654 443.171 93.6506 439.651C93.4275 443.965 83.3453 454.13 77.542 455.901Z" fill="#3314F5"/>
<path d="M68.3093 409.46L63.4023 409.46L63.4023 404.047L68.3093 404.047L68.3093 409.46Z" fill="white"/>
<path d="M79.7807 379.07C75.7024 379.169 73.0032 381.434 71.9902 385.25C71.3539 387.652 71.2788 390.168 71.7708 392.603C72.1607 394.589 72.9919 396.379 74.4838 397.794C75.6009 398.848 76.8784 399.621 78.4442 399.978L79.975 395.035C77.0313 393.406 75.9556 390.832 76.753 387.496C77.2068 385.598 78.4731 384.612 80.7222 384.504C80.9905 386.245 81.1534 387.951 81.5321 389.607C82.0937 392.072 82.5651 394.603 83.5229 396.916C84.7428 399.867 87.3454 401.053 90.4583 400.905C93.6389 400.757 96.0473 399.212 96.9988 396.127C98.3152 391.865 97.8375 387.853 94.4501 384.57C94.2658 384.392 93.9787 384.319 93.7392 384.194L93.99 383.844L96.896 383.844L96.896 379.116C96.7882 379.069 96.728 379.018 96.6678 379.018C91.035 379.028 85.4034 378.934 79.7807 379.07ZM93.1851 392.256C93.0372 393.949 92.0919 395.14 90.6627 395.433C89.2335 395.726 87.9046 395.112 87.304 393.452C86.5957 391.476 86.2008 389.384 85.7194 387.33C85.515 386.453 85.4373 385.553 85.2931 384.597C90.2565 384.128 93.6063 387.438 93.1851 392.256Z" fill="white"/>
</g>
<path d="M362.128 79.6052H367.379V98.5402C367.379 100.616 366.888 102.441 365.907 104.017C364.935 105.592 363.567 106.824 361.803 107.71C360.039 108.588 357.977 109.027 355.619 109.027C353.251 109.027 351.185 108.588 349.42 107.71C347.656 106.824 346.288 105.592 345.316 104.017C344.345 102.441 343.859 100.616 343.859 98.5402V79.6052H349.109V98.1015C349.109 99.3091 349.373 100.385 349.901 101.328C350.439 102.272 351.194 103.012 352.166 103.55C353.137 104.078 354.288 104.342 355.619 104.342C356.949 104.342 358.1 104.078 359.072 103.55C360.053 103.012 360.808 102.272 361.336 101.328C361.864 100.385 362.128 99.3091 362.128 98.1015V79.6052ZM371.812 84.0064V79.6052H394.936V84.0064H385.978V108.588H380.77V84.0064H371.812ZM404.644 79.6052V108.588H399.393V79.6052H404.644ZM410.329 108.588V79.6052H415.579V104.187H428.344V108.588H410.329ZM437.713 108.588H432.109L442.312 79.6052H448.793L459.011 108.588H453.407L445.666 85.5489H445.439L437.713 108.588ZM437.897 97.2241H453.18V101.441H437.897V97.2241Z" fill="white"/>
<defs>
<clipPath id="clip0_4096_69">
<rect width="136.953" height="44.5975" fill="white" transform="translate(63.4023 469.977) rotate(-90)"/>
</clipPath>
</defs>
</svg>
