<svg width="176" height="35" viewBox="0 0 176 35" fill="none" xmlns="http://www.w3.org/2000/svg">
<path d="M16.0051 17.8506C16.0051 18.7834 16.7338 19.5121 17.6666 19.5121C18.5993 19.5121 19.328 18.7834 19.328 17.8506C19.328 16.9179 18.5993 16.1892 17.6666 16.1892C16.7338 16.2184 16.0051 16.9471 16.0051 17.8506ZM29.9378 16.2184C29.0051 16.2184 28.2764 16.9471 28.2764 17.8798C28.2764 18.8125 29.0051 19.5412 29.9378 19.5412C30.8705 19.5412 31.5992 18.8125 31.5992 17.8798C31.5992 16.9471 30.8705 16.2184 29.9378 16.2184ZM29.9378 28.6936C29.0051 28.6936 28.2764 29.4223 28.2764 30.3551C28.2764 31.2878 29.0051 32.0165 29.9378 32.0165C30.8705 32.0165 31.5992 31.2878 31.5992 30.3551C31.5992 29.4223 30.8705 28.6936 29.9378 28.6936Z" fill="#535366"/>
<path d="M33.4646 2.48964C31.8032 0.420147 28.8301 0.332706 27.0812 1.96499L26.8772 2.16903L26.4691 2.48964C24.8077 3.83045 22.3301 3.71386 20.7853 2.16903V2.05243C20.2606 1.52777 19.5611 1.1197 18.8324 0.915662C18.7158 0.915662 18.5118 0.799072 18.4243 0.799072H16.7629C16.6463 0.799072 16.5589 0.79907 16.4423 0.915662H16.2382C16.1217 0.915662 16.0342 1.03225 15.9176 1.03225C15.9176 1.03225 15.801 1.03226 15.801 1.14885C15.6844 1.14885 15.597 1.26544 15.4804 1.26544C15.4804 1.26544 15.3638 1.26544 15.3638 1.38203C15.2472 1.49862 15.1598 1.49862 15.0432 1.58607C15.0432 1.58607 14.9266 1.58607 14.9266 1.70266C14.81 1.81925 14.7226 1.81924 14.606 1.90669L14.4894 2.02329L14.2853 2.22732L13.8773 2.54794C12.2158 3.88875 9.73827 3.77215 8.31003 2.22732C8.31003 2.22732 8.19343 2.22732 8.19343 2.11073L7.9894 1.90669C7.37729 1.38203 6.6486 0.973956 5.83246 0.886512H3.96699C3.96699 1.0031 3.8504 1.00311 3.76296 1.09055H3.73381C3.20915 1.29459 2.71364 1.49862 2.27642 1.90669L2.15983 2.02329L1.8392 2.34391C1.43113 2.75198 1.2271 3.27664 1.02306 3.68471C1.02306 3.8013 0.906469 3.88875 0.906469 4.00534C0.906469 4.12193 0.789878 4.20937 0.789878 4.41341C0.673286 5.1421 0.673286 5.8708 0.906469 6.57035C0.906469 6.68694 1.02306 6.77438 1.02306 6.89097V7.00756C1.02306 7.12416 1.13965 7.2116 1.13965 7.32819C1.25624 7.44478 1.25624 7.53223 1.34369 7.73626C1.54772 7.85285 1.75176 8.05689 1.86835 8.14434L2.07238 8.34837L2.27642 8.55241C3.82126 10.0972 3.82126 12.7788 2.15983 14.4403C1.95579 14.6443 1.63517 14.9649 1.54772 15.169C1.43113 15.2856 1.43113 15.373 1.34369 15.577V15.6936C1.2271 15.8102 1.2271 15.8977 1.13965 16.0143V16.1309C1.13965 16.2474 1.02306 16.3349 1.02306 16.4515V16.5681C1.02306 16.6847 1.02306 16.7721 0.906469 16.8887V18.4335C0.906469 18.5501 0.906469 18.6376 1.02306 18.7542V18.8707C1.2271 19.5994 1.63517 20.3281 2.24727 20.9402C3.9087 22.6017 3.9087 25.2833 2.24727 26.9156L2.13068 27.0321L1.92664 27.2362V27.3528C1.81005 27.4694 1.72261 27.5568 1.72261 27.6734C1.72261 27.6734 1.72261 27.79 1.60602 27.79C1.48943 27.9066 1.48943 27.994 1.40198 28.1106L1.28539 28.2272C1.28539 28.3438 1.1688 28.3438 1.1688 28.4312C1.1688 28.5187 1.05221 28.5478 1.05221 28.6353C1.05221 28.7519 1.05221 28.7519 0.935617 28.8393C0.731582 29.2474 0.61499 29.772 0.61499 30.1801V30.9963C0.731582 31.3169 0.731582 31.6084 0.935617 31.8124C0.935617 31.929 1.05221 32.0164 1.05221 32.0164C1.05221 32.0164 1.05221 32.133 1.1688 32.133C1.1688 32.2496 1.28539 32.3371 1.28539 32.4537C1.28539 32.4537 1.28539 32.5702 1.40198 32.5702C1.51857 32.7743 1.60602 32.8909 1.72261 32.9783C1.72261 32.9783 1.72261 33.0949 1.8392 33.0949C1.8392 33.0949 1.8392 33.2115 1.95579 33.2115C1.95579 33.3281 2.07238 33.3281 2.07238 33.3281L2.18898 33.4447C2.30557 33.5613 2.39301 33.5613 2.39301 33.6487L2.5096 33.7653C2.5096 33.7653 2.62619 33.7653 2.62619 33.8819C2.74278 33.9985 2.83023 34.0859 2.94682 34.0859C2.94682 34.0859 3.06341 34.0859 3.06341 34.2025C3.18 34.3191 3.26745 34.3191 3.38404 34.4066H3.44233C3.55892 34.5231 3.64637 34.5232 3.8504 34.5232C3.96699 34.5232 4.17103 34.6397 4.25847 34.6397H4.37506C4.49166 34.6397 4.5791 34.6397 4.69569 34.7563H5.62842C5.94905 34.7563 6.15308 34.6397 6.44456 34.6397H6.56115C6.67775 34.6397 6.76519 34.5232 6.88178 34.5232H6.94008C7.05667 34.5232 7.14411 34.4066 7.2607 34.4066H7.37729C7.58133 34.29 7.90196 34.0859 8.10599 33.9985L8.42662 33.6779L8.54321 33.5613C10.2046 31.8124 12.8862 31.8124 14.5185 33.5613C16.384 35.5142 19.4737 35.4267 21.2225 33.2406C22.4467 31.6958 22.4467 29.4223 21.2225 27.7608C19.5611 25.6913 16.588 25.6039 14.8391 27.2362L14.6351 27.4402L14.227 27.7608C12.5656 29.1016 10.088 28.9851 8.54321 27.4402L8.33917 27.2362L8.01855 26.8281C6.67775 25.1667 6.79434 22.6891 8.33917 21.1443C9.2719 20.3281 9.67998 19.1914 9.67998 18.0546V17.734C9.67998 16.7138 9.27191 15.6645 8.45577 14.9358C8.45577 14.8192 8.33917 14.8192 8.33917 14.7317L8.01855 14.3237C6.67775 12.6623 6.79434 10.1847 8.33917 8.63985L8.45577 8.52326L8.57236 8.40667C10.2338 6.65779 12.9154 6.65779 14.5477 8.40667L14.6643 8.52326L14.7809 8.63985L14.9849 8.84388C15.1015 8.84388 15.1015 8.96047 15.1889 8.96047C15.2764 8.96047 15.3055 9.07706 15.393 9.07706C15.4804 9.07706 15.5095 9.19365 15.597 9.19365C15.6844 9.19365 15.7136 9.31025 15.801 9.31025C15.8885 9.31025 15.9176 9.42684 16.0051 9.42684C16.0925 9.42684 16.1217 9.54343 16.2091 9.54343C16.2965 9.54343 16.3257 9.54343 16.4131 9.66002C16.5297 9.66002 16.5297 9.66002 16.6172 9.77661H18.366C18.4826 9.77661 18.5701 9.77661 18.6867 9.66002H18.8907C19.0073 9.66002 19.0947 9.54343 19.2113 9.54343H19.3279C19.4445 9.54343 19.532 9.42684 19.736 9.33939C20.1441 9.13536 20.5521 8.81473 20.8728 8.52326L20.9893 8.40667C22.6508 6.65779 25.3324 6.65779 26.9647 8.40667C28.7135 10.4762 31.9198 10.3596 33.5812 8.20263C34.6888 6.30802 34.6888 4.03448 33.4646 2.48964Z" fill="#535366"/>
<path d="M56.9869 15.2856C56.3748 14.6735 55.8502 14.2655 55.1215 13.9448C54.5094 13.6242 53.7807 13.4202 52.848 13.4202C52.0318 13.4202 51.1865 13.6242 50.5744 13.9448C49.9623 14.2655 49.4377 14.6735 49.0296 15.2856C48.6215 15.8103 48.3009 16.4224 48.0969 17.1511C47.8928 17.8798 47.7762 18.6085 47.7762 19.308C47.7762 20.0076 47.8928 20.7654 48.1843 21.465C48.3883 22.1937 48.7964 22.6892 49.2045 23.2138C49.6125 23.7385 50.2246 24.1466 50.8659 24.4381C51.478 24.7587 52.2067 24.8461 53.0228 24.8461C53.9556 24.8461 54.6843 24.6421 55.2964 24.3215C55.9085 24.0008 56.5206 23.5928 57.0452 22.9807L59.2022 25.2542C58.386 26.1869 57.4533 26.799 56.404 27.2071C55.3838 27.6152 54.2471 27.8192 52.9937 27.8192C51.7695 27.8192 50.5161 27.6152 49.4959 27.2071C48.4758 26.799 47.543 26.1869 46.8143 25.4582C46.0857 24.7295 45.4735 23.7968 45.0655 22.7766C44.6574 21.7565 44.4534 20.5031 44.4534 19.2789C44.4534 18.0547 44.6574 16.8013 45.0655 15.7811C45.4735 14.761 46.0857 13.8282 46.8143 12.9829C47.543 12.2542 48.4758 11.6421 49.4959 11.2341C50.5161 10.826 51.7695 10.622 52.9937 10.622C54.2179 10.622 55.3547 10.826 56.404 11.2341C57.5408 11.6421 58.4735 12.3708 59.2896 13.187L56.9869 15.2856ZM63.9824 19.104C63.9824 19.9201 64.099 20.7654 64.3905 21.3775C64.5945 22.1062 65.0026 22.7183 65.4107 23.243C65.8188 23.7677 66.4309 24.1757 67.0721 24.3798C67.6842 24.7004 68.5295 24.7878 69.3456 24.7878C70.1618 24.7878 70.8905 24.6712 71.6192 24.3798C72.2313 24.0591 72.8434 23.6511 73.2806 23.243C73.6887 22.7183 74.0967 22.1062 74.3008 21.3775C74.5048 20.6488 74.7088 19.9201 74.7088 19.104C74.7088 18.2879 74.5923 17.4426 74.3008 16.8305C74.0967 16.1018 73.6887 15.4897 73.2806 14.965C72.8725 14.4403 72.2604 14.0323 71.6192 13.8282C71.0071 13.5076 70.1618 13.4202 69.3456 13.4202C68.5295 13.4202 67.8008 13.5368 67.0721 13.8282C66.46 14.1489 65.8479 14.5569 65.4107 14.965C65.0026 15.4897 64.5945 16.1018 64.3905 16.8305C64.1865 17.5592 63.9824 18.2879 63.9824 19.104ZM60.6887 19.104C60.6887 17.8798 60.8928 16.743 61.3008 15.6937C61.7089 14.6735 62.321 13.7408 63.1663 12.8955C63.9824 12.0794 64.8277 11.4381 65.9645 11.03C66.9847 10.622 68.1214 10.3013 69.3748 10.3013C70.6282 10.3013 71.7358 10.5054 72.7851 11.03C73.8053 11.4381 74.738 12.0502 75.5833 12.8955C76.3994 13.7116 76.9241 14.6444 77.4487 15.6937C77.8568 16.7139 78.0609 17.8506 78.0609 19.104C78.0609 20.3282 77.8568 21.465 77.4487 22.5143C77.0407 23.5345 76.4286 24.4672 75.5833 25.3125C74.7671 26.1286 73.9219 26.6533 72.7851 27.178C71.7649 27.586 70.6282 27.9067 69.3748 27.9067C68.1506 27.9067 67.0138 27.7026 65.9645 27.178C64.9443 26.7699 64.0116 26.1578 63.1663 25.3125C62.3502 24.4964 61.8255 23.6511 61.3008 22.5143C61.0094 21.465 60.6887 20.3282 60.6887 19.104ZM81.238 27.4694H84.3276V10.9717H81.238V27.4694ZM80.5093 4.96728C80.5093 4.35518 80.7133 3.83052 81.1214 3.30586C81.5294 2.89779 82.0541 2.57717 82.6662 2.57717C83.2783 2.57717 83.803 2.7812 84.2111 3.30586C84.6191 3.71393 84.8232 4.32603 84.8232 4.96728C84.8232 5.60854 84.6191 6.10405 84.2111 6.62872C83.803 7.03679 83.2783 7.35741 82.6662 7.35741C82.0541 7.35741 81.5294 7.15338 81.1214 6.62872C80.7133 6.1915 80.5093 5.57939 80.5093 4.96728ZM88.6415 10.9426H91.7603V13.5076H91.8769C92.285 12.5749 92.8971 11.8462 93.9464 11.3507C94.8792 10.826 96.0159 10.5345 97.3567 10.5345C98.1729 10.5345 98.9016 10.6511 99.6303 10.9426C100.359 11.1466 100.971 11.5547 101.496 12.0794C102.02 12.604 102.428 13.2161 102.837 14.0323C103.157 14.8484 103.361 15.7811 103.361 16.9179V27.5569H100.213V17.7632C100.213 17.0345 100.097 16.3058 99.8926 15.8103C99.6886 15.2856 99.3679 14.7901 99.0765 14.4695C98.7558 14.1489 98.3478 13.8574 97.8522 13.7408C97.4442 13.6242 96.9195 13.5368 96.3949 13.5368C95.7828 13.5368 95.1706 13.6533 94.646 13.8574C94.1213 14.0614 93.6258 14.382 93.1886 14.8776C92.7805 15.2856 92.4599 15.8977 92.2559 16.6264C92.0518 17.3551 91.9352 18.1713 91.9352 19.104V27.6735H88.8456V10.9717L88.6415 10.9426ZM114.758 24.8753C115.574 24.8753 116.303 24.7587 117.032 24.4672C117.76 24.1466 118.256 23.7385 118.78 23.243C119.188 22.7183 119.597 22.1062 119.801 21.3775C120.005 20.6488 120.209 19.9201 120.209 19.0166C120.209 18.2004 120.092 17.3551 119.801 16.6556C119.597 15.9269 119.188 15.3148 118.78 14.7901C118.256 14.2655 117.76 13.8574 117.032 13.5659C116.303 13.2453 115.574 13.1578 114.758 13.1578C113.942 13.1578 113.213 13.2744 112.484 13.5659C111.756 13.8865 111.26 14.2946 110.736 14.7901C110.328 15.3148 109.919 15.9269 109.715 16.6556C109.511 17.3843 109.307 18.113 109.307 19.0166C109.307 19.8327 109.424 20.678 109.715 21.3775C109.919 22.1062 110.328 22.7183 110.736 23.243C111.144 23.7677 111.756 24.1757 112.484 24.4672C113.097 24.6712 113.942 24.8753 114.758 24.8753ZM123.327 27.3528H120.238V24.9919H120.121C119.509 25.9246 118.664 26.5367 117.644 27.0614C116.623 27.586 115.487 27.7901 114.35 27.7901C113.126 27.7901 111.872 27.586 110.852 27.178C109.832 26.7699 108.899 26.1578 108.171 25.3125C107.442 24.4964 106.83 23.5636 106.509 22.5143C106.101 21.4941 105.897 20.3574 105.897 19.104C105.897 17.8506 106.101 16.743 106.509 15.6063C106.917 14.5861 107.442 13.6534 108.171 12.8081C108.899 11.9919 109.832 11.3507 110.852 10.9426C111.872 10.5345 113.009 10.3305 114.35 10.3305C115.487 10.3305 116.623 10.5345 117.644 11.0592C118.664 11.5839 119.509 12.2834 120.005 13.1287H120.121V0.740845H123.211V27.3528H123.327ZM139.096 17.7632C139.096 17.0345 138.98 16.4224 138.776 15.8103C138.572 15.1982 138.251 14.6735 137.843 14.2655C137.435 13.8574 136.91 13.5368 136.386 13.2453C135.774 13.0412 135.162 12.8372 134.316 12.8372C133.588 12.8372 132.859 12.9538 132.247 13.2453C131.635 13.5659 131.11 13.8574 130.585 14.382C130.177 14.7901 129.769 15.3148 129.565 15.9269C129.361 16.539 129.157 17.0637 129.157 17.5883H139.067L139.096 17.7632ZM129.215 20.3282C129.215 21.0569 129.419 21.669 129.74 22.2811C130.061 22.8932 130.469 23.4179 130.964 23.826C131.489 24.234 132.101 24.5547 132.713 24.7587C133.442 24.9627 134.054 25.0793 134.783 25.0793C135.715 25.0793 136.648 24.8753 137.348 24.3506C138.076 23.9425 138.688 23.3304 139.301 22.6017L141.661 24.4672C139.913 26.7407 137.435 27.8775 134.345 27.8775C133.005 27.8775 131.868 27.6735 130.848 27.2654C129.827 26.8573 128.895 26.2452 128.166 25.3999C127.437 24.5838 126.825 23.7385 126.505 22.6017C126.097 21.5816 125.892 20.4448 125.892 19.1914C125.892 17.9672 126.097 16.8305 126.505 15.7811C126.913 14.761 127.525 13.8282 128.253 12.9829C128.982 12.1668 129.915 11.6421 130.935 11.1175C131.955 10.7094 133.092 10.5054 134.345 10.5054C135.803 10.5054 137.027 10.7094 138.047 11.2341C139.067 11.7587 139.913 12.3708 140.525 13.187C141.137 14.0031 141.661 14.9359 141.982 15.9852C142.303 17.0054 142.39 18.0547 142.39 19.1914V20.3282H129.215V20.3282ZM154.574 15.0816C154.166 14.6735 153.758 14.2655 153.233 13.9448C152.709 13.6242 152.009 13.4202 151.28 13.4202C150.552 13.4202 149.939 13.6242 149.327 13.9448C148.803 14.2655 148.511 14.6735 148.511 15.2856C148.511 15.8103 148.715 16.2184 149.036 16.4224C149.357 16.743 149.765 16.9471 150.173 17.1511C150.581 17.3551 151.105 17.4717 151.513 17.5592C152.038 17.6758 152.446 17.7632 152.738 17.7632C153.35 17.9672 154.078 18.0838 154.603 18.3753C155.215 18.5793 155.74 18.9 156.148 19.308C156.556 19.7161 156.877 20.1242 157.168 20.6488C157.372 21.1735 157.576 21.7856 157.576 22.6017C157.576 23.5345 157.372 24.3506 156.964 24.9627C156.556 25.5748 156.031 26.1869 155.419 26.6242C154.807 27.0614 154.078 27.3528 153.262 27.5569C152.446 27.7609 151.601 27.8775 150.901 27.8775C149.561 27.8775 148.336 27.6735 147.287 27.2654C146.267 26.8573 145.334 26.1286 144.489 24.9919L146.85 23.039C147.374 23.5636 147.87 23.9717 148.511 24.3798C149.152 24.7878 149.852 24.9919 150.785 24.9919C151.193 24.9919 151.601 24.9919 152.009 24.8753C152.417 24.7587 152.738 24.6712 153.029 24.4672C153.35 24.2632 153.554 24.0591 153.758 23.8551C153.962 23.5345 154.078 23.243 154.078 22.9224C154.078 22.5143 153.962 22.1062 153.67 21.7856C153.35 21.465 153.058 21.2609 152.65 21.0569C152.242 20.8529 151.834 20.7363 151.426 20.6488L150.202 20.3282C149.59 20.1242 148.861 20.0076 148.336 19.8036C147.724 19.5995 147.2 19.2789 146.791 18.9874C146.383 18.6668 145.975 18.1713 145.655 17.6466C145.334 17.1219 145.247 16.4224 145.247 15.6937C145.247 14.8776 145.451 14.0323 145.771 13.4202C146.092 12.8081 146.587 12.2834 147.229 11.8753C147.841 11.4673 148.453 11.1466 149.182 10.9426C149.91 10.7386 150.726 10.622 151.455 10.622C152.592 10.622 153.612 10.826 154.661 11.2341C155.682 11.6421 156.527 12.3708 157.139 13.3036L154.574 15.0816ZM160.578 1.14892H163.668V17.8506L170.693 10.826H174.919L167.399 18.2587L175.648 27.1197H171.217L163.697 18.6668V27.1197H160.608V1.14892" fill="#535366"/>
</svg>
