<svg width="802" height="802" viewBox="0 0 802 802" fill="none" xmlns="http://www.w3.org/2000/svg">
<g clip-path="url(#clip0_121_2)">
<path d="M401 802C622.466 802 802 622.466 802 401C802 179.534 622.466 0 401 0C179.534 0 0 179.534 0 401C0 622.466 179.534 802 401 802Z" fill="#010314"/>
<path d="M317.848 107.89H325.732V79.5535H317.848V90.2048H308.235V79.5535H300.351V107.89H308.235V96.5151H317.848V107.89ZM353.331 85.3415H345.407V97.4397C345.407 100.052 343.959 101.58 341.666 101.58C339.414 101.58 337.926 100.052 337.926 97.4397V85.3415H330.082V98.4446C330.082 104.393 333.34 108.091 338.569 108.091C341.747 108.091 344.12 106.604 345.407 104.674V107.89H353.331V85.3415ZM388.547 107.89H396.431V94.7468C396.431 88.8382 393.012 85.1404 387.3 85.1404C383.962 85.1404 381.307 86.9895 379.779 89.2804C378.29 86.6679 375.636 85.1404 372.258 85.1404C369.2 85.1404 366.988 86.5069 365.701 88.3156V85.3415H357.817V107.89H365.701V95.7917C365.701 93.3399 367.149 91.9733 369.482 91.9733C371.735 91.9733 373.183 93.3399 373.183 95.7917V107.89H381.066V95.7917C381.066 93.3399 382.514 91.9733 384.807 91.9733C387.059 91.9733 388.547 93.3399 388.547 95.7917V107.89ZM399.463 96.5955C399.463 103.79 403.726 108.171 409.076 108.171C412.253 108.171 414.546 106.765 415.712 104.755V107.89H423.596V85.3415H415.712V88.4766C414.546 86.4669 412.294 85.0599 409.076 85.0599C403.726 85.0599 399.463 89.4009 399.463 96.5955ZM415.712 96.5955C415.712 99.6502 413.822 101.298 411.61 101.298C409.357 101.298 407.507 99.6101 407.507 96.5955C407.507 93.5409 409.357 91.9333 411.61 91.9333C413.822 91.9333 415.712 93.581 415.712 96.5955ZM426.801 96.5955C426.801 103.79 431.065 108.171 436.414 108.171C439.592 108.171 441.885 106.765 443.051 104.755V107.89H450.934V85.3415H443.051V88.4766C441.885 86.4669 439.632 85.0599 436.414 85.0599C431.065 85.0599 426.801 89.4009 426.801 96.5955ZM443.051 96.5955C443.051 99.6502 441.16 101.298 438.948 101.298C436.696 101.298 434.846 99.6101 434.846 96.5955C434.846 93.5409 436.696 91.9333 438.948 91.9333C441.16 91.9333 443.051 93.581 443.051 96.5955ZM470.792 107.89H478.675V94.7468C478.675 88.8382 475.417 85.1404 470.188 85.1404C467.011 85.1404 464.638 86.6275 463.31 88.557V85.3415H455.427V107.89H463.31V95.7917C463.31 93.1792 464.758 91.6517 467.091 91.6517C469.344 91.6517 470.792 93.1792 470.792 95.7917V107.89ZM501.986 101.258C501.946 92.6967 489.919 95.2691 489.919 92.0538C489.919 91.2096 490.603 90.6873 491.89 90.6873C493.58 90.6873 494.585 91.5312 494.826 92.9381H501.946C501.423 88.4766 498.205 85.0599 492.051 85.0599C485.937 85.0599 482.679 88.3156 482.679 92.2548C482.679 100.534 494.666 97.8415 494.666 101.138C494.666 101.941 493.901 102.584 492.574 102.584C490.925 102.584 489.678 101.78 489.477 100.293H481.835C482.156 104.795 486.34 108.171 492.614 108.171C498.446 108.171 501.986 105.197 501.986 101.258Z" fill="white"/>
</g>
<defs>
<clipPath id="clip0_121_2">
<rect width="802" height="802" fill="white"/>
</clipPath>
</defs>
</svg>
