<svg width="128" height="56" viewBox="0 0 128 56" fill="none" xmlns="http://www.w3.org/2000/svg">
<g clip-path="url(#clip0_4329_538)">
<path d="M37.2642 16.3771H50.0845C51.1258 16.3771 51.9699 17.2212 51.9699 18.2625V32.9095C51.9699 33.9508 51.1258 34.7949 50.0845 34.7949H37.2642C36.2229 34.7949 35.3788 33.9508 35.3788 32.9095V18.2625C35.3788 17.2212 36.2229 16.3771 37.2642 16.3771Z" stroke="white" stroke-width="0.754174"/>
<path d="M37.5218 17.375L46.5626 21.5818C47.0945 21.8293 47.4346 22.3628 47.4346 22.9494V38.1274C47.4346 39.2188 46.3113 39.9489 45.3138 39.5058L36.273 35.489C35.7282 35.2469 35.3771 34.7067 35.3771 34.1105V18.7426C35.3771 17.6398 36.5219 16.9098 37.5218 17.375Z" fill="white"/>
</g>
<path d="M57.9272 31.2998C57.7883 31.2998 57.6739 31.2557 57.584 31.1675C57.4942 31.0794 57.4492 30.9671 57.4492 30.8308V22.3767C57.4492 22.2404 57.4942 22.1281 57.584 22.0399C57.6739 21.9517 57.7883 21.9077 57.9272 21.9077H63.6746C63.8053 21.9077 63.9156 21.9517 64.0055 22.0399C64.1035 22.1201 64.1525 22.2283 64.1525 22.3646C64.1525 22.4849 64.1035 22.5891 64.0055 22.6773C63.9156 22.7655 63.8053 22.8096 63.6746 22.8096H58.4051V26.1287H62.2408C62.3797 26.1287 62.4941 26.1728 62.5839 26.261C62.6738 26.3492 62.7187 26.4574 62.7187 26.5857C62.7187 26.714 62.6738 26.8222 62.5839 26.9104C62.4941 26.9986 62.3797 27.0427 62.2408 27.0427H58.4051V30.3979H63.6746C63.8053 30.3979 63.9156 30.442 64.0055 30.5302C64.1035 30.6184 64.1525 30.7226 64.1525 30.8429C64.1525 30.9791 64.1035 31.0914 64.0055 31.1796C63.9156 31.2597 63.8053 31.2998 63.6746 31.2998H57.9272Z" fill="white"/>
<path d="M68.4341 31.2998C68.0011 31.2998 67.6131 31.1996 67.2699 30.9992C66.935 30.7988 66.6695 30.5262 66.4734 30.1814C66.2773 29.8287 66.1793 29.4278 66.1793 28.9788V23.0982C66.1793 22.9619 66.2201 22.8497 66.3018 22.7615C66.3917 22.6733 66.5061 22.6292 66.6449 22.6292C66.7838 22.6292 66.8982 22.6733 66.9881 22.7615C67.0779 22.8497 67.1229 22.9619 67.1229 23.0982V28.9788C67.1229 29.3877 67.2454 29.7244 67.4905 29.989C67.7356 30.2456 68.0502 30.3738 68.4341 30.3738H68.765C68.8957 30.3738 69.0019 30.4179 69.0836 30.5061C69.1653 30.5943 69.2062 30.7066 69.2062 30.8429C69.2062 30.9791 69.1572 31.0914 69.0591 31.1796C68.9611 31.2597 68.8385 31.2998 68.6915 31.2998H68.4341ZM65.3827 25.7679C65.2602 25.7679 65.158 25.7319 65.0763 25.6597C64.9946 25.5795 64.9538 25.4833 64.9538 25.3711C64.9538 25.2508 64.9946 25.1546 65.0763 25.0825C65.158 25.0023 65.2602 24.9622 65.3827 24.9622H68.5077C68.6302 24.9622 68.7323 25.0023 68.814 25.0825C68.8957 25.1546 68.9366 25.2508 68.9366 25.3711C68.9366 25.4833 68.8957 25.5795 68.814 25.6597C68.7323 25.7319 68.6302 25.7679 68.5077 25.7679H65.3827Z" fill="white"/>
<path d="M71.2202 28.6181C71.0731 28.6181 70.9547 28.574 70.8648 28.4858C70.7831 28.3976 70.7422 28.2854 70.7422 28.1491V22.3767C70.7422 22.2324 70.7831 22.1201 70.8648 22.0399C70.9547 21.9517 71.0731 21.9077 71.2202 21.9077C71.3591 21.9077 71.4694 21.9517 71.551 22.0399C71.6409 22.1201 71.6859 22.2324 71.6859 22.3767V28.1491C71.6859 28.2854 71.6409 28.3976 71.551 28.4858C71.4694 28.574 71.3591 28.6181 71.2202 28.6181ZM76.4897 31.2998C76.3508 31.2998 76.2364 31.2557 76.1466 31.1675C76.0567 31.0794 76.0118 30.9711 76.0118 30.8429V27.7161C76.0118 27.2191 75.9137 26.8102 75.7177 26.4895C75.5297 26.1688 75.2683 25.9283 74.9334 25.7679C74.6066 25.6076 74.2348 25.5274 73.8182 25.5274C73.4179 25.5274 73.0543 25.6036 72.7275 25.7559C72.4089 25.9082 72.1556 26.1167 71.9677 26.3813C71.7798 26.6458 71.6859 26.9465 71.6859 27.2832H71.0118C71.0282 26.7781 71.1671 26.3292 71.4285 25.9363C71.6899 25.5354 72.0372 25.2228 72.4702 24.9983C72.9032 24.7658 73.3852 24.6495 73.9162 24.6495C74.4963 24.6495 75.0151 24.7698 75.4726 25.0103C75.9301 25.2428 76.2895 25.5876 76.551 26.0445C76.8206 26.5015 76.9554 27.0587 76.9554 27.7161V30.8429C76.9554 30.9711 76.9104 31.0794 76.8206 31.1675C76.7307 31.2557 76.6204 31.2998 76.4897 31.2998ZM71.2202 31.2998C71.0731 31.2998 70.9547 31.2597 70.8648 31.1796C70.7831 31.0914 70.7422 30.9791 70.7422 30.8429V25.1907C70.7422 25.0464 70.7831 24.9342 70.8648 24.854C70.9547 24.7658 71.0731 24.7217 71.2202 24.7217C71.3591 24.7217 71.4694 24.7658 71.551 24.854C71.6409 24.9342 71.6859 25.0464 71.6859 25.1907V30.8429C71.6859 30.9791 71.6409 31.0914 71.551 31.1796C71.4694 31.2597 71.3591 31.2998 71.2202 31.2998Z" fill="white"/>
<path d="M82.0871 31.36C81.4336 31.36 80.8494 31.2157 80.3347 30.927C79.82 30.6384 79.4156 30.2416 79.1215 29.7365C78.8274 29.2314 78.6803 28.6582 78.6803 28.0168C78.6803 27.3674 78.8274 26.7901 79.1215 26.2851C79.4156 25.78 79.82 25.3831 80.3347 25.0945C80.8494 24.8059 81.4336 24.6616 82.0871 24.6616C82.7407 24.6616 83.3208 24.8059 83.8273 25.0945C84.342 25.3831 84.7464 25.78 85.0405 26.2851C85.3346 26.7901 85.4858 27.3674 85.494 28.0168C85.494 28.6582 85.3428 29.2314 85.0405 29.7365C84.7464 30.2416 84.342 30.6384 83.8273 30.927C83.3208 31.2157 82.7407 31.36 82.0871 31.36ZM82.0871 30.5182C82.561 30.5182 82.9858 30.4099 83.3616 30.1935C83.7374 29.977 84.0316 29.6804 84.244 29.3035C84.4564 28.9267 84.5626 28.4978 84.5626 28.0168C84.5626 27.5357 84.4564 27.1068 84.244 26.73C84.0316 26.3452 83.7374 26.0445 83.3616 25.8281C82.9858 25.6116 82.561 25.5034 82.0871 25.5034C81.6133 25.5034 81.1885 25.6116 80.8126 25.8281C80.4368 26.0445 80.1386 26.3452 79.9181 26.73C79.7056 27.1068 79.5994 27.5357 79.5994 28.0168C79.5994 28.4978 79.7056 28.9267 79.9181 29.3035C80.1386 29.6804 80.4368 29.977 80.8126 30.1935C81.1885 30.4099 81.6133 30.5182 82.0871 30.5182Z" fill="white"/>
<path d="M89.6698 31.36C89.1878 31.36 88.7099 31.2798 88.236 31.1194C87.7622 30.9591 87.3782 30.7186 87.0841 30.3979C86.9942 30.3017 86.9575 30.1935 86.9738 30.0732C86.9901 29.9529 87.0514 29.8487 87.1576 29.7605C87.272 29.6804 87.3905 29.6483 87.513 29.6643C87.6356 29.6804 87.7377 29.7325 87.8194 29.8207C88.0155 30.0451 88.2728 30.2175 88.5914 30.3378C88.9182 30.458 89.2777 30.5182 89.6698 30.5182C90.2744 30.5182 90.7115 30.4179 90.9811 30.2175C91.2507 30.0091 91.3896 29.7605 91.3978 29.4719C91.3978 29.1833 91.2589 28.9468 90.9811 28.7624C90.7033 28.57 90.2458 28.4216 89.6086 28.3174C88.7834 28.1891 88.1789 27.9647 87.7949 27.644C87.4109 27.3233 87.2189 26.9425 87.2189 26.5015C87.2189 26.0926 87.3292 25.7519 87.5498 25.4793C87.7704 25.2067 88.0645 25.0023 88.4321 24.866C88.7998 24.7297 89.2042 24.6616 89.6453 24.6616C90.1927 24.6616 90.6625 24.7538 91.0546 24.9382C91.4549 25.1226 91.7777 25.3711 92.0227 25.6838C92.1044 25.788 92.1371 25.8962 92.1208 26.0085C92.1044 26.1207 92.0391 26.2129 91.9247 26.2851C91.8267 26.3412 91.7123 26.3612 91.5816 26.3452C91.459 26.3211 91.3528 26.261 91.263 26.1648C91.0587 25.9323 90.8218 25.7639 90.5522 25.6597C90.2826 25.5475 89.9721 25.4914 89.6208 25.4914C89.1715 25.4914 88.812 25.5836 88.5424 25.7679C88.2728 25.9443 88.138 26.1688 88.138 26.4414C88.138 26.6258 88.187 26.7861 88.2851 26.9224C88.3913 27.0587 88.5669 27.179 88.812 27.2832C89.0653 27.3874 89.4166 27.4756 89.8659 27.5478C90.4787 27.644 90.9607 27.7883 91.312 27.9807C91.6714 28.1651 91.9247 28.3856 92.0718 28.6421C92.227 28.8907 92.3046 29.1632 92.3046 29.4599C92.3046 29.8367 92.1902 30.1694 91.9615 30.458C91.7409 30.7386 91.4304 30.9591 91.0301 31.1194C90.638 31.2798 90.1845 31.36 89.6698 31.36Z" fill="white"/>
<defs>
<clipPath id="clip0_4329_538">
<rect width="17.7231" height="24.5106" fill="white" transform="translate(35 16)"/>
</clipPath>
</defs>
</svg>
