<svg width="128" height="56" viewBox="0 0 128 56" fill="none" xmlns="http://www.w3.org/2000/svg">
<g clip-path="url(#clip0_4329_480)">
<path d="M39.5187 20C39.7447 20 39.9705 20 40.1961 20C41.6092 20.0725 42.887 20.4677 44.0297 21.1854C45.1786 21.9074 46.0783 22.8429 46.7286 23.9918C47.4225 25.2179 47.7617 26.5434 47.7462 27.9682C47.7434 28.2543 47.7236 28.5401 47.6869 28.8254C47.4827 30.4151 46.8585 31.8109 45.8142 33.0129C45.6258 33.23 45.4264 33.4357 45.2159 33.6301C44.4231 34.363 43.5339 34.9057 42.5484 35.2581C41.0344 35.7997 39.4916 35.8737 37.92 35.48C37.6381 35.4095 37.3644 35.324 37.0989 35.2237C36.1341 34.8592 35.283 34.3339 34.5458 33.6477C32.9759 32.1871 32.1273 30.3646 32 28.1802C32 27.9652 32 27.7501 32 27.5351C32.0516 26.4509 32.307 25.4311 32.766 24.4757C33.283 23.4001 34.0133 22.4817 34.957 21.7204C36.2605 20.6687 37.7811 20.0952 39.5187 20ZM47.1708 27.8611C47.1708 26.9026 46.982 25.9536 46.6152 25.0681C46.2484 24.1826 45.7108 23.378 45.0331 22.7003C44.3553 22.0225 43.5508 21.4849 42.6653 21.1181C41.7798 20.7514 40.8307 20.5626 39.8723 20.5626C37.9366 20.5626 36.0802 21.3315 34.7114 22.7003C33.3427 24.069 32.5738 25.9254 32.5738 27.8611C32.5738 29.7968 33.3427 31.6532 34.7114 33.0219C36.0802 34.3906 37.9366 35.1596 39.8723 35.1596C40.8307 35.1596 41.7798 34.9708 42.6653 34.604C43.5508 34.2372 44.3553 33.6996 45.0331 33.0219C45.7108 32.3442 46.2484 31.5396 46.6152 30.6541C46.982 29.7686 47.1708 28.8195 47.1708 27.8611Z" fill="white"/>
<path d="M35.7166 24.0714C36.2164 23.5232 36.8033 23.0929 37.4774 22.7806C38.3508 22.3763 39.2419 22.1986 40.1505 22.2473C40.5924 22.2711 41.0794 22.3656 41.6116 22.5307C42.276 22.7366 42.8758 23.0609 43.4112 23.5037C44.0612 24.041 44.5685 24.6768 44.9329 25.4112C44.9854 25.5173 44.987 25.6132 44.9376 25.6989C44.8929 25.7766 44.8231 25.8245 44.7282 25.8426C44.6009 25.8667 44.5024 25.8107 44.4327 25.6748C44.1497 25.1206 43.8042 24.6452 43.3961 24.2486C42.6824 23.5544 41.846 23.1107 40.8869 22.9174C40.6119 22.8621 40.3273 22.83 40.0331 22.8211C38.7563 22.7821 37.6297 23.1634 36.6533 23.9652C35.7708 24.6895 35.2001 25.614 34.9415 26.7389C34.8773 27.0173 34.8387 27.3011 34.8258 27.5901C34.7693 28.846 35.12 29.9647 35.8779 30.9462C36.0576 31.1791 36.251 31.3905 36.4581 31.5806C36.9427 32.0262 37.4952 32.364 38.1157 32.594C38.2186 32.6321 38.2999 32.6698 38.3596 32.7071C38.4499 32.7636 38.4945 32.8367 38.4933 32.9264C38.4922 33.0039 38.4602 33.0723 38.3974 33.1316C38.3212 33.2036 38.2293 33.2267 38.1217 33.2009C38.1105 33.1983 38.0274 33.1664 37.8723 33.1054C37.1491 32.8204 36.5062 32.4169 35.9437 31.895C35.5027 31.4862 35.1464 31.0049 34.8748 30.4512C34.4037 29.4906 34.2022 28.4827 34.2701 27.4275C34.2888 27.1365 34.33 26.8532 34.394 26.5776C34.6133 25.6337 35.0542 24.7983 35.7166 24.0714Z" fill="white"/>
<path d="M44.4262 32.0335C45.2758 31.1045 45.7944 30.008 45.9819 28.7441C45.9983 28.6343 46.0118 28.489 46.0224 28.3084C46.031 28.1624 46.0411 28.0166 46.0529 27.871C46.0615 27.7672 46.1006 27.6887 46.1703 27.6357C46.2368 27.5849 46.3141 27.5685 46.4022 27.5862C46.4945 27.6049 46.5568 27.6586 46.5892 27.7475C46.6065 27.7951 46.6133 27.871 46.6099 27.975C46.593 28.4797 46.5223 29.0006 46.3979 29.5376C46.1131 30.7677 45.5217 31.8107 44.6237 32.6667C44.1577 33.1108 43.6242 33.4926 43.0232 33.812C42.167 34.2671 41.2596 34.5283 40.3011 34.5957C40.0201 34.6155 39.7335 34.615 39.4413 34.5944C37.933 34.4886 36.6093 33.9494 35.4701 32.9768C35.2479 32.7872 35.0422 32.5875 34.8529 32.3776C34.0225 31.4566 33.4908 30.3738 33.2576 29.129C33.1601 28.6086 33.1173 28.085 33.129 27.5583C33.1356 27.2626 33.1613 26.9773 33.206 26.7024C33.3769 25.6523 33.793 24.7022 34.4542 23.852C34.8261 23.3738 35.2462 22.9432 35.7144 22.5604C35.8116 22.481 35.888 22.4347 35.9437 22.4215C36.0489 22.3963 36.1421 22.4322 36.2232 22.5295C36.2579 22.571 36.2771 22.6195 36.2809 22.6748C36.284 22.723 36.2701 22.7697 36.2391 22.815C36.1961 22.8778 36.1335 22.9422 36.0512 23.0082C35.564 23.3978 35.1201 23.8816 34.7196 24.4593C34.1189 25.3259 33.7845 26.2876 33.7166 27.3445C33.6698 28.072 33.7358 28.7887 33.9144 29.4946C34.0523 30.0403 34.2627 30.553 34.5454 31.0327C34.6896 31.2776 34.8546 31.5117 35.0404 31.735C35.5422 32.3383 36.1533 32.8416 36.8735 33.2447C37.5267 33.6103 38.2044 33.8484 38.9067 33.9591C39.1756 34.0016 39.4611 34.0242 39.763 34.0271C41.2873 34.0414 42.6334 33.5733 43.8013 32.6228C44.0264 32.4396 44.2347 32.2431 44.4262 32.0335Z" fill="white"/>
<path d="M63.5836 24.8391C64.1932 24.8391 64.6873 24.345 64.6873 23.7355C64.6873 23.126 64.1932 22.6318 63.5836 22.6318C62.9741 22.6318 62.48 23.126 62.48 23.7355C62.48 24.345 62.9741 24.8391 63.5836 24.8391Z" fill="white"/>
<path d="M54.6903 27.4168L58.48 27.4194C58.4847 27.4194 58.4894 27.4184 58.4938 27.4166C58.4982 27.4148 58.5022 27.4121 58.5055 27.4088C58.5089 27.4054 58.5115 27.4014 58.5133 27.3971C58.5152 27.3927 58.5161 27.388 58.5161 27.3832V23.7178C58.5161 23.71 58.5192 23.7024 58.5248 23.6969C58.5304 23.6913 58.5379 23.6882 58.5458 23.6882H60.28C60.2856 23.6882 60.2911 23.6893 60.2963 23.6914C60.3014 23.6936 60.3061 23.6967 60.3101 23.7006C60.314 23.7046 60.3172 23.7093 60.3193 23.7145C60.3214 23.7196 60.3225 23.7252 60.3225 23.7308V32.6077C60.3225 32.6177 60.3186 32.6272 60.3116 32.6342C60.3046 32.6412 60.295 32.6452 60.2851 32.6452H58.5539C58.5439 32.6452 58.5343 32.6412 58.5272 32.6341C58.5201 32.627 58.5161 32.6173 58.5161 32.6073V28.849C58.5161 28.8377 58.5116 28.8269 58.5036 28.8189C58.4956 28.8109 58.4848 28.8065 58.4735 28.8065L54.6946 28.809C54.6872 28.809 54.6801 28.812 54.6748 28.8172C54.6696 28.8225 54.6666 28.8296 54.6666 28.837V32.6047C54.6666 32.61 54.6656 32.6153 54.6636 32.6202C54.6615 32.6251 54.6585 32.6296 54.6548 32.6333C54.651 32.6371 54.6466 32.6401 54.6417 32.6421C54.6368 32.6441 54.6315 32.6452 54.6262 32.6452H52.8886C52.8782 32.6452 52.8682 32.641 52.8609 32.6337C52.8536 32.6264 52.8494 32.6164 52.8494 32.606V23.7308C52.8494 23.7195 52.8539 23.7086 52.8619 23.7006C52.8699 23.6927 52.8807 23.6882 52.892 23.6882H54.6425C54.6489 23.6882 54.6551 23.6907 54.6596 23.6952C54.6641 23.6997 54.6666 23.7059 54.6666 23.7123L54.6692 27.3948C54.6692 27.4007 54.6714 27.4062 54.6754 27.4103C54.6793 27.4145 54.6847 27.4168 54.6903 27.4168Z" fill="white"/>
<path d="M72.363 23.7114C72.363 23.7083 72.3636 23.7053 72.3648 23.7025C72.366 23.6997 72.3677 23.6971 72.3698 23.695C72.372 23.6928 72.3746 23.6911 72.3774 23.6899C72.3802 23.6888 72.3832 23.6882 72.3863 23.6882C73.4621 23.6882 74.5305 23.6882 75.5914 23.6882C76.1182 23.6882 76.6164 23.7599 77.086 23.9032C77.5557 24.0466 77.9676 24.3299 78.3217 24.7531C78.7648 25.2819 78.9508 25.8946 78.88 26.5914C78.8146 27.2366 78.5635 27.7913 78.1265 28.2555C78.0058 28.3837 77.8611 28.4961 77.6925 28.5927C77.2297 28.8576 76.7408 29.0113 76.2258 29.0538C76.0784 29.0658 75.9018 29.0747 75.6959 29.0804C75.5824 29.0836 75.4055 29.0826 75.1652 29.0774C74.8437 29.0705 74.5225 29.0757 74.2013 29.0929C74.1956 29.0932 74.1902 29.0958 74.1863 29.1C74.1824 29.1043 74.1802 29.1099 74.1802 29.1157L74.1695 32.6206C74.1695 32.6235 74.1689 32.6264 74.1678 32.629C74.1667 32.6317 74.1651 32.6341 74.1631 32.6362C74.161 32.6382 74.1586 32.6398 74.1559 32.6409C74.1533 32.642 74.1504 32.6426 74.1475 32.6426L72.3936 32.6452C72.3833 32.6452 72.3735 32.641 72.3662 32.6337C72.3589 32.6264 72.3549 32.6164 72.3549 32.606L72.363 23.7114ZM74.1729 27.5484C74.1706 27.5839 74.1713 27.6242 74.1751 27.6692C74.1755 27.6752 74.1782 27.6808 74.1826 27.6849C74.187 27.6889 74.1927 27.6912 74.1987 27.6912C74.716 27.6877 75.2268 27.6867 75.7312 27.6882C75.9967 27.6887 76.2324 27.6341 76.4383 27.5243C76.7597 27.3525 76.9563 27.0786 77.028 26.7024C77.0977 26.3371 77.0552 26.007 76.9007 25.7123C76.7395 25.4052 76.475 25.2118 76.1071 25.132C75.9658 25.1014 75.7867 25.086 75.5699 25.086C75.1292 25.086 74.6779 25.086 74.2159 25.086C74.2072 25.086 74.1987 25.0895 74.1925 25.0957C74.1863 25.1019 74.1828 25.1104 74.1828 25.1191C74.184 25.908 74.1831 26.68 74.1802 27.4353C74.1802 27.4367 74.1778 27.4744 74.1729 27.5484Z" fill="white"/>
<path d="M67.5996 32.1639C67.3343 31.9405 67.1599 31.6594 67.0761 31.3205C67.0064 31.0389 66.9725 30.7529 66.9742 30.4624C66.9811 29.3255 66.9799 28.1886 66.9707 27.0516C66.9706 27.0456 66.9683 27.0399 66.9642 27.0356C66.9601 27.0314 66.9546 27.029 66.9488 27.0288L66.2495 27.019C66.2437 27.0188 66.2383 27.0166 66.2342 27.0126C66.2301 27.0086 66.2277 27.0032 66.2275 26.9974C66.2086 26.5174 66.207 26.0412 66.2228 25.5686C66.223 25.5603 66.2265 25.5525 66.2324 25.5467C66.2384 25.5409 66.2463 25.5377 66.2546 25.5377H66.9406C66.9507 25.5377 66.9603 25.5337 66.9674 25.5266C66.9745 25.5195 66.9785 25.5099 66.9785 25.4998V23.8258C66.9785 23.8205 66.9795 23.8152 66.9816 23.8102C66.9837 23.8052 66.9867 23.8007 66.9905 23.7969C66.9943 23.7931 66.9988 23.7901 67.0037 23.7881C67.0087 23.786 67.014 23.785 67.0193 23.785H68.7591C68.7688 23.785 68.7781 23.7888 68.785 23.7957C68.7918 23.8025 68.7957 23.8118 68.7957 23.8215V25.4934C68.7957 25.5044 68.8 25.515 68.8078 25.5229C68.8155 25.5307 68.826 25.5351 68.837 25.5351L70.3441 25.5377C70.3555 25.5377 70.3664 25.5422 70.3745 25.5503C70.3826 25.5583 70.3871 25.5693 70.3871 25.5807V26.9777C70.3871 26.9834 70.386 26.9891 70.3838 26.9944C70.3815 26.9998 70.3783 27.0046 70.3742 27.0087C70.3702 27.0128 70.3653 27.016 70.36 27.0182C70.3547 27.0204 70.349 27.0215 70.3432 27.0215H68.8245C68.8169 27.0215 68.8095 27.0246 68.8041 27.03C68.7987 27.0354 68.7957 27.0427 68.7957 27.0503C68.7957 28.082 68.7957 29.1127 68.7957 30.1424C68.7957 30.4833 68.8064 30.6883 68.828 30.7574C68.9031 30.9995 69.1038 31.1232 69.4301 31.1286C69.724 31.1338 70.035 31.1336 70.363 31.1282C70.3676 31.1281 70.3721 31.129 70.3763 31.1307C70.3805 31.1323 70.3844 31.1348 70.3876 31.138C70.3909 31.1412 70.3934 31.1449 70.3952 31.1491C70.3969 31.1532 70.3978 31.1577 70.3978 31.1622V32.5919C70.3978 32.606 70.3922 32.6196 70.3822 32.6296C70.3722 32.6396 70.3587 32.6452 70.3445 32.6452C69.9786 32.6452 69.6236 32.6449 69.2796 32.6443C69.0376 32.6438 68.7971 32.624 68.5583 32.585C68.1783 32.5228 67.8588 32.3824 67.5996 32.1639Z" fill="white"/>
<path d="M85.6107 31.5428C85.6104 31.4826 85.5942 31.478 85.5621 31.529C85.1799 32.1352 84.6573 32.5169 83.9944 32.674C83.7297 32.7365 83.4449 32.7584 83.1398 32.7398C82.4031 32.6951 81.762 32.432 81.2163 31.9505C81.0016 31.7613 80.8129 31.5467 80.6503 31.3067C80.3613 30.8797 80.1732 30.4083 80.086 29.8925C79.9885 29.3161 79.9983 28.7332 80.1153 28.1437C80.2302 27.5639 80.4697 27.0535 80.8335 26.6125C81.019 26.388 81.2281 26.1931 81.4606 26.028C82.0791 25.589 82.8001 25.3968 83.6236 25.4516C84.4681 25.5078 85.1177 25.8869 85.5725 26.5888C85.5994 26.6301 85.6129 26.6238 85.6129 26.5699V25.5725C85.6129 25.5679 85.6138 25.5634 85.6155 25.5591C85.6173 25.5549 85.6198 25.5511 85.6231 25.5478C85.6263 25.5446 85.6302 25.542 85.6344 25.5403C85.6386 25.5385 85.6431 25.5376 85.6477 25.5376H87.3647C87.3792 25.5376 87.3931 25.5434 87.4033 25.5536C87.4136 25.5639 87.4193 25.5778 87.4193 25.5923V32.5983C87.4193 32.6044 87.4181 32.6105 87.4158 32.6162C87.4134 32.6219 87.41 32.6271 87.4056 32.6314C87.4013 32.6358 87.3961 32.6392 87.3904 32.6416C87.3847 32.644 87.3786 32.6452 87.3725 32.6452H85.6417C85.6379 32.6452 85.6342 32.6444 85.6307 32.643C85.6272 32.6415 85.624 32.6394 85.6213 32.6367C85.6159 32.6313 85.6129 32.624 85.6129 32.6163L85.6107 31.5428ZM83.4069 31.1419C83.7297 31.2067 84.0444 31.1817 84.3509 31.0667C84.6205 30.9657 84.8579 30.8098 85.0632 30.5987C85.3666 30.287 85.5436 29.8976 85.5944 29.4305C85.6199 29.1946 85.6185 28.9587 85.5901 28.723C85.5184 28.1283 85.2393 27.6615 84.7527 27.3226C84.3702 27.0562 83.9511 26.9551 83.4955 27.0194C83.2271 27.0572 82.9803 27.1462 82.7553 27.2865C82.521 27.4324 82.3297 27.6211 82.1815 27.8525C82.037 28.0779 81.9402 28.3454 81.8912 28.6551C81.8413 28.971 81.8461 29.2859 81.9058 29.5996C82.0024 30.1065 82.2436 30.5041 82.6292 30.7923C82.8655 30.9686 83.1247 31.0852 83.4069 31.1419Z" fill="white"/>
<path d="M64.4701 25.5377H62.7024C62.6888 25.5377 62.6779 25.5486 62.6779 25.5622V32.6202C62.6779 32.6338 62.6888 32.6448 62.7024 32.6448H64.4701C64.4837 32.6448 64.4946 32.6338 64.4946 32.6202V25.5622C64.4946 25.5486 64.4837 25.5377 64.4701 25.5377Z" fill="white"/>
<path d="M92.0512 36C91.4275 36 90.8038 36 90.1802 36C90.1733 35.9802 90.1753 35.9629 90.1862 35.948C90.2003 35.9288 90.2082 35.917 90.2099 35.9127L91.6331 32.5497C91.6422 32.5282 91.6425 32.5042 91.634 32.483L88.874 25.557C88.8731 25.5549 88.8728 25.5525 88.8731 25.5502C88.8733 25.5479 88.8742 25.5457 88.8755 25.5438C88.8768 25.5419 88.8786 25.5403 88.8806 25.5393C88.8827 25.5382 88.885 25.5376 88.8873 25.5377H90.8744C90.8807 25.5376 90.8868 25.5395 90.8919 25.5431C90.897 25.5466 90.9008 25.5517 90.9028 25.5574L92.6821 30.5183C92.691 30.5433 92.7026 30.5445 92.717 30.5222C92.7494 30.472 92.777 30.4162 92.8 30.3549C93.3927 28.7718 93.9944 27.1758 94.6051 25.5669C94.6084 25.5583 94.6142 25.5509 94.6218 25.5457C94.6293 25.5405 94.6382 25.5377 94.6473 25.5377L96.4847 25.5402C96.4873 25.5403 96.4898 25.5409 96.492 25.5421C96.4943 25.5433 96.4962 25.5451 96.4976 25.5472C96.499 25.5493 96.4998 25.5518 96.5001 25.5543C96.5003 25.5568 96.4999 25.5594 96.4989 25.5617C95.0638 28.9473 93.6287 32.3263 92.1935 35.6989C92.125 35.8598 92.0775 35.9602 92.0512 36Z" fill="white"/>
<path d="M38.8628 28.4008L38.8525 30.6481C38.8524 30.654 38.85 30.6597 38.8459 30.6638C38.8419 30.668 38.8363 30.6704 38.8306 30.6705L38.2086 30.6761C38.2038 30.6762 38.1991 30.6752 38.1947 30.6734C38.1902 30.6716 38.1862 30.6689 38.1828 30.6654C38.1794 30.662 38.1767 30.6579 38.1749 30.6534C38.173 30.6489 38.1721 30.644 38.1721 30.6391L38.1828 25.6241C38.1828 25.618 38.185 25.6121 38.1889 25.6078C38.1929 25.6034 38.1983 25.6009 38.2039 25.6008L38.8215 25.5922C38.8289 25.5921 38.8359 25.595 38.8413 25.6004C38.8466 25.6057 38.8497 25.6129 38.8499 25.6206C38.866 26.3529 38.8668 27.0876 38.8525 27.8245C38.8524 27.8281 38.8531 27.8318 38.8544 27.8352C38.8558 27.8385 38.8577 27.8416 38.8603 27.8442C38.8628 27.8468 38.8658 27.8489 38.8691 27.8503C38.8724 27.8517 38.876 27.8524 38.8796 27.8524L41.3794 27.8572C41.3832 27.8572 41.387 27.8565 41.3905 27.8551C41.3941 27.8537 41.3973 27.8516 41.4 27.8489C41.4027 27.8462 41.4049 27.843 41.4064 27.8395C41.4079 27.836 41.4086 27.8322 41.4086 27.8284V25.6288C41.4086 25.6189 41.4126 25.6093 41.4196 25.6023C41.4266 25.5953 41.4361 25.5914 41.446 25.5914H42.0576C42.0614 25.5914 42.0651 25.5921 42.0685 25.5935C42.072 25.595 42.0751 25.597 42.0777 25.5997C42.0804 25.6023 42.0824 25.6054 42.0839 25.6089C42.0853 25.6123 42.086 25.616 42.086 25.6198V30.64C42.086 30.6492 42.0824 30.6581 42.076 30.6646C42.0695 30.6711 42.0608 30.6748 42.0516 30.6748L41.449 30.6774C41.4383 30.6774 41.428 30.6731 41.4205 30.6654C41.4129 30.6578 41.4086 30.6474 41.4086 30.6365L41.406 28.4219C41.406 28.4126 41.4023 28.4036 41.3956 28.397C41.3889 28.3904 41.3798 28.3866 41.3703 28.3866L38.8843 28.3793C38.8786 28.3793 38.8731 28.3816 38.8691 28.3856C38.8651 28.3897 38.8628 28.3951 38.8628 28.4008Z" fill="white"/>
</g>
<defs>
<clipPath id="clip0_4329_480">
<rect width="64.5161" height="16" fill="white" transform="translate(32 20)"/>
</clipPath>
</defs>
</svg>
