<svg width="128" height="56" viewBox="0 0 128 56" fill="none" xmlns="http://www.w3.org/2000/svg">
<g clip-path="url(#clip0_4329_999)">
<path d="M40.0224 23.6562C40.6439 23.4323 41.2792 23.2598 41.9286 23.1388C42.2932 23.0709 42.6562 23.055 43.0176 23.0912C43.4528 23.1344 43.7928 23.2423 44.0376 23.4148C44.3863 23.6606 44.5662 24.028 44.5771 24.5169C44.5831 24.7879 44.5166 25.1008 44.3776 25.4556C44.1394 26.0622 43.8221 26.6245 43.4257 27.1424C43.0764 27.5974 42.6923 28.0343 42.2735 28.4532C42.2686 28.458 42.2647 28.4637 42.262 28.4701C42.2593 28.4764 42.258 28.4832 42.258 28.4901C42.258 28.497 42.2593 28.5038 42.262 28.5102C42.2647 28.5165 42.2686 28.5223 42.2735 28.5271C42.9053 29.1479 43.449 29.8216 43.9045 30.5482C44.1618 30.9577 44.3499 31.3738 44.4687 31.7965C44.576 32.1781 44.5941 32.5156 44.5229 32.8091C44.4287 33.1995 44.2106 33.4861 43.8684 33.669C43.5897 33.8184 43.2029 33.8956 42.7079 33.9005C42.3077 33.9049 41.9102 33.8609 41.5155 33.7683C41.0058 33.6484 40.5185 33.4981 40.0536 33.3175C40.046 33.3144 40.0378 33.3131 40.0295 33.3135C40.0213 33.3139 40.0132 33.3161 40.0058 33.3199C39.9985 33.3237 39.992 33.3291 39.9868 33.3356C39.9815 33.3421 39.9778 33.3496 39.9756 33.3577C39.8705 33.7508 39.7599 34.1111 39.6438 34.4385C39.4172 35.0796 39.1059 35.6408 38.7101 36.122C38.5803 36.2797 38.4221 36.418 38.2354 36.5368C38.0454 36.6572 37.8532 36.7339 37.6589 36.7667C37.367 36.816 37.1015 36.7758 36.8622 36.646C36.4867 36.4418 36.1727 36.1511 35.9203 35.7738C35.7544 35.5253 35.5679 35.1486 35.361 34.6438C35.1918 34.2315 35.0522 33.8042 34.9421 33.3618C34.94 33.3532 34.936 33.3452 34.9305 33.3383C34.925 33.3314 34.9181 33.3257 34.9102 33.3216C34.9023 33.3175 34.8936 33.3151 34.8847 33.3145C34.8757 33.3139 34.8668 33.3152 34.8584 33.3183C34.358 33.5044 33.8688 33.6544 33.3908 33.7683C32.9791 33.8663 32.5643 33.9107 32.1466 33.9014C31.7097 33.8915 31.3554 33.8179 31.0839 33.6805C30.6957 33.4844 30.46 33.1787 30.3768 32.7631C30.2968 32.3656 30.3746 31.8907 30.61 31.3382C30.8049 30.8816 31.0721 30.4198 31.4116 29.9528C31.7751 29.4524 32.1824 28.9766 32.6336 28.5254C32.6429 28.516 32.6482 28.5033 32.6482 28.4901C32.6482 28.4769 32.6429 28.4642 32.6336 28.4548C32.0423 27.8619 31.5181 27.2213 31.0609 26.5331C30.8391 26.1985 30.6626 25.8449 30.5312 25.472C30.374 25.0274 30.3166 24.6434 30.3587 24.3198C30.4365 23.7214 30.8164 23.3285 31.4986 23.1413C31.7976 23.0592 32.2013 23.0455 32.71 23.1002C33.3538 23.1692 34.0719 23.3543 34.8641 23.6554C34.8689 23.6573 34.874 23.6582 34.8792 23.658C34.8843 23.6579 34.8894 23.6566 34.894 23.6544C34.8987 23.6521 34.9028 23.649 34.9061 23.645C34.9095 23.6411 34.9119 23.6365 34.9134 23.6316C35.1094 22.9882 35.3142 22.4227 35.5277 21.9349C35.6531 21.6485 35.8151 21.3715 36.0139 21.1037C36.2285 20.8158 36.4576 20.5965 36.7013 20.4459C37.4344 19.9937 38.119 20.1503 38.7552 20.9157C38.9627 21.1648 39.1382 21.435 39.2817 21.7263C39.5822 22.3356 39.813 22.9705 39.974 23.6307C39.9751 23.6357 39.9774 23.6404 39.9805 23.6444C39.9837 23.6485 39.9877 23.6518 39.9922 23.6542C39.9968 23.6567 40.0019 23.6581 40.0071 23.6584C40.0123 23.6587 40.0175 23.658 40.0224 23.6562ZM35.4201 23.8697C36.1111 24.172 36.7766 24.4974 37.4166 24.8462C37.4273 24.852 37.4393 24.8552 37.4518 24.8553C37.4642 24.8554 37.4766 24.8526 37.488 24.847L39.4837 23.8714C39.4944 23.8663 39.5031 23.8579 39.5083 23.8476C39.5135 23.8373 39.515 23.8257 39.5124 23.8147C39.4188 23.3866 39.2877 22.9718 39.1191 22.5705C38.9767 22.2321 38.851 21.9677 38.7421 21.7772C38.5932 21.5149 38.415 21.28 38.2075 21.0725C37.7273 20.5924 37.2392 20.5869 36.7432 21.0561C36.4716 21.3129 36.2633 21.5836 36.1182 21.8683C35.816 22.4607 35.5715 23.1032 35.3848 23.7958C35.3807 23.8104 35.3821 23.826 35.3886 23.8396C35.3951 23.8532 35.4063 23.8639 35.4201 23.8697ZM32.6393 27.7173C32.7428 27.8372 32.8586 27.961 32.9867 28.0885C32.9962 28.0981 33.0091 28.1037 33.0227 28.104C33.0363 28.1043 33.0496 28.0993 33.0598 28.0902L34.3779 26.9412C34.398 26.9233 34.4103 26.8986 34.4124 26.8722C34.488 26.0072 34.6115 25.123 34.7828 24.2196C34.7853 24.2061 34.783 24.1923 34.7764 24.1804C34.7698 24.1686 34.7593 24.1595 34.7467 24.1547C34.0776 23.8886 33.3782 23.7082 32.6484 23.6135C32.2284 23.5593 31.8452 23.5798 31.4986 23.6751C31.1679 23.766 30.9582 23.9532 30.8695 24.2368C30.8071 24.4361 30.8156 24.6904 30.895 24.9998C30.9607 25.2544 31.0568 25.4991 31.1833 25.734C31.4953 26.3121 31.8698 26.8451 32.3067 27.333C32.3604 27.3926 32.4713 27.5208 32.6393 27.7173ZM43.5021 23.7112C43.3192 23.6318 43.1232 23.5905 42.9141 23.5872C42.5845 23.5817 42.3449 23.5905 42.1955 23.6135C41.5056 23.7192 40.824 23.9012 40.1505 24.1596C40.1389 24.1642 40.1292 24.1728 40.1232 24.1839C40.1172 24.195 40.1152 24.2079 40.1177 24.2204C40.3022 25.0997 40.4281 25.9886 40.4955 26.887C40.4962 26.9008 40.5001 26.9146 40.5069 26.9276C40.5137 26.9405 40.5232 26.9525 40.5349 26.9626L41.8284 28.077C41.8433 28.09 41.8624 28.097 41.8817 28.0967C41.9011 28.0964 41.9193 28.0888 41.9327 28.0754C42.6236 27.3822 43.2037 26.6346 43.6729 25.8325C43.8229 25.5758 43.948 25.2483 44.0482 24.8503C44.1243 24.5475 44.0939 24.2891 43.9571 24.075C43.8591 23.9217 43.7074 23.8005 43.5021 23.7112ZM36.8984 25.1476C36.3667 24.8558 35.8329 24.5952 35.2969 24.3658C35.2924 24.3638 35.2875 24.3629 35.2825 24.3631C35.2776 24.3633 35.2727 24.3646 35.2683 24.3669C35.264 24.3692 35.2601 24.3724 35.2571 24.3763C35.2541 24.3802 35.252 24.3848 35.2509 24.3896C35.1026 25.0471 34.9991 25.7425 34.9405 26.4756C34.9378 26.5139 34.9517 26.5213 34.9824 26.4977C35.5419 26.0718 36.1297 25.6768 36.7456 25.3127C36.813 25.2727 36.8658 25.2259 36.9041 25.1722C36.9055 25.1703 36.9064 25.1681 36.9068 25.1657C36.9072 25.1634 36.9072 25.161 36.9066 25.1587C36.9061 25.1564 36.9051 25.1542 36.9037 25.1523C36.9022 25.1504 36.9004 25.1488 36.8984 25.1476ZM38.003 25.1952C38.6665 25.5993 39.3049 26.0288 39.9181 26.4838C39.963 26.5172 39.983 26.506 39.9781 26.4501C39.9184 25.7761 39.8138 25.092 39.6644 24.3978C39.6631 24.3923 39.6607 24.3871 39.6572 24.3827C39.6538 24.3782 39.6494 24.3746 39.6444 24.372C39.6394 24.3694 39.6339 24.368 39.6282 24.3677C39.6226 24.3675 39.617 24.3685 39.6118 24.3707C39.0692 24.5985 38.5332 24.858 38.0038 25.1492C37.9996 25.1514 37.9962 25.1547 37.9937 25.1587C37.9912 25.1627 37.9899 25.1673 37.9898 25.172C37.9897 25.1767 37.9909 25.1813 37.9932 25.1854C37.9955 25.1895 37.9989 25.1929 38.003 25.1952ZM39.9847 27.1777C39.1941 26.5558 38.361 25.9891 37.4856 25.4777C37.4766 25.4723 37.4663 25.4693 37.4557 25.4692C37.4452 25.469 37.4348 25.4717 37.4256 25.4769C36.5469 25.9899 35.7095 26.5632 34.9134 27.1966C34.9033 27.2047 34.895 27.2148 34.8891 27.2262C34.8831 27.2377 34.8797 27.2503 34.8789 27.2632C34.8346 28.0324 34.8321 28.8405 34.8715 29.6875C34.8728 29.715 34.8801 29.7419 34.8928 29.7663C34.9056 29.7907 34.9236 29.812 34.9454 29.8288C35.7267 30.4228 36.5488 30.9777 37.4117 31.4934C37.4263 31.5021 37.443 31.5067 37.4599 31.5067C37.4769 31.5067 37.4934 31.5021 37.5077 31.4934C38.381 30.9706 39.2086 30.4091 39.9904 29.8091C40.0035 29.799 40.0143 29.7863 40.0219 29.7717C40.0296 29.757 40.034 29.7409 40.0348 29.7245C40.0775 28.901 40.0777 28.085 40.0356 27.2763C40.0348 27.2573 40.0298 27.2386 40.021 27.2216C40.0122 27.2045 39.9998 27.1896 39.9847 27.1777ZM33.4376 28.5197L34.332 29.3303C34.3643 29.3598 34.3793 29.3524 34.3771 29.3081C34.3481 28.7693 34.3478 28.2339 34.3763 27.7017C34.3796 27.6393 34.3585 27.6286 34.3131 27.6697L33.4368 28.4597C33.4326 28.4636 33.4293 28.4682 33.4271 28.4734C33.4248 28.4786 33.4237 28.4842 33.4238 28.4899C33.4239 28.4955 33.4251 28.5011 33.4275 28.5063C33.4299 28.5114 33.4333 28.516 33.4376 28.5197ZM41.3512 28.316C41.1103 28.0981 40.8533 27.8794 40.5801 27.6598C40.545 27.6319 40.5289 27.6404 40.5316 27.6853C40.5656 28.2218 40.5653 28.7625 40.5308 29.3073C40.5281 29.3494 40.5423 29.3568 40.5735 29.3294L41.4843 28.5246C41.4932 28.5166 41.4988 28.5055 41.4997 28.4934C41.5006 28.4813 41.4968 28.4693 41.4892 28.4597C41.4476 28.4094 41.4016 28.3615 41.3512 28.316ZM34.3418 29.9971L33.0606 28.8835C33.0508 28.8751 33.0382 28.8706 33.0254 28.8709C33.0126 28.8712 33.0006 28.8763 32.9917 28.8851C32.379 29.4994 31.8479 30.1625 31.3984 30.8742C31.2577 31.0976 31.146 31.3026 31.0634 31.4893C30.9517 31.7406 30.8794 31.964 30.8465 32.1595C30.7425 32.7836 30.9886 33.1661 31.5848 33.3068C31.9353 33.39 32.2895 33.4083 32.6476 33.3618C33.3549 33.2693 34.0574 33.0881 34.7549 32.8181C34.7697 32.8124 34.7821 32.8016 34.7896 32.7876C34.7971 32.7735 34.7994 32.7573 34.796 32.7418C34.6115 31.9167 34.4899 31.0604 34.4313 30.1729C34.4292 30.1401 34.4203 30.1077 34.4049 30.0775C34.3895 30.0473 34.3681 30.02 34.3418 29.9971ZM40.1645 32.8239C40.9004 33.1058 41.648 33.2876 42.4074 33.3692C42.8196 33.4135 43.1528 33.3919 43.4068 33.3043C43.9872 33.1034 44.1977 32.6933 44.0384 32.0741C43.9053 31.5578 43.6874 31.0801 43.3847 30.641C42.9472 30.0053 42.4618 29.425 41.9286 28.8999C41.9164 28.8877 41.8998 28.8807 41.8821 28.8804C41.8645 28.88 41.847 28.8865 41.8333 28.8983L40.5431 30.0144C40.5231 30.0318 40.5105 30.0559 40.5078 30.0817C40.4273 30.9572 40.3008 31.8499 40.1284 32.7598C40.1261 32.773 40.1285 32.7866 40.1351 32.7983C40.1417 32.8099 40.152 32.819 40.1645 32.8239ZM36.9091 31.7883C36.2334 31.3766 35.5948 30.9424 34.9931 30.4858C34.9476 30.4513 34.9274 30.4625 34.9323 30.5194C34.9947 31.1874 35.0998 31.8783 35.2477 32.5923C35.2487 32.5976 35.2509 32.6026 35.2541 32.607C35.2574 32.6113 35.2615 32.6149 35.2663 32.6173C35.2711 32.6198 35.2763 32.6211 35.2816 32.6212C35.2869 32.6213 35.2922 32.6201 35.2969 32.6177L36.9082 31.8302C36.9345 31.8176 36.9348 31.8036 36.9091 31.7883ZM38.0038 31.8302C38.5371 32.1236 39.0711 32.382 39.6061 32.6054C39.6108 32.6074 39.6159 32.6084 39.6211 32.6083C39.6262 32.6082 39.6312 32.607 39.6358 32.6048C39.6403 32.6026 39.6443 32.5995 39.6474 32.5956C39.6505 32.5917 39.6526 32.5872 39.6537 32.5824C39.8179 31.903 39.9233 31.2148 39.9699 30.5178C39.9721 30.491 39.9619 30.4849 39.9395 30.4997L38.003 31.7842C37.999 31.7867 37.9958 31.7902 37.9935 31.7944C37.9913 31.7985 37.9902 31.8032 37.9902 31.8078C37.9903 31.8125 37.9916 31.817 37.994 31.8209C37.9964 31.8248 37.9997 31.828 38.0038 31.8302ZM39.4927 33.1138L37.4897 32.1324C37.4777 32.1268 37.4649 32.124 37.4524 32.1241C37.4398 32.1243 37.4278 32.1274 37.4174 32.1332C36.7708 32.4902 36.1059 32.8086 35.4226 33.0883C35.4117 33.0927 35.4027 33.1007 35.3972 33.1109C35.3916 33.1211 35.3899 33.1329 35.3922 33.1442C35.5827 34.0399 35.9348 34.8658 36.4483 35.6219C36.6443 35.911 36.8992 36.1097 37.2129 36.2181C37.3761 36.2745 37.537 36.2778 37.6958 36.228C37.8644 36.1749 38.0109 36.0917 38.1352 35.9783C38.3525 35.7807 38.5483 35.5261 38.7224 35.2146C39.0695 34.592 39.3361 33.9126 39.5223 33.1762C39.5255 33.1642 39.5243 33.1514 39.5189 33.14C39.5135 33.1286 39.5042 33.1194 39.4927 33.1138Z" fill="white"/>
<path d="M48.2444 23.7749C48.2291 24.4479 48.7424 25.0053 49.3908 25.02C50.0393 25.0347 50.5773 24.5012 50.5926 23.8282C50.6079 23.1553 50.0946 22.5979 49.4461 22.5832C48.7977 22.5684 48.2597 23.102 48.2444 23.7749Z" fill="white"/>
<path d="M80.5942 23.7922C80.5883 24.4657 81.1097 25.0163 81.7587 25.022C82.4078 25.0276 82.9387 24.4862 82.9446 23.8127C82.9504 23.1392 82.4291 22.5886 81.78 22.5829C81.131 22.5773 80.6001 23.1187 80.5942 23.7922Z" fill="white"/>
<path d="M56.5502 32.8625C55.7689 33.4708 54.9055 33.6523 53.96 33.407C53.2389 33.2198 52.6588 32.848 52.2197 32.2918C51.9038 31.8915 51.6711 31.4004 51.5217 30.8184C51.237 29.7086 51.3963 28.6645 51.9996 27.6861C52.2405 27.2952 52.5187 26.984 52.834 26.7524C53.185 26.4951 53.574 26.3182 54.001 26.2218C54.4352 26.1238 54.8601 26.1184 55.2756 26.2054C55.7027 26.2947 56.0996 26.4742 56.4665 26.7442C56.4927 26.7639 56.5059 26.7573 56.5059 26.7245V23.0592C56.5059 23.0483 56.5102 23.0379 56.5179 23.0302C56.5256 23.0225 56.5361 23.0181 56.5469 23.0181H58.2716C58.2825 23.0181 58.2929 23.0225 58.3006 23.0302C58.3083 23.0379 58.3126 23.0483 58.3126 23.0592V33.2961C58.3126 33.3053 58.3108 33.3144 58.3073 33.3229C58.3038 33.3313 58.2987 33.339 58.2922 33.3455C58.2857 33.352 58.278 33.3571 58.2695 33.3606C58.2611 33.3641 58.252 33.366 58.2428 33.366H56.6578C56.6395 33.366 56.622 33.3585 56.609 33.3453C56.5961 33.332 56.5888 33.3141 56.5888 33.2953L56.5839 32.8789C56.5839 32.851 56.5727 32.8456 56.5502 32.8625ZM53.6528 28.5197C53.2953 28.961 53.1428 29.468 53.1954 30.0407C53.2458 30.5855 53.4511 31.0111 53.8113 31.3177C54.2028 31.6512 54.6203 31.7916 55.0638 31.739C55.6386 31.6701 56.0996 31.4155 56.4467 30.9753C56.485 30.9263 56.5059 30.8662 56.5059 30.8045V28.8425C56.5059 28.7978 56.4905 28.7544 56.4624 28.7193C56.1054 28.2725 55.6545 28.0078 55.1097 27.9251C54.531 27.8375 54.0454 28.0357 53.6528 28.5197Z" fill="white"/>
<path d="M77.5769 26.2777L79.681 26.2826C79.6932 26.2826 79.7049 26.2874 79.7135 26.2959C79.7221 26.3043 79.7269 26.3158 79.7269 26.3278L79.722 27.8578C79.722 27.8689 79.7177 27.8796 79.71 27.8874C79.7023 27.8953 79.6918 27.8997 79.681 27.8997H77.5974C77.5886 27.8997 77.5798 27.9014 77.5717 27.9048C77.5635 27.9081 77.5561 27.913 77.5498 27.9192C77.5436 27.9254 77.5386 27.9327 77.5352 27.9408C77.5318 27.9488 77.5301 27.9575 77.5301 27.9662C77.5301 28.8148 77.5309 29.6498 77.5326 30.471C77.5326 30.6687 77.5514 30.8647 77.5892 31.0591C77.6379 31.312 77.7554 31.5025 77.9415 31.6307C78.0844 31.7292 78.2851 31.7867 78.5435 31.8031C78.7932 31.8184 79.0467 31.7987 79.304 31.744C79.3142 31.7419 79.3248 31.7418 79.335 31.7439C79.3452 31.7459 79.3549 31.75 79.3635 31.7559C79.3721 31.7619 79.3794 31.7694 79.385 31.7783C79.3906 31.7871 79.3943 31.7969 79.396 31.8072L79.6456 33.3118C79.6481 33.3259 79.6451 33.3404 79.6371 33.3524C79.6292 33.3644 79.617 33.3731 79.6029 33.3766C78.8895 33.5518 78.1923 33.5458 77.5112 33.3586C76.8241 33.1697 76.3393 32.7804 76.0568 32.1908C75.8476 31.7527 75.743 31.2343 75.743 30.6353C75.7436 29.7801 75.7439 28.892 75.7439 27.9711C75.7439 27.9535 75.7368 27.9366 75.7244 27.9241C75.7119 27.9116 75.695 27.9046 75.6773 27.9046H73.9428C73.9306 27.9046 73.9189 27.8999 73.9103 27.8914C73.9017 27.8829 73.8969 27.8714 73.8969 27.8594L73.91 26.3393C73.9102 26.3279 73.9149 26.317 73.923 26.3091C73.9312 26.3011 73.9421 26.2966 73.9535 26.2966L75.6864 26.2835C75.6939 26.2835 75.7014 26.282 75.7084 26.2791C75.7153 26.2763 75.7217 26.2721 75.727 26.2669C75.7324 26.2616 75.7366 26.2554 75.7395 26.2485C75.7424 26.2416 75.7439 26.2342 75.7439 26.2268V24.3732C75.7439 24.3623 75.7482 24.3519 75.7559 24.3442C75.7636 24.3365 75.774 24.3322 75.7849 24.3322H77.4849C77.4969 24.3322 77.5084 24.337 77.5169 24.3456C77.5253 24.3542 77.5301 24.3659 77.5301 24.3781L77.535 26.2375C77.535 26.2481 77.5394 26.2584 77.5473 26.2659C77.5551 26.2735 77.5658 26.2777 77.5769 26.2777Z" fill="white"/>
<path d="M87.1445 26.2777L89.2396 26.2826C89.2542 26.2826 89.2682 26.2884 89.2785 26.2988C89.2888 26.3091 89.2946 26.3231 89.2946 26.3377V27.8586C89.2946 27.8709 89.2896 27.8827 89.2807 27.8914C89.2718 27.9002 89.2597 27.9052 89.247 27.9054L87.1536 27.9186C87.1427 27.9188 87.1324 27.9233 87.1248 27.9311C87.1171 27.9389 87.1127 27.9494 87.1125 27.9605C87.095 28.7012 87.0901 29.4423 87.0977 30.1836C87.1021 30.5931 87.1273 30.9 87.1733 31.1042C87.2269 31.3408 87.3433 31.519 87.5223 31.6389C87.6581 31.7303 87.8494 31.7842 88.0964 31.8007C88.3586 31.8182 88.6258 31.799 88.8979 31.7432C88.9045 31.7418 88.9113 31.7418 88.9179 31.7431C88.9245 31.7443 88.9308 31.7469 88.9363 31.7506C88.9418 31.7542 88.9465 31.759 88.9501 31.7645C88.9536 31.77 88.956 31.7761 88.9571 31.7826L89.2116 33.3101C89.2135 33.3212 89.2111 33.3325 89.2051 33.342C89.199 33.3515 89.1897 33.3586 89.1788 33.3619C88.4566 33.5683 87.7553 33.5653 87.0747 33.3528C86.6214 33.211 86.2617 32.9986 85.9956 32.7155C85.6989 32.3985 85.505 32.0062 85.4142 31.5387C85.3474 31.1954 85.3142 30.8737 85.3148 30.5737C85.3153 29.6993 85.3126 28.8252 85.3066 27.9514C85.3066 27.9405 85.3022 27.9299 85.2943 27.9221C85.2865 27.9143 85.2759 27.9098 85.2647 27.9095L83.5203 27.8898C83.5146 27.8898 83.509 27.8888 83.5037 27.8867C83.4984 27.8846 83.4936 27.8816 83.4896 27.8778C83.4855 27.874 83.4823 27.8695 83.4801 27.8645C83.4779 27.8595 83.4768 27.8542 83.4768 27.8488V26.3385C83.477 26.3273 83.4818 26.3166 83.4901 26.3088C83.4984 26.301 83.5095 26.2966 83.5212 26.2966L85.254 26.2835C85.2693 26.2835 85.2839 26.2775 85.2947 26.2669C85.3054 26.2562 85.3115 26.2418 85.3115 26.2268V24.3732C85.3115 24.3678 85.3126 24.3625 85.3146 24.3575C85.3167 24.3525 85.3197 24.348 85.3235 24.3442C85.3273 24.3404 85.3319 24.3373 85.3368 24.3353C85.3418 24.3332 85.3472 24.3322 85.3526 24.3322H87.0526C87.0645 24.3322 87.076 24.337 87.0845 24.3456C87.093 24.3542 87.0977 24.3659 87.0977 24.3781L87.1027 26.2375C87.1027 26.2481 87.1071 26.2584 87.1149 26.2659C87.1228 26.2735 87.1334 26.2777 87.1445 26.2777Z" fill="white"/>
<path d="M60.1424 27.1671C60.5322 26.7313 60.9905 26.434 61.5172 26.2752C62.0346 26.1197 62.5591 26.105 63.0907 26.2309C63.509 26.33 63.8873 26.5137 64.2257 26.7819C64.535 27.0272 64.7989 27.342 65.0174 27.7264C65.445 28.4787 65.6103 29.3232 65.5134 30.26C65.512 30.2729 65.5059 30.2848 65.4964 30.2934C65.4868 30.3021 65.4745 30.3068 65.4617 30.3068H60.9743C60.9673 30.3067 60.9604 30.3083 60.954 30.3113C60.9477 30.3143 60.9421 30.3188 60.9376 30.3243C60.9331 30.3297 60.9299 30.3362 60.9281 30.3431C60.9264 30.35 60.9262 30.3572 60.9275 30.3643C61.054 31.0065 61.3549 31.4604 61.8301 31.7259C62.2248 31.946 62.6568 32.001 63.126 31.891C63.5679 31.787 63.9665 31.5513 64.3218 31.1839C64.3281 31.1774 64.3357 31.1722 64.3441 31.1688C64.3525 31.1653 64.3615 31.1636 64.3706 31.1638C64.3797 31.1639 64.3886 31.1659 64.3969 31.1697C64.4052 31.1734 64.4126 31.1788 64.4187 31.1855L65.2777 32.1119C65.3746 32.217 65.3703 32.3169 65.2646 32.4117C64.3848 33.2001 63.4203 33.5587 62.3713 33.4875C61.9005 33.4557 61.4655 33.343 61.0663 33.1491C60.6398 32.9422 60.2787 32.6567 59.9831 32.2926C59.6502 31.883 59.4178 31.3928 59.2858 30.8217C59.1446 30.2096 59.1402 29.5778 59.2727 28.9262C59.4101 28.2495 59.7 27.6632 60.1424 27.1671ZM61.3258 28.2282C61.1605 28.4225 61.0567 28.635 61.0146 28.8655C61.0136 28.8703 61.0138 28.8753 61.015 28.8801C61.0163 28.8849 61.0186 28.8894 61.0218 28.8933C61.025 28.8971 61.029 28.9002 61.0336 28.9024C61.0382 28.9045 61.0432 28.9057 61.0483 28.9057H63.6656C63.6707 28.9058 63.6758 28.9047 63.6805 28.9026C63.6852 28.9005 63.6893 28.8974 63.6926 28.8936C63.696 28.8897 63.6983 28.8852 63.6996 28.8803C63.7009 28.8755 63.7011 28.8704 63.7001 28.8655C63.6048 28.3618 63.3505 28.0155 62.9371 27.8266C62.6579 27.699 62.3751 27.6703 62.0888 27.7404C61.7953 27.8121 61.541 27.9747 61.3258 28.2282Z" fill="white"/>
<path d="M68.4519 26.8066C69.2425 26.2 70.0758 26.01 70.9518 26.2366C71.5004 26.379 71.9707 26.6456 72.3627 27.0366C72.8784 27.5518 73.1703 28.2101 73.2381 29.0117C73.2518 29.1688 73.2587 29.3268 73.2587 29.4855C73.262 30.7634 73.2606 32.0413 73.2546 33.3192C73.2546 33.3305 73.2502 33.3413 73.2423 33.3494C73.2345 33.3574 73.2238 33.3619 73.2127 33.3619L71.5291 33.352C71.5184 33.352 71.508 33.3476 71.5004 33.3398C71.4927 33.332 71.4883 33.3213 71.4881 33.3101C71.4705 32.1171 71.4653 30.9244 71.4724 29.7319C71.473 29.5616 71.4642 29.3922 71.4462 29.2236C71.4254 29.0336 71.3865 28.8696 71.3295 28.7316C71.1429 28.281 70.8226 28.0169 70.3687 27.9391C70.0374 27.8822 69.6999 27.9287 69.3561 28.0787C69.0265 28.2227 68.7467 28.4404 68.5167 28.7316C68.4901 28.7657 68.4757 28.8076 68.4757 28.8507V33.32C68.4757 33.3322 68.4708 33.3439 68.4622 33.3525C68.4536 33.3611 68.4419 33.366 68.4297 33.366H66.765C66.745 33.366 66.7258 33.3581 66.7116 33.3441C66.6974 33.3301 66.6895 33.3111 66.6895 33.2912L66.7042 26.3385C66.7045 26.3273 66.709 26.3167 66.7168 26.3088C66.7246 26.301 66.7352 26.2966 66.7461 26.2966L68.3394 26.2835C68.359 26.2835 68.3779 26.2916 68.3919 26.306C68.4059 26.3205 68.4139 26.3401 68.4141 26.3607L68.4182 26.7902C68.4182 26.8186 68.4294 26.8241 68.4519 26.8066Z" fill="white"/>
<path d="M50.2906 26.2834H48.5545C48.535 26.2834 48.5192 26.2993 48.5192 26.3188V33.3306C48.5192 33.3501 48.535 33.366 48.5545 33.366H50.2906C50.3101 33.366 50.3259 33.3501 50.3259 33.3306V26.3188C50.3259 26.2993 50.3101 26.2834 50.2906 26.2834Z" fill="white"/>
<path d="M82.6408 26.2826H80.8997C80.8875 26.2826 80.8776 26.2925 80.8776 26.3048V33.3429C80.8776 33.3552 80.8875 33.3651 80.8997 33.3651H82.6408C82.653 33.3651 82.663 33.3552 82.663 33.3429V26.3048C82.663 26.2925 82.653 26.2826 82.6408 26.2826Z" fill="white"/>
<path d="M93.7926 30.4283L95.5362 26.336C95.541 26.3245 95.5489 26.3146 95.5588 26.3076C95.5687 26.3007 95.5802 26.2968 95.592 26.2966L97.4004 26.2834C97.4081 26.2834 97.4156 26.2852 97.4223 26.2888C97.4291 26.2924 97.4349 26.2976 97.4392 26.304C97.4435 26.3104 97.4461 26.3178 97.447 26.3255C97.4478 26.3332 97.4468 26.3411 97.4439 26.3483L93.1923 36.7947C93.1848 36.8129 93.1721 36.8285 93.1557 36.8395C93.1393 36.8504 93.12 36.8563 93.1003 36.8563H91.333C91.3266 36.8563 91.3203 36.8548 91.3146 36.8518C91.3089 36.8488 91.3041 36.8445 91.3005 36.8392C91.2968 36.8338 91.2945 36.8277 91.2937 36.8212C91.293 36.8147 91.2938 36.8082 91.296 36.8021L92.8129 32.7007C92.8209 32.6786 92.8245 32.655 92.8234 32.6313C92.8222 32.6076 92.8164 32.5843 92.8063 32.5627L89.8917 26.3245C89.8899 26.3205 89.8891 26.3161 89.8895 26.3118C89.8898 26.3074 89.8912 26.3032 89.8936 26.2996C89.896 26.2959 89.8992 26.2929 89.903 26.2908C89.9068 26.2887 89.9111 26.2876 89.9155 26.2875L91.7863 26.2826C91.8052 26.2826 91.8237 26.2881 91.8397 26.2985C91.8557 26.3088 91.8685 26.3235 91.8766 26.3409L93.7581 30.4283C93.7702 30.454 93.7817 30.454 93.7926 30.4283Z" fill="white"/>
<path d="M36.032 27.8373C36.0342 27.707 36.0361 27.5769 36.0378 27.4472C36.0405 27.2764 36.0572 27.1485 36.0879 27.0637C36.1859 26.7954 36.3939 26.6686 36.712 26.6834C36.8456 26.69 36.9154 26.6933 36.9215 26.6933C37.3595 26.6933 37.7975 26.6933 38.2355 26.6933C38.4041 26.6933 38.5328 26.7226 38.6215 26.7811C38.755 26.8693 38.8309 26.9906 38.8489 27.145C38.8708 27.336 38.8766 27.5498 38.8662 27.7864C38.8655 27.8046 38.8713 27.8225 38.8827 27.8367C38.894 27.8508 38.91 27.8604 38.9278 27.8636C39.1243 27.9013 39.2741 27.9736 39.377 28.0804C39.4772 28.1844 39.5257 28.3289 39.5224 28.514C39.5164 28.8584 39.3173 29.0557 38.9253 29.1061C38.9138 29.1074 38.9032 29.1128 38.8952 29.1212C38.8872 29.1296 38.8825 29.1405 38.8818 29.1521C38.8719 29.3049 38.8678 29.5255 38.8695 29.814C38.8706 30.0538 38.7879 30.2304 38.6215 30.3437C38.5169 30.4149 38.3458 30.4505 38.1082 30.4505C37.7611 30.4505 37.4142 30.4505 37.0676 30.4505C36.7309 30.4505 36.55 30.4483 36.5248 30.4439C36.3025 30.4056 36.155 30.278 36.0821 30.0612C36.0515 29.9698 36.0361 29.8173 36.0361 29.6038C36.0361 29.4576 36.0361 29.3032 36.0361 29.1406C36.0361 29.1346 36.0349 29.1287 36.0326 29.1231C36.0302 29.1176 36.0267 29.1126 36.0224 29.1084C36.018 29.1042 36.0129 29.1009 36.0072 29.0986C36.0015 29.0964 35.9954 29.0953 35.9893 29.0954C35.8552 29.0976 35.7383 29.0661 35.6387 29.001C35.5483 28.9424 35.478 28.8521 35.4276 28.73C35.306 28.4354 35.3841 28.1792 35.6616 27.9613C35.7432 27.8967 35.8525 27.8682 35.9893 27.8759C35.9948 27.8761 36.0003 27.8753 36.0054 27.8734C36.0105 27.8716 36.0152 27.8688 36.0192 27.8652C36.0231 27.8616 36.0263 27.8573 36.0285 27.8525C36.0308 27.8477 36.0319 27.8425 36.032 27.8373ZM38.3543 27.2813C38.3543 27.2715 38.3523 27.2618 38.3486 27.2528C38.3448 27.2437 38.3393 27.2355 38.3323 27.2285C38.3254 27.2216 38.3171 27.2161 38.308 27.2124C38.299 27.2086 38.2893 27.2067 38.2794 27.2067L36.6221 27.2096C36.6123 27.2097 36.6026 27.2116 36.5936 27.2154C36.5845 27.2191 36.5763 27.2247 36.5693 27.2316C36.5624 27.2386 36.5569 27.2468 36.5532 27.2559C36.5494 27.265 36.5475 27.2747 36.5475 27.2845L36.5497 28.5098C36.5497 28.5196 36.5516 28.5293 36.5554 28.5384C36.5592 28.5475 36.5647 28.5557 36.5717 28.5626C36.5786 28.5696 36.5869 28.575 36.5959 28.5788C36.605 28.5825 36.6147 28.5844 36.6245 28.5844L38.2818 28.5815C38.2916 28.5815 38.3014 28.5796 38.3104 28.5758C38.3195 28.572 38.3277 28.5665 38.3346 28.5595C38.3416 28.5526 38.3471 28.5443 38.3508 28.5353C38.3545 28.5262 38.3565 28.5165 38.3564 28.5067L38.3543 27.2813ZM35.9926 28.5723C35.9981 28.5737 36.0038 28.5739 36.0093 28.5727C36.0148 28.5716 36.0199 28.5692 36.0243 28.5658C36.0287 28.5623 36.0322 28.558 36.0346 28.553C36.0369 28.548 36.038 28.5425 36.0378 28.537C36.0312 28.3596 35.9915 28.3339 35.9187 28.4598C35.8869 28.5145 35.9116 28.552 35.9926 28.5723ZM38.8826 28.5427C38.9111 28.6002 38.9423 28.6019 38.9762 28.5477C39.0304 28.4617 39.0151 28.4075 38.9302 28.3851C38.9186 28.3817 38.9061 28.3829 38.8954 28.3882C38.8847 28.3936 38.8766 28.4027 38.8728 28.4138C38.8585 28.4565 38.8618 28.4995 38.8826 28.5427ZM38.3554 29.1685C38.3554 29.1489 38.3476 29.1301 38.3337 29.1163C38.3199 29.1024 38.3011 29.0946 38.2815 29.0946H36.6242C36.6046 29.0946 36.5858 29.1024 36.5719 29.1163C36.558 29.1301 36.5502 29.1489 36.5502 29.1685V29.8617C36.5502 29.8813 36.558 29.9001 36.5719 29.9139C36.5858 29.9278 36.6046 29.9356 36.6242 29.9356H38.2815C38.3011 29.9356 38.3199 29.9278 38.3337 29.9139C38.3476 29.9001 38.3554 29.8813 38.3554 29.8617V29.1685Z" fill="white"/>
</g>
<defs>
<clipPath id="clip0_4329_999">
<rect width="67.7536" height="17" fill="white" transform="translate(30 20)"/>
</clipPath>
</defs>
</svg>
