<svg width="128" height="56" viewBox="0 0 128 56" fill="none" xmlns="http://www.w3.org/2000/svg">
<g clip-path="url(#clip0_4329_176)">
<path d="M44.4106 32.8555C43.3556 31.7807 40.1614 28.5953 40.1614 28.5953C39.3995 27.7941 39.3116 26.5337 40.0149 25.6445C40.3177 25.2634 40.7084 25.0094 41.1382 24.8824C41.2555 24.8531 41.3824 24.8237 41.5094 24.8042C42.496 24.6283 43.2091 24.5208 43.8929 23.788C45.0162 22.5666 44.8306 20.6222 43.5022 19.5962C42.3691 18.7168 40.7475 18.8243 39.7316 19.8307C39.1162 20.4463 38.8818 21.3941 38.8818 22.0487C38.8818 22.7816 38.6864 23.5242 38.1589 24.1202C37.6314 24.7065 36.8597 24.9605 36.1955 25.0778C35.6387 25.1755 34.8865 25.4686 34.4274 25.9279C33.2845 27.0808 33.2845 28.9373 34.4274 30.0903L40.8061 36.4805C41.8025 37.4772 43.4142 37.4772 44.4008 36.4805C45.407 35.4643 45.407 33.8717 44.4106 32.8555Z" fill="white"/>
<path d="M67.8351 32.4937H68.4505C68.6655 32.4937 68.8413 32.3178 68.8413 32.1028V28.2335C68.8706 26.719 69.7106 25.8201 71.0684 25.8201C71.8304 25.8201 73.1198 26.1132 73.1198 28.0967V32.093C73.1198 32.308 73.2956 32.4839 73.5105 32.4839H74.1261C74.3407 32.4839 74.5166 32.308 74.5166 32.093V27.7547C74.5166 26.6213 73.9401 24.5792 71.4201 24.5792C70.2479 24.5792 69.3492 25.0579 68.8218 25.9764V25.0775C68.8218 24.8625 68.6459 24.6866 68.431 24.6866H67.8156C67.6007 24.6866 67.4249 24.8625 67.4249 25.0775V32.093C67.4347 32.308 67.6105 32.4937 67.8351 32.4937Z" fill="white"/>
<path d="M62.3746 32.5818C64.7189 32.5818 65.6958 30.7057 65.6958 30.7057C65.8228 30.5299 65.7739 30.2758 65.5883 30.1586L65.2562 29.924C64.973 29.7579 64.7776 29.9143 64.7092 30.0315C64.7092 30.0315 63.8887 31.3995 62.3746 31.3995C60.8605 31.3995 59.8543 30.4224 59.7567 29.0055H65.4418C65.6665 29.0055 65.8618 28.9274 65.9791 28.8003C66.0963 28.6733 66.1451 28.4877 66.1256 28.2727C65.9302 26.0449 64.4161 24.6086 62.2574 24.6086C60.0986 24.6086 58.3598 26.3283 58.3598 28.6049C58.3598 30.9402 60.0204 32.5818 62.3746 32.5818ZM62.2574 25.7616C63.6249 25.7616 64.6408 26.6703 64.758 27.9796H59.7567C59.8543 26.6898 60.8996 25.7616 62.2574 25.7616Z" fill="white"/>
<path d="M51.5413 32.0933C51.5413 32.3083 51.7171 32.4842 51.932 32.4842H52.4986C52.7135 32.4842 52.8893 32.3083 52.8893 32.0933V29.0252C52.8893 28.9763 52.9186 28.9568 52.9382 28.9568C52.9479 28.9568 52.987 28.9372 53.0261 28.9665L56.7869 32.4451C56.9138 32.5721 57.2265 32.6698 57.4707 32.4158L57.6953 32.1715C57.92 31.9467 57.8321 31.6438 57.666 31.4875L54.2667 28.3803C54.2471 28.3607 54.2374 28.3412 54.2374 28.3217C54.2374 28.3021 54.2471 28.2826 54.2667 28.263L57.6367 25.5956C57.8516 25.4295 57.8907 25.1266 57.7246 24.9116L57.5879 24.7259C57.5097 24.6185 57.2265 24.4035 56.9041 24.638L53.0261 27.6865C53.0066 27.7061 52.9675 27.7061 52.9479 27.6963C52.9186 27.6865 52.9089 27.6572 52.9089 27.6279V23.0453C52.9089 22.8304 52.733 22.6545 52.5182 22.6545H51.932C51.7171 22.6545 51.5413 22.8304 51.5413 23.0453V32.0933Z" fill="white"/>
<path d="M76.5677 32.4937H77.1828C77.3979 32.4937 77.5738 32.3178 77.5738 32.1028V28.2335C77.603 26.7288 78.4333 25.8201 79.8008 25.8201C80.5627 25.8201 81.8524 26.1132 81.8524 28.0967V32.093C81.8524 32.308 82.0283 32.4839 82.2429 32.4839H82.8585C83.0732 32.4839 83.2491 32.308 83.2491 32.093V27.7547C83.2491 26.6213 82.6726 24.5792 80.1526 24.5792C78.9806 24.5792 78.0819 25.0579 77.5542 25.9764V25.0775C77.5542 24.8625 77.3783 24.6866 77.1637 24.6866H76.5481C76.3334 24.6866 76.1575 24.8625 76.1575 25.0775V32.093C76.1771 32.308 76.3526 32.4937 76.5677 32.4937Z" fill="white"/>
<path d="M88.6508 32.5818C90.9954 32.5818 91.9724 30.7057 91.9724 30.7057C92.0991 30.5299 92.0503 30.2758 91.8649 30.1586L91.5327 29.924C91.2492 29.7579 91.0542 29.9143 90.9858 30.0315C90.9858 30.0315 90.1651 31.3995 88.6508 31.3995C87.137 31.3995 86.1308 30.4224 86.0333 29.0055H91.7181C91.9428 29.0055 92.1383 28.9274 92.2554 28.8003C92.3725 28.6733 92.4217 28.4877 92.4021 28.2727C92.2066 26.0449 90.6928 24.6086 88.5337 24.6086C86.3751 24.6086 84.6361 26.3283 84.6361 28.6049C84.6266 30.9402 86.2871 32.5818 88.6508 32.5818ZM88.5337 25.7616C89.9013 25.7616 90.9175 26.6703 91.0346 27.9796H86.0233C86.1308 26.6898 87.1762 25.7616 88.5337 25.7616Z" fill="white"/>
<path d="M33.0698 30.0902C32.5422 29.5528 32.2101 28.8102 32.2101 27.9992C32.2101 27.1882 32.5422 26.4456 33.0698 25.9082C33.607 25.3708 33.9489 24.6184 33.9489 23.7977C33.9489 22.1561 32.6204 20.8175 30.9793 20.8175C29.3285 20.8077 28 22.1464 28 23.7879C28 24.6087 28.3321 25.361 28.8791 25.8984C29.4066 26.4358 29.7388 27.1784 29.7388 27.9894C29.7388 28.8004 29.4066 29.543 28.8791 30.0804C28.3419 30.6178 28 31.3702 28 32.191C28 33.8325 29.3285 35.1712 30.9696 35.1712C32.6106 35.1712 33.9391 33.8423 33.9391 32.191C33.9391 31.3702 33.607 30.6276 33.0698 30.0902Z" fill="white"/>
<path d="M93.7109 32.0933C93.7109 32.3083 93.8868 32.4842 94.1019 32.4842H94.6684C94.8834 32.4842 95.0589 32.3083 95.0589 32.0933V29.0252C95.0589 28.9763 95.0885 28.9568 95.1081 28.9568C95.1177 28.9568 95.1569 28.9372 95.1956 28.9665L98.9565 32.4451C99.0836 32.5721 99.3962 32.6698 99.6405 32.4158L99.8651 32.1715C100.09 31.9467 100.002 31.6438 99.8359 31.4875L96.4365 28.3803C96.4169 28.3607 96.4073 28.3412 96.4073 28.3217C96.4073 28.3021 96.4169 28.2826 96.4365 28.263L99.8063 25.5956C100.021 25.4295 100.061 25.1266 99.8943 24.9116L99.7576 24.7259C99.6796 24.6185 99.3962 24.4035 99.074 24.638L95.1956 27.6865C95.1765 27.7061 95.1373 27.7061 95.1177 27.6963C95.0885 27.6865 95.0785 27.6572 95.0785 27.6279V23.0453C95.0785 22.8304 94.9026 22.6545 94.6879 22.6545H94.1215C93.9064 22.6545 93.7305 22.8304 93.7305 23.0453L93.7109 32.0933Z" fill="white"/>
</g>
<defs>
<clipPath id="clip0_4329_176">
<rect width="72" height="18.2278" fill="white" transform="translate(28 19)"/>
</clipPath>
</defs>
</svg>
