<svg width="802" height="802" viewBox="0 0 802 802" fill="none" xmlns="http://www.w3.org/2000/svg">
<circle cx="401" cy="401" r="401" fill="#010314"/>
<path d="M89.25 401.5C86.1337 401.5 83.145 400.262 80.9415 398.059C78.7379 395.855 77.5 392.866 77.5 389.75C77.5 386.634 78.7379 383.645 80.9415 381.441C83.145 379.238 86.1337 378 89.25 378C92.3663 378 95.355 379.238 97.5585 381.441C99.7621 383.645 101 386.634 101 389.75C101 392.866 99.7621 395.855 97.5585 398.059C95.355 400.262 92.3663 401.5 89.25 401.5Z" fill="#1ABCFE"/>
<path d="M112.75 425C109.634 425 106.645 423.762 104.441 421.559C102.238 419.355 101 416.366 101 413.25L101 401.5L112.75 401.5C115.866 401.5 118.855 402.738 121.059 404.941C123.262 407.145 124.5 410.134 124.5 413.25C124.5 416.366 123.262 419.355 121.059 421.559C118.855 423.762 115.866 425 112.75 425Z" fill="#0ACF83"/>
<path d="M54 401.5L77.5 401.5L77.5 389.75C77.5 386.634 76.2621 383.645 74.0585 381.441C71.855 379.238 68.8663 378 65.75 378C62.6337 378 59.645 379.238 57.4415 381.441C55.2379 383.645 54 386.634 54 389.75L54 401.5Z" fill="#FF7262"/>
<path d="M65.75 425C68.8663 425 71.855 423.762 74.0585 421.559C76.2621 419.355 77.5 416.366 77.5 413.25L77.5 401.5L54 401.5L54 413.25C54 416.366 55.2379 419.355 57.4415 421.559C59.645 423.762 62.6337 425 65.75 425Z" fill="#F24E1E"/>
<path d="M89.25 425C92.3663 425 95.355 423.762 97.5585 421.559C99.7621 419.355 101 416.366 101 413.25L101 401.5L77.5 401.5L77.5 413.25C77.5 416.366 78.7379 419.355 80.9415 421.559C83.145 423.762 86.1337 425 89.25 425Z" fill="#A259FF"/>
<path d="M429.05 62H372.95C371.637 62 370.378 62.5215 369.45 63.4498C368.522 64.3781 368 65.6372 368 66.95V123.05C368 124.363 368.522 125.622 369.45 126.55C370.378 127.478 371.637 128 372.95 128H429.05C430.363 128 431.622 127.478 432.55 126.55C433.478 125.622 434 124.363 434 123.05V66.95C434 65.6372 433.478 64.3781 432.55 63.4498C431.622 62.5215 430.363 62 429.05 62ZM387.8 118.1H377.9V88.4H387.8V118.1ZM382.85 82.625C381.715 82.5926 380.616 82.2265 379.688 81.5725C378.76 80.9186 378.046 80.0057 377.634 78.9481C377.222 77.8904 377.131 76.7348 377.372 75.6256C377.613 74.5164 378.176 73.5029 378.989 72.7117C379.803 71.9205 380.832 71.3866 381.948 71.1768C383.063 70.9671 384.216 71.0907 385.261 71.5322C386.307 71.9737 387.199 72.7136 387.827 73.6594C388.455 74.6052 388.79 75.7149 388.79 76.85C388.764 78.4022 388.125 79.8809 387.011 80.963C385.898 82.0451 384.402 82.6427 382.85 82.625ZM424.1 118.1H414.2V102.458C414.2 97.772 412.22 96.089 409.646 96.089C408.891 96.1392 408.154 96.3381 407.476 96.6741C406.799 97.0101 406.194 97.4767 405.697 98.0471C405.201 98.6174 404.822 99.2803 404.582 99.9976C404.342 100.715 404.246 101.473 404.3 102.227C404.284 102.381 404.284 102.535 404.3 102.689V118.1H394.4V88.4H403.97V92.69C404.935 91.2215 406.262 90.0255 407.822 89.2165C409.382 88.4076 411.124 88.0128 412.88 88.07C417.995 88.07 423.968 90.908 423.968 100.148L424.1 118.1Z" fill="white"/>
<path d="M695.333 441.609C695.333 449.79 700.163 452.304 703.416 452.304C709.625 452.304 711.449 443.778 715.293 443.778C716.328 443.778 717.56 444.468 717.56 446.193C717.56 447.819 716.476 448.558 714.406 448.953C713.322 449.15 712.435 449.445 712.435 451.318C712.435 453.782 713.913 455.212 715.638 455.212C718.151 455.212 720.961 452.057 720.961 446.735C720.961 440.673 717.363 436.533 712.829 436.533C706.274 436.533 704.993 444.566 701.444 444.566C700.508 444.566 699.079 443.975 699.079 441.954C699.079 439.934 700.508 438.899 702.676 438.357C703.711 438.11 704.5 437.765 704.5 436.237C704.5 433.921 702.874 432.492 700.952 432.492C698.389 432.492 695.333 435.104 695.333 441.609ZM695.333 401.641C695.333 405.781 697.009 407.85 698.537 409.329C699.03 409.822 699.917 410.61 699.917 411.3C699.917 411.694 699.67 412.089 698.34 413.419C696.664 415.095 695.333 417.756 695.333 421.797C695.333 429.486 700.212 431.802 703.416 431.802C709.576 431.802 711.498 423.966 715.244 423.966C716.279 423.966 717.56 424.656 717.56 426.332C717.56 428.007 716.279 428.894 713.667 429.239C712.632 429.387 711.991 429.633 711.991 431.309C711.991 433.823 713.371 435.597 715.392 435.597C718.151 435.597 720.961 432.344 720.961 426.923C720.961 420.763 717.363 416.721 712.829 416.721C706.324 416.721 704.993 424.064 701.494 424.064C700.508 424.064 699.079 423.424 699.079 421.502C699.079 417.066 706.866 419.481 706.866 414.651C706.866 410.61 701.592 409.033 701.592 404.006C701.592 401.641 702.923 400.014 704.746 399.817C705.584 399.719 706.028 400.064 705.978 400.754C705.929 401.148 705.929 401.542 705.929 401.936C705.929 409.23 710.365 415.539 715.539 415.539C719.039 415.539 720.961 412.631 720.961 407.949C720.961 398.289 712.188 391.735 704.944 391.735C699.67 391.735 695.333 395.283 695.333 401.641ZM709.182 401.296C709.182 400.261 709.428 399.965 709.97 399.965C711.449 399.965 716.426 402.084 716.426 405.781C716.426 407.111 715.835 407.949 714.702 407.949C712.385 407.949 709.182 404.844 709.182 401.296ZM695.333 353.392C695.333 360.637 701.839 363.348 711.942 368.177L714.11 369.212C717.56 370.839 719.482 371.627 719.482 373.106C719.482 373.894 718.94 374.387 717.856 374.387C716.772 374.387 715.441 373.894 713.519 373.056L711.055 371.972C706.422 369.952 704.796 369.212 701.937 369.212C698.438 369.212 695.333 371.923 695.333 376.358C695.333 383.258 702.381 385.919 708.689 388.581L710.562 389.369C721.503 393.953 724.509 400.359 724.509 407.111C724.509 410.462 723.77 412.483 723.77 413.272C723.77 414.109 724.657 414.356 725.544 414.356C727.86 414.356 732 412.582 732 405.337C732 394.987 724.41 390.01 712.73 384.884L710.71 383.997C707.506 382.568 706.422 381.878 706.422 380.646C706.422 379.858 706.866 379.217 707.999 379.217C708.689 379.217 709.182 379.414 711.597 380.498L713.125 381.188C717.264 383.061 719.63 383.751 721.749 383.751C725.84 383.751 728.353 381.139 728.353 376.654C728.353 370.592 723.77 368.325 718.595 365.861L714.258 363.791C710.414 361.968 704.352 359.405 703.613 348.119C703.514 346.641 703.022 346 701.494 346C698.29 346 695.333 348.415 695.333 353.392Z" fill="white"/>
</svg>
