<svg width="130" height="58" viewBox="0 0 130 58" fill="none" xmlns="http://www.w3.org/2000/svg">
<rect x="1" y="1" width="128" height="56" stroke="black"/>
<path d="M78.2085 28.6108C77.6629 28.35 77.1246 28.323 76.5937 28.5296C76.0409 28.745 75.6759 29.1523 75.4985 29.7516C75.3505 30.2533 75.3903 30.7185 75.618 31.1472C75.9276 31.73 76.4259 32.0607 77.1128 32.1392C77.4435 32.1772 77.7531 32.133 78.0417 32.0068C78.1123 31.9759 78.1679 31.9572 78.2085 31.9504C78.2341 32.3705 78.2442 32.8637 78.239 33.43C78.2296 34.4276 78.2331 35.6301 78.2497 37.0373C78.2527 37.2755 78.2816 37.4491 78.3365 37.5581C78.4766 37.8365 78.741 37.9169 79.1295 37.7993C79.2614 37.7595 79.3907 37.7125 79.5173 37.6584C79.7243 37.5701 79.8519 37.5201 79.9 37.5085C80.1679 37.4431 80.4077 37.4818 80.6192 37.6246C80.8139 37.7554 80.9469 37.9361 81.0183 38.1668C81.087 38.3889 81.0711 38.6055 80.9704 38.8167C80.8779 39.0095 80.7368 39.1566 80.5471 39.258C80.2442 39.42 79.9222 39.402 79.581 39.2039C79.4521 39.1288 79.3335 39.0775 79.2253 39.0501C79.0442 38.9253 78.8467 38.8571 78.6329 38.8455C78.536 38.8398 78.4575 38.855 78.3973 38.8911C78.3143 38.9407 78.2692 39.0151 78.2621 39.1143C78.2576 39.1744 78.2752 39.2424 78.315 39.3183C78.3413 39.3687 78.3759 39.4315 78.4188 39.5066C78.5687 39.7711 78.5933 40.0558 78.4926 40.3605C78.2574 40.7896 77.9196 40.9732 77.4792 40.9112C77.2958 40.8853 77.1389 40.8201 77.0085 40.7156C76.8714 40.6055 76.7656 40.4644 76.6912 40.2923C76.6337 40.0406 76.6557 39.8014 76.7571 39.5748C76.771 39.5429 76.8071 39.4812 76.8654 39.3899C76.9168 39.3084 76.9473 39.2428 76.9567 39.1932C76.9755 39.0925 76.9476 39.0078 76.8732 38.939C76.7598 38.8338 76.6267 38.8019 76.4742 38.8432C76.2442 38.9052 76.0253 38.9948 75.8175 39.1121C75.674 39.1932 75.5276 39.268 75.3785 39.3364C74.8456 39.4145 74.4793 39.2603 74.2794 38.8736C74.1501 38.6234 74.1268 38.3705 74.2095 38.115C74.2996 37.8354 74.4979 37.637 74.8041 37.5198C74.9386 37.4683 75.0805 37.4548 75.2297 37.4792C75.2988 37.4905 75.4281 37.5402 75.6174 37.6285C75.7677 37.6988 75.9228 37.7557 76.0824 37.7993C76.276 37.8523 76.4372 37.86 76.5661 37.8224C76.7438 37.7702 76.8637 37.6552 76.9257 37.4775C76.9557 37.3907 76.9709 37.2366 76.9713 37.0153C76.9724 36.136 76.9711 35.2569 76.9674 34.378C76.9674 34.3588 76.96 34.3555 76.9454 34.3679C76.0793 35.1029 75.0872 35.4008 73.9693 35.2618C73.299 35.1784 72.6841 34.9099 72.1245 34.4564C71.3941 33.8649 70.9418 33.1049 70.7679 32.1764C70.7547 32.1061 70.7517 32.0355 70.7588 31.9645C70.7972 31.9701 70.861 31.99 70.9505 32.0242C71.3304 32.1712 71.7056 32.201 72.0761 32.1139C72.4421 32.0274 72.7545 31.8503 73.0134 31.5823C73.3012 31.284 73.47 30.9084 73.5196 30.4556C73.5669 30.025 73.4809 29.6366 73.2614 29.2906C72.9604 28.8167 72.5512 28.5317 72.0338 28.4355C71.7012 28.3735 71.3787 28.3927 71.066 28.493C70.7459 28.596 70.4642 28.7769 70.2211 29.0358C69.1968 29.0332 68.1723 29.0324 67.1476 29.0335C66.8019 29.0335 66.6061 29.0386 66.5602 29.0488C66.307 29.1036 66.2091 29.2804 66.2666 29.5791C66.3038 29.7723 66.3226 29.87 66.323 29.8722C66.3523 30.2424 66.2296 30.5251 65.9549 30.7205C65.7835 30.8423 65.5992 30.9052 65.402 30.9093C65.2599 30.912 65.1233 30.8834 64.9922 30.8237C64.8727 30.7696 64.766 30.6854 64.672 30.5712C64.3831 30.2198 64.3613 29.8392 64.6067 29.4292C64.6814 29.3048 64.7218 29.2096 64.7278 29.1434C64.7436 28.9781 64.6722 28.8738 64.5137 28.8306C64.4216 28.8054 64.3109 28.8132 64.1817 28.8537C63.9337 28.9315 63.6535 29.0561 63.3413 29.2274C63.0828 29.3691 62.8291 29.3933 62.5804 29.3001C62.3515 29.2145 62.1747 29.061 62.05 28.8396C61.9215 28.6123 61.8997 28.372 61.9846 28.1187C62.0605 27.8929 62.1986 27.7167 62.3989 27.59C62.7198 27.3871 63.0715 27.3997 63.454 27.6278C63.711 27.7815 63.9654 27.8899 64.2172 27.953C64.363 27.9891 64.4842 27.9837 64.5807 27.9367C64.7183 27.8694 64.7667 27.7569 64.7261 27.5991C64.7171 27.5634 64.6655 27.4662 64.5711 27.3077C64.4051 27.0281 64.3919 26.7356 64.5317 26.4301C64.6324 26.2106 64.7887 26.0567 65.0006 25.9684C65.1979 25.8861 65.4027 25.8683 65.615 25.9149C65.8495 25.9664 66.0357 26.0958 66.1736 26.3032C66.3367 26.5494 66.3793 26.8216 66.3015 27.12C66.261 27.2763 66.2439 27.3826 66.2502 27.439C66.275 27.6566 66.415 27.7653 66.6702 27.7653C66.9614 27.7653 67.2528 27.7653 67.5444 27.7653C68.0716 27.7653 68.3626 27.7629 68.4175 27.758C68.8079 27.7219 69.1637 27.6058 69.485 27.4097C70.1103 27.0272 70.4975 26.4911 70.6467 25.8016C70.6918 25.5931 70.7143 25.219 70.7143 24.6794C70.7143 22.9415 70.7143 21.2036 70.7143 19.4657C70.7143 18.9377 70.7335 18.5631 70.7718 18.3418C70.8924 17.6504 71.1915 17.0375 71.6691 16.5032C72.2966 15.8009 73.0869 15.3887 74.0398 15.2665C74.251 15.2395 74.5422 15.2274 74.9135 15.2305C75.5102 15.2357 76.1067 15.2383 76.703 15.2383C76.8101 15.2383 76.9016 15.2335 76.9775 15.2237C77.0786 15.2102 77.1596 15.1733 77.2204 15.1132C77.329 15.0061 77.3574 14.8705 77.3056 14.7063C77.2439 14.512 77.2263 14.3269 77.2526 14.1511C77.28 13.9662 77.3559 13.8042 77.4803 13.6652C77.6467 13.4785 77.8668 13.3781 78.1403 13.3642C78.3124 13.3552 78.4719 13.3905 78.6188 13.4702C78.753 13.5427 78.8676 13.6502 78.9627 13.7926C79.1923 14.1372 79.1776 14.5075 78.9187 14.9035C78.7748 15.1241 78.7934 15.2911 78.9745 15.4046C79.0436 15.4478 79.1237 15.4659 79.2146 15.4587C79.2992 15.452 79.3822 15.4339 79.4637 15.4046C79.6948 15.3223 79.9008 15.2282 80.0815 15.1222C80.1867 15.0602 80.2927 15.0116 80.3994 14.9763C80.5121 14.9391 80.6262 14.9246 80.7415 14.9329C81.0072 14.952 81.2208 15.0542 81.3824 15.2395C81.5297 15.4089 81.609 15.6137 81.6203 15.8538C81.6334 16.124 81.5451 16.3515 81.3553 16.5364C81.1941 16.6935 81.0034 16.7844 80.7832 16.8092C80.5555 16.8344 80.337 16.7837 80.1277 16.657C80.0281 16.5969 79.9774 16.5663 79.9755 16.5652C79.7903 16.4652 79.597 16.3835 79.3956 16.32C79.3208 16.2963 79.2452 16.2848 79.169 16.2856C79.0901 16.2863 79.0198 16.3083 78.9582 16.3515C78.7876 16.4718 78.7722 16.6326 78.9119 16.834C79.0033 16.9663 79.0654 17.1031 79.0985 17.2444C79.1327 17.3898 79.1303 17.5363 79.0912 17.684C79.0423 17.8689 78.9473 18.0229 78.806 18.1462C78.6748 18.26 78.5178 18.3333 78.3348 18.366C78.0898 18.41 77.8679 18.3649 77.6691 18.2307C77.485 18.1067 77.3585 17.9485 77.2898 17.7561C77.2199 17.56 77.2204 17.3443 77.2915 17.1091C77.3745 16.8325 77.3176 16.6503 77.1207 16.5623C77.0376 16.5251 76.8789 16.5065 76.6444 16.5065C76.0909 16.5065 75.5374 16.5065 74.9839 16.5065C74.4575 16.5065 74.084 16.5338 73.8634 16.5883C73.2208 16.7472 72.7149 17.1228 72.3455 17.715C72.2012 17.9461 72.099 18.199 72.0389 18.4737C71.9825 18.7314 71.9695 18.9997 72 19.2785C72.0789 20.0056 72.4171 20.5883 73.0145 21.0264C73.3411 21.2658 73.7069 21.4165 74.112 21.4785C74.2442 21.4987 74.6194 21.5089 75.2375 21.5089C77.497 21.5089 79.7563 21.5089 82.0154 21.5089C82.0988 21.5089 82.1901 21.5021 82.2893 21.4886C82.4024 21.4728 82.4881 21.4452 82.5463 21.4057C82.6436 21.3396 82.6953 21.2466 82.7013 21.1267C82.7032 21.0903 82.6833 20.9926 82.6416 20.8336C82.5796 20.5977 82.5959 20.3771 82.6906 20.1719C82.7823 19.9731 82.9255 19.8219 83.1201 19.7182C83.308 19.6179 83.5085 19.5887 83.7215 19.6308C83.9132 19.6692 84.0819 19.7603 84.2277 19.9042C84.5151 20.1886 84.5722 20.5413 84.399 20.9622C84.3829 21.0016 84.3428 21.0676 84.279 21.16C84.2211 21.2442 84.1946 21.3182 84.1995 21.3821C84.2115 21.5361 84.2761 21.6378 84.3934 21.687C84.4712 21.7193 84.5769 21.7189 84.7107 21.6859C84.9914 21.6167 85.2543 21.5025 85.4993 21.3432C85.5519 21.3094 85.6283 21.2744 85.7287 21.2383C85.8128 21.2083 85.8946 21.191 85.9738 21.1865C86.3312 21.1662 86.6046 21.2817 86.7939 21.5331C86.9405 21.7278 87.0089 21.9431 86.9991 22.1791C86.9923 22.3504 86.9397 22.5082 86.8413 22.6525C86.75 22.7863 86.629 22.8913 86.4783 22.9676C86.1679 23.125 85.8442 23.1053 85.5071 22.9084C85.3121 22.7946 85.1096 22.6965 84.8995 22.6142C84.7045 22.5379 84.5568 22.5135 84.4565 22.5409C84.2893 22.5871 84.2036 22.6846 84.1995 22.8335C84.1972 22.9203 84.2249 23.008 84.2823 23.0967C84.362 23.2199 84.4077 23.2966 84.4193 23.3266C84.532 23.6194 84.5223 23.8865 84.39 24.1281C84.2532 24.378 84.0443 24.5402 83.7632 24.6146C83.4615 24.6942 83.1759 24.6161 82.9065 24.3801C82.6874 24.1877 82.5888 23.9391 82.6106 23.6344C82.6143 23.578 82.6305 23.4987 82.659 23.3965C82.6921 23.2793 82.7077 23.1996 82.7058 23.1575C82.6998 23.0166 82.6487 22.9127 82.5525 22.8459C82.4901 22.8026 82.3881 22.7805 82.2465 22.7793C81.841 22.7771 81.4354 22.7761 81.0296 22.7765C80.6346 22.7765 80.3447 22.7979 80.1599 22.8408C79.863 22.9095 79.5926 23.0281 79.3488 23.1964C78.8088 23.5684 78.465 24.0599 78.3173 24.6709C78.2651 24.8881 78.239 25.262 78.239 25.7926C78.239 26.6662 78.239 27.5399 78.239 28.4135C78.239 28.4951 78.2288 28.5608 78.2085 28.6108ZM73.2108 23.3457C73.2109 23.2691 73.1959 23.1931 73.1667 23.1222C73.1375 23.0513 73.0946 22.9869 73.0404 22.9325C72.9863 22.8782 72.922 22.8351 72.8512 22.8056C72.7804 22.7762 72.7045 22.7609 72.6278 22.7608L71.9312 22.7596C71.7763 22.7593 71.6277 22.8206 71.518 22.9299C71.4083 23.0392 71.3465 23.1876 71.3462 23.3425L71.3461 23.4225C71.3459 23.4992 71.3609 23.5752 71.3901 23.6461C71.4194 23.717 71.4623 23.7814 71.5164 23.8357C71.5705 23.89 71.6348 23.9332 71.7056 23.9626C71.7764 23.9921 71.8523 24.0073 71.929 24.0075L72.6257 24.0087C72.7805 24.009 72.9292 23.9477 73.0389 23.8384C73.1486 23.7291 73.2103 23.5806 73.2106 23.4258L73.2108 23.3457ZM77.5992 23.3566C77.599 23.277 77.5832 23.1981 77.5526 23.1246C77.522 23.0511 77.4772 22.9843 77.4208 22.9281C77.3644 22.8719 77.2974 22.8273 77.2238 22.797C77.1502 22.7666 77.0713 22.7511 76.9916 22.7512L74.4519 22.7556C74.3722 22.7558 74.2934 22.7716 74.2199 22.8022C74.1463 22.8328 74.0795 22.8776 74.0233 22.934C73.9671 22.9904 73.9226 23.0574 73.8922 23.131C73.8619 23.2046 73.8463 23.2835 73.8464 23.3632L73.8465 23.4083C73.8467 23.4879 73.8625 23.5667 73.8931 23.6403C73.9237 23.7138 73.9685 23.7806 74.0249 23.8368C74.0813 23.893 74.1482 23.9376 74.2219 23.9679C74.2955 23.9983 74.3744 24.0138 74.4541 24.0137L76.9938 24.0093C77.0735 24.0091 77.1523 23.9933 77.2258 23.9627C77.2994 23.9321 77.3661 23.8873 77.4224 23.8309C77.4786 23.7745 77.5231 23.7075 77.5535 23.6339C77.5838 23.5602 77.5994 23.4814 77.5992 23.4017L77.5992 23.3566ZM75.7223 25.2481C75.7223 25.0862 75.658 24.9309 75.5435 24.8165C75.429 24.702 75.2738 24.6377 75.1119 24.6377H71.9588C71.7969 24.6377 71.6417 24.702 71.5272 24.8165C71.4127 24.9309 71.3484 25.0862 71.3484 25.2481V25.2876C71.3484 25.4495 71.4127 25.6047 71.5272 25.7192C71.6417 25.8337 71.7969 25.898 71.9588 25.898H75.1119C75.2738 25.898 75.429 25.8337 75.5435 25.7192C75.658 25.6047 75.7223 25.4495 75.7223 25.2876V25.2481ZM77.6043 25.265C77.6043 25.0982 77.538 24.9382 77.4201 24.8202C77.3021 24.7023 77.1421 24.636 76.9753 24.636C76.8927 24.636 76.8109 24.6523 76.7345 24.6839C76.6582 24.7155 76.5889 24.7618 76.5305 24.8202C76.4721 24.8786 76.4257 24.948 76.3941 25.0243C76.3625 25.1006 76.3462 25.1824 76.3462 25.265C76.3462 25.3476 76.3625 25.4294 76.3941 25.5057C76.4257 25.582 76.4721 25.6514 76.5305 25.7098C76.5889 25.7682 76.6582 25.8145 76.7345 25.8462C76.8109 25.8778 76.8927 25.894 76.9753 25.894C77.1421 25.894 77.3021 25.8278 77.4201 25.7098C77.538 25.5918 77.6043 25.4318 77.6043 25.265ZM77.5992 27.1218C77.5989 26.9593 77.5341 26.8036 77.419 26.6889C77.3039 26.5742 77.1479 26.5099 76.9854 26.5102L73.8347 26.5157C73.7542 26.5158 73.6746 26.5318 73.6003 26.5627C73.526 26.5936 73.4585 26.6389 73.4017 26.6959C73.345 26.7529 73.2999 26.8205 73.2693 26.8949C73.2386 26.9693 73.2229 27.049 73.223 27.1294L73.2231 27.1689C73.2234 27.3314 73.2882 27.4871 73.4033 27.6018C73.5184 27.7165 73.6744 27.7808 73.8369 27.7805L76.9876 27.775C77.0681 27.7748 77.1477 27.7589 77.222 27.7279C77.2963 27.697 77.3638 27.6518 77.4206 27.5948C77.4774 27.5378 77.5224 27.4702 77.553 27.3958C77.5837 27.3214 77.5994 27.2417 77.5992 27.1612L77.5992 27.1218ZM72.5946 27.1465C72.5946 27.0637 72.5783 26.9818 72.5467 26.9053C72.515 26.8289 72.4686 26.7594 72.4101 26.7009C72.3515 26.6424 72.2821 26.5959 72.2056 26.5643C72.1292 26.5326 72.0472 26.5163 71.9645 26.5163C71.7973 26.5163 71.6371 26.5827 71.5189 26.7009C71.4007 26.819 71.3343 26.9793 71.3343 27.1465C71.3343 27.3136 71.4007 27.4739 71.5189 27.592C71.6371 27.7102 71.7973 27.7766 71.9645 27.7766C72.0472 27.7766 72.1292 27.7603 72.2056 27.7286C72.2821 27.697 72.3515 27.6506 72.4101 27.592C72.4686 27.5335 72.515 27.4641 72.5467 27.3876C72.5783 27.3112 72.5946 27.2292 72.5946 27.1465ZM72.7784 33.3533C73.2334 33.7697 73.752 33.9919 74.334 34.0201C74.7169 34.0385 75.0837 33.9743 75.4343 33.8273C75.9276 33.6203 76.3244 33.2731 76.6247 32.7857C76.6547 32.7372 76.6461 32.729 76.5987 32.7609C75.9742 33.1844 75.2763 33.3999 74.5048 33.4074C73.7074 33.4153 72.9843 33.1929 72.3353 32.7401C72.3064 32.7198 72.3002 32.7252 72.3167 32.7564C72.4362 32.9822 72.5901 33.1812 72.7784 33.3533Z" fill="white"/>
<path d="M70.968 31.5864C70.9464 31.5588 70.9306 31.5417 70.9206 31.5351C70.4254 31.2239 70.1902 30.7861 70.2149 30.2217C70.2281 29.922 70.3421 29.6311 70.557 29.3488C70.7428 29.1511 70.958 29.0128 71.2028 28.9342C71.4417 28.8575 71.6883 28.8429 71.9425 28.8902C72.3379 28.9637 72.6507 29.1815 72.8808 29.5435C73.0485 29.8079 73.1143 30.1046 73.0781 30.4336C73.0402 30.7795 72.9112 31.0665 72.6912 31.2944C72.4933 31.4991 72.2545 31.6345 71.9748 31.7005C71.6916 31.7671 71.4048 31.7443 71.1144 31.632C71.0461 31.6059 70.9973 31.5907 70.968 31.5864ZM71.192 30.7944C71.2164 30.8186 71.2264 30.8135 71.2221 30.7794C71.2017 30.6189 71.2306 30.4736 71.3087 30.3436C71.3805 30.2242 71.4835 30.1287 71.6176 30.0572C71.8574 29.9295 72.1067 29.953 72.3655 30.1278C72.3868 30.1422 72.3942 30.137 72.3879 30.1123C72.3414 29.9275 72.2483 29.7864 72.1088 29.689C71.9821 29.6003 71.8299 29.5586 71.6521 29.5637C71.408 29.5712 71.2221 29.6743 71.0946 29.8729C71.0001 30.0205 70.9585 30.1744 70.9697 30.3345C70.982 30.5068 71.0561 30.6601 71.192 30.7944Z" fill="white"/>
<path d="M77.9866 29.0267C78.2725 29.201 78.4777 29.4286 78.6023 29.7094C78.7191 29.9728 78.752 30.2482 78.7009 30.5358C78.634 30.9141 78.4279 31.22 78.0826 31.4535C78.0304 31.4887 77.9983 31.5141 77.9866 31.5299C77.9556 31.535 77.9131 31.5491 77.8591 31.5722C77.6387 31.6668 77.4022 31.6999 77.1496 31.6715C76.6249 31.6126 76.2442 31.3647 76.0077 30.9279C75.8338 30.6065 75.8034 30.2578 75.9164 29.8818C76.0519 29.4325 76.3308 29.1272 76.753 28.9658C77.1586 28.8109 77.5698 28.8312 77.9866 29.0267ZM77.2688 30.0352C77.6253 30.1397 77.8016 30.3941 77.7976 30.7986C77.7976 30.8127 77.8027 30.8151 77.8131 30.8058C77.9741 30.6635 78.0504 30.493 78.0421 30.2941C78.0318 30.0499 77.9396 29.8642 77.7657 29.7369C77.6055 29.6197 77.4207 29.5742 77.2111 29.6004C76.9278 29.6359 76.7321 29.8083 76.6239 30.1175C76.6075 30.164 76.6191 30.1723 76.6587 30.1425C76.744 30.0785 76.843 30.0363 76.9558 30.0157C77.0569 29.9971 77.1612 30.0036 77.2688 30.0352Z" fill="white"/>
<path d="M64.7047 39.3408C64.9854 39.0605 65.3162 38.8587 65.6973 38.7355C66.0366 38.625 66.4076 38.5851 66.8105 38.616C67.6029 38.6757 68.2588 38.9968 68.7781 39.5792C69.0291 39.8607 69.2247 40.1789 69.3649 40.534C69.549 40.9996 69.6324 41.4967 69.6151 42.0254C69.5982 42.5421 69.4833 43.0205 69.2702 43.4605C69.1037 43.8039 68.8852 44.1068 68.6147 44.3691C68.1224 44.8459 67.5259 45.1168 66.8251 45.1819C65.8831 45.269 65.0774 44.9825 64.4082 44.3223C64.3672 44.2817 64.3462 44.2904 64.3451 44.3482C64.3413 44.5004 64.3344 44.6563 64.3242 44.816C64.3182 44.9111 64.2831 44.981 64.2188 45.0257C64.1786 45.0535 64.1093 45.0701 64.0108 45.0753C63.6114 45.0967 63.2813 45.0947 63.0205 45.0691C62.8845 45.0556 62.8163 44.9699 62.8159 44.8121C62.8095 41.7083 62.8082 38.6047 62.812 35.5013C62.812 35.4088 62.8411 35.3374 62.8993 35.2871C62.9403 35.2518 63.0072 35.2326 63.1 35.2296C63.5005 35.2164 63.9015 35.2131 64.3028 35.2194C64.5305 35.2232 64.6442 35.3312 64.6438 35.5435C64.6419 36.7554 64.641 38.0123 64.641 39.3143C64.641 39.3744 64.6622 39.3833 64.7047 39.3408ZM65.1026 43.1702C65.3521 43.3788 65.6353 43.4977 65.952 43.527C66.5585 43.5822 67.0384 43.4028 67.3916 42.9887C67.5483 42.805 67.6599 42.5979 67.7264 42.3676C67.7959 42.126 67.8102 41.8851 67.7692 41.645C67.6663 41.0411 67.3574 40.6276 66.8426 40.4044C66.5795 40.2902 66.3077 40.2425 66.027 40.2612C65.7253 40.2815 65.456 40.3766 65.2193 40.5464C64.9281 40.7557 64.7299 41.0396 64.6246 41.3981C64.5221 41.7483 64.5298 42.1139 64.6478 42.495C64.7304 42.761 64.882 42.9861 65.1026 43.1702Z" fill="white"/>
<path d="M72.5377 35.2202H71.2165C71.0795 35.2202 70.9685 35.3312 70.9685 35.4682V44.8337C70.9685 44.9706 71.0795 45.0817 71.2165 45.0817H72.5377C72.6747 45.0817 72.7857 44.9706 72.7857 44.8337V35.4682C72.7857 35.3312 72.6747 35.2202 72.5377 35.2202Z" fill="white"/>
<path d="M60.1289 37.6536C60.7903 37.6397 61.3156 37.1118 61.3023 36.4744C61.2889 35.837 60.7419 35.3315 60.0806 35.3454C59.4192 35.3593 58.8939 35.8872 58.9073 36.5246C58.9206 37.162 59.4676 37.6674 60.1289 37.6536Z" fill="white"/>
<path d="M39.994 39.7366C40.1052 39.5648 40.2354 39.4106 40.3846 39.2738C40.5263 39.1438 40.6916 39.0303 40.8806 38.9334C41.4243 38.6545 42.0265 38.5533 42.6871 38.6296C43.2342 38.6927 43.7017 38.8806 44.0894 39.1932C44.372 39.4209 44.5994 39.7155 44.7715 40.077C44.9796 40.5133 45.0835 40.9843 45.0832 41.4901C45.0828 42.6031 45.0826 43.7163 45.0826 44.8296C45.0826 44.9044 45.06 44.9634 45.0149 45.0066C44.9826 45.0378 44.9289 45.0562 44.8537 45.0619C44.292 45.1047 43.8245 45.106 43.4514 45.0658C43.3278 45.0523 43.2658 44.9689 43.2654 44.8156C43.265 43.8059 43.2643 42.796 43.2631 41.786C43.2628 41.5466 43.2199 41.3202 43.1346 41.1068C43.046 40.8847 42.918 40.6994 42.7508 40.551C42.4641 40.2974 42.1188 40.1971 41.7148 40.25C41.1181 40.3286 40.72 40.635 40.5205 41.1693C40.4385 41.3895 40.4021 41.6434 40.4111 41.9308C40.4167 42.1101 40.4196 42.2014 40.4196 42.2048C40.4252 43.1028 40.4203 43.9949 40.4049 44.8809C40.4026 45.0008 40.3418 45.0636 40.2223 45.0692C39.7424 45.0921 39.2628 45.0921 38.7833 45.0692C38.6811 45.0643 38.6242 45.0111 38.6125 44.9097C38.599 44.7909 38.5924 44.6656 38.5928 44.5337C38.598 42.7703 38.6007 41.0066 38.6007 39.2428C38.6007 39.032 38.6012 38.9242 38.6024 38.9193C38.6298 38.7784 38.7375 38.7107 38.9253 38.7164C39.1741 38.7243 39.4228 38.7282 39.6716 38.7282C39.752 38.7282 39.8133 38.7568 39.8554 38.8139C39.8813 38.8488 39.8988 38.9076 39.9078 38.9903C39.9348 39.2357 39.9547 39.482 39.9675 39.7292C39.969 39.7589 39.9778 39.7614 39.994 39.7366Z" fill="white"/>
<path d="M48.1781 39.7478C48.2108 39.7144 48.2398 39.6777 48.265 39.6379C48.304 39.5759 48.3296 39.5374 48.3416 39.5223C48.6892 39.0834 49.1294 38.7999 49.6622 38.6718C50.0425 38.5805 50.4421 38.5743 50.8611 38.6532C51.5277 38.7787 52.0761 39.1175 52.5064 39.6694C52.5095 39.6734 52.5134 39.6765 52.5179 39.6786C52.5224 39.6807 52.5273 39.6818 52.5323 39.6817C52.5373 39.6816 52.5421 39.6803 52.5466 39.678C52.551 39.6757 52.5548 39.6724 52.5577 39.6683C53.0589 38.9514 53.7612 38.5989 54.6646 38.6109C55.6585 38.6237 56.4229 39.0115 56.958 39.7743C57.297 40.2575 57.4666 40.8341 57.467 41.5041C57.4681 42.6126 57.4687 43.7211 57.4687 44.8296C57.4687 44.9232 57.4375 44.9899 57.3751 45.0297C57.3402 45.0522 57.2759 45.0663 57.1824 45.072C56.7495 45.0972 56.3168 45.094 55.8843 45.0624C55.8073 45.0568 55.7518 45.0359 55.718 44.9998C55.6741 44.9525 55.6521 44.891 55.6521 44.8155C55.6513 43.834 55.6509 42.8523 55.6509 41.8705C55.6509 41.6105 55.6152 41.3685 55.5438 41.1445C55.4717 40.9175 55.3655 40.7323 55.2254 40.5888C55.0627 40.4219 54.8673 40.3159 54.6392 40.2709C54.372 40.2175 54.1109 40.244 53.8557 40.3503C53.5916 40.4608 53.3879 40.6492 53.2447 40.9157C53.1016 41.1832 53.03 41.4921 53.03 41.8423C53.03 42.7667 53.03 43.691 53.03 44.6154C53.03 44.7905 53.0281 44.8862 53.0244 44.9023C52.9962 45.0207 52.903 45.0806 52.7448 45.0821C52.4216 45.0848 52.0987 45.0894 51.7759 45.0962C51.5899 45.1 51.4501 45.0851 51.3565 45.0517C51.2633 45.0182 51.2166 44.9395 51.2162 44.8155C51.2136 43.8104 51.2122 42.8052 51.2122 41.8C51.2122 41.5265 51.1606 41.2634 51.0572 41.0109C50.9385 40.7205 50.7542 40.5097 50.5043 40.3785C50.268 40.2545 50.0091 40.2162 49.7276 40.2635C49.3725 40.3237 49.0854 40.5175 48.8664 40.8452C48.7326 41.0451 48.651 41.2647 48.6217 41.5041C48.5951 41.7194 48.5823 41.9355 48.5834 42.1523C48.5887 43.0492 48.5913 43.9464 48.5913 44.8437C48.5913 44.9241 48.5627 44.9854 48.5056 45.0274C48.4692 45.0545 48.4102 45.0697 48.3286 45.0731C47.7639 45.0975 47.3113 45.0962 46.9708 45.0692C46.8588 45.0601 46.7957 44.9899 46.7814 44.8584C46.7702 44.7505 46.7647 44.6423 46.7651 44.5337C46.7707 42.7019 46.7735 40.87 46.7735 39.0382C46.7735 38.8157 46.8818 38.7082 47.0982 38.7158C47.3327 38.724 47.5673 38.7261 47.8022 38.722C47.9183 38.7201 48.0017 38.7586 48.0525 38.8375C48.0806 38.8815 48.0977 38.9619 48.1037 39.0787C48.1154 39.2993 48.1325 39.5193 48.155 39.7388C48.1569 39.7583 48.1646 39.7613 48.1781 39.7478Z" fill="white"/>
<path d="M60.7919 38.7281H59.4583C59.3247 38.7281 59.2165 38.8364 59.2165 38.97V44.8397C59.2165 44.9733 59.3247 45.0815 59.4583 45.0815H60.7919C60.9254 45.0815 61.0337 44.9733 61.0337 44.8397V38.97C61.0337 38.8364 60.9254 38.7281 60.7919 38.7281Z" fill="white"/>
<path fill-rule="evenodd" clip-rule="evenodd" d="M78.6907 40.5725C78.7053 40.5486 78.7196 40.5239 78.7336 40.4983L78.746 40.4758L78.7539 40.451C78.8175 40.2745 78.8418 40.0863 78.8251 39.8995C78.8085 39.7127 78.7513 39.5318 78.6576 39.3694C78.6164 39.2966 78.5832 39.2363 78.5584 39.1896C78.5491 39.1728 78.5419 39.155 78.5369 39.1366C78.561 39.1303 78.5861 39.1285 78.6108 39.1315C78.7728 39.1388 78.9294 39.1926 79.0617 39.2865L79.1034 39.3152L79.1519 39.3276C79.2511 39.3561 79.3459 39.398 79.4337 39.4522C79.5949 39.5458 79.7569 39.6067 79.9171 39.6346C80.0981 39.8446 80.2485 40.0817 80.3684 40.3459C80.6307 40.9234 80.7322 41.5267 80.6728 42.1557C80.6653 42.2346 80.6444 42.2925 80.6102 42.3293C80.5625 42.3804 80.5001 42.406 80.4231 42.406H76.0768C76.0732 42.4059 76.0695 42.4068 76.0663 42.4085C76.063 42.4101 76.0602 42.4126 76.0581 42.4156C76.056 42.4186 76.0546 42.422 76.0542 42.4257C76.0537 42.4293 76.0541 42.433 76.0554 42.4364C76.3045 43.103 76.784 43.4985 77.4938 43.6229C78.1676 43.7409 78.7881 43.5994 79.3555 43.1985C79.4946 43.1004 79.6067 43.0998 79.692 43.1968C79.695 43.2005 79.7433 43.2819 79.8369 43.4408C80.0657 43.8313 80.2036 44.084 80.2506 44.1989C80.2968 44.3136 80.2647 44.4109 80.1542 44.4909C79.869 44.698 79.5588 44.8558 79.2236 44.9644C78.6194 45.1605 78 45.2334 77.3653 45.1831C76.7175 45.132 76.1292 44.9204 75.6005 44.5484C74.9862 44.1163 74.5758 43.5575 74.3695 42.8721C74.264 42.5212 74.2172 42.1499 74.2292 41.7584C74.2544 40.9501 74.5349 40.2456 75.0707 39.645C75.1748 39.6476 75.288 39.6409 75.411 39.623L75.451 39.6174L75.4876 39.6005C75.6432 39.5289 75.7982 39.45 75.9476 39.3654C76.1339 39.2602 76.3328 39.1788 76.5394 39.123C76.5614 39.1139 76.5857 39.1117 76.609 39.1166C76.6324 39.1216 76.6537 39.1334 76.6701 39.1507C76.657 39.1843 76.64 39.2162 76.6194 39.2459C76.5714 39.3165 76.5287 39.3906 76.4915 39.4674C76.3653 39.7485 76.3359 40.0635 76.4081 40.3631L76.4137 40.3879L76.4244 40.4121C76.4348 40.4368 76.4459 40.4611 76.4577 40.4851C76.2621 40.6812 76.1312 40.9211 76.065 41.2049C76.0642 41.2083 76.0642 41.2118 76.0649 41.2152C76.0656 41.2186 76.0671 41.2218 76.0691 41.2245C76.0712 41.2272 76.0738 41.2294 76.0768 41.2309C76.0798 41.2323 76.0831 41.2331 76.0864 41.233L78.9306 41.2364C78.9355 41.2364 78.9405 41.2353 78.945 41.2332C78.9495 41.2311 78.9535 41.228 78.9567 41.2242C78.9599 41.2204 78.9623 41.216 78.9636 41.2112C78.9649 41.2064 78.9652 41.2013 78.9644 41.1964C78.9235 40.9639 78.8323 40.7559 78.6907 40.5725Z" fill="white"/>
</svg>
