<svg width="91" height="91" viewBox="0 0 91 91" fill="none" xmlns="http://www.w3.org/2000/svg">
<path fill-rule="evenodd" clip-rule="evenodd" d="M76.566 40.5492C76.6188 40.518 76.6851 40.518 76.7387 40.5492L78.1723 41.3761C78.2259 41.4072 78.2587 41.4643 78.2587 41.526V43.1817C78.2587 43.2434 78.2259 43.3005 78.1723 43.3315L76.7387 44.1585C76.6851 44.1897 76.6188 44.1897 76.566 44.1585L75.1333 43.3315C75.0787 43.3005 75.0452 43.2434 75.0452 43.1817V41.526C75.0452 41.4643 75.0769 41.4072 75.1316 41.3761L76.566 40.5492Z" fill="white"/>
<path d="M45.5525 69.7713C45.295 69.7713 45.0394 69.7038 44.8137 69.5738L42.462 68.1816C42.1108 67.9852 42.2822 67.9157 42.398 67.8757C42.8664 67.7117 42.9614 67.6747 43.4613 67.3908C43.5138 67.3608 43.5826 67.3714 43.6364 67.4031L45.443 68.4752C45.5082 68.5104 45.6008 68.5104 45.6612 68.4752L52.7053 64.4092C52.7706 64.3721 52.8129 64.2963 52.8129 64.2187V56.0902C52.8129 56.0091 52.7706 55.9368 52.7039 55.8963L45.6627 51.8338C45.5974 51.795 45.511 51.795 45.4458 51.8338L38.4059 55.8963C38.3377 55.9351 38.2943 56.0109 38.2943 56.0885V64.217C38.2943 64.2945 38.3366 64.3686 38.4036 64.4056L40.3326 65.52C41.38 66.0437 42.02 65.4265 42.02 64.8059V56.7832C42.02 56.6686 42.1099 56.5804 42.2245 56.5804H43.1167C43.2278 56.5804 43.3195 56.6686 43.3195 56.7832V64.8094C43.3195 66.2059 42.5578 67.0082 41.2336 67.0082C40.8263 67.0082 40.5054 67.0082 39.6097 66.5673L37.7618 65.5024C37.3051 65.2379 37.023 64.7442 37.023 64.217V56.0885C37.023 55.5595 37.3051 55.0658 37.7618 54.8048L44.813 50.7371C45.2591 50.4849 45.8515 50.4849 46.2941 50.7371L53.3364 54.8066C53.7913 55.0693 54.0752 55.5613 54.0752 56.0902V64.2187C54.0752 64.7459 53.7913 65.2379 53.3364 65.5024L46.2941 69.5701C46.0684 69.7006 45.8127 69.7676 45.5518 69.7676" fill="white"/>
<path d="M47.7283 64.1701C44.6462 64.1701 43.9999 62.7553 43.9999 61.5686C43.9999 61.4558 44.0909 61.3658 44.2039 61.3658H45.1138C45.2143 61.3658 45.2989 61.439 45.3148 61.5383C45.4523 62.4654 45.8614 62.933 47.7251 62.933C49.2098 62.933 49.841 62.5976 49.841 61.8103C49.841 61.3572 49.6611 61.0204 47.3548 60.7947C45.4259 60.6043 44.2339 60.1794 44.2339 58.6365C44.2339 57.2154 45.4329 56.369 47.4412 56.369C49.6964 56.369 50.8143 57.1519 50.9553 58.834C50.9606 58.8922 50.9395 58.9486 50.9007 58.9909C50.8619 59.0315 50.8072 59.0562 50.7508 59.0562H49.8357C49.7405 59.0562 49.6576 58.9892 49.6382 58.8975C49.4178 57.9224 48.8853 57.6103 47.4377 57.6103C45.8173 57.6103 45.6286 58.1746 45.6286 58.5977C45.6286 59.1108 45.8508 59.2607 48.0372 59.5499C50.2024 59.8373 51.2304 60.2428 51.2304 61.7645C51.2304 63.2985 49.9503 64.1784 47.7181 64.1784" fill="white"/>
<path fill-rule="evenodd" clip-rule="evenodd" d="M23.7394 37.966C23.7394 37.6416 23.5684 37.3436 23.2884 37.1822L15.82 32.8853C15.694 32.8112 15.5527 32.7724 15.4095 32.7671H15.3323C15.1891 32.7724 15.0479 32.8112 14.9197 32.8853L7.45174 37.1822C7.1735 37.3445 7 37.6424 7 37.9669L7.0164 49.5407C7.0164 49.7012 7.09927 49.851 7.24033 49.9304C7.37786 50.015 7.55066 50.015 7.68819 49.9304L12.128 47.3878C12.4084 47.221 12.5794 46.9262 12.5794 46.6049V41.198C12.5794 40.8753 12.7504 40.5773 13.0299 40.4169L14.9201 39.3283C15.0604 39.2472 15.2145 39.207 15.3715 39.207C15.5259 39.207 15.6835 39.2468 15.82 39.3281L17.7093 40.4164C17.989 40.5768 18.1607 40.8748 18.1607 41.1975V46.6041C18.1607 46.925 18.334 47.2212 18.613 47.3869L23.05 49.9277C23.1893 50.0106 23.3626 50.0106 23.5014 49.9277C23.6382 49.8484 23.7249 49.6985 23.7249 49.5381L23.7394 37.966ZM58.9807 43.992C58.9807 44.0726 58.9378 44.1472 58.8678 44.187L56.3027 45.6657C56.2331 45.7057 56.147 45.7057 56.0775 45.6657L53.512 44.187C53.4415 44.147 53.3992 44.0724 53.3992 43.992V41.0305C53.3992 40.9497 53.4415 40.8753 53.5103 40.8348L56.074 39.3537C56.1445 39.3131 56.2309 39.3131 56.3015 39.3537L58.867 40.8348C58.9375 40.8753 58.9798 40.9497 58.9798 41.0305L58.9807 43.992ZM59.6736 22.0571C59.5336 21.9792 59.3633 21.9813 59.2251 22.0619C59.0875 22.143 59.0026 22.2911 59.0026 22.4515V33.9125C59.0026 34.0254 58.9426 34.1294 58.8449 34.1858C58.7479 34.2422 58.6272 34.2422 58.5293 34.1858L56.6585 33.1083C56.3799 32.9471 56.0368 32.9471 55.7572 33.1083L48.2864 37.4199C48.0072 37.5804 47.835 37.8784 47.835 38.1993V46.825C47.835 47.1477 48.0072 47.4439 48.2864 47.6061L55.7572 51.9207C56.0361 52.0812 56.3796 52.0812 56.6594 51.9207L64.1302 47.6043C64.4088 47.4421 64.5816 47.1459 64.5816 46.8232V25.3259C64.5816 24.9987 64.4035 24.6977 64.1179 24.5378L59.6736 22.0571ZM84.5516 40.9526C84.8291 40.7914 85 40.4938 85 40.1729V38.0824C85 37.7608 84.8289 37.464 84.5509 37.3021L77.1277 32.9928C76.8473 32.8306 76.5035 32.8306 76.2231 32.9928L68.7541 37.3039C68.4737 37.4661 68.3027 37.7623 68.3027 38.085V46.7072C68.3027 47.0316 68.4773 47.3314 68.7576 47.4918L76.1791 51.7218C76.4524 51.8788 76.7874 51.8805 77.0642 51.7271L81.5534 49.2322C81.6944 49.1528 81.7844 49.0029 81.7844 48.8407C81.7844 48.6785 81.698 48.5269 81.5569 48.4475L74.042 44.1347C73.901 44.0553 73.8146 43.9054 73.8146 43.745V41.0402C73.8146 40.8787 73.8992 40.7299 74.0403 40.6495L76.3783 39.3006C76.5176 39.2195 76.6886 39.2195 76.8279 39.3006L79.1677 40.6495C79.307 40.7288 79.3934 40.8787 79.3934 41.0391V43.1656C79.3934 43.326 79.4798 43.4759 79.6191 43.557C79.7584 43.6364 79.9312 43.6364 80.0705 43.5553L84.5516 40.9526Z" fill="white"/>
<path d="M34.903 33.0756C35.4349 32.7685 36.0903 32.7685 36.6222 33.0756L43.3206 36.943C43.8525 37.2501 44.1802 37.8176 44.1802 38.4318V46.1665C44.1802 46.7807 43.8525 47.3482 43.3206 47.6553L36.6222 51.5227C36.0903 51.8298 35.4349 51.8298 34.903 51.5227L28.2046 47.6553C27.6727 47.3482 27.345 46.7807 27.345 46.1665V38.4318C27.345 37.8176 27.6727 37.2501 28.2046 36.943L34.903 33.0756Z" fill="white"/>
</svg>
