<svg width="91" height="91" viewBox="0 0 91 91" fill="none" xmlns="http://www.w3.org/2000/svg">
<path d="M45.4022 18.4262C43.153 18.4367 41.0051 18.6285 39.1152 18.9629C33.5477 19.9465 32.5369 22.0053 32.5369 25.802V30.8162H45.6936V32.4876H32.5369H27.5993C23.7756 32.4876 20.4274 34.7859 19.3802 39.158C18.1722 44.1694 18.1186 47.2966 19.3802 52.5293C20.3154 56.4244 22.5488 59.1997 26.3725 59.1997H30.8961V53.1887C30.8961 48.8461 34.6534 45.0156 39.1152 45.0156H52.2566C55.9147 45.0156 58.8349 42.0037 58.8349 38.3299V25.802C58.8349 22.2364 55.827 19.558 52.2566 18.9629C49.9964 18.5867 47.6514 18.4158 45.4022 18.4262ZM38.2872 22.4591C39.6462 22.4591 40.756 23.587 40.756 24.9739C40.756 26.3559 39.6462 27.4734 38.2872 27.4734C36.9233 27.4734 35.8184 26.3559 35.8184 24.9739C35.8184 23.587 36.9233 22.4591 38.2872 22.4591Z" fill="white" fill-opacity="0.6"/>
<path d="M60.4755 32.4878V38.3301C60.4755 42.8596 56.6354 46.6719 52.2564 46.6719H39.1151C35.5155 46.6719 32.5367 49.7527 32.5367 53.3575V65.8855C32.5367 69.4511 35.6372 71.5483 39.1151 72.5712C43.2798 73.7958 47.2735 74.0171 52.2564 72.5712C55.5687 71.6122 58.8348 69.6822 58.8348 65.8855V60.8713H45.6934V59.1999H58.8348H65.4131C69.2368 59.1999 70.6617 56.5327 71.9915 52.5295C73.3651 48.4082 73.3066 44.445 71.9915 39.1581C71.0465 35.3516 69.2417 32.4878 65.4131 32.4878H60.4755ZM53.0845 64.2141C54.4484 64.2141 55.5533 65.3316 55.5533 66.7136C55.5533 68.1005 54.4484 69.2284 53.0845 69.2284C51.7255 69.2284 50.6157 68.1005 50.6157 66.7136C50.6157 65.3316 51.7255 64.2141 53.0845 64.2141Z" fill="white"/>
</svg>
