<svg width="128" height="56" viewBox="0 0 128 56" fill="none" xmlns="http://www.w3.org/2000/svg">
<g clip-path="url(#clip0_3134_2172)">
<path d="M48.3795 31.7037H46.0625C46.0322 31.6592 45.9991 31.6337 46 31.6091C46.018 29.8303 45.965 28.0459 46.0804 26.2729C46.2025 24.4024 47.5659 23.0721 49.4818 22.7655C49.9908 22.6851 50.5083 22.6634 51.0637 22.6094V25.0694C50.8745 25.0694 50.6853 25.0694 50.5046 25.0694C48.9094 25.0921 48.3918 25.6106 48.3814 27.2181C48.3739 28.5266 48.3814 29.8351 48.3814 31.1426L48.3795 31.7037Z" fill="white"/>
<path d="M73.8371 22.6454C73.8939 22.8403 73.9223 22.9604 73.963 23.0768C74.9482 25.8975 75.9335 28.7177 76.9187 31.5371C77.2546 32.4994 76.8856 33.0207 75.8619 33.0509C75.6178 33.0576 75.3727 33.0509 75.1296 33.0509V35.0038C75.8287 34.9716 76.4977 34.9565 77.1647 34.9092C77.9292 34.8524 78.4335 34.4001 78.7731 33.7482C78.933 33.4414 79.0702 33.1233 79.1837 32.7964C79.9482 30.5497 80.707 28.3004 81.4601 26.0486C81.8386 24.9341 82.217 23.8205 82.6069 22.6558C81.9862 22.6558 81.4232 22.6473 80.8603 22.6558C80.3588 22.6652 80.039 22.9226 79.9019 23.408C79.7221 24.0438 79.5376 24.6777 79.354 25.3125C79.0068 26.5141 78.6586 27.7148 78.2821 29.0157C78.2083 28.7754 78.1648 28.642 78.126 28.5067C77.6018 26.6759 77.0729 24.847 76.5327 23.0238C76.4892 22.8781 76.3293 22.6643 76.2157 22.6596C75.4475 22.6264 74.6764 22.6454 73.8371 22.6454ZM68.7734 25.4005C68.7734 24.5197 68.3628 23.671 67.7251 23.197C66.3939 22.2064 63.7428 22.1628 62.3927 23.1374C61.5412 23.7514 61.2025 24.6256 61.298 25.6569C61.3851 26.5841 61.9452 27.1755 62.7702 27.5198C63.2651 27.7198 63.7704 27.8929 64.284 28.0383C64.9019 28.22 65.5367 28.3449 66.1479 28.5426C66.4639 28.6448 66.7515 28.8511 66.7156 29.2607C66.6844 29.6477 66.41 29.8237 66.0826 29.9429C64.8697 30.3866 63.8885 29.958 63.3237 28.7441H61.1192C60.9972 30.0299 61.6538 31.0906 62.8525 31.5513C63.8346 31.9298 64.8564 31.9298 65.8802 31.8352C66.6588 31.767 67.4072 31.592 68.0468 31.1133C68.9106 30.4661 69.1945 29.5597 69.1122 28.5275C69.0336 27.5492 68.4309 26.9616 67.5501 26.6447C67.0042 26.4488 66.4393 26.3079 65.883 26.1394C65.2671 25.9502 64.6398 25.7922 64.0447 25.5528C63.8649 25.4809 63.6662 25.1744 63.6766 24.9852C63.687 24.7959 63.8942 24.5244 64.0844 24.4279C64.865 24.0352 65.8603 24.2935 66.4422 24.9464C66.6115 25.1356 66.8556 25.3485 67.0855 25.374C67.6447 25.4393 68.2124 25.3977 68.7734 25.3977V25.4005ZM70.3279 20.0142V31.6999H72.6696C72.681 31.5371 72.698 31.399 72.698 31.2609C72.698 27.9544 72.698 24.6483 72.698 21.3425C72.6991 21.2007 72.6893 21.059 72.6687 20.9187C72.5939 20.4456 72.2363 20.0605 71.7679 20.0227C71.2996 19.9848 70.8303 20.0113 70.3279 20.0113V20.0142ZM48.3776 31.7065V31.1464C48.3776 29.8388 48.372 28.5303 48.3776 27.2218C48.388 25.6134 48.9056 25.0959 50.5008 25.0731C50.6853 25.0731 50.8688 25.0731 51.0599 25.0731V22.6132C50.5045 22.6671 49.987 22.6889 49.478 22.7693C47.5621 23.0759 46.1987 24.4061 46.0766 26.2766C45.9612 28.0497 46.0142 29.8341 45.9962 31.6128C45.9962 31.6384 46.0284 31.6639 46.0587 31.7074L48.3776 31.7065Z" fill="white"/>
<path d="M73.8372 22.6454C74.6764 22.6454 75.4456 22.6293 76.2157 22.6615C76.3293 22.6662 76.4892 22.88 76.5327 23.0257C77.0729 24.8499 77.5971 26.6787 78.125 28.5067C78.1638 28.642 78.2073 28.7754 78.2811 29.0157C78.6596 27.7148 79.0059 26.5141 79.3531 25.3125C79.5367 24.6777 79.7212 24.0438 79.9009 23.408C80.0381 22.9226 80.3579 22.6652 80.8594 22.6558C81.427 22.6454 81.9853 22.6558 82.6059 22.6558C82.2123 23.8205 81.8348 24.9341 81.4592 26.0486C80.7023 28.2985 79.9435 30.5478 79.1828 32.7964C79.0693 33.1233 78.932 33.4414 78.7722 33.7483C78.4335 34.4001 77.9292 34.8524 77.1638 34.9092C76.5015 34.9584 75.8278 34.9735 75.1286 35.0038V33.0528C75.3718 33.0528 75.6168 33.0585 75.8609 33.0528C76.8846 33.0235 77.2536 32.5022 76.9178 31.539C75.9357 28.7177 74.9504 25.8976 73.962 23.0787C73.9223 22.9576 73.8939 22.8346 73.8372 22.6454Z" fill="white"/>
<path d="M68.7734 25.3977C68.2124 25.3977 67.6447 25.4393 67.0893 25.3778C66.8594 25.3523 66.6162 25.1394 66.4459 24.9502C65.8641 24.2973 64.8687 24.039 64.0882 24.4317C63.8989 24.5263 63.6898 24.7931 63.6804 24.989C63.6709 25.1848 63.8696 25.4809 64.0484 25.5566C64.6435 25.796 65.2708 25.9559 65.8868 26.1432C66.4431 26.3117 67.0079 26.4526 67.5539 26.6485C68.4347 26.9654 69.0374 27.553 69.1159 28.5313C69.1982 29.5635 68.9144 30.4699 68.0506 31.1171C67.411 31.5958 66.6626 31.7708 65.8839 31.839C64.8564 31.9336 63.8346 31.9279 62.8563 31.5551C61.6576 31.0944 61.0009 30.0337 61.123 28.7479H63.3303C63.898 29.9618 64.8763 30.3904 66.0892 29.9467C66.4166 29.8275 66.691 29.6515 66.7222 29.2645C66.7563 28.8549 66.4686 28.6486 66.1545 28.5464C65.5433 28.3487 64.9085 28.2238 64.2906 28.0421C63.7771 27.8967 63.2717 27.7236 62.7768 27.5236C61.9518 27.1793 61.3917 26.5879 61.3046 25.6607C61.21 24.6294 61.5487 23.7552 62.3993 23.1412C63.7495 22.1666 66.4005 22.2102 67.7317 23.2008C68.3628 23.6682 68.7734 24.5168 68.7734 25.3977Z" fill="white"/>
<path d="M70.3279 20.0114C70.8303 20.0114 71.3024 19.9821 71.7679 20.0199C72.2334 20.0577 72.5939 20.4447 72.6686 20.9159C72.6893 21.0562 72.6991 21.1979 72.6979 21.3398C72.6979 24.6455 72.6979 27.9517 72.6979 31.2581C72.6979 31.3962 72.6809 31.5343 72.6696 31.6971H70.3279V20.0114Z" fill="white"/>
<path d="M60.1627 27.7829C60.1627 27.3098 60.1854 26.8689 60.1627 26.4346C60.0113 23.9274 58.5543 22.5176 56.0442 22.4467C53.921 22.3871 52.4261 23.5026 52.0259 25.5907C51.8721 26.4563 51.8437 27.3396 51.9417 28.2134C52.1007 29.7877 52.8292 31.0745 54.4017 31.6081C56.03 32.1597 57.6119 31.996 58.9687 30.8228C59.5363 30.3317 59.8807 29.6941 60.0406 28.9173C59.4975 28.9173 59.0103 28.9296 58.5268 28.9173C58.3231 28.9016 58.1186 28.935 57.9306 29.0149C57.7425 29.0948 57.5765 29.2187 57.4463 29.3762C56.9666 29.9249 55.9429 30.0678 55.2589 29.7291C54.6183 29.4112 54.2266 28.5937 54.3534 27.7866L60.1627 27.7829ZM54.3042 26.2331C54.2777 25.6096 54.4736 25.0854 54.9807 24.7316C55.5862 24.3087 56.2608 24.3001 56.9042 24.6285C57.5476 24.9568 57.68 25.5594 57.7235 26.2369L54.3042 26.2331Z" fill="white"/>
</g>
<defs>
<clipPath id="clip0_3134_2172">
<rect width="36.6059" height="15" fill="white" transform="translate(46 20)"/>
</clipPath>
</defs>
</svg>
