<svg width="128" height="56" viewBox="0 0 128 56" fill="none" xmlns="http://www.w3.org/2000/svg">
<g clip-path="url(#clip0_4329_515)">
<path d="M26 32.0305C26.6734 32.4804 27.624 32.7318 28.7726 32.7318C30.7399 32.7318 32.0602 31.7791 32.0734 30.0325C32.0866 28.6564 31.466 27.7302 29.8289 27.2274L28.7858 26.8833C27.9276 26.6055 27.5579 26.2482 27.5579 25.5602C27.5579 24.8589 28.2709 24.4752 29.2215 24.4752C29.9741 24.4752 30.8455 24.7001 31.4528 25.0574V23.4828C31.0303 23.2578 30.2778 23.0197 29.2083 23.0197C27.3203 23.0197 26 23.9856 26 25.6528C26 26.923 26.6601 27.8625 28.1653 28.3256L29.3007 28.7093C30.1721 28.9872 30.5286 29.4768 30.5286 30.1119C30.5286 30.8264 29.8949 31.2763 28.8386 31.2763C27.822 31.2763 26.6073 30.8926 26 30.3104V32.0305Z" fill="white"/>
<path d="M33.746 32.573H39.5817V31.091H35.2907V23.1784H33.746V32.573Z" fill="white"/>
<path d="M40.9922 32.573H42.5369V23.1784H40.9922V32.573Z" fill="white"/>
<path d="M48.1617 23.1784H44.8344V32.573H46.3792V28.921H48.1617C50.0629 28.921 51.2776 27.6508 51.2776 26.0497C51.2776 24.4487 50.0629 23.1784 48.1617 23.1784ZM48.1485 27.4655H46.3792V24.6339H48.1485C49.2047 24.6339 49.7591 25.269 49.7591 26.0497C49.7591 26.8304 49.2047 27.4655 48.1485 27.4655Z" fill="white"/>
<path d="M52.3801 32.0305C53.0535 32.4804 54.004 32.7318 55.1527 32.7318C57.12 32.7318 58.4403 31.7791 58.4535 30.0325C58.4667 28.6564 57.8462 27.7302 56.2089 27.2274L55.1659 26.8833C54.3078 26.6055 53.9381 26.2482 53.9381 25.5602C53.9381 24.8589 54.651 24.4752 55.6016 24.4752C56.3542 24.4752 57.2255 24.7001 57.833 25.0574V23.4828C57.4105 23.2578 56.6579 23.0197 55.5884 23.0197C53.7005 23.0197 52.3801 23.9856 52.3801 25.6528C52.3801 26.923 53.0403 27.8625 54.5454 28.3256L55.6808 28.7093C56.5523 28.9872 56.9088 29.4768 56.9088 30.1119C56.9088 30.8264 56.275 31.2763 55.2188 31.2763C54.2022 31.2763 52.9874 30.8926 52.3801 30.3104V32.0305Z" fill="white"/>
<path d="M61.8579 32.573H63.4027V24.6604H66.1357V23.1784H59.1381V24.6604H61.8579V32.573Z" fill="white"/>
<path d="M67.527 32.573H69.0718V28.4447L73.1252 32.573H75.0658L71.0258 28.4447C72.5177 28.2594 73.4948 27.267 73.4816 25.8512C73.4684 24.3031 72.3857 23.1784 70.643 23.1784H67.527V32.573ZM69.0718 27.095V24.6074H70.4581C71.3691 24.6074 71.9369 25.0441 71.9369 25.8512C71.9369 26.6451 71.3691 27.095 70.4581 27.095H69.0718Z" fill="white"/>
<path d="M75.8949 32.573H81.5325V31.091H77.4396V28.5505H80.3179V27.0686H77.4396V24.6604H81.5325V23.1784H75.8949V32.573Z" fill="white"/>
<path d="M92.592 32.573H94.1369V26.7907L97.2131 30.1516L100.276 26.7907V32.573H101.821V23.0197L97.2131 28.0081L92.592 23.0197V32.573Z" fill="white"/>
<path d="M89.1621 30.468L90.1896 32.5534H91.8003L90.7715 30.468H89.1621Z" fill="white"/>
<path d="M90.0543 29.0145L87.087 23L82.3867 32.5534H83.9975L85.0405 30.4363L87.087 26.2286L88.4506 29.0145H90.0543Z" fill="white"/>
</g>
<defs>
<clipPath id="clip0_4329_515">
<rect width="75.8209" height="9.7318" fill="white" transform="translate(26 23)"/>
</clipPath>
</defs>
</svg>
