<svg width="48" height="48" viewBox="0 0 48 48" fill="none" xmlns="http://www.w3.org/2000/svg">
<path d="M31.9795 9.56072C29.2021 8.04437 26.0643 7.35376 22.9115 7.54894C19.7587 7.75912 16.726 8.85509 14.1738 10.7167C11.5765 12.5934 9.57969 15.1757 8.42367 18.1633C7.82314 19.7097 7.4478 21.3311 7.3277 22.9826H11.4714C11.7566 19.9049 13.1679 17.0373 15.4349 14.9355C17.7019 12.8336 20.6595 11.6325 23.7522 11.5875C26.92 11.5275 29.9978 12.6685 32.3699 14.7853C34.7269 16.9022 36.2133 19.8298 36.5135 22.9826H40.6422C40.3719 18.4636 37.8347 12.7736 31.9795 9.56072ZM25.1635 20.1C24.8932 20.4303 24.5329 20.6555 24.1125 20.7756C23.7072 20.8957 23.2718 20.8807 22.8664 20.7306C22.5662 20.6555 22.2959 20.5054 22.0707 20.2802C21.8455 20.07 21.6804 19.7998 21.5903 19.5145C21.5002 19.2293 21.4852 18.914 21.5453 18.6137C21.6053 18.3135 21.7405 18.0282 21.9356 17.803C22.2959 17.4127 22.7914 17.1574 23.3319 17.1124C23.8723 17.0674 24.3978 17.2175 24.8182 17.5478C24.9533 17.6529 25.0734 17.773 25.1935 17.8931C25.3436 17.788 25.4938 17.6679 25.6739 17.5478C25.4788 17.2625 25.2235 17.0223 24.9233 16.8572C24.3678 16.5569 23.7372 16.4368 23.1067 16.5269C22.7764 16.5569 22.4461 16.662 22.1458 16.8121C21.8455 16.9773 21.5903 17.1875 21.3801 17.4427C21.1699 17.6979 21.0198 17.9832 20.9297 18.2984C20.8397 18.6137 20.8246 18.944 20.8697 19.2593C20.9147 19.6647 21.0649 20.07 21.3051 20.4003C21.5453 20.7306 21.8756 21.0008 22.2509 21.166C22.7013 21.3762 23.2118 21.4512 23.7072 21.4062C24.3077 21.3912 24.8932 21.151 25.3586 20.7606C25.4788 20.6555 25.5688 20.5354 25.6889 20.4303L25.1785 20.07C25.1785 20.07 25.1785 20.085 25.1635 20.1ZM28.9618 21.3311H29.6825L30.4331 19.8298H32.4299L33.1956 21.3311H33.9012C33.0755 19.6647 32.2648 18.0132 31.439 16.3617C30.6133 18.0132 29.7876 19.6647 28.9618 21.3311ZM30.7484 19.2143C30.9736 18.7488 31.2138 18.2984 31.439 17.833C31.6792 18.2984 31.9044 18.7639 32.1296 19.2143H30.7484ZM14.1287 21.3311H14.8494C15.1046 20.8357 15.3598 20.3252 15.6 19.8298H17.5968C17.852 20.3252 18.1072 20.8357 18.3625 21.3311H19.0681L16.6059 16.3467C15.7802 18.0132 14.9544 19.6647 14.1287 21.3311ZM15.9003 19.2143C16.1255 18.7488 16.3657 18.2984 16.6059 17.818C16.8461 18.2984 17.0713 18.7488 17.2965 19.2143H15.9003ZM29.5474 18.5837C29.6525 18.4186 29.7275 18.2234 29.7425 18.0282C29.7575 17.833 29.7275 17.6229 29.6524 17.4427C29.5774 17.2625 29.4573 17.0974 29.3071 16.9623C29.157 16.8271 28.9769 16.7371 28.7817 16.692C28.5565 16.632 28.3163 16.6019 28.0761 16.617C27.5956 16.6019 27.1152 16.617 26.6198 16.617C26.5897 16.617 26.5597 16.617 26.5447 16.617V21.3311H27.1753V19.2143C27.3404 19.2143 27.4905 19.2143 27.6407 19.2143C27.9409 19.1992 28.2562 19.1992 28.5565 19.1692C28.7517 19.1542 28.9468 19.0942 29.127 19.0041C29.2921 18.884 29.4423 18.7488 29.5474 18.5837ZM29.0369 18.1333C28.9919 18.2684 28.9018 18.3735 28.7817 18.4486C28.6616 18.5236 28.5265 18.5687 28.3913 18.5687C28.001 18.5837 27.5956 18.5687 27.1903 18.5687V17.1875C27.6106 17.2025 28.016 17.2025 28.4214 17.2175C28.5265 17.2175 28.6315 17.2475 28.7216 17.2926C28.8117 17.3376 28.9018 17.4127 28.9618 17.5027C29.0219 17.5928 29.0519 17.6979 29.0669 17.803C29.0819 17.9231 29.0669 18.0432 29.0369 18.1333ZM19.4434 21.3161H20.089V16.6019H19.4434V21.3161Z" fill="#9F9F9F"/>
<path d="M24.2027 36.7775C21.5303 36.8525 18.888 36.0418 16.7261 34.4804C13.8736 32.4386 12.162 29.6762 11.5465 26.2231H7.3728C8.24357 34.4504 15.5851 41.5517 25.0134 40.9662C33.7061 40.4407 39.8465 33.4746 40.5522 26.2231H36.3785C35.9131 29.1357 34.4267 31.7781 32.2048 33.6998C29.9828 35.6365 27.1453 36.7174 24.2027 36.7775ZM22.6263 32.1684C22.9566 32.3035 23.3169 32.3786 23.6772 32.3636C24.0375 32.3636 24.3979 32.2735 24.7282 32.1234C25.0284 32.0033 25.2987 31.7931 25.5239 31.5529C25.734 31.2976 25.8992 30.9974 25.9743 30.6821C26.1094 30.1716 26.1094 29.6462 25.9442 29.1357C25.8692 28.8655 25.734 28.6103 25.5539 28.3851C25.3737 28.1599 25.1485 27.9797 24.8933 27.8596C24.518 27.6644 24.0976 27.5743 23.6772 27.5894C23.5871 27.5894 23.4971 27.5894 23.407 27.5894C23.3469 27.5894 23.3019 27.6044 23.2418 27.6044C22.8965 27.6344 22.5512 27.7695 22.251 27.9647C21.9507 28.1599 21.7105 28.4301 21.5453 28.7304C21.3051 29.1657 21.215 29.6612 21.2451 30.1416C21.3051 31.0874 21.7405 31.7931 22.6263 32.1684ZM23.0317 28.4301C23.3319 28.31 23.6772 28.28 23.9925 28.34C24.3078 28.4151 24.608 28.5802 24.8182 28.8355C25.0885 29.1958 25.2236 29.6312 25.1936 30.0816C25.1635 30.532 24.9684 30.9523 24.6381 31.2676C23.9325 31.8982 22.4461 31.763 22.1309 30.4118C22.1008 30.2767 22.0858 30.1416 22.0858 30.0816C22.0558 29.3159 22.4161 28.6853 23.0317 28.4301ZM19.0832 31.6129C18.903 31.6129 18.7078 31.5829 18.5427 31.4928C18.3775 31.4027 18.2424 31.2826 18.1373 31.1325C17.9422 31.3427 17.747 31.5529 17.5518 31.763C17.7019 31.9432 17.8971 32.0783 18.1073 32.1684C18.5277 32.3486 18.9781 32.3936 19.4285 32.3185C20.1641 32.1984 20.6445 31.718 20.6896 31.0124C20.7196 30.7722 20.6746 30.5169 20.5545 30.3068C20.4344 30.0966 20.2542 29.9164 20.029 29.8113C19.8338 29.7212 19.6236 29.6462 19.4285 29.5711C19.2033 29.496 18.9781 29.3909 18.7529 29.2859C18.6478 29.2258 18.5727 29.1357 18.5427 29.0306C18.5127 28.9255 18.5127 28.8054 18.5577 28.7003C18.5877 28.6253 18.6328 28.5502 18.6928 28.4901C18.7529 28.4301 18.8279 28.4001 18.903 28.37C19.0982 28.295 19.3234 28.28 19.5336 28.34C19.7437 28.4001 19.9239 28.5052 20.059 28.6703C20.2542 28.4601 20.4494 28.265 20.6445 28.0548C20.5995 28.0097 20.5695 27.9797 20.5244 27.9647C20.1641 27.7095 19.7287 27.5743 19.2933 27.5894C18.918 27.5894 18.5427 27.6944 18.2124 27.8896C17.4767 28.34 17.4017 29.6462 18.3325 30.0665C18.5577 30.1716 18.7979 30.2317 19.0231 30.3218C19.2183 30.3968 19.4135 30.4869 19.5936 30.592C19.6537 30.6371 19.7137 30.6971 19.7437 30.7722C19.7888 30.8472 19.8038 30.9223 19.8038 30.9974C19.8038 31.0724 19.7888 31.1625 19.7588 31.2376C19.7287 31.3126 19.6687 31.3727 19.6086 31.4328C19.5035 31.5529 19.2933 31.6129 19.0832 31.6129ZM27.1453 31.6429C27.896 32.3786 28.7817 32.5137 29.7576 32.2134C30.1179 32.0933 30.4182 31.8531 30.6284 31.5529L29.9528 31.0724C29.9228 31.1025 29.9077 31.1175 29.8927 31.1475C29.2321 31.9432 28.1812 31.6429 27.7458 31.0874C27.5957 30.8923 27.4906 30.6671 27.4305 30.4118C27.3705 30.1716 27.3555 29.9164 27.4005 29.6612C27.4456 29.2859 27.6257 28.9405 27.911 28.6853C28.3614 28.28 29.2622 28.0848 29.8477 28.7304C29.8627 28.7454 29.8777 28.7604 29.8927 28.7604L30.5233 28.295C30.3581 28.0848 30.148 27.9196 29.9077 27.7995C29.4724 27.5894 28.9769 27.5293 28.5115 27.6044C28.2112 27.6344 27.926 27.7395 27.6708 27.8896C27.4155 28.0398 27.1903 28.2349 27.0102 28.4751C26.6649 28.9556 26.4997 29.5411 26.5448 30.1266C26.5297 30.6971 26.7549 31.2376 27.1453 31.6429ZM25.4488 33.3244C25.3437 33.4145 25.2836 33.5496 25.2686 33.6847C25.2536 33.8199 25.2836 33.955 25.3737 34.0751C25.4188 34.1351 25.4788 34.1802 25.5539 34.2252C25.629 34.2552 25.704 34.2853 25.7791 34.2853C25.8542 34.3003 25.9292 34.2853 26.0043 34.2553C26.0794 34.2252 26.1394 34.1802 26.1844 34.1201C26.1995 34.3904 26.1544 34.5405 26.0043 34.6006C25.8992 34.6456 25.7941 34.6606 25.689 34.6306C25.5839 34.6006 25.4788 34.5405 25.4188 34.4654C25.3737 34.5105 25.3287 34.5555 25.2987 34.6156C25.3887 34.7056 25.4938 34.7657 25.6139 34.7957C25.734 34.8258 25.8542 34.8258 25.9743 34.7957C26.0643 34.7807 26.1544 34.7357 26.2145 34.6756C26.2895 34.6156 26.3346 34.5255 26.3496 34.4354C26.3646 34.3603 26.3796 34.2853 26.3796 34.2102C26.3796 33.9099 26.3796 33.6247 26.3796 33.3244C26.3796 33.2944 26.3796 33.2644 26.3796 33.2494H26.2145C26.2145 33.2944 26.2145 33.3394 26.1995 33.3995C26.1094 33.2944 25.9893 33.2343 25.8391 33.2193C25.689 33.2043 25.5539 33.2494 25.4488 33.3244ZM26.1844 33.7448C26.1844 33.7898 26.1844 33.8499 26.1544 33.8949C26.1394 33.94 26.1094 33.985 26.0794 34.015C26.0493 34.0451 26.0043 34.0751 25.9592 34.1051C25.9142 34.1201 25.8692 34.1351 25.8091 34.1351C25.719 34.1351 25.629 34.0901 25.5539 34.0301C25.4938 33.955 25.4488 33.8649 25.4488 33.7748C25.4488 33.7298 25.4488 33.6847 25.4638 33.6397C25.4788 33.5947 25.5088 33.5496 25.5389 33.5196C25.5689 33.4896 25.6139 33.4595 25.659 33.4445C25.704 33.4295 25.7491 33.4145 25.7941 33.4145C25.8391 33.4145 25.8842 33.4295 25.9292 33.4445C25.9743 33.4595 26.0193 33.4896 26.0493 33.5196C26.0794 33.5496 26.1094 33.5947 26.1244 33.6397C26.1694 33.6397 26.1844 33.6847 26.1844 33.7448ZM20.4494 33.2343H20.2842V34.7657H20.4494V34.1201C20.7196 34.3453 20.9898 34.3603 21.2 34.1652C21.2901 34.0751 21.3502 33.94 21.3652 33.8049C21.3802 33.6697 21.3352 33.5346 21.2601 33.4295C21.185 33.3244 21.0799 33.2644 20.9598 33.2343C20.8697 33.2043 20.7797 33.2193 20.6896 33.2343C20.5995 33.2494 20.5244 33.3094 20.4494 33.3845C20.4494 33.3244 20.4494 33.2794 20.4494 33.2343ZM20.8247 33.3695C20.8697 33.3695 20.9298 33.3845 20.9748 33.3995C21.0199 33.4145 21.0649 33.4445 21.0949 33.4896C21.125 33.5196 21.155 33.5646 21.17 33.6097C21.185 33.6547 21.2 33.6998 21.185 33.7598C21.185 33.8048 21.185 33.8499 21.17 33.8949C21.155 33.94 21.125 33.985 21.0949 34.015C21.0649 34.0451 21.0199 34.0751 20.9748 34.1051C20.9298 34.1201 20.8848 34.1351 20.8397 34.1351C20.7947 34.1351 20.7346 34.1201 20.6896 34.1051C20.6445 34.0901 20.5995 34.0601 20.5695 34.0301C20.5395 34 20.5094 33.955 20.4944 33.9099C20.4794 33.8649 20.4644 33.8199 20.4644 33.7598C20.4644 33.7148 20.4644 33.6547 20.4944 33.6097C20.5094 33.5646 20.5395 33.5196 20.5695 33.4896C20.5995 33.4595 20.6445 33.4295 20.6896 33.3995C20.7196 33.3845 20.7646 33.3695 20.8247 33.3695ZM23.2569 33.7448C23.2569 33.8199 23.2719 33.8949 23.2869 33.955C23.3169 34.0301 23.3619 34.0901 23.407 34.1351C23.467 34.1802 23.5271 34.2252 23.5871 34.2553C23.6622 34.2853 23.7223 34.2853 23.7973 34.2853C23.8724 34.2853 23.9475 34.2853 24.0075 34.2553C24.0826 34.2252 24.1426 34.1952 24.1877 34.1351C24.2327 34.0751 24.2778 34.0301 24.3078 33.955C24.3378 33.8799 24.3528 33.8199 24.3378 33.7448C24.3378 33.6697 24.3378 33.5947 24.3078 33.5346C24.2778 33.4595 24.2477 33.3995 24.1877 33.3545C24.1426 33.3094 24.0676 33.2644 24.0075 33.2343C23.9325 33.2043 23.8724 33.2043 23.7973 33.2043C23.7223 33.2043 23.6472 33.2043 23.5871 33.2343C23.5121 33.2644 23.452 33.2944 23.407 33.3545C23.3469 33.3995 23.3169 33.4595 23.2869 33.5346C23.2719 33.5947 23.2569 33.6697 23.2569 33.7448ZM24.1727 33.7448C24.1727 33.7898 24.1727 33.8499 24.1577 33.8949C24.1426 33.94 24.1126 33.985 24.0826 34.015C24.0526 34.0451 24.0075 34.0751 23.9625 34.1051C23.9174 34.1201 23.8724 34.1351 23.8123 34.1351C23.7673 34.1351 23.7223 34.1201 23.6772 34.1051C23.6322 34.0901 23.5871 34.0601 23.5571 34.0301C23.5271 34 23.4971 33.955 23.4821 33.9099C23.467 33.8649 23.452 33.8199 23.452 33.7748C23.452 33.7298 23.452 33.6697 23.467 33.6247C23.4821 33.5797 23.5121 33.5346 23.5421 33.5046C23.5721 33.4746 23.6172 33.4445 23.6622 33.4145C23.7073 33.3995 23.7523 33.3845 23.8123 33.3845C23.8574 33.3845 23.9174 33.3995 23.9625 33.4145C24.0075 33.4295 24.0526 33.4595 24.0826 33.5046C24.1126 33.5346 24.1426 33.5797 24.1577 33.6247C24.1727 33.6547 24.1727 33.6998 24.1727 33.7448ZM28.3013 33.7448C28.3013 33.8199 28.3163 33.8949 28.3464 33.955C28.3764 34.0301 28.4214 34.0901 28.4665 34.1351C28.5265 34.1802 28.5866 34.2252 28.6466 34.2553C28.7217 34.2853 28.7817 34.2853 28.8568 34.2853C28.9319 34.2853 29.0069 34.2703 29.067 34.2553C29.1421 34.2252 29.2021 34.1952 29.2472 34.1351C29.2922 34.0901 29.3372 34.015 29.3673 33.955C29.3973 33.8799 29.3973 33.8199 29.3973 33.7448C29.3973 33.6697 29.3823 33.5947 29.3673 33.5346C29.3372 33.4746 29.3072 33.3995 29.2472 33.3545C29.1871 33.3094 29.127 33.2644 29.067 33.2343C28.9919 33.2043 28.9319 33.2043 28.8568 33.2043C28.7817 33.2043 28.7067 33.2043 28.6466 33.2343C28.5716 33.2644 28.5115 33.2944 28.4665 33.3545C28.4064 33.3995 28.3764 33.4595 28.3464 33.5346C28.3163 33.6097 28.3013 33.6697 28.3013 33.7448ZM29.2171 33.7598C29.2171 33.8048 29.2171 33.8499 29.2021 33.8949C29.1871 33.94 29.1571 33.985 29.127 34.015C29.097 34.0451 29.052 34.0751 29.0069 34.0901C28.9619 34.1051 28.9169 34.1201 28.8718 34.1201C28.8268 34.1201 28.7667 34.1051 28.7217 34.0901C28.6767 34.0751 28.6316 34.0451 28.6016 34C28.5716 33.97 28.5415 33.925 28.5265 33.8799C28.5115 33.8349 28.4965 33.7898 28.4965 33.7298C28.4965 33.6847 28.4965 33.6247 28.5265 33.5797C28.5565 33.5346 28.5716 33.4896 28.6016 33.4595C28.6316 33.4295 28.6767 33.3995 28.7217 33.3695C28.7667 33.3545 28.8118 33.3394 28.8718 33.3394C28.9169 33.3394 28.9769 33.3545 29.022 33.3695C29.067 33.3845 29.112 33.4145 29.1421 33.4595C29.1721 33.4896 29.2021 33.5346 29.2171 33.5797C29.2021 33.6547 29.2171 33.6998 29.2171 33.7598ZM17.792 34.2703C17.8821 34.3003 17.9722 34.3003 18.0623 34.2703C18.1523 34.2402 18.2274 34.1952 18.2875 34.1201C18.2875 34.1802 18.3025 34.2102 18.3025 34.2402H18.4526C18.4526 34.0301 18.4526 33.8199 18.4526 33.6097C18.4526 33.3845 18.3775 33.2644 18.2274 33.2193C18.0322 33.1593 17.717 33.2043 17.6269 33.3695C17.6569 33.3995 17.6869 33.4295 17.717 33.4595C18.0623 33.2794 18.2724 33.3394 18.2724 33.6097C18.2274 33.6097 18.1674 33.6097 18.1223 33.6097C18.0022 33.6247 17.8671 33.6397 17.747 33.6847C17.6869 33.6998 17.6269 33.7448 17.5968 33.8049C17.5668 33.8649 17.5518 33.94 17.5668 34C17.5668 34.0601 17.5968 34.1201 17.6419 34.1652C17.6719 34.2252 17.732 34.2553 17.792 34.2703ZM17.8821 33.8049C18.0022 33.7898 18.1373 33.7748 18.2574 33.7598C18.2724 34.015 18.1523 34.1652 17.9271 34.1502C17.8821 34.1502 17.8371 34.1351 17.807 34.1201C17.777 34.0901 17.747 34.0601 17.747 34.015C17.747 34 17.747 33.97 17.747 33.955C17.747 33.94 17.762 33.9099 17.777 33.8949C17.792 33.8799 17.807 33.8649 17.822 33.8499C17.8371 33.8199 17.8671 33.8049 17.8821 33.8049ZM22.1158 33.6247C21.9957 33.6397 21.8606 33.6547 21.7405 33.6998C21.6805 33.7148 21.6204 33.7598 21.5904 33.8199C21.5604 33.8799 21.5453 33.94 21.5604 34.015C21.5604 34.0751 21.5904 34.1351 21.6354 34.1802C21.6805 34.2252 21.7255 34.2553 21.8006 34.2703C21.8906 34.3003 21.9807 34.3003 22.0708 34.2853C22.1609 34.2552 22.236 34.2102 22.296 34.1351C22.311 34.1802 22.311 34.2252 22.326 34.2553H22.4762C22.4762 34.0301 22.4762 33.8199 22.4762 33.5947C22.4762 33.5196 22.4762 33.4595 22.4311 33.3845C22.3861 33.3094 22.341 33.2644 22.281 33.2343C22.1759 33.1893 22.0558 33.1743 21.9507 33.2043C21.8306 33.2193 21.7255 33.2794 21.6504 33.3545L21.7405 33.4746C21.8006 33.4145 21.8756 33.3845 21.9657 33.3695C22.0558 33.3545 22.1309 33.3695 22.2059 33.3995C22.236 33.4145 22.266 33.4595 22.296 33.4896C22.311 33.5346 22.311 33.5646 22.311 33.6097C22.2059 33.6247 22.1609 33.6247 22.1158 33.6247ZM21.9057 34.1351C21.8606 34.1351 21.8306 34.1201 21.8006 34.0901C21.7705 34.0601 21.7555 34.03 21.7405 33.985C21.7255 33.94 21.7405 33.9099 21.7555 33.8799C21.7705 33.8499 21.8156 33.8199 21.8456 33.8199C21.9807 33.7898 22.1158 33.7898 22.251 33.7598C22.281 34.03 22.1309 34.1652 21.9057 34.1351ZM27.8209 34.1201C27.7608 34.1351 27.6858 34.1351 27.6257 34.1201C27.5657 34.1051 27.5056 34.0601 27.4756 34C27.4305 34.0451 27.3855 34.0751 27.3405 34.1051C27.4005 34.1952 27.4906 34.2552 27.5807 34.2853C27.6858 34.3153 27.7909 34.3153 27.8809 34.2853C27.956 34.2703 28.0311 34.2402 28.0761 34.1802C28.1212 34.1201 28.1512 34.0451 28.1512 33.97C28.1512 33.8199 28.0611 33.7298 27.896 33.6847C27.8209 33.6697 27.7458 33.6547 27.6708 33.6247C27.6257 33.6097 27.5657 33.5496 27.5807 33.5196C27.5957 33.4896 27.6107 33.4746 27.6257 33.4445C27.6407 33.4295 27.6708 33.4145 27.7008 33.3995C27.7608 33.3845 27.8209 33.3845 27.8659 33.3995C27.926 33.4145 27.971 33.4595 28.0011 33.5046C28.0461 33.4746 28.0911 33.4445 28.1362 33.4145C28.0311 33.1743 27.6407 33.1743 27.4906 33.3244C27.4606 33.3545 27.4305 33.3995 27.4155 33.4445C27.4005 33.4896 27.4005 33.5346 27.4155 33.5797C27.4305 33.6247 27.4456 33.6697 27.4756 33.6998C27.5056 33.7298 27.5507 33.7598 27.5807 33.7748C27.6708 33.8049 27.7759 33.8349 27.8659 33.8499C27.941 33.8649 28.0011 33.9099 27.986 33.985C27.971 34.015 27.956 34.0451 27.941 34.0601C27.8809 34.0901 27.8509 34.1051 27.8209 34.1201ZM30.3882 33.4896C30.4332 33.4445 30.4782 33.4145 30.5233 33.3695C30.4182 33.2644 30.2681 33.2043 30.1179 33.2043C29.9678 33.2043 29.8177 33.2644 29.7126 33.3695C29.6225 33.4896 29.5774 33.6397 29.5774 33.7898C29.5925 33.94 29.6525 34.0751 29.7726 34.1802C29.8777 34.2553 30.0128 34.3003 30.148 34.2853C30.2831 34.2703 30.4032 34.2102 30.4933 34.1051C30.4632 34.0751 30.4182 34.03 30.3731 34C30.3431 34.03 30.3131 34.0601 30.2681 34.0901C30.223 34.1051 30.178 34.1201 30.1329 34.1201C30.0879 34.1201 30.0429 34.1201 29.9978 34.1051C29.9528 34.0901 29.9077 34.0601 29.8777 34.0301C29.8026 33.955 29.7726 33.8649 29.7576 33.7598C29.7576 33.6547 29.7726 33.5646 29.8327 33.4746C29.8627 33.4295 29.9077 33.3995 29.9528 33.3845C29.9978 33.3695 30.0429 33.3545 30.1029 33.3545C30.148 33.3545 30.208 33.3695 30.253 33.3845C30.3131 33.4295 30.3581 33.4595 30.3882 33.4896ZM19.6387 33.3845C19.6987 33.3695 19.7588 33.3695 19.8188 33.3845C19.8789 33.3995 19.9239 33.4445 19.9689 33.4896C20.014 33.4445 20.059 33.3995 20.1041 33.3695C19.999 33.2644 19.8639 33.2043 19.7287 33.2043C19.5786 33.2043 19.4435 33.2494 19.3384 33.3545C19.2333 33.4595 19.1883 33.6097 19.1883 33.7598C19.1883 33.9099 19.2483 34.0451 19.3534 34.1652C19.4585 34.2552 19.5936 34.3003 19.7287 34.3003C19.8639 34.3003 19.999 34.2402 20.1041 34.1502L19.999 34.015C19.8038 34.1652 19.6236 34.1802 19.4885 34.0451C19.4285 33.97 19.3834 33.8799 19.3834 33.7898C19.3834 33.6998 19.3984 33.5947 19.4585 33.5196C19.5035 33.4445 19.5786 33.3995 19.6387 33.3845ZM27.2954 32.6638C27.2354 32.6488 27.2053 32.6338 27.1453 32.6038C26.9201 33.1743 26.7099 33.7298 26.4847 34.2853L26.6348 34.3453C26.86 33.7898 27.0702 33.2343 27.2954 32.6638ZM24.8032 33.6097C24.8032 33.5797 24.8182 33.5346 24.8333 33.5046C24.8483 33.4746 24.8783 33.4445 24.9083 33.4295C24.9383 33.4145 24.9684 33.3995 25.0134 33.3845C25.0434 33.3695 25.0885 33.3695 25.1185 33.3845C25.1335 33.3845 25.1635 33.3845 25.1786 33.3845V33.2193C25.1035 33.2043 25.0284 33.2193 24.9534 33.2343C24.8783 33.2644 24.8182 33.3094 24.7732 33.3695C24.7582 33.3094 24.7582 33.2794 24.7582 33.2494H24.6081V34.2703H24.7732C24.7732 34.1952 24.7732 34.1201 24.7732 34.0601C24.7882 33.9099 24.7882 33.7598 24.8032 33.6097ZM18.7679 34.2553H18.933V33.2343H18.7679V34.2553ZM22.7464 34.1351C22.7464 34.1502 22.7464 34.1652 22.7464 34.1952C22.7464 34.2102 22.7614 34.2252 22.7764 34.2402C22.7914 34.2552 22.8065 34.2703 22.8215 34.2703C22.8365 34.2703 22.8515 34.2853 22.8665 34.2703C22.9416 34.2703 22.9866 34.2252 23.0016 34.1351C23.0016 34.1201 23.0016 34.1051 22.9866 34.0901C22.9866 34.0751 22.9716 34.0601 22.9566 34.0451C22.9416 34.0301 22.9266 34.0301 22.9115 34.015C22.8965 34.015 22.8815 34 22.8665 34.015C22.8515 34.015 22.8365 34.015 22.8215 34.015C22.8065 34.015 22.7914 34.0301 22.7764 34.0451C22.7614 34.0601 22.7614 34.0751 22.7464 34.0901C22.7464 34.1051 22.7464 34.1201 22.7464 34.1351ZM18.9631 32.844C18.9631 32.7539 18.918 32.7089 18.8429 32.7089C18.8279 32.7089 18.8129 32.7089 18.7979 32.7089C18.7829 32.7089 18.7679 32.7239 18.7529 32.7389C18.7379 32.7539 18.7379 32.7689 18.7228 32.7839C18.7078 32.799 18.7078 32.814 18.7078 32.829C18.7078 32.844 18.7078 32.859 18.7078 32.874C18.7078 32.889 18.7228 32.9041 18.7379 32.9191C18.7529 32.9341 18.7679 32.9341 18.7829 32.9491C18.7979 32.9491 18.8129 32.9641 18.8279 32.9641C18.843 32.9641 18.858 32.9641 18.873 32.9641C18.888 32.9641 18.903 32.9491 18.918 32.9341C18.933 32.9191 18.933 32.9041 18.948 32.889C18.9631 32.874 18.9631 32.859 18.9631 32.844Z" fill="#9F9F9F"/>
<path d="M42.3387 26.0128V23.2654H5.66125V26.0128H42.3387Z" fill="#404040"/>
</svg>
