<svg width="128" height="56" viewBox="0 0 128 56" fill="none" xmlns="http://www.w3.org/2000/svg">
<g clip-path="url(#clip0_4329_289)">
<path d="M40.1973 23.7697L38.8417 25.2574C38.1254 24.8387 37.6111 24.6256 37.2989 24.6256C37.1797 24.6267 37.0622 24.6535 36.9545 24.7042C36.8467 24.755 36.7511 24.8284 36.6744 24.9195C36.589 25.0046 36.5215 25.106 36.4761 25.2177C36.4307 25.3294 36.4081 25.4491 36.4099 25.5697C36.4099 26.0693 36.8617 26.4991 37.7691 26.8665C38.2923 27.0759 38.7953 27.3329 39.2715 27.6342C39.6271 27.8793 39.9192 28.2054 40.1238 28.5857C40.3522 28.9874 40.4701 29.4424 40.4654 29.9045C40.4646 30.3363 40.3703 30.7629 40.1889 31.1548C40.0076 31.5467 39.7435 31.8946 39.4148 32.1747C38.7418 32.8057 37.8502 33.1508 36.9278 33.1372C35.8772 33.1372 34.8449 32.6413 33.82 31.6678L35.2564 29.9926C35.8956 30.6539 36.498 30.9882 37.0564 30.9882C37.2011 30.9799 37.3427 30.9433 37.4732 30.8802C37.6037 30.8172 37.7204 30.729 37.8168 30.6208C37.9254 30.5303 38.0141 30.4183 38.0773 30.2919C38.1405 30.1654 38.1769 30.0273 38.1842 29.8861C38.1842 29.3571 37.627 28.8918 36.5127 28.4902C36.0308 28.338 35.5731 28.1178 35.1535 27.8363C34.8595 27.6014 34.6285 27.2972 34.4812 26.951C34.2915 26.5774 34.1909 26.165 34.1874 25.746C34.1697 25.3375 34.2388 24.9298 34.3902 24.5499C34.5415 24.17 34.7716 23.8264 35.0653 23.5419C35.3767 23.2582 35.7412 23.039 36.1379 22.8971C36.5345 22.7553 36.9553 22.6935 37.376 22.7154C38.4181 22.6847 39.4307 23.0631 40.1973 23.7697ZM50.5236 31.62L51.7726 33.0564L50.3032 33.9895L49.1681 32.6339C48.437 32.9224 47.6614 33.0815 46.8758 33.1041C46.1932 33.1265 45.5135 33.0053 44.8807 32.7484C44.2479 32.4915 43.676 32.1046 43.2022 31.6127C42.7166 31.1006 42.3384 30.4964 42.0898 29.8359C41.8412 29.1753 41.7273 28.4717 41.7549 27.7665C41.759 26.4694 42.2599 25.2232 43.1545 24.284C43.6196 23.7669 44.1928 23.3584 44.8333 23.0873C45.4738 22.8162 46.1661 22.6893 46.8611 22.7154C47.535 22.6985 48.2052 22.8202 48.8302 23.0729C49.4552 23.3257 50.0215 23.7041 50.4942 24.1848C50.9751 24.6604 51.3536 25.2293 51.6063 25.8567C51.859 26.484 51.9806 27.1565 51.9636 27.8326C51.991 29.2316 51.4626 30.5843 50.4942 31.5943L50.5236 31.62ZM47.7391 30.9588L46.6774 29.6951L48.1101 28.7583L49.0909 29.9192C49.5261 29.3689 49.7397 28.6757 49.6897 27.9759C49.7366 27.1243 49.4612 26.2862 48.9183 25.6285C48.6636 25.3367 48.3464 25.1061 47.9901 24.9541C47.6339 24.8021 47.248 24.7325 46.8611 24.7505C46.4816 24.74 46.1044 24.812 45.7555 24.9617C45.4066 25.1114 45.0945 25.3352 44.8406 25.6175C44.2985 26.235 44.0144 27.0372 44.0472 27.8583C44.0144 28.6881 44.2817 29.5019 44.8002 30.1506C45.0285 30.4378 45.32 30.6684 45.6519 30.8245C45.9839 30.9806 46.3474 31.058 46.7141 31.0506C47.0577 31.0467 47.4003 31.016 47.7391 30.9588ZM53.8335 22.8513H55.9825V29.0449C55.9594 29.5511 56.1317 30.0469 56.4637 30.4298C56.6225 30.6033 56.8171 30.7402 57.034 30.8309C57.251 30.9216 57.4851 30.964 57.7201 30.9551C57.9755 30.9706 58.2313 30.9318 58.4707 30.8413C58.71 30.7507 58.9275 30.6105 59.1087 30.4298C59.4601 30.0153 59.6366 29.4805 59.6009 28.9383V22.8513H61.7389V29.4086C61.7284 30.0316 61.5778 30.6443 61.2981 31.2012C61.0102 31.8181 60.5257 32.322 59.9205 32.6339C59.2796 32.9698 58.5649 33.1402 57.8413 33.1299C56.4564 33.1299 55.4388 32.7441 54.7959 31.969C54.1935 31.2973 53.852 30.4318 53.8335 29.5298V22.8513ZM66.8084 22.8513H68.4946L72.631 32.9792H70.4269L69.5966 30.9882H65.7321L64.9386 32.9792H62.7565L66.8084 22.8513ZM67.6533 26.1575L66.4741 29.1441H68.873L67.6533 26.1685V26.1575ZM74.2033 22.8513H77.5352C78.4092 22.8042 79.2683 23.0919 79.9377 23.6558C80.2333 23.9313 80.4653 24.2679 80.6175 24.6422C80.7698 25.0165 80.8387 25.4195 80.8193 25.8232C80.808 26.3855 80.6699 26.938 80.4152 27.4395C80.0957 28.0464 79.5652 28.5155 78.9238 28.7583L81.7524 32.9792H79.2544L76.6315 29.0632H76.3854V32.9792H74.2033V22.8513ZM76.4074 24.6587V27.2963H76.8776C78.014 27.2963 78.5821 26.831 78.5821 25.9003C78.5883 25.7242 78.5509 25.5493 78.4734 25.391C78.3959 25.2328 78.2806 25.096 78.1376 24.993C77.7752 24.7496 77.3428 24.6322 76.907 24.6587H76.4074ZM83.4973 22.8513H89.1987V24.857H85.6794V30.9735H90.6754V32.9792H83.4973V22.8513ZM89.7424 26.9289H87.766V28.9016H89.7424V26.9289Z" fill="white"/>
<path d="M90.5579 22.8515H94V32.9795H91.851V24.8573H90.1832L90.5579 22.8515Z" fill="white"/>
</g>
<defs>
<clipPath id="clip0_4329_289">
<rect width="60.18" height="11.2741" fill="white" transform="translate(33.82 22.7156)"/>
</clipPath>
</defs>
</svg>
