<svg width="128" height="56" viewBox="0 0 128 56" fill="none" xmlns="http://www.w3.org/2000/svg">
<path d="M62.3226 25.3985C62.3813 25.0766 62.4399 24.7549 62.4985 24.4334C62.5282 24.2683 62.5357 24.2612 62.7182 24.2612C63.3705 24.2612 64.0228 24.2612 64.6749 24.2612C64.8228 24.2612 64.8396 24.2762 64.8396 24.4063C64.8396 27.9698 64.8396 31.5331 64.8396 35.0962C64.8396 35.2194 64.8205 35.2363 64.6802 35.2363H62.1883C62.0325 35.2363 62.0111 35.2177 62.0111 35.0785V31.3247L61.9781 31.3068C61.9708 31.3244 61.9615 31.3414 61.9505 31.3575C61.4235 31.9816 60.7101 32.3237 59.8554 32.4334C59.1328 32.5263 58.422 32.4721 57.7396 32.227C56.8612 31.9126 56.2786 31.3327 55.915 30.5632C55.6798 30.0656 55.5593 29.5433 55.5125 29.0068C55.4394 28.168 55.4819 27.3368 55.743 26.524C55.9901 25.7571 56.4212 25.0979 57.1659 24.6299C57.6408 24.3314 58.1731 24.1618 58.7448 24.0951C59.4734 24.0105 60.194 24.0362 60.8856 24.2854C61.4394 24.4814 61.9074 24.8327 62.2195 25.2867C62.2459 25.3248 62.2729 25.3625 62.2996 25.4003L62.3226 25.3985ZM62.0456 28.2677L62.0786 28.2638C62.0292 27.9418 61.9959 27.6167 61.9258 27.2982C61.8574 26.9583 61.6787 26.644 61.412 26.3945C61.0302 26.0432 60.5507 25.9309 60.0191 25.9347C59.2286 25.9406 58.6832 26.2777 58.4161 26.9455C58.2274 27.4174 58.1987 27.9084 58.2093 28.4028C58.2185 28.8222 58.2696 29.236 58.4454 29.6303C58.5966 29.9686 58.8291 30.2456 59.201 30.4101C60.2684 30.882 61.4966 30.4166 61.8638 29.4053C61.9979 29.0351 62.0466 28.6549 62.0456 28.2677Z" fill="white"/>
<path d="M92.9648 24.2674C92.8073 24.4328 92.666 24.5815 92.5244 24.7298C91.5936 25.7039 90.6628 26.6782 89.7318 27.6527C89.6 27.7893 89.6 27.8379 89.715 27.9883L92.8811 32.0833C92.9177 32.1308 92.9536 32.1786 93 32.2393C92.947 32.242 92.9127 32.2449 92.8782 32.2449C91.9747 32.2449 91.071 32.2429 90.1672 32.247C89.9696 32.247 89.8303 32.1806 89.7196 32.0346C89.0892 31.2035 88.4563 30.3738 87.8208 29.5456C87.8007 29.5191 87.7783 29.494 87.7507 29.4607C87.7237 29.4831 87.6993 29.5008 87.6785 29.5197C87.3617 29.8305 87.0465 30.1426 86.728 30.452C86.7028 30.4748 86.683 30.502 86.6699 30.532C86.6568 30.5619 86.6507 30.5939 86.6519 30.626C86.6552 31.1153 86.6539 31.6049 86.6519 32.0942C86.6519 32.2252 86.6318 32.2437 86.4896 32.2437C85.6662 32.2437 84.8428 32.2437 84.0194 32.2437C83.8741 32.2437 83.8547 32.2269 83.8547 32.0963C83.8547 28.4482 83.8547 24.8 83.8547 21.1516C83.8547 21.0153 83.8718 21 84.0243 21H86.4945C86.6516 21 86.6651 21.0112 86.6638 21.1495C86.6537 22.3631 86.6427 23.5768 86.6309 24.7906C86.6223 25.7267 86.6131 26.663 86.6032 27.5993C86.6032 27.6878 86.6032 27.778 86.6032 27.8895C86.6407 27.8527 86.6628 27.8332 86.6822 27.8117C87.7059 26.6816 88.7291 25.551 89.7519 24.4198C89.8454 24.3166 89.959 24.2579 90.1079 24.2579C91.0334 24.2579 91.9589 24.2579 92.8844 24.2579C92.9042 24.2612 92.9216 24.2638 92.9648 24.2674Z" fill="white"/>
<path d="M47.5427 25.6831C47.6883 25.5061 47.8115 25.3365 47.957 25.184C48.6513 24.457 49.5521 24.1116 50.6044 24.0606C51.0561 24.0336 51.5098 24.0697 51.9492 24.1674C53.0186 24.4148 53.6842 25.0313 53.9882 25.9736C54.1063 26.3444 54.1655 26.7283 54.1641 27.1139C54.1667 28.7718 54.1667 30.4298 54.1641 32.0877C54.1641 32.2367 54.1536 32.2461 53.9813 32.2461H51.5111C51.3465 32.2461 51.3326 32.2323 51.333 32.0813C51.333 30.7204 51.333 29.3594 51.333 27.9984C51.333 27.6943 51.298 27.3923 51.1956 27.1C51.0349 26.6408 50.7016 26.3585 50.1601 26.2833C49.7412 26.2243 49.3298 26.2441 48.9375 26.3963C48.375 26.6145 48.0591 27.0218 47.9165 27.5368C47.8464 27.7866 47.8089 28.0429 47.8049 28.3004C47.7937 29.5569 47.7996 30.8136 47.7996 32.07C47.7996 32.2385 47.791 32.247 47.602 32.247H45.1417C44.9813 32.247 44.9625 32.2314 44.9625 32.0922C44.9625 29.536 44.9625 26.9806 44.9625 24.426C44.9625 24.2812 44.9843 24.2621 45.1447 24.2621C45.8117 24.2621 46.4787 24.2621 47.1455 24.2621C47.3029 24.2621 47.3168 24.2733 47.3395 24.4134C47.4054 24.8316 47.4729 25.251 47.5427 25.6831Z" fill="white"/>
<path d="M40.5837 30.9236C40.4684 31.0687 40.3719 31.2026 40.2613 31.3262C39.7962 31.8447 39.1991 32.1816 38.4827 32.3497C37.6808 32.5395 36.8348 32.519 36.0455 32.2907C35.0782 32.0164 34.4711 31.4174 34.181 30.5538C34.0582 30.1773 33.9977 29.7868 34.0015 29.3947C33.9995 27.7371 33.9995 26.0795 34.0015 24.4219C34.0015 24.2745 34.0176 24.26 34.1833 24.26H36.6426C36.8218 24.26 36.832 24.2694 36.832 24.434C36.832 25.8203 36.827 27.2065 36.8366 28.5945C36.8351 28.8713 36.8682 29.1474 36.9354 29.4177C37.1057 30.0624 37.5902 30.3889 38.3302 30.398C39.2874 30.4095 39.9612 29.9415 40.1911 29.0826C40.2568 28.8385 40.2914 28.5886 40.2942 28.3376C40.3044 27.0325 40.2988 25.7273 40.2991 24.4222C40.2991 24.2748 40.3156 24.2603 40.4813 24.2603H42.9185C43.0977 24.2603 43.1161 24.2748 43.1161 24.4305C43.1161 26.9884 43.1161 29.5465 43.1161 32.1049C43.1161 32.2228 43.0914 32.2453 42.9538 32.2453C42.2835 32.2453 41.613 32.2453 40.9424 32.2453C40.8386 32.2453 40.7932 32.2134 40.7793 32.119C40.7257 31.7536 40.6647 31.3893 40.6061 31.0245C40.6018 30.998 40.5936 30.9696 40.5837 30.9236Z" fill="white"/>
<path d="M70.8502 24.055C71.5679 24.0565 72.276 24.1208 72.9581 24.3287C74.1109 24.6791 74.8776 25.3778 75.2159 26.4228C75.6045 27.6217 75.6147 28.8345 75.2106 30.032C74.8252 31.1734 73.9672 31.9196 72.6877 32.2458C71.3923 32.5767 70.0857 32.5703 68.7976 32.2163C67.5355 31.8701 66.7296 31.0956 66.3765 29.9653C66.037 28.8947 66.0256 27.7621 66.3436 26.6862C66.7315 25.3589 67.7012 24.5484 69.1807 24.2172C69.7294 24.0942 70.287 24.0529 70.8502 24.055ZM68.8016 28.2508C68.8016 28.6499 68.8312 29.0472 68.9508 29.4333C69.1484 30.0715 69.5874 30.4838 70.3384 30.5732C70.6162 30.6065 70.8974 30.6104 71.1763 30.585C71.9585 30.5119 72.4324 30.1382 72.6472 29.4586C72.7495 29.118 72.8017 28.7669 72.8023 28.4142C72.8112 27.9199 72.7881 27.4282 72.6083 26.9546C72.4038 26.4166 71.9934 26.0807 71.3617 25.9951C71.0845 25.9581 70.8038 25.9472 70.5241 25.9627C69.647 26.0116 69.1319 26.4104 68.9254 27.1719C68.8279 27.5273 68.8042 27.8881 68.8016 28.2508Z" fill="white"/>
<path d="M79.505 25.8096C79.6862 25.5206 79.8775 25.2522 80.1206 25.0154C80.7757 24.3771 81.5925 24.0656 82.5578 24.0559C82.6797 24.0559 82.7014 24.0766 82.7024 24.1898C82.7081 24.8847 82.7133 25.5796 82.7179 26.2745C82.7179 26.4514 82.7077 26.4567 82.5144 26.4514C82.0282 26.4382 81.554 26.488 81.1097 26.6803C80.471 26.9561 80.1101 27.4306 79.9174 28.0235C79.8105 28.3597 79.7575 28.7079 79.7599 29.0575C79.7599 30.0395 79.7599 31.0215 79.7599 32.0037C79.7599 32.0462 79.7599 32.0886 79.7599 32.1311C79.7599 32.2119 79.7168 32.2491 79.6243 32.2467C79.4128 32.2438 79.2017 32.2467 78.9902 32.2467H77.0991C76.9423 32.2467 76.9261 32.2332 76.9261 32.0993C76.9261 29.5411 76.9261 26.983 76.9261 24.4249C76.9261 24.2774 76.9423 24.2627 77.108 24.2627H79.1081C79.2613 24.2627 79.2755 24.2718 79.2955 24.4072C79.3601 24.8398 79.4239 25.273 79.4869 25.707C79.4909 25.7403 79.4991 25.7748 79.505 25.8096Z" fill="white"/>
</svg>
