<svg width="128" height="56" viewBox="0 0 128 56" fill="none" xmlns="http://www.w3.org/2000/svg">
<g clip-path="url(#clip0_3134_2176)">
<path d="M61.3333 33.9129H58.093L60.1197 21.5436H63.3598L61.3333 33.9129Z" fill="white"/>
<path d="M73.0796 21.8461C72.4405 21.5958 71.4268 21.3195 70.1734 21.3195C66.9735 21.3195 64.7201 23.0037 64.7063 25.4116C64.6797 27.1882 66.3196 28.175 67.5462 28.7673C68.7998 29.3726 69.2259 29.7677 69.2259 30.3073C69.2132 31.1359 68.2129 31.5179 67.28 31.5179C65.9864 31.5179 65.2932 31.321 64.2398 30.8599L63.8131 30.6623L63.3597 33.4389C64.1197 33.7807 65.5198 34.084 66.9735 34.0972C70.3734 34.0972 72.5869 32.4391 72.6131 29.873C72.626 28.4649 71.7601 27.386 69.8932 26.5044C68.7599 25.9384 68.0659 25.5568 68.0659 24.9777C68.0791 24.4513 68.6529 23.9121 69.9322 23.9121C70.9856 23.8857 71.7596 24.1356 72.3459 24.3857L72.639 24.5171L73.0796 21.8461V21.8461Z" fill="white"/>
<path d="M77.3862 29.5309C77.6531 28.8203 78.6799 26.0701 78.6799 26.0701C78.6664 26.0965 78.9462 25.3464 79.1062 24.8859L79.3327 25.9517C79.3327 25.9517 79.9463 28.9125 80.0795 29.5309C79.5731 29.5309 78.0262 29.5309 77.3862 29.5309ZM81.3859 21.5436H78.8796C78.1067 21.5436 77.5195 21.7672 77.186 22.5699L72.373 33.9127H75.7729C75.7729 33.9127 76.3327 32.386 76.453 32.0572C76.826 32.0572 80.1334 32.0572 80.6132 32.0572C80.7062 32.4915 80.9998 33.9127 80.9998 33.9127H84L81.3859 21.5436V21.5436Z" fill="white"/>
<path d="M55.3866 21.5436L52.2133 29.9783L51.8666 28.2676C51.2799 26.2938 49.4399 24.1492 47.3867 23.0829L50.2933 33.8998H53.7198L58.813 21.5436H55.3866V21.5436Z" fill="white"/>
<path d="M49.2666 21.5436H44.0533L44 21.7936C48.0667 22.82 50.76 25.2942 51.8665 28.2682L50.7332 22.5834C50.5467 21.7934 49.9733 21.5697 49.2666 21.5436Z" fill="white"/>
</g>
<defs>
<clipPath id="clip0_3134_2176">
<rect width="40" height="12.7778" fill="white" transform="translate(44 21.3195)"/>
</clipPath>
</defs>
</svg>
