<svg width="128" height="56" viewBox="0 0 128 56" fill="none" xmlns="http://www.w3.org/2000/svg">
<g clip-path="url(#clip0_3134_2170)">
<path d="M48.4246 22.06L50.9727 30.241H51.0687L53.606 22.06H57.4056L53.3148 33.6622H48.7143L44.625 22.06H48.4246Z" fill="white"/>
<path d="M58.6464 33.6623V24.9606H61.986V33.6623H58.6464ZM60.3162 24.0542C59.8853 24.0622 59.4682 23.9117 59.1544 23.635C59.002 23.5088 58.8799 23.3536 58.7963 23.1798C58.7127 23.0061 58.6695 22.8177 58.6695 22.6271C58.6695 22.4365 58.7127 22.2481 58.7963 22.0744C58.8799 21.9006 59.002 21.7455 59.1544 21.6192C59.4728 21.3495 59.8868 21.2002 60.3162 21.2002C60.7455 21.2002 61.1595 21.3495 61.4779 21.6192C61.6299 21.7457 61.7516 21.9009 61.8349 22.0747C61.9182 22.2484 61.9612 22.4367 61.9612 22.6271C61.9612 22.8175 61.9182 23.0058 61.8349 23.1795C61.7516 23.3533 61.6299 23.5085 61.4779 23.635C61.1647 23.9125 60.7472 24.0631 60.3162 24.0542V24.0542Z" fill="white"/>
<path d="M68.9145 31.3171C68.8505 31.3336 68.7472 31.3524 68.6047 31.3737C68.4894 31.3952 68.3722 31.4069 68.2547 31.4085C68.1325 31.4124 68.0108 31.3932 67.8969 31.3519C67.8091 31.3139 67.7368 31.2503 67.6908 31.1707C67.6442 31.0747 67.6215 30.9701 67.6242 30.8647V27.2274H69.2228V24.9606H67.632V22.8765H64.2939V24.9606H63.1074V27.2274H64.2939V31.1591C64.2659 31.6887 64.398 32.215 64.675 32.6775C64.9478 33.0896 65.3617 33.4029 65.8491 33.5665C66.4693 33.764 67.1264 33.839 67.7791 33.787C68.1091 33.7745 68.4372 33.7347 68.7596 33.668C69.0385 33.6091 69.2522 33.5583 69.4009 33.5158L68.9145 31.3171Z" fill="white"/>
<path d="M73.1819 33.7985C72.6436 33.8085 72.1088 33.7162 71.6097 33.5273C71.1731 33.3536 70.802 33.0617 70.544 32.6891C70.2694 32.2583 70.1348 31.7619 70.1567 31.2606C70.1443 30.8413 70.2332 30.4248 70.417 30.0423C70.5818 29.7128 70.8314 29.4268 71.1434 29.2099C71.4708 28.9867 71.838 28.8198 72.2277 28.7168C72.6659 28.5996 73.116 28.5257 73.5707 28.4963C74.087 28.4586 74.5047 28.4132 74.8238 28.36C75.0687 28.3298 75.3038 28.2507 75.5131 28.128C75.5804 28.082 75.6349 28.0214 75.6718 27.9515C75.7087 27.8815 75.7271 27.8043 75.7253 27.7262V27.703C75.7304 27.6011 75.7075 27.4997 75.6586 27.4086C75.6098 27.3174 75.5368 27.2395 75.4465 27.1824C75.2344 27.0539 74.9848 26.9905 74.7324 27.0011C74.4588 26.9911 74.1885 27.06 73.9579 27.1983C73.8567 27.2683 73.7725 27.3576 73.7111 27.4604C73.6497 27.5632 73.6124 27.677 73.6017 27.7944H70.5207C70.5583 27.2711 70.7438 26.7666 71.0582 26.3325C71.413 25.8589 71.9009 25.4864 72.4678 25.2564C73.0874 24.9838 73.8583 24.8475 74.7804 24.8475C75.3856 24.8398 75.9888 24.9146 76.571 25.0693C77.0563 25.1933 77.5134 25.3987 77.9202 25.6756C78.2731 25.9129 78.563 26.223 78.7675 26.582C78.9649 26.9266 79.0666 27.312 79.0633 27.703V33.6622H75.9422V32.4396H75.8694C75.7026 32.7425 75.4717 33.0104 75.1909 33.2271C74.9256 33.4288 74.6187 33.5769 74.2894 33.6622C73.929 33.7566 73.5561 33.8025 73.1819 33.7985V33.7985ZM74.2662 31.8276C74.5128 31.8301 74.7569 31.7805 74.9802 31.6826C75.2012 31.5894 75.3915 31.4427 75.5317 31.2577C75.6773 31.0598 75.7517 30.8235 75.7439 30.5833V29.8582C75.6541 29.893 75.5596 29.9249 75.4589 29.9553C75.3582 29.9858 75.2575 30.0133 75.1491 30.0394C75.0407 30.0655 74.9229 30.0916 74.7975 30.1134C74.672 30.1352 74.5496 30.1569 74.4164 30.1758C74.1946 30.2025 73.9796 30.2658 73.7813 30.3628C73.6328 30.4344 73.5076 30.5421 73.4189 30.6747C73.3407 30.7979 73.3005 30.9389 73.3027 31.0822C73.2964 31.1886 73.3179 31.2948 73.3654 31.3916C73.413 31.4884 73.485 31.5728 73.5753 31.6376C73.7782 31.7716 74.0229 31.8384 74.2708 31.8276H74.2662Z" fill="white"/>
<path d="M84 22.06V33.6622H80.6589V22.06H84Z" fill="white"/>
</g>
<defs>
<clipPath id="clip0_3134_2170">
<rect width="39.375" height="12.6" fill="white" transform="translate(44.625 21.2)"/>
</clipPath>
</defs>
</svg>
