<svg width="128" height="25" viewBox="0 0 128 25" fill="none" xmlns="http://www.w3.org/2000/svg">
<path d="M107.796 3.88463V21.1775H116.45C118.867 21.1775 120.267 20.8016 121.285 19.9244C122.558 18.7966 123.194 16.7916 123.194 12.5311C123.194 8.27051 122.558 6.26554 121.285 5.13774C120.267 4.26057 118.867 3.88463 116.45 3.88463H107.796ZM119.631 12.5311C119.631 16.2904 119.376 17.1676 118.613 17.6688C118.104 18.0448 117.468 18.1701 116.195 18.1701H111.359V6.76678H116.195C117.468 6.76678 118.104 6.76678 118.613 7.26803C119.376 7.89458 119.631 8.77175 119.631 12.5311ZM127.648 25H102.26V0H127.648V25ZM81.5187 6.76678V3.88463H96.5347V9.39831H93.3524V6.76678H87.2441V10.902H92.0798V13.6589H87.2441V18.2954H93.4806V15.2879H96.661V21.1775H81.5197V18.2954H83.9365V6.76678H81.5187ZM67.9025 16.6663C67.9025 18.546 68.0287 19.9244 68.2832 21.0522H71.7201C71.5918 20.175 71.4656 18.546 71.4656 16.4157C71.3373 13.9095 70.5738 13.5336 68.7922 13.1576C70.8283 12.7817 71.7201 11.9045 71.7201 8.77175C71.7201 6.26554 71.3373 5.26305 70.5738 4.6365C70.0648 4.13526 69.175 3.88463 67.7742 3.88463H57.0848V21.1775H60.6479V14.4107H65.6119C66.6299 14.4107 67.0107 14.5361 67.3935 14.7867C67.7762 15.0373 67.9025 15.4132 67.9025 16.6663V16.6663ZM60.6479 11.6539V6.89209H66.3754C67.1389 6.89209 67.3934 7.0174 67.5197 7.14271C67.7742 7.39334 68.0287 7.76927 68.0287 9.273C68.0287 10.7767 67.7742 11.278 67.5197 11.5286C67.3934 11.6539 67.1389 11.7792 66.3754 11.7792L60.6479 11.6539ZM76.8103 25H51.3594V0H76.7461V25H76.8103ZM44.7421 18.2954V21.1775H32.652V18.2954H36.9786V6.76678H32.652V3.88463H44.7411V6.76678H40.4145V18.2954H44.7421ZM24.3173 3.88463H21.0087L18.5908 17.5435L15.7912 4.88712C15.664 4.00994 15.2822 3.88463 14.5187 3.88463H12.7371C11.9736 3.88463 11.5918 4.13526 11.4646 4.88712L8.66498 17.5435L6.24715 3.88463H2.68402L6.11989 20.3003C6.24715 21.0522 6.50166 21.1775 7.39244 21.1775H9.81027C10.5738 21.1775 10.8283 21.0522 11.0828 20.3003L13.7552 8.39582L16.4275 20.3003C16.5548 21.0522 16.8093 21.1775 17.7001 21.1775H19.9906C20.7542 21.1775 21.1359 21.0522 21.2632 20.3003L24.3173 3.88463ZM26.0989 25H0.647949V0H26.0357V25H26.0989Z" fill="#535366"/>
</svg>
