<svg width="128" height="56" viewBox="0 0 128 56" fill="none" xmlns="http://www.w3.org/2000/svg">
<path d="M37.2577 32.1485H39.7931V23.0287H37.2577V26.4567H34.166V23.0287H31.6306V32.1485H34.166V28.4876H37.2577V32.1485ZM48.6692 24.8915H46.1208V28.7852C46.1208 29.626 45.6551 30.1176 44.9178 30.1176C44.1934 30.1176 43.7148 29.626 43.7148 28.7852V24.8915H41.1923V29.1086C41.1923 31.0231 42.2401 32.2132 43.9217 32.2132C44.9437 32.2132 45.7069 31.7345 46.1208 31.1136V32.1485H48.6692V24.8915ZM59.9951 32.1485H62.5306V27.9185C62.5306 26.0169 61.431 24.8268 59.5941 24.8268C58.5205 24.8268 57.6667 25.4219 57.1751 26.1592C56.6963 25.3184 55.8428 24.8268 54.7562 24.8268C53.773 24.8268 53.0616 25.2666 52.6476 25.8487V24.8915H50.1121V32.1485H52.6476V28.2548C52.6476 27.4657 53.1133 27.0259 53.8636 27.0259C54.588 27.0259 55.0537 27.4657 55.0537 28.2548V32.1485H57.5891V28.2548C57.5891 27.4657 58.0548 27.0259 58.7921 27.0259C59.5165 27.0259 59.9951 27.4657 59.9951 28.2548V32.1485ZM63.5056 28.5135C63.5056 30.829 64.8768 32.239 66.5972 32.239C67.6192 32.239 68.3565 31.7863 68.7316 31.1395V32.1485H71.2671V24.8915H68.7316V25.9005C68.3565 25.2537 67.6321 24.8009 66.5972 24.8009C64.8768 24.8009 63.5056 26.198 63.5056 28.5135ZM68.7316 28.5135C68.7316 29.4966 68.1237 30.027 67.4122 30.027C66.6878 30.027 66.0927 29.4837 66.0927 28.5135C66.0927 27.5304 66.6878 27.013 67.4122 27.013C68.1237 27.013 68.7316 27.5433 68.7316 28.5135ZM72.2979 28.5135C72.2979 30.829 73.6691 32.239 75.3895 32.239C76.4115 32.239 77.1488 31.7863 77.5239 31.1395V32.1485H80.0593V24.8915H77.5239V25.9005C77.1488 25.2537 76.4244 24.8009 75.3895 24.8009C73.6691 24.8009 72.2979 26.198 72.2979 28.5135ZM77.5239 28.5135C77.5239 29.4966 76.9159 30.027 76.2045 30.027C75.4801 30.027 74.885 29.4837 74.885 28.5135C74.885 27.5304 75.4801 27.013 76.2045 27.013C76.9159 27.013 77.5239 27.5433 77.5239 28.5135ZM86.4456 32.1485H88.981V27.9185C88.981 26.0169 87.9332 24.8268 86.2515 24.8268C85.2296 24.8268 84.4664 25.3054 84.0395 25.9264V24.8915H81.5041V32.1485H84.0395V28.2548C84.0395 27.414 84.5052 26.9224 85.2555 26.9224C85.9799 26.9224 86.4456 27.414 86.4456 28.2548V32.1485ZM96.4779 30.0141C96.4649 27.2587 92.5971 28.0866 92.5971 27.0518C92.5971 26.7801 92.8171 26.612 93.231 26.612C93.7743 26.612 94.0977 26.8836 94.1753 27.3364H96.4649C96.2968 25.9005 95.2619 24.8009 93.2827 24.8009C91.3165 24.8009 90.2687 25.8487 90.2687 27.1165C90.2687 29.7812 94.1236 28.9145 94.1236 29.9753C94.1236 30.234 93.8778 30.4409 93.4509 30.4409C92.9205 30.4409 92.5195 30.1822 92.4548 29.7036H89.9971C90.1005 31.1524 91.4459 32.239 93.4638 32.239C95.3395 32.239 96.4779 31.2818 96.4779 30.0141Z" fill="white"/>
</svg>
