<svg width="519" height="594" viewBox="0 0 519 594" fill="none" xmlns="http://www.w3.org/2000/svg">
<path d="M483.351 99.7973C501.407 105.712 513.717 122.435 514 141.431L514 230.591C507.395 221.252 497.865 213.999 486.464 210.265L249.728 132.718C214.328 121.122 175.71 124.669 143.014 142.519L17.8496 210.852C12.8456 213.584 8.50992 217.21 5 221.474L5 128.598C5.28803 116.494 12.012 105.461 22.6415 99.658L102.261 56.1903C161.597 23.796 231.682 17.3592 295.927 38.4034L483.351 99.7973Z" stroke="white" stroke-width="10"/>
<path d="M-7.21238e-06 237.371L-1.14246e-05 117.4V117.4C0.29912 138.545 13.9957 157.166 34.0921 163.749L221.517 225.142C287.072 246.616 358.587 240.048 419.135 206.993L498.754 163.525C510.97 156.856 518.691 144.168 519 130.254V130.254L519 250.225V250.225C518.691 264.139 510.97 276.827 498.754 283.496L419.135 326.963C358.587 360.019 287.072 366.587 221.517 345.113L34.0921 283.719C13.9957 277.137 0.29912 258.516 -7.21238e-06 237.371V237.371Z" fill="white"/>
<path d="M483.351 314.797C501.407 320.712 513.717 337.435 514 356.431L514 445.591C507.395 436.252 497.865 428.999 486.464 425.265L249.728 347.718C214.328 336.122 175.71 339.669 143.014 357.519L17.8496 425.852C12.8456 428.584 8.50992 432.21 5 436.474L5 343.598C5.28803 331.494 12.012 320.461 22.6415 314.658L102.261 271.19C161.597 238.796 231.682 232.359 295.927 253.403L483.351 314.797Z" stroke="white" stroke-width="10"/>
<path d="M-7.21238e-06 452.371L-1.14246e-05 332.4V332.4C0.29912 353.545 13.9957 372.166 34.0921 378.749L221.517 440.142C287.072 461.616 358.587 455.048 419.135 421.993L498.754 378.525C510.97 371.856 518.691 359.168 519 345.254V345.254L519 465.225V465.225C518.691 479.139 510.97 491.827 498.754 498.496L419.135 541.963C358.587 575.019 287.072 581.587 221.517 560.113L34.0921 498.719C13.9957 492.137 0.29912 473.516 -7.21238e-06 452.371V452.371Z" fill="white"/>
</svg>
