<svg width="116" height="116" viewBox="0 0 116 116" fill="none" xmlns="http://www.w3.org/2000/svg">
<rect width="116" height="116" rx="30" fill="#F2F0FD"/>
<mask id="mask0_641_432" style="mask-type:alpha" maskUnits="userSpaceOnUse" x="0" y="0" width="116" height="116">
<rect width="116" height="116" rx="30" fill="#F2F0FD"/>
</mask>
<g mask="url(#mask0_641_432)">
<path d="M-6.27168 81.6371H13.8613C16.4711 84.5042 21.7653 90.1634 22.0636 89.8643C22.3618 89.5651 22.1879 114.435 22.0636 124.407M48.552 118.529V44.2244L37.3671 33.0055H-7M-4.76301 50.2078H26.9277L35.5029 58.8089V125M59.3642 118.269V32.3712L44.4509 17.4127V-14M87.4653 -12V22.7784L96.7861 32.1274H121.393H126M120.509 70.7036H81.7341L73.5318 78.9307V118.269M87.3266 116.399V97.4986L96.6474 88.1496H120.509" stroke="#E8E6F6" stroke-width="2"/>
</g>
<path d="M26 45.6841C26 36.8475 33.1634 29.6841 42 29.6841L74 29.6841C82.8366 29.6841 90 36.8475 90 45.6841L90 77.6841C90 86.5206 82.8366 93.6841 74 93.6841L42 93.6841C33.1634 93.6841 26 86.5206 26 77.6841L26 45.6841Z" fill="#E1E1F2"/>
<path d="M26 42C26 33.1634 33.1634 26 42 26L74 26C82.8366 26 90 33.1634 90 42L90 74C90 82.8366 82.8366 90 74 90L42 90C33.1634 90 26 82.8366 26 74L26 42Z" fill="white"/>
<g clip-path="url(#clip0_641_432)">
<path d="M78 62.3996V71.2863C77.9775 69.72 76.9483 68.3407 75.4382 67.8531L57.6487 62.1089C55.0871 61.2817 52.2927 61.5348 49.9268 62.808L40.5213 67.8696C39.6034 68.3636 39.0232 69.3035 39 70.3342L39 61.4474C39.0232 60.4168 39.6034 59.4769 40.5213 58.9829L46.5043 55.7631C51.0542 53.3145 56.4281 52.828 61.3542 54.4187L75.4382 58.9664C76.9483 59.454 77.9775 60.8333 78 62.3996Z" fill="#6633EE"/>
<path d="M78 62.3996V71.2863C77.9775 69.72 76.9483 68.3407 75.4382 67.8531L57.6487 62.1089C55.0871 61.2817 52.2927 61.5348 49.9268 62.808L40.5213 67.8696C39.6034 68.3636 39.0232 69.3035 39 70.3342L39 61.4474C39.0232 60.4168 39.6034 59.4769 40.5213 58.9829L46.5043 55.7631C51.0542 53.3145 56.4281 52.828 61.3542 54.4187L75.4382 58.9664C76.9483 59.454 77.9775 60.8333 78 62.3996Z" fill="black" fill-opacity="0.2"/>
<path d="M39 69.5091L39 60.6223C39.0225 62.1886 40.0517 63.5679 41.5618 64.0556L55.6458 68.6032C60.5719 70.1939 65.9458 69.7074 70.4957 67.2588L76.4786 64.039C77.3966 63.545 77.9768 62.6051 78 61.5745V70.4612C77.9768 71.4919 77.3966 72.4317 76.4786 72.9257L70.4957 76.1455C65.9458 78.5941 60.5719 79.0806 55.6458 77.4899L41.5618 72.9422C40.0517 72.4547 39.0225 71.0754 39 69.5091Z" fill="#4B2EFB"/>
<path d="M39 69.5091L39 60.6223C39.0225 62.1886 40.0517 63.5679 41.5618 64.0556L55.6458 68.6032C60.5719 70.1939 65.9458 69.7074 70.4957 67.2588L76.4786 64.039C77.3966 63.545 77.9768 62.6051 78 61.5745V70.4612C77.9768 71.4919 77.3966 72.4317 76.4786 72.9257L70.4957 76.1455C65.9458 78.5941 60.5719 79.0806 55.6458 77.4899L41.5618 72.9422C40.0517 72.4547 39.0225 71.0754 39 69.5091Z" fill="#6633EE"/>
<path d="M78 46.4735V55.3603C77.9775 53.794 76.9483 52.4146 75.4382 51.9271L57.6487 46.1829C55.0871 45.3557 52.2927 45.6087 49.9268 46.882L40.5213 51.9436C39.6034 52.4376 39.0232 53.3775 39 54.4081L39 45.5214C39.0232 44.4907 39.6034 43.5509 40.5213 43.0569L46.5043 39.8371C51.0542 37.3885 56.4281 36.902 61.3542 38.4926L75.4382 43.0403C76.9483 43.528 77.9775 44.9072 78 46.4735Z" fill="#6633EE"/>
<path d="M78 46.4735V55.3603C77.9775 53.794 76.9483 52.4146 75.4382 51.9271L57.6487 46.1829C55.0871 45.3557 52.2927 45.6087 49.9268 46.882L40.5213 51.9436C39.6034 52.4376 39.0232 53.3775 39 54.4081L39 45.5214C39.0232 44.4907 39.6034 43.5509 40.5213 43.0569L46.5043 39.8371C51.0542 37.3885 56.4281 36.902 61.3542 38.4926L75.4382 43.0403C76.9483 43.528 77.9775 44.9072 78 46.4735Z" fill="black" fill-opacity="0.2"/>
<path d="M39 53.583L39 44.6963C39.0225 46.2626 40.0517 47.6419 41.5618 48.1295L55.6458 52.6772C60.5719 54.2678 65.9458 53.7813 70.4957 51.3328L76.4786 48.113C77.3966 47.619 77.9768 46.6791 78 45.6484V54.5352C77.9768 55.5658 77.3966 56.5057 76.4786 56.9997L70.4957 60.2195C65.9458 62.6681 60.5719 63.1546 55.6458 61.5639L41.5618 57.0162C40.0517 56.5287 39.0225 55.1493 39 53.583Z" fill="#4B2EFB"/>
<path d="M39 53.583L39 44.6963C39.0225 46.2626 40.0517 47.6419 41.5618 48.1295L55.6458 52.6772C60.5719 54.2678 65.9458 53.7813 70.4957 51.3328L76.4786 48.113C77.3966 47.619 77.9768 46.6791 78 45.6484V54.5352C77.9768 55.5658 77.3966 56.5057 76.4786 56.9997L70.4957 60.2195C65.9458 62.6681 60.5719 63.1546 55.6458 61.5639L41.5618 57.0162C40.0517 56.5287 39.0225 55.1493 39 53.583Z" fill="#6633EE"/>
</g>
<defs>
<clipPath id="clip0_641_432">
<rect width="39" height="44" fill="white" transform="translate(39 36)"/>
</clipPath>
</defs>
</svg>
