<svg width="32" height="32" viewBox="0 0 32 32" fill="none" xmlns="http://www.w3.org/2000/svg">
<path d="M26.2401 2.56H5.76006C3.99366 2.56 2.56006 3.9936 2.56006 5.76V26.24C2.56006 28.0064 3.99366 29.44 5.76006 29.44H26.2401C28.0065 29.44 29.4401 28.0064 29.4401 26.24V5.76C29.4401 3.9936 28.0065 2.56 26.2401 2.56ZM10.8801 12.8V24.96H7.04006V12.8H10.8801ZM7.04006 9.2608C7.04006 8.3648 7.80806 7.68 8.96006 7.68C10.1121 7.68 10.8353 8.3648 10.8801 9.2608C10.8801 10.1568 10.1633 10.88 8.96006 10.88C7.80806 10.88 7.04006 10.1568 7.04006 9.2608ZM24.9601 24.96H21.1201C21.1201 24.96 21.1201 19.0336 21.1201 18.56C21.1201 17.28 20.4801 16 18.8801 15.9744H18.8289C17.2801 15.9744 16.6401 17.2928 16.6401 18.56C16.6401 19.1424 16.6401 24.96 16.6401 24.96H12.8001V12.8H16.6401V14.4384C16.6401 14.4384 17.8753 12.8 20.3585 12.8C22.8993 12.8 24.9601 14.5472 24.9601 18.0864V24.96Z" fill="#535366"/>
</svg>
