<svg width="256" height="57" viewBox="0 0 256 57" fill="none" xmlns="http://www.w3.org/2000/svg">
<path d="M87.0471 33.0705C86.4015 35.6991 84.188 37.1747 80.7755 37.1747C76.7174 37.1747 73.8582 34.1773 73.4893 29.7963H91.2436C91.2897 29.3813 91.3358 28.6435 91.3358 28.044C91.3358 22.1413 87.5083 17.0225 80.3143 17.0225C73.1665 17.0225 69.1084 22.3718 69.1084 28.874C69.1084 35.3301 73.5816 41.0023 80.7755 41.0023C86.4938 41.0023 90.6902 37.8665 91.5203 33.0705H87.0471ZM80.3143 20.6195C84.1419 20.6195 86.5399 22.9713 86.8166 26.5222H73.6277C74.3194 22.6485 76.6713 20.6195 80.3143 20.6195Z" fill="white"/>
<path d="M105.686 40.6334L114.171 17.3914H109.56L103.426 35.0073L97.3391 17.3914H92.7276L101.259 40.6334H105.686Z" fill="white"/>
<path d="M133.342 33.0705C132.697 35.6991 130.483 37.1747 127.071 37.1747C123.013 37.1747 120.153 34.1773 119.784 29.7963H137.539C137.585 29.3813 137.631 28.6435 137.631 28.044C137.631 22.1413 133.803 17.0225 126.61 17.0225C119.462 17.0225 115.404 22.3718 115.404 28.874C115.404 35.3301 119.877 41.0023 127.071 41.0023C132.789 41.0023 136.985 37.8665 137.815 33.0705H133.342ZM126.61 20.6195C130.437 20.6195 132.835 22.9713 133.112 26.5222H119.923C120.615 22.6485 122.966 20.6195 126.61 20.6195Z" fill="white"/>
<path d="M155.651 17.3914H152.838C149.564 17.3914 147.719 18.7749 146.658 21.8646V17.3914H142.185V40.6334H146.658V30.1191C146.658 25.0465 148.042 21.2651 152.284 21.2651H155.651V17.3914Z" fill="white"/>
<path d="M169.95 40.6334L178.435 17.3914H173.823L167.69 35.0073L161.603 17.3914H156.991L165.523 40.6334H169.95Z" fill="white"/>
<path d="M190.09 17.0225C184.603 17.0225 180.452 20.435 180.083 25.0004H184.234C184.372 22.6485 186.724 20.6195 189.952 20.6195C193.549 20.6195 195.578 22.5563 195.578 25.3693C195.578 26.1994 195.071 26.7528 194.01 26.7528H189.168C183.68 26.7528 180.13 29.5197 180.13 33.9928C180.13 38.1432 183.265 41.0023 188.015 41.0023C191.52 41.0023 194.471 39.3422 195.578 36.8519V40.6334H200.051V25.646C200.051 20.4811 196.085 17.0225 190.09 17.0225ZM188.891 37.4514C186.309 37.4514 184.557 36.0219 184.557 33.9006C184.557 31.4565 186.54 29.8886 189.583 29.8886H195.578V30.442C195.578 34.7307 193.134 37.4514 188.891 37.4514Z" fill="white"/>
<path d="M221.148 17.3914V29.9808C221.148 34.0389 218.566 36.9903 214.923 36.9903C211.648 36.9903 209.481 34.5001 209.481 30.8109V17.3914H205.008V31.6871C205.008 37.2209 208.42 41.0023 213.678 41.0023C217.136 41.0023 219.903 39.4344 221.148 36.5291V40.6334H225.621V17.3914H221.148Z" fill="white"/>
<path d="M236.057 40.6334V7.66113H231.584V40.6334H236.057Z" fill="white"/>
<path d="M244.656 17.3914H239.906V21.2651H244.656V33.0244C244.656 37.7742 247.653 40.6334 252.357 40.6334H256V36.5753H252.726C250.466 36.5753 249.129 35.1918 249.129 32.7016V21.2651H256V17.3914H249.129V10.1052H244.656V17.3914Z" fill="white"/>
<g clip-path="url(#clip0_3911_106)">
<path d="M9.79609 26.2063L9.7961 26.2063C15.336 23.1824 21.8793 22.5816 27.8773 24.546L28.1107 23.8332L27.8773 24.546L45.588 30.3463C47.181 30.868 48.2671 32.3426 48.293 34.0177V41.6665C47.6884 41.0326 46.9265 40.5406 46.0548 40.2551L23.6844 32.9288C20.2665 31.8094 16.538 32.1518 13.3812 33.8749L1.55377 40.3307L1.89126 40.949L1.55377 40.3307C1.26234 40.4897 0.993401 40.6789 0.75 40.8932L0.75 32.8067C0.775991 31.7636 1.35599 30.8131 2.27244 30.3129C2.27244 30.3129 2.27244 30.3129 2.27244 30.3129L9.79609 26.2063Z" stroke="white" stroke-width="1.5"/>
<path d="M3.98034e-07 43.0795L0 31.7451C0.0282665 33.7428 1.32253 35.5021 3.22154 36.124L20.9323 41.9242C27.1269 43.9529 33.8847 43.3324 39.6062 40.2095L47.1298 36.1028C48.2842 35.4728 49.0138 34.2741 49.043 32.9595V44.2939C49.0138 45.6084 48.2842 46.8072 47.1298 47.4372L39.6062 51.5438C33.8847 54.6668 27.1269 55.2873 20.9323 53.2586L3.22154 47.4583C1.32253 46.8364 0.0282665 45.0772 3.98034e-07 43.0795Z" fill="white"/>
<path d="M0.75 20.5806L0.75 12.4942C0.775991 11.4511 1.356 10.5006 2.27243 10.0004L2.27244 10.0004L9.79609 5.89376C15.336 2.86995 21.8793 2.26911 27.8773 4.23347L28.1107 3.52072L27.8773 4.23347L45.588 10.0337C47.181 10.5555 48.2671 12.0301 48.293 13.7052V21.354C47.6884 20.7201 46.9265 20.2281 46.0548 19.9426L23.6844 12.6163C20.2665 11.4969 16.538 11.8393 13.3812 13.5624L1.55377 20.0181C1.26235 20.1772 0.993402 20.3664 0.75 20.5806Z" stroke="white" stroke-width="1.5"/>
<path d="M3.98034e-07 22.7675L0 11.4331C0.0282665 13.4308 1.32253 15.19 3.22154 15.812L20.9323 21.6122C27.1269 23.6409 33.8847 23.0204 39.6062 19.8975L47.1298 15.7908C48.2842 15.1608 49.0138 13.962 49.043 12.6475V23.9819C49.0138 25.2964 48.2842 26.4952 47.1298 27.1252L39.6062 31.2318C33.8847 34.3548 27.1269 34.9753 20.9323 32.9465L3.22154 27.1463C1.32253 26.5244 0.0282665 24.7652 3.98034e-07 22.7675Z" fill="white"/>
</g>
<defs>
<clipPath id="clip0_3911_106">
<rect width="49.043" height="56.1188" fill="white" transform="translate(0 0.341797)"/>
</clipPath>
</defs>
</svg>
