<svg width="128" height="56" viewBox="0 0 128 56" fill="none" xmlns="http://www.w3.org/2000/svg">
<g clip-path="url(#clip0_3134_2177)">
<path d="M81.0933 35.3333C84.5144 35.3333 85.5655 33.3136 85.5655 31.9534C85.5655 29.3566 82.0001 28.5941 82.0001 26.9866C82.0001 26.5537 82.2886 26.0385 83.01 26.0385C83.6901 26.0385 83.9992 26.4919 84.1641 27.3575C84.2465 27.8109 84.3702 28.1819 85.1533 28.1819C86.1838 28.1819 86.7815 27.5636 86.7815 26.8423C86.7815 25.7912 85.4625 24.6165 83.2367 24.6165C80.7017 24.6165 78.9705 26.121 78.9705 28.017C78.9705 30.7581 82.3298 31.2939 82.3298 32.7778C82.3298 33.1694 82.0825 33.767 81.2375 33.767C80.3926 33.767 79.9598 33.1694 79.7331 32.2626C79.63 31.8298 79.4858 31.5 78.8469 31.5C77.8782 31.5 77.2806 32.1801 77.2806 32.9839C77.2806 34.0556 78.3728 35.3333 81.0933 35.3333ZM64.3791 35.3333C66.1103 35.3333 66.9759 34.6326 67.5942 33.9937C67.8003 33.7876 68.13 33.4167 68.4185 33.4167C68.5834 33.4167 68.7483 33.5197 69.3048 34.0762C70.0055 34.7769 71.1184 35.3333 72.8083 35.3333C76.0234 35.3333 76.992 33.293 76.992 31.9534C76.992 29.3773 73.7152 28.5735 73.7152 27.0072C73.7152 26.5744 74.0037 26.0385 74.7044 26.0385C75.4051 26.0385 75.7761 26.5744 75.9203 27.6667C75.9821 28.0994 76.0852 28.3674 76.7859 28.3674C77.837 28.3674 78.579 27.7903 78.579 26.9453C78.579 25.7912 77.2187 24.6165 74.9517 24.6165C72.3755 24.6165 70.6856 26.121 70.6856 28.017C70.6856 30.7374 73.7564 31.2939 73.7564 32.7572C73.7564 33.1694 73.4885 33.767 72.6847 33.767C70.8298 33.767 71.8397 30.5107 69.82 30.5107C68.13 30.5107 67.4705 32.7159 65.3684 32.7159C64.3791 32.7159 63.699 32.1595 63.6166 31.3969C63.5753 31.0466 63.7196 30.8611 64.0082 30.8817C64.173 30.9023 64.3379 30.9023 64.5028 30.9023C67.553 30.9023 70.191 29.0475 70.191 26.8835C70.191 25.4203 68.975 24.6165 67.0171 24.6165C62.9777 24.6165 60.2367 28.2849 60.2367 31.3145C60.2367 33.5197 61.7205 35.3333 64.3791 35.3333ZM64.2348 29.5421C63.8021 29.5421 63.6784 29.4391 63.6784 29.2124C63.6784 28.5941 64.5646 26.5126 66.1103 26.5126C66.6668 26.5126 67.0171 26.7599 67.0171 27.2339C67.0171 28.2025 65.7187 29.5421 64.2348 29.5421ZM44.2026 35.3333C47.2321 35.3333 48.3657 32.6129 50.3854 28.388L50.8182 27.4812C51.4983 26.0385 51.828 25.2348 52.4464 25.2348C52.7761 25.2348 52.9821 25.4615 52.9821 25.9149C52.9821 26.3683 52.7761 26.9248 52.4257 27.7285L51.9723 28.7589C51.1273 30.6963 50.8182 31.3763 50.8182 32.5717C50.8182 34.0349 51.9517 35.3333 53.8065 35.3333C56.6918 35.3333 57.8048 32.3862 58.9177 29.7482L59.2474 28.9651C61.1641 24.3898 63.8433 23.1326 66.6668 23.1326C68.0682 23.1326 68.9132 23.4418 69.2429 23.4418C69.5933 23.4418 69.6964 23.0708 69.6964 22.6998C69.6964 21.7312 68.9544 20 65.9249 20C61.5969 20 59.5154 23.1738 57.372 28.0583L57.001 28.9032C56.4033 30.2428 56.1148 30.6963 55.5995 30.6963C55.2698 30.6963 55.0019 30.5107 55.0019 30.0368C55.0019 29.7482 55.0843 29.5421 55.5377 28.5322L55.8263 27.8934C56.6094 26.1622 56.898 25.1729 56.898 24.2867C56.898 22.5762 55.8057 21.5251 53.9302 21.5251C51.3953 21.5251 50.4472 23.4418 49.4168 25.6058L48.5511 27.4194C47.7886 29.0269 46.7169 31.5618 41.9974 31.871C41.3791 31.9122 41.1112 32.1183 41.1112 32.7572C41.1112 34.0968 42.1211 35.3333 44.2026 35.3333Z" fill="white"/>
</g>
<defs>
<clipPath id="clip0_3134_2177">
<rect width="46" height="15.3333" fill="white" transform="translate(41 20)"/>
</clipPath>
</defs>
</svg>
