<svg width="128" height="56" viewBox="0 0 128 56" fill="none" xmlns="http://www.w3.org/2000/svg">
<path d="M34.4003 21.5185L34.487 25.132H34.1722C34.0615 24.3017 33.676 23.5323 33.0772 22.9465C32.5837 22.4314 31.9061 22.1328 31.1929 22.1162C30.9662 22.1066 30.7398 22.142 30.5268 22.2203C30.3138 22.2986 30.1184 22.4183 29.9519 22.5724C29.8104 22.6989 29.6968 22.8535 29.6182 23.0263C29.5397 23.1991 29.4979 23.3864 29.4956 23.5762C29.4913 23.7995 29.5464 24.0199 29.6553 24.2149C29.8461 24.4973 30.0893 24.7405 30.3716 24.9312C30.9013 25.2787 31.4513 25.5941 32.0187 25.8757C32.9528 26.2883 33.7916 26.8894 34.4824 27.6414C34.8992 28.1873 35.1209 28.8572 35.1121 29.5439C35.1161 29.9836 35.0276 30.4192 34.8524 30.8224C34.6771 31.2257 34.4189 31.5875 34.0946 31.8845C33.7509 32.2112 33.3455 32.4662 32.9021 32.6347C32.4587 32.8031 31.9863 32.8815 31.5123 32.8654C31.2051 32.8655 30.8989 32.8303 30.5998 32.7605C30.2227 32.6612 29.8549 32.53 29.5002 32.3681C29.3102 32.2839 29.1057 32.2375 28.8979 32.2312C28.7432 32.2384 28.5947 32.2943 28.4736 32.3909C28.3106 32.5171 28.1858 32.6861 28.1132 32.8791H27.8303V28.7729H28.1132C28.2583 29.7655 28.7134 30.6869 29.4135 31.4054C29.9584 31.9709 30.7043 32.2988 31.4894 32.3179C31.9923 32.3427 32.4845 32.1672 32.8582 31.8297C33.118 31.5998 33.291 31.2877 33.3483 30.9456C33.4056 30.6034 33.3437 30.252 33.173 29.95C33.0218 29.6853 32.8203 29.4529 32.5799 29.2656C32.1369 28.9414 31.665 28.6589 31.1701 28.4215C30.451 28.0762 29.7678 27.6605 29.1306 27.1805C28.737 26.864 28.4111 26.4715 28.1725 26.0262C27.9518 25.6039 27.8375 25.134 27.8394 24.6575C27.8323 24.2465 27.9096 23.8385 28.0665 23.4587C28.2235 23.0788 28.4568 22.7352 28.7519 22.4492C29.0508 22.1509 29.4071 21.9162 29.7991 21.7594C30.1912 21.6026 30.611 21.5268 31.0332 21.5367C31.3651 21.5297 31.6964 21.5665 32.0187 21.6462C32.3342 21.7334 32.64 21.8527 32.9312 22.0021C33.154 22.1347 33.4003 22.223 33.6566 22.2622C33.7153 22.2652 33.7738 22.2553 33.8282 22.2332C33.8826 22.2112 33.9315 22.1774 33.9714 22.1344C34.0869 21.9472 34.1601 21.737 34.1859 21.5185H34.4003ZM39.4784 31.5058C38.6024 32.3118 37.8176 32.7149 37.1241 32.7149C36.934 32.7198 36.7449 32.685 36.5689 32.6127C36.3929 32.5404 36.234 32.4322 36.1021 32.2951C35.968 32.156 35.863 31.9916 35.7932 31.8114C35.7235 31.6312 35.6905 31.4389 35.6961 31.2457C35.7005 30.9543 35.7657 30.6671 35.8874 30.4023C36.0092 30.1376 36.1849 29.9011 36.4033 29.7082C36.8747 29.2519 37.8998 28.6436 39.4784 27.8832V27.1304C39.5002 26.7722 39.471 26.4127 39.3917 26.0627C39.3224 25.904 39.2062 25.7702 39.0586 25.6795C38.8954 25.5702 38.703 25.5129 38.5066 25.5152C38.215 25.5033 37.9273 25.5848 37.6853 25.7479C37.6263 25.7829 37.577 25.8322 37.542 25.8912C37.5069 25.9501 37.4872 26.017 37.4846 26.0855C37.5069 26.2442 37.5826 26.3906 37.699 26.5007C37.872 26.6795 37.9755 26.914 37.991 27.1623C37.9924 27.2864 37.9684 27.4095 37.9205 27.524C37.8727 27.6386 37.802 27.7422 37.7127 27.8284C37.615 27.9212 37.4996 27.9933 37.3734 28.0403C37.2471 28.0874 37.1127 28.1084 36.9781 28.1022C36.6793 28.11 36.3893 28.0003 36.1706 27.7965C36.0689 27.7079 35.9874 27.5985 35.9315 27.4757C35.8756 27.3529 35.8467 27.2196 35.8466 27.0847C35.8606 26.6751 36.0227 26.2844 36.3029 25.9852C36.6218 25.618 37.0329 25.3424 37.4937 25.1867C38.0178 25.0082 38.5689 24.9217 39.1225 24.9312C39.6964 24.9013 40.2642 25.0617 40.7376 25.3875C41.088 25.6289 41.3568 25.971 41.5087 26.3684C41.5972 26.8681 41.6279 27.3764 41.5999 27.8832V30.7849C41.5899 31 41.6021 31.2156 41.6364 31.4282C41.6541 31.5035 41.6938 31.5719 41.7505 31.6244C41.8001 31.6665 41.8634 31.6892 41.9284 31.6883C42.0623 31.6883 42.1976 31.5894 42.3345 31.3917L42.5626 31.5834C42.3598 31.9208 42.0895 32.2128 41.7688 32.4411C41.4971 32.6174 41.1801 32.7109 40.8563 32.7103C40.5108 32.7305 40.1699 32.6234 39.8981 32.4092C39.6497 32.1715 39.4999 31.849 39.4784 31.5058ZM39.4784 30.9218V28.417C38.9449 28.725 38.4793 29.1378 38.1096 29.6306C37.9214 29.8829 37.8162 30.1874 37.8085 30.502C37.8071 30.7428 37.8986 30.9749 38.064 31.1499C38.1324 31.2231 38.2161 31.2803 38.3092 31.3174C38.4023 31.3544 38.5024 31.3705 38.6024 31.3644C38.9369 31.3231 39.2467 31.1666 39.4784 30.9218V30.9218ZM45.7518 25.903V31.1043C45.7165 31.4274 45.7702 31.7539 45.9069 32.0487C46.0279 32.1613 46.173 32.2445 46.3313 32.292C46.4895 32.3395 46.6565 32.3499 46.8194 32.3225V32.6099H42.5809V32.3225C42.8161 32.3346 43.0511 32.2957 43.2698 32.2084C43.3962 32.1453 43.4952 32.0382 43.5481 31.9073C43.6148 31.6467 43.641 31.3774 43.6257 31.1089V25.9167H42.5809V25.132H43.6257V24.5799V24.2058C43.6158 23.847 43.6822 23.4902 43.8207 23.159C43.9591 22.8279 44.1664 22.5299 44.4287 22.285C45.0293 21.7512 45.8163 21.4757 46.6187 21.5185C47.1138 21.481 47.6072 21.6112 48.0194 21.888C48.1534 21.9796 48.2644 22.101 48.3436 22.2427C48.4227 22.3844 48.4679 22.5426 48.4756 22.7047C48.476 22.8231 48.451 22.9402 48.4022 23.048C48.3534 23.1559 48.282 23.252 48.1928 23.3298C47.9857 23.5124 47.7157 23.6073 47.4399 23.5944C47.209 23.6059 46.9824 23.5292 46.8058 23.38C46.735 23.3214 46.6776 23.2483 46.6375 23.1657C46.5974 23.083 46.5754 22.9928 46.5731 22.9009C46.5804 22.801 46.5957 22.7018 46.6187 22.6044C46.6388 22.5206 46.6495 22.4349 46.6506 22.3489C46.6544 22.3036 46.6481 22.2581 46.6324 22.2155C46.6166 22.173 46.5917 22.1344 46.5594 22.1025C46.5198 22.0633 46.4728 22.0326 46.421 22.0122C46.3692 21.9919 46.3139 21.9822 46.2583 21.9839C46.1851 21.9835 46.1129 22.0007 46.0478 22.034C45.9827 22.0674 45.9266 22.1159 45.8841 22.1755C45.7687 22.3591 45.7159 22.5752 45.7336 22.7914V24.1921V25.1457H46.7921V25.9304L45.7518 25.903ZM53.1476 28.5812H49.2102C49.2078 29.4256 49.4747 30.2487 49.9721 30.9309C50.1172 31.1336 50.3082 31.2992 50.5294 31.4142C50.7506 31.5291 50.9958 31.5902 51.2451 31.5925C51.5465 31.6048 51.844 31.52 52.0937 31.3507C52.4146 31.0878 52.6838 30.7676 52.8876 30.4062L53.1476 30.5842C52.8676 31.2666 52.4242 31.8698 51.8564 32.3407C51.5412 32.5591 51.1857 32.7126 50.8106 32.7925C50.4356 32.8724 50.0484 32.8771 49.6715 32.8062C49.2946 32.7353 48.9356 32.5903 48.6152 32.3796C48.2948 32.1689 48.0194 31.8967 47.8049 31.5788C47.3416 30.8075 47.1118 29.9184 47.1434 29.0192C47.0866 27.94 47.433 26.8781 48.1152 26.0399C48.3887 25.6967 48.7355 25.419 49.1302 25.2272C49.525 25.0354 49.9576 24.9342 50.3964 24.9312C50.7603 24.9317 51.1193 25.014 51.4471 25.1719C51.7748 25.3299 52.0628 25.5595 52.2899 25.8437C52.8756 26.6337 53.1778 27.5982 53.1476 28.5812V28.5812ZM51.2588 28.0474C51.2815 27.4618 51.2371 26.8755 51.1264 26.3C51.0655 26.0244 50.9261 25.7725 50.7249 25.5745C50.6055 25.4736 50.4523 25.4214 50.2961 25.4285C50.1608 25.4309 50.0286 25.4699 49.9137 25.5414C49.7988 25.6129 49.7055 25.7142 49.6436 25.8346C49.3104 26.4294 49.1522 27.1064 49.1874 27.7874V28.0657L51.2588 28.0474ZM56.1224 22.399V25.1365H57.8242V25.9259H56.1224V30.5385C56.1161 30.8189 56.1421 31.0991 56.1999 31.3735C56.2348 31.4943 56.3066 31.6012 56.4053 31.6792C56.4774 31.7356 56.5648 31.7689 56.6562 31.775C56.9877 31.775 57.3026 31.5119 57.6006 30.9857L57.8288 31.1636C57.4151 32.1856 56.7429 32.6966 55.8121 32.6966C55.4211 32.6999 55.0394 32.5776 54.7231 32.3476C54.4069 32.1176 54.1729 31.7921 54.0556 31.4191C53.9822 30.9331 53.9547 30.4412 53.9734 29.95V25.9259H53.0381V25.6475C53.6409 25.2113 54.1933 24.7094 54.6852 24.151C55.1472 23.615 55.5453 23.0271 55.8714 22.399H56.1224ZM61.0316 32.8928L58.7139 27.3722C58.518 26.8341 58.2592 26.3211 57.9428 25.8437C57.7838 25.656 57.5751 25.5168 57.3406 25.4422V25.1457H61.1548V25.4422C60.9667 25.4333 60.7808 25.4862 60.6256 25.5928C60.577 25.6326 60.5379 25.6828 60.5111 25.7396C60.4842 25.7964 60.4704 25.8585 60.4704 25.9213C60.5339 26.339 60.6632 26.7441 60.8537 27.1212L62.081 30.0458L62.9159 27.7645C63.151 27.2308 63.3048 26.6649 63.3722 26.0855C63.3741 26.0007 63.3585 25.9164 63.3263 25.8379C63.2941 25.7594 63.2461 25.6884 63.1851 25.6293C62.992 25.4901 62.7566 25.4224 62.519 25.4377V25.1411H64.9189V25.4377C64.6987 25.4569 64.4936 25.5578 64.344 25.7205C64.0267 26.2403 63.7767 26.7984 63.6003 27.3813L61.5518 32.911C61.2666 33.805 60.8809 34.6637 60.402 35.4706C60.2501 35.6801 60.0504 35.8502 59.8195 35.9669C59.5885 36.0835 59.333 36.1433 59.0743 36.1413C58.8829 36.1518 58.6914 36.1237 58.5111 36.0587C58.3308 35.9936 58.1655 35.8929 58.0249 35.7626C57.8985 35.6468 57.7978 35.5058 57.7295 35.3486C57.6611 35.1914 57.6265 35.0215 57.628 34.8501C57.6183 34.5691 57.7162 34.2949 57.9018 34.0836C57.9842 33.9865 58.0871 33.9088 58.203 33.8559C58.3189 33.8031 58.4451 33.7765 58.5724 33.7779C58.6875 33.7736 58.8021 33.7942 58.9084 33.8383C59.0147 33.8824 59.1102 33.949 59.1884 34.0334C59.3624 34.2583 59.4484 34.539 59.4302 34.8227C59.4208 34.9571 59.4443 35.0918 59.4986 35.2151C59.5183 35.2437 59.545 35.2667 59.5762 35.2819C59.6074 35.2971 59.642 35.3039 59.6766 35.3018C59.7546 35.2926 59.8299 35.2672 59.8975 35.2271C59.9651 35.187 60.0235 35.1332 60.0689 35.0691C60.3938 34.6023 60.6375 34.084 60.7898 33.5361L61.0316 32.8928ZM80.9196 21.7649V22.0614C80.7429 22.0711 80.5723 22.1295 80.4268 22.2302C80.2751 22.3522 80.1546 22.5086 80.0755 22.6865C80.0451 22.7504 79.8839 23.164 79.5919 23.9275L76.3297 32.8745H76.0286L73.4508 25.8848L70.6129 32.8563H70.3437L66.9036 24.0187C66.7102 23.4591 66.4658 22.9185 66.1736 22.4036C66.0883 22.3012 65.9816 22.2187 65.861 22.162C65.7404 22.1052 65.6088 22.0756 65.4755 22.0751V21.7649H69.9878V22.0614C69.7339 22.0429 69.4805 22.1034 69.2624 22.2348C69.2047 22.2815 69.1584 22.3407 69.1268 22.4078C69.0952 22.475 69.0791 22.5484 69.0799 22.6226C69.1448 23.0666 69.2707 23.4996 69.454 23.9092L71.4934 29.1698L73.1268 25.0635L72.6979 23.9138C72.5546 23.4794 72.3777 23.0569 72.1687 22.65C72.0606 22.4595 71.9029 22.3019 71.7124 22.1937C71.4822 22.0896 71.2302 22.0427 70.9779 22.0569V21.7649H76.0194V22.0614C75.7626 22.0536 75.506 22.0828 75.2575 22.1481C75.1544 22.1813 75.0648 22.2469 75.002 22.3352C74.9362 22.4267 74.9025 22.5373 74.9062 22.65C74.9823 23.0367 75.0985 23.4143 75.2529 23.7769L77.1874 28.9006L78.8847 24.256C79.0114 23.9335 79.1211 23.6045 79.2132 23.2705C79.2514 23.1105 79.2713 22.9467 79.2725 22.7823C79.2775 22.6858 79.2608 22.5894 79.2237 22.5002C79.1866 22.411 79.13 22.3312 79.0581 22.2667C78.8129 22.1132 78.5254 22.0414 78.2368 22.0614V21.7649H80.9196ZM83.3331 25.132V31.0632C83.2941 31.4109 83.3559 31.7625 83.5111 32.0761C83.6023 32.1633 83.7106 32.2306 83.8292 32.2738C83.9478 32.317 84.0741 32.3351 84.2 32.327V32.6145H80.3264V32.3225C80.4581 32.3285 80.5895 32.3059 80.7115 32.2563C80.8336 32.2066 80.9435 32.1312 81.0336 32.035C81.1731 31.7297 81.2267 31.3922 81.1888 31.0587V26.6924C81.2278 26.3447 81.166 25.9931 81.0108 25.6795C80.9201 25.5929 80.8125 25.5259 80.6948 25.4827C80.577 25.4395 80.4516 25.4211 80.3264 25.4285V25.132H83.3331ZM82.2564 21.5094C82.4149 21.5069 82.5722 21.5381 82.7177 21.601C82.8632 21.664 82.9937 21.7571 83.1004 21.8744C83.2131 21.9903 83.3017 22.1274 83.3612 22.2778C83.4207 22.4281 83.4499 22.5887 83.4472 22.7504C83.45 22.9117 83.4204 23.072 83.36 23.2217C83.2997 23.3714 83.2098 23.5075 83.0959 23.6218C82.9887 23.7369 82.8587 23.8284 82.7141 23.8905C82.5696 23.9526 82.4137 23.9838 82.2564 23.9822C82.0997 23.984 81.9444 23.9529 81.8006 23.8908C81.6568 23.8287 81.5276 23.737 81.4214 23.6218C81.3087 23.5068 81.22 23.3705 81.1605 23.2209C81.101 23.0713 81.0718 22.9113 81.0747 22.7504C81.0719 22.5887 81.1012 22.4281 81.1607 22.2778C81.2202 22.1274 81.3088 21.9903 81.4214 21.8744C81.5268 21.7578 81.6557 21.665 81.7997 21.6021C81.9436 21.5392 82.0993 21.5076 82.2564 21.5094V21.5094ZM87.0561 25.132V26.0992C87.3563 25.7389 87.714 25.4306 88.1146 25.1867C88.4473 24.9992 88.8232 24.9017 89.2051 24.9039C89.628 24.8881 90.0414 25.0314 90.3639 25.3054C90.6679 25.5684 90.883 25.919 90.9799 26.3091C91.0847 26.8869 91.126 27.4744 91.1031 28.0611V30.972C91.0668 31.3378 91.1184 31.7069 91.2536 32.0487C91.3341 32.1337 91.431 32.2013 91.5385 32.2476C91.6459 32.2939 91.7617 32.3178 91.8787 32.3179V32.6054H88.2287V32.3225C88.3468 32.314 88.4613 32.2777 88.5627 32.2167C88.6642 32.1557 88.7498 32.0715 88.8127 31.9712C88.9231 31.6535 88.965 31.3161 88.9359 30.9811V27.6687C88.9528 27.2811 88.9299 26.8928 88.8674 26.5099C88.8305 26.3653 88.7491 26.2361 88.6348 26.1403C88.5323 26.0549 88.4031 26.008 88.2698 26.008C87.8287 26.008 87.4196 26.3365 87.0424 26.9935V30.9994C87.0086 31.3606 87.0601 31.7248 87.193 32.0624C87.2606 32.1458 87.3452 32.2138 87.4412 32.2618C87.5372 32.3098 87.6424 32.3367 87.7496 32.3407V32.6282H84.0996V32.3225C84.2223 32.3194 84.3429 32.2906 84.4538 32.238C84.5646 32.1853 84.6631 32.11 84.7429 32.0168C84.8656 31.6846 84.9109 31.3288 84.8753 30.9765V26.7562C84.911 26.3979 84.8594 26.0363 84.7247 25.7023C84.5596 25.5336 84.3355 25.4355 84.0996 25.4285V25.132H87.0561ZM96.7013 25.2187H99.1194V26.0992H97.7506C97.9617 26.3065 98.1374 26.5469 98.2708 26.811C98.4237 27.1813 98.4817 27.5839 98.4394 27.9823C98.3972 28.3807 98.2561 28.7622 98.0289 29.0922C97.7297 29.4931 97.3299 29.8078 96.8701 30.0047C96.4648 30.2058 96.0218 30.3193 95.5698 30.3378L94.6573 30.2967C94.5496 30.2944 94.4425 30.3142 94.3428 30.3551C94.2432 30.3959 94.1529 30.4568 94.0778 30.534C94.0025 30.6074 93.943 30.6955 93.903 30.7928C93.8629 30.8901 93.8433 30.9945 93.8451 31.0997C93.8449 31.1865 93.8636 31.2722 93.8998 31.351C93.9361 31.4298 93.989 31.4997 94.055 31.556C94.2558 31.6964 94.4999 31.7611 94.7439 31.7385H96.0716C97.1453 31.7385 97.8845 31.8617 98.289 32.108C98.566 32.2634 98.7939 32.4932 98.9471 32.7713C99.1003 33.0495 99.1726 33.365 99.1559 33.6821C99.1595 34.1261 99.0204 34.5596 98.7589 34.9185C98.4957 35.2878 98.1313 35.573 97.7096 35.7398C96.9807 36.0135 96.2067 36.1466 95.4283 36.1322C94.834 36.1378 94.2412 36.072 93.6626 35.936C93.2377 35.8718 92.8377 35.6954 92.5038 35.425C92.4 35.3328 92.3158 35.2206 92.2562 35.0952C92.1967 34.9698 92.1629 34.8337 92.157 34.695C92.1569 34.4486 92.2517 34.2117 92.4216 34.0334C92.7004 33.7843 93.0406 33.6142 93.4071 33.5407C93.1188 33.4283 92.8701 33.2332 92.6923 32.98C92.5146 32.7267 92.4156 32.4265 92.4079 32.1172C92.4167 31.7239 92.56 31.3454 92.814 31.045C93.1624 30.6388 93.606 30.3253 94.1052 30.1325C93.5193 29.9415 93.0022 29.583 92.6178 29.1014C92.3113 28.6702 92.1513 28.152 92.1616 27.6231C92.1609 27.2639 92.2371 26.9086 92.385 26.5813C92.533 26.2539 92.7492 25.962 93.0193 25.7251C93.6245 25.1809 94.419 24.8958 95.2321 24.9312C95.7359 24.9305 96.2349 25.0281 96.7013 25.2187V25.2187ZM94.9219 33.7095C94.5709 33.6832 94.2183 33.7298 93.8862 33.8464C93.7537 33.9025 93.6402 33.9956 93.5593 34.1145C93.4784 34.2335 93.4335 34.3732 93.4299 34.517C93.4386 34.6685 93.4848 34.8153 93.5645 34.9444C93.6441 35.0734 93.7547 35.1806 93.8862 35.2562C94.4099 35.5279 95.0005 35.6435 95.588 35.5892C96.1627 35.6152 96.736 35.514 97.267 35.2927C97.4408 35.232 97.5921 35.1203 97.7012 34.9721C97.8103 34.8239 97.8721 34.6462 97.8784 34.4623C97.8829 34.3396 97.8424 34.2195 97.7643 34.1247C97.598 33.9492 97.3782 33.8336 97.1393 33.7962C96.403 33.7167 95.662 33.6893 94.9219 33.714V33.7095ZM95.3781 25.4012C95.2244 25.4076 95.0747 25.4527 94.9431 25.5325C94.8114 25.6123 94.7021 25.7241 94.6253 25.8574C94.4215 26.1616 94.3196 26.8079 94.3196 27.7965C94.2699 28.3582 94.374 28.9228 94.6208 29.4299C94.691 29.561 94.7938 29.6718 94.9192 29.7517C95.0447 29.8316 95.1886 29.8779 95.3371 29.8861C95.4932 29.882 95.6457 29.8379 95.7799 29.758C95.9141 29.6781 96.0255 29.5651 96.1036 29.4299C96.3581 28.8976 96.4637 28.3064 96.4093 27.7189C96.4672 27.0488 96.3476 26.3753 96.0625 25.7662C95.9918 25.6474 95.8907 25.5497 95.7696 25.4831C95.6484 25.4165 95.5117 25.3835 95.3736 25.3875L95.3781 25.4012Z" fill="white"/>
</svg>
