<svg width="128" height="56" viewBox="0 0 128 56" fill="none" xmlns="http://www.w3.org/2000/svg">
<g clip-path="url(#clip0_4329_45)">
<path d="M37.7127 23.9994C38.2253 24.6382 38.8855 25.1428 39.6365 25.4697C40.3875 25.7966 41.2067 25.9359 42.0235 25.8758C42.0564 25.8721 42.0897 25.8779 42.1194 25.8925C42.1491 25.9071 42.1741 25.9298 42.1913 25.9581C42.2086 25.9864 42.2174 26.019 42.2167 26.0521C42.2161 26.0852 42.206 26.1174 42.1877 26.145C41.7387 26.8301 41.4631 27.6141 41.3845 28.4294C41.3058 29.2448 41.4266 30.067 41.7363 30.8253C41.7484 30.8553 41.7519 30.8881 41.7463 30.92C41.7409 30.9519 41.7266 30.9817 41.7051 31.0059C41.6836 31.0301 41.6557 31.0479 41.6247 31.0571C41.5937 31.0664 41.5607 31.0668 41.5294 31.0584C40.7382 30.8422 39.9062 30.8219 39.1053 30.9992C38.3045 31.1766 37.559 31.5462 36.933 32.0761C36.9079 32.0968 36.8777 32.1101 36.8455 32.1147C36.8134 32.1192 36.7807 32.1149 36.751 32.1019C36.7213 32.089 36.6957 32.0681 36.677 32.0415C36.6585 32.015 36.6476 31.9838 36.6457 31.9514C36.6061 31.1336 36.3682 30.3376 35.9527 29.6322C35.5372 28.9266 34.9564 28.3327 34.2603 27.9015C34.2329 27.8842 34.2108 27.8596 34.1965 27.8305C34.1822 27.8013 34.1763 27.7688 34.1794 27.7365C34.1824 27.7042 34.1943 27.6733 34.2138 27.6474C34.2334 27.6215 34.2597 27.6015 34.2899 27.5896C35.0564 27.2997 35.741 26.8277 36.2844 26.2142C36.8278 25.6008 37.2138 24.8643 37.409 24.0683C37.4166 24.0369 37.4329 24.0083 37.456 23.9856C37.479 23.9629 37.5079 23.9471 37.5395 23.9399C37.571 23.9328 37.6039 23.9345 37.6345 23.945C37.6652 23.9555 37.6922 23.9744 37.7127 23.9994Z" fill="white"/>
<path d="M38.4256 20.662C39.877 20.662 41.2957 21.0923 42.5024 21.8986C43.7092 22.705 44.6497 23.851 45.2051 25.1918C45.7605 26.5327 45.9059 28.0081 45.6227 29.4315C45.3395 30.855 44.6406 32.1625 43.6144 33.1888C42.5881 34.215 41.2806 34.9139 39.8572 35.197C38.4338 35.4802 36.9583 35.3348 35.6175 34.7794C34.2766 34.224 33.1306 33.2835 32.3243 32.0768C31.518 30.8701 31.0876 29.4513 31.0876 28C31.0897 26.0545 31.8635 24.1893 33.2392 22.8136C34.6149 21.4379 36.4801 20.6641 38.4256 20.662ZM38.4256 18.692C36.5847 18.692 34.7851 19.2379 33.2544 20.2607C31.7237 21.2835 30.5307 22.7372 29.8262 24.438C29.1217 26.1388 28.9374 28.0103 29.2965 29.8159C29.6557 31.6215 30.5422 33.28 31.8439 34.5817C33.1457 35.8835 34.8042 36.77 36.6097 37.1291C38.4153 37.4883 40.2868 37.304 41.9876 36.5994C43.6885 35.8949 45.1422 34.7019 46.165 33.1712C47.1877 31.6405 47.7336 29.8409 47.7336 28C47.7336 25.5314 46.7529 23.1638 45.0073 21.4183C43.2618 19.6727 40.8942 18.692 38.4256 18.692Z" fill="white"/>
</g>
<g clip-path="url(#clip1_4329_45)">
<path d="M54.6302 29.4363H56.1477C56.1477 30.0263 56.6936 30.5282 57.5819 30.5282C58.4794 30.5282 59.0346 30.1319 59.0346 29.5772C59.0346 29.084 58.6182 28.8287 58.0353 28.7054L56.9805 28.4676C55.5278 28.1066 54.8616 27.3933 54.8616 26.2926C54.8616 25.0862 56.0089 24.1176 57.6281 24.1176C58.9605 24.1176 60.3947 24.7868 60.3947 26.3367H58.831C58.831 25.7995 58.2481 25.4297 57.6652 25.4297C56.9805 25.4297 56.5178 25.8259 56.5178 26.3367C56.5178 26.7946 56.9712 27.0499 57.4523 27.1644L58.6367 27.4374C60.3115 27.8336 60.6723 28.8199 60.6723 29.6124C60.6723 31.0213 59.2011 31.849 57.6004 31.849C56.1477 31.849 54.658 30.9773 54.6302 29.4363ZM61.4033 27.9569C61.4033 25.6058 63.2723 24.1176 65.493 24.1176C67.7137 24.1176 69.592 25.6058 69.592 27.9569C69.592 30.308 67.7044 31.849 65.4838 31.849C63.2631 31.849 61.4033 30.308 61.4033 27.9569ZM67.9542 27.9569C67.9542 26.5304 66.8161 25.5706 65.4838 25.5706C64.1513 25.5706 63.0318 26.5216 63.0318 27.9569C63.0318 29.401 64.1513 30.3697 65.4838 30.3697C66.8161 30.3697 67.9542 29.401 67.9542 27.9569ZM75.7728 24.3906L75.486 25.87C75.1251 25.7115 74.7365 25.6234 74.3386 25.6146C72.923 25.6146 72.2567 27.0235 72.2567 29.0312V31.6994H70.6005V24.2849H72.2567V25.9492C72.6546 24.646 73.4411 24.1264 74.4404 24.1264C74.9678 24.1176 75.523 24.2409 75.7728 24.3906ZM84.2021 24.2761V31.6905H82.5643V30.581C82.0462 31.4264 80.9266 31.849 79.8811 31.849C77.7621 31.849 76.0134 30.3257 76.0134 27.9745C76.0134 25.6058 77.7621 24.1176 79.8625 24.1176C80.9636 24.1176 82.0462 24.5315 82.5643 25.368V24.2673H84.2021V24.2761ZM82.5551 27.9569C82.5551 26.4687 81.269 25.5882 80.0661 25.5882C78.7337 25.5882 77.6511 26.5568 77.6511 27.9569C77.6511 29.3394 78.7337 30.3697 80.0661 30.3697C81.3893 30.3697 82.5551 29.4539 82.5551 27.9569ZM90.6513 24.3906L90.3644 25.87C90.0036 25.7115 89.615 25.6234 89.2171 25.6146C87.8014 25.6146 87.1352 27.0235 87.1352 29.0312V31.6994H85.4882V24.2849H87.1445V25.9492C87.5423 24.646 88.3288 24.1264 89.3281 24.1264C89.8463 24.1176 90.4014 24.2409 90.6513 24.3906ZM98.7474 28.6085H92.5388C92.7516 29.8149 93.6862 30.4049 94.9538 30.4049C95.8513 30.4049 96.7026 30.0439 97.1375 29.357L98.4421 29.9734C97.7574 31.2151 96.3602 31.849 94.8705 31.849C92.6221 31.849 90.8548 30.308 90.8548 27.9569C90.8548 25.6058 92.6591 24.1176 94.8705 24.1176C97.0819 24.1176 98.7752 25.6058 98.7752 27.9393C98.7752 28.1506 98.7567 28.3708 98.7474 28.6085ZM97.1467 27.3581C96.9986 26.1958 96.0919 25.5618 94.8983 25.5618C93.7047 25.5618 92.7979 26.1341 92.5666 27.3581H97.1467Z" fill="white"/>
</g>
<defs>
<clipPath id="clip0_4329_45">
<rect width="18.8571" height="18.8571" fill="white" transform="translate(29.1177 18.5714)"/>
</clipPath>
<clipPath id="clip1_4329_45">
<rect width="44.3698" height="7.76471" fill="white" transform="translate(54.6302 24.1176)"/>
</clipPath>
</defs>
</svg>
