<svg width="128" height="56" viewBox="0 0 128 56" fill="none" xmlns="http://www.w3.org/2000/svg">
<g clip-path="url(#clip0_3134_2168)">
<path d="M58.1358 27.0063C58.1358 26.5933 58.533 26.2914 59.2005 26.2914C59.9313 26.2914 60.5672 26.5295 61.0756 27.1339L62.1719 25.9895C61.5998 25.1951 60.5192 24.7341 59.1525 24.7341C57.2138 24.7341 56.2286 25.8468 56.2286 27.0069C56.2286 29.7402 60.3127 29.0727 60.3127 30.4393C60.3127 30.9161 59.9313 31.2338 59.1841 31.2338C58.2785 31.2338 57.5472 30.9161 56.9592 30.2644L55.8787 31.5041C56.5304 32.267 57.6268 32.7912 59.073 32.7912C61.1388 32.7912 62.2351 31.6948 62.2351 30.4078C62.2357 27.5627 58.1358 28.3414 58.1358 27.0063Z" fill="white"/>
<path d="M66.2226 24.9564V22.986H64.2838V24.9564H62.9329V26.6729H64.268V29.9625C64.268 31.8218 65.2532 32.7912 66.7948 32.7912C67.7326 32.7912 68.4475 32.4419 68.8763 32.0283L68.0023 30.5821C67.8116 30.8044 67.4617 30.9635 67.1125 30.9635C66.5403 30.9635 66.2384 30.6143 66.2384 29.8988V26.6729H69.7718V32.5689H71.7107V24.9564H69.7718H66.2226Z" fill="white"/>
<path d="M70.7255 21.6509C70.106 21.6509 69.597 22.1751 69.597 22.7952C69.597 23.4312 70.1054 23.9238 70.7255 23.9238C71.3615 23.9238 71.8699 23.4312 71.8699 22.7952C71.8699 22.1757 71.3609 21.6509 70.7255 21.6509Z" fill="white"/>
<path d="M76.9131 30.9635C76.341 30.9635 76.0391 30.6143 76.0391 29.8988V26.6729H78.0892V24.9564H76.0233V22.986H74.0845V24.9564H72.7336V26.6729H74.0687V29.9625C74.0687 31.8218 75.0539 32.7912 76.5955 32.7912C77.5333 32.7912 78.2481 32.4419 78.6771 32.0283L77.803 30.5821C77.6122 30.8044 77.2622 30.9635 76.9131 30.9635Z" fill="white"/>
<path d="M83.0782 26.5611C83.8254 26.5611 84.3974 26.7998 84.8743 27.2602L85.9863 25.8778C85.319 25.1787 84.2856 24.7341 82.9828 24.7341C80.7581 24.7341 79.0099 26.5459 79.0099 28.7708C79.0099 30.9799 80.7581 32.7912 83.0143 32.7912C84.2221 32.7912 85.319 32.3144 85.9228 31.6468L84.9374 30.2164C84.4608 30.6932 83.841 30.9635 83.0623 30.9635C81.8225 30.9635 80.9489 29.9783 80.9489 28.7544C80.9489 27.5305 81.807 26.5611 83.0782 26.5611Z" fill="white"/>
<path d="M91.1074 24.7341C90.1699 24.7341 89.4391 25.0839 88.9621 25.7035V21.6351H87.0236V32.5683H88.9621V28.246C88.9621 27.2129 89.5505 26.5618 90.5195 26.5618C91.4575 26.5618 92.0614 27.2135 92.0614 28.246V32.5683H94V27.9593C93.9995 25.9738 92.8716 24.7341 91.1074 24.7341Z" fill="white"/>
<path fill-rule="evenodd" clip-rule="evenodd" d="M40.305 35.5207C41.0357 35.5334 41.6603 35.5397 42.2716 35.5397C42.8823 35.5397 43.4886 35.5334 44.1239 35.5201L44.1864 35.5182C45.0264 35.4828 45.819 35.2978 46.5414 34.9669C47.2475 34.6435 47.8677 34.1914 48.3842 33.623C48.8674 33.0925 49.2412 32.4805 49.4964 31.8048C49.5665 31.6178 49.6277 31.4271 49.6783 31.2345C50.6887 30.8581 51.5994 30.1931 52.2777 29.3285C53.0854 28.2998 53.53 27.0285 53.53 25.7496C53.53 24.9438 53.3601 24.1657 53.0248 23.4376C52.7235 22.7839 52.296 22.1878 51.7541 21.6649C50.7083 20.6569 49.2671 20.0885 47.5866 20.021L47.5551 20.0197L47.5228 20.0191C46.7896 20.0064 46.1651 20.0001 45.5563 20.0001C44.9462 20.0001 44.3405 20.0064 43.7039 20.0197C43.7039 20.0197 43.6566 20.021 43.6408 20.0216C42.8009 20.057 42.0083 20.242 41.2864 20.5729C40.5804 20.8963 39.9602 21.3485 39.4436 21.9168C38.9605 22.448 38.5866 23.0593 38.3315 23.735C38.2614 23.922 38.2001 24.1127 38.1496 24.3053C37.1391 24.6817 36.2285 25.3467 35.5502 26.2113C34.7425 27.2401 34.2979 28.5113 34.2979 29.7902C34.2979 30.596 34.4677 31.3741 34.8031 32.1023C35.1043 32.7559 35.5319 33.3527 36.0737 33.875C37.1196 34.8829 38.5607 35.4513 40.2393 35.5188L40.2728 35.5201L40.305 35.5207ZM50.9652 22.4833C51.4048 22.907 51.7502 23.3883 51.9921 23.9131C52.2586 24.4909 52.3937 25.1092 52.3944 25.7502C52.3944 26.7758 52.0356 27.7977 51.3845 28.6275C50.7543 29.4308 49.8789 30.0206 48.9203 30.2878L48.6954 30.3503C48.6506 30.7084 48.5635 31.0614 48.434 31.4037C48.2294 31.9443 47.93 32.4344 47.5442 32.8588C47.1311 33.3129 46.6348 33.6747 46.0689 33.9337C45.4809 34.2027 44.8317 34.3536 44.1395 34.3827C44.1282 34.3833 44.1168 34.3839 44.1054 34.3839H44.101C43.4726 34.3966 42.874 34.4029 42.2715 34.4029C41.6677 34.4029 41.0494 34.3966 40.3251 34.3839L40.3061 34.3833L40.2872 34.3827C38.889 34.3258 37.7042 33.8673 36.8624 33.0558C36.4228 32.6321 36.0774 32.1508 35.8355 31.626C35.5696 31.0481 35.4345 30.4305 35.4345 29.7895C35.4345 28.7639 35.7932 27.7421 36.4437 26.9116C37.0739 26.1083 37.9492 25.5184 38.9079 25.2513L39.1327 25.1888C39.1776 24.8307 39.2647 24.4777 39.3942 24.1354C39.5988 23.5948 39.8981 23.1047 40.284 22.6803C40.697 22.2262 41.1934 21.8644 41.7593 21.6054C42.3466 21.3364 42.9952 21.1855 43.6874 21.1564C43.6987 21.1558 43.7107 21.1552 43.7221 21.1552H43.7265C44.3549 21.1425 44.9536 21.1362 45.5561 21.1362C46.1599 21.1362 46.7781 21.1425 47.5025 21.1552L47.5214 21.1558L47.5404 21.1564C48.9386 21.2133 50.1234 21.6718 50.9652 22.4833ZM47.2821 26.7265C47.985 27.2223 48.4176 28.3023 48.4731 28.6869C49.7368 28.3345 50.7315 27.1244 50.7315 25.7502C50.7315 24.9235 50.3754 24.2232 49.812 23.68C49.2487 23.1375 48.4371 22.8565 47.4734 22.8174C46.1731 22.7946 45.0647 22.7908 43.7606 22.8174H43.7587C41.7707 22.8995 40.7608 24.3754 40.7608 25.7502V25.7508C40.7608 26.5775 41.0943 27.2609 41.5307 27.7067C41.9942 28.1981 42.5424 28.5062 43.611 28.7165C43.9078 28.7746 44.4162 28.8744 44.6719 29.1466C44.8146 29.2982 44.9283 29.5192 44.9283 29.7415C44.9283 29.9455 44.8582 30.1747 44.6928 30.3535C44.533 30.5259 44.2532 30.6484 43.9349 30.6541C42.7647 30.6755 41.4113 30.6737 40.2404 30.6541C39.9221 30.6484 39.6424 30.5259 39.4826 30.3535C39.3171 30.1741 39.247 29.9455 39.247 29.7415C39.247 29.2975 39.6285 28.829 40.3339 28.829C40.4034 28.8277 40.4716 28.8277 40.5417 28.8283C40.5499 28.8283 40.553 28.8182 40.5467 28.8138C39.8438 28.318 39.4112 27.2381 39.3557 26.8535C38.0926 27.2059 37.0973 28.4159 37.0973 29.7901C37.0973 30.6168 37.4535 31.3178 38.0168 31.8603C38.5801 32.4028 39.3917 32.6839 40.3554 32.723C41.6557 32.7457 42.7641 32.7495 44.0682 32.723H44.0701C46.0582 32.6409 47.068 31.165 47.068 29.7901V29.7895C47.068 28.9628 46.7345 28.2795 46.2982 27.8337C45.8346 27.3423 45.2864 27.0341 44.2179 26.8238C43.921 26.7657 43.4127 26.6659 43.1569 26.3937C43.0142 26.2422 42.9005 26.0211 42.9005 25.7988C42.9005 25.5948 42.9706 25.3656 43.136 25.1869C43.2958 25.0145 43.5756 24.892 43.8939 24.8863C45.0641 24.8648 46.4175 24.8667 47.5884 24.8863C47.9067 24.892 48.1864 25.0145 48.3462 25.1869C48.5117 25.3662 48.5818 25.5948 48.5818 25.7988C48.5818 26.2428 48.2003 26.7114 47.4949 26.7114C47.4254 26.7127 47.3572 26.7127 47.2871 26.712C47.2789 26.712 47.2758 26.7221 47.2821 26.7265Z" fill="white"/>
</g>
<defs>
<clipPath id="clip0_3134_2168">
<rect width="60" height="15.5396" fill="white" transform="translate(34 20)"/>
</clipPath>
</defs>
</svg>
