<svg width="32" height="32" viewBox="0 0 32 32" fill="none" xmlns="http://www.w3.org/2000/svg">
<path d="M29.8667 7.39948C28.8459 7.85282 27.7494 8.15788 26.5985 8.29548C27.7739 7.59148 28.6753 6.47682 29.0998 5.14775C28.0011 5.79948 26.783 6.27308 25.4859 6.52908C24.4481 5.42295 22.9697 4.73175 21.3334 4.73175C18.191 4.73175 15.6438 7.28002 15.6438 10.4214C15.6438 10.8672 15.695 11.3024 15.791 11.7174C11.0625 11.4806 6.87046 9.21495 4.06299 5.77175C3.57446 6.61228 3.29392 7.58935 3.29392 8.63362C3.29392 10.607 4.29766 12.3488 5.82406 13.3686C4.89179 13.3387 4.01392 13.0827 3.24699 12.6571C3.24699 12.6816 3.24699 12.704 3.24699 12.7286C3.24699 15.4859 5.20752 17.7856 7.81126 18.3072C7.33446 18.4374 6.83099 18.5067 6.31152 18.5067C5.94566 18.5067 5.58832 18.4704 5.24166 18.4054C5.96592 20.6656 8.06726 22.3115 10.5569 22.3573C8.61019 23.8837 6.15686 24.7936 3.49019 24.7936C3.03152 24.7936 2.57819 24.767 2.13232 24.7136C4.65072 26.3275 7.64059 27.2694 10.8545 27.2694C21.3206 27.2694 27.0422 18.5995 27.0422 11.0806C27.0422 10.8342 27.0369 10.5888 27.0262 10.3446C28.1387 9.54135 29.1041 8.53975 29.8667 7.39948Z" fill="#535366"/>
</svg>
