<svg width="802" height="802" viewBox="0 0 802 802" fill="none" xmlns="http://www.w3.org/2000/svg">
<g clip-path="url(#clip0_75_4)">
<path d="M401 802C622.466 802 802 622.466 802 401C802 179.534 622.466 0 401 0C179.534 0 0 179.534 0 401C0 622.466 179.534 802 401 802Z" fill="#010314"/>
<path d="M379 108C374.582 108 371 104.418 371 100V68C371 63.5817 374.582 60 379 60H423C427.418 60 431 63.5817 431 68C431 72.4183 427.418 76 423 76H387V100C387 104.418 383.418 108 379 108Z" fill="#D9D9D9"/>
<path d="M371 122C371 117.582 374.582 114 379 114H401C405.418 114 409 117.582 409 122C409 126.418 405.418 130 401 130H379C374.582 130 371 126.418 371 122Z" fill="#D9D9D9"/>
<path opacity="0.7" d="M415 122C415 117.582 418.582 114 423 114C427.418 114 431 117.582 431 122C431 126.418 427.418 130 423 130C418.582 130 415 126.418 415 122Z" fill="#D9D9D9"/>
<path opacity="0.5" d="M405 86C400.582 86 397 89.5817 397 94C397 98.4183 400.582 102 405 102C409.418 102 413 98.4183 413 94C413 89.5817 409.418 86 405 86Z" fill="#D9D9D9"/>
</g>
<defs>
<clipPath id="clip0_75_4">
<rect width="802" height="802" fill="white"/>
</clipPath>
</defs>
</svg>
