<svg width="802" height="802" viewBox="0 0 802 802" fill="none" xmlns="http://www.w3.org/2000/svg">
<circle cx="401" cy="401" r="401" fill="#010314"/>
<path d="M100.706 491.522L100.706 484.097L74 484.097L74 491.522L84.0384 491.522L84.0384 500.575L74 500.575L74 508L100.706 508L100.706 500.575L89.9857 500.575L89.9857 491.522L100.706 491.522ZM79.4548 458.105L79.4548 465.567L90.857 465.567C93.3193 465.567 94.7587 466.931 94.7587 469.09C94.7587 471.211 93.3193 472.613 90.857 472.613L79.4548 472.613L79.4548 480L91.804 480C97.4104 480 100.895 476.931 100.895 472.007C100.895 469.014 99.4938 466.779 97.6756 465.567L100.706 465.567L100.706 458.105L79.4548 458.105ZM100.706 424.938L100.706 417.513L88.319 417.513C82.7505 417.513 79.2654 420.733 79.2654 426.112C79.2654 429.256 81.008 431.756 83.1672 433.196C80.7049 434.598 79.2654 437.098 79.2654 440.28C79.2654 443.159 80.5534 445.242 82.258 446.454L79.4548 446.454L79.4548 453.879L100.706 453.879L100.706 446.454L89.3039 446.454C86.9931 446.454 85.7052 445.091 85.7052 442.893C85.7052 440.772 86.9931 439.408 89.3039 439.408L100.706 439.408L100.706 431.984L89.3039 431.984C86.9931 431.984 85.7052 430.62 85.7052 428.461C85.7052 426.339 86.9931 424.938 89.3039 424.938L100.706 424.938ZM90.0615 414.658C96.8422 414.658 100.971 410.643 100.971 405.604C100.971 402.612 99.6454 400.453 97.7513 399.354L100.706 399.354L100.706 391.929L79.4548 391.929L79.4548 399.354L82.4096 399.354C80.5155 400.453 79.1897 402.574 79.1897 405.604C79.1897 410.643 83.2808 414.658 90.0615 414.658ZM90.0615 399.354C92.9404 399.354 94.4936 401.134 94.4936 403.218C94.4936 405.339 92.9026 407.082 90.0615 407.082C87.1825 407.082 85.6673 405.339 85.6673 403.218C85.6673 401.134 87.2204 399.354 90.0615 399.354ZM90.0615 388.911C96.8422 388.911 100.971 384.895 100.971 379.857C100.971 376.865 99.6454 374.705 97.7513 373.607L100.706 373.607L100.706 366.182L79.4548 366.182L79.4548 373.607L82.4096 373.607C80.5155 374.705 79.1897 376.827 79.1897 379.857C79.1897 384.895 83.2808 388.911 90.0615 388.911ZM90.0615 373.607C92.9404 373.607 94.4936 375.387 94.4936 377.471C94.4936 379.592 92.9026 381.335 90.0615 381.335C87.1825 381.335 85.6673 379.592 85.6673 377.471C85.6673 375.387 87.2204 373.607 90.0615 373.607ZM100.706 347.481L100.706 340.056L88.319 340.056C82.7505 340.056 79.2654 343.125 79.2654 348.049C79.2654 351.042 80.667 353.277 82.4853 354.527L79.4548 354.527L79.4548 361.951L100.706 361.951L100.706 354.527L89.3039 354.527C86.8416 354.527 85.4021 353.163 85.4021 350.966C85.4021 348.845 86.8416 347.481 89.3039 347.481L100.706 347.481ZM94.4557 318.103C86.387 318.14 88.8114 329.467 85.7809 329.467C84.9854 329.467 84.493 328.823 84.493 327.611C84.493 326.02 85.2885 325.073 86.6143 324.845L86.6143 318.14C82.4095 318.633 79.1897 321.663 79.1897 327.459C79.1897 333.217 82.258 336.285 85.9704 336.285C93.7738 336.285 91.2358 324.997 94.342 324.997C95.0996 324.997 95.7057 325.717 95.7057 326.967C95.7057 328.52 94.9481 329.694 93.5465 329.884L93.5465 337.081C97.7892 336.778 100.971 332.838 100.971 326.929C100.971 321.436 98.168 318.103 94.4557 318.103Z" fill="white"/>
<path d="M415.243 104.396C410.757 101.856 406.927 98.5522 403.755 94.4847C402.997 93.5124 402.055 92.7762 400.927 92.2763C399.709 91.7358 398.482 91.5467 397.248 91.709C396.871 91.7583 395.721 92.1133 393.798 92.7741C390.093 94.0478 386.319 95.0788 382.476 95.8671C382.048 95.9541 381.65 95.9504 381.282 95.8562C380.811 95.7374 380.354 95.5788 379.909 95.3802C379.704 95.2889 379.576 95.1745 379.524 95.0368C379.456 94.8557 379.509 94.7042 379.685 94.5825C379.783 94.5144 379.922 94.4775 380.102 94.4717C381.786 94.4079 383.468 94.321 385.149 94.2108C385.191 94.2079 385.228 94.1985 385.26 94.1826C385.382 94.1203 385.377 94.071 385.247 94.0348C381.648 93.0161 378.136 91.7568 374.712 90.257C374.678 90.2426 374.648 90.2225 374.623 90.1979C374.598 90.1732 374.578 90.1446 374.566 90.1136C374.369 89.6267 374.556 89.397 375.127 89.4245C378.01 89.5666 379.84 89.647 380.615 89.6658C380.632 89.6664 380.65 89.6639 380.666 89.6586C380.683 89.6532 380.697 89.6451 380.708 89.635C380.72 89.6249 380.728 89.6131 380.732 89.6006C380.735 89.5882 380.735 89.5755 380.73 89.5637C380.713 89.5187 380.665 89.4818 380.587 89.4528C377.276 88.2414 373.866 86.6322 370.358 84.6252C370.174 84.5194 370.052 84.4238 369.993 84.3383C369.859 84.1485 369.9 83.9688 370.114 83.7992C370.215 83.7199 370.345 83.6832 370.477 83.6971L375.333 84.2079C375.727 84.2485 375.749 84.1753 375.398 83.9884C370.269 81.254 365.378 77.9718 360.727 74.1419C360.669 74.094 360.629 74.0336 360.614 73.9702C360.534 73.6369 360.663 73.4333 361 73.3594C361.064 73.3454 361.135 73.3562 361.203 73.3898C374.353 80.2179 388.273 83.7652 402.962 84.0318C403.765 84.0463 404.503 84.1528 405.177 84.3513C405.856 84.5513 406.509 84.8868 407.135 85.3577C408.476 86.3619 409.392 87.6951 409.885 89.3572C410.028 89.8397 410.101 90.0839 410.102 90.0897C410.972 92.7618 412.137 95.2991 413.597 97.7016C413.648 97.7857 413.653 97.7864 413.613 97.7038C412.385 95.236 411.417 92.6763 410.707 90.0245C410.267 88.3798 409.935 87.3335 409.709 86.8858C408.537 84.5528 406.506 83.266 403.616 83.0254C400.373 82.7545 396.895 82.2567 393.181 81.5322C392.723 81.4423 392.355 81.254 392.079 80.967C391.896 80.7787 391.802 80.6816 391.796 80.6758C389.552 78.6094 387.411 76.4401 385.373 74.168C385.324 74.113 385.295 74.0471 385.291 73.9811C385.266 73.5985 385.417 73.4261 385.745 73.4637C385.872 73.4782 386.049 73.5456 386.275 73.6659C387.763 74.4614 389.241 75.2287 390.707 75.9677C391.156 76.1938 391.208 76.125 390.861 75.7612C388.242 73.0095 385.834 70.0852 383.639 66.9886C383.595 66.9266 383.572 66.8578 383.573 66.7929C383.579 66.5176 383.702 66.3626 383.941 66.3278C384.08 66.3075 384.24 66.3553 384.421 66.4712C385.851 67.3798 387.288 68.2362 388.731 69.0404C388.866 69.1158 388.887 69.0919 388.794 68.9687C385.227 64.1998 382.143 59.136 379.544 53.7774C379.454 53.5933 379.428 53.4332 379.467 53.297C379.538 53.0492 379.712 52.9565 379.987 53.0188C380.126 53.0511 380.25 53.1302 380.337 53.2427C389.105 64.5266 399.726 73.3565 412.2 79.7324C413.831 80.5656 414.779 81.0844 415.043 81.2887C415.924 81.9698 416.597 82.8545 417.062 83.9427C417.646 85.3092 417.829 86.7206 417.61 88.1769C417.516 88.8043 417.468 89.1217 417.466 89.1289C416.948 93.6718 417.225 98.1269 418.299 102.494C418.379 102.816 418.523 103.113 418.731 103.386C418.924 103.636 419.181 103.823 419.501 103.946C420.396 104.293 421.045 104.103 421.446 103.377C421.646 103.018 421.758 102.447 421.781 101.664C421.872 98.6095 421.806 95.557 421.583 92.5067C421.476 91.0591 421.373 89.6108 421.275 88.1617C421.221 87.3705 421.385 86.438 421.766 85.3642C422.596 83.0312 424.034 81.3641 426.078 80.3628C427.403 79.7136 428.806 79.4259 430.289 79.4999C431.926 79.5824 433.448 80.0925 434.853 81.0301C435.298 81.3271 435.773 81.6083 436.277 81.8734C437.445 82.4893 438.424 83.316 439.216 84.3535C439.573 84.823 439.999 85.5693 440.491 86.5923C440.865 87.369 441.233 88.1486 441.594 88.9311C441.976 89.7571 442.281 90.6113 442.509 91.4938C442.59 91.8068 442.509 91.8561 442.267 91.6416C441.369 90.8446 440.418 90.0549 439.413 89.2724C439.148 89.0666 438.825 88.9036 438.444 88.7833C436.637 88.2095 435.157 87.1865 434.005 85.7142C433.478 85.0404 433.094 84.6136 432.853 84.4339C432.335 84.0485 431.785 83.8101 431.206 83.7188C429.465 83.4478 428.043 83.955 426.939 85.2404C426.21 86.0895 425.891 87.0988 425.983 88.2682C426.281 92.1285 426.604 95.9867 426.95 99.8426C427.521 106.208 426.232 112.06 423.083 117.397C422.332 118.668 421.494 119.849 420.568 120.94C416.777 125.401 411.998 128.24 406.229 129.456C404.793 129.759 403.357 129.935 401.921 129.984C399.162 130.077 396.407 129.765 393.657 129.047C393.55 129.02 393.544 128.979 393.642 128.926C396.104 127.546 397.868 125.672 398.936 123.305C399.013 123.134 399.337 122.151 399.908 120.357C400.412 118.77 401.073 117.263 401.89 115.836C401.992 115.658 401.951 115.616 401.769 115.71C400.999 116.11 400.22 116.487 399.43 116.84C399.176 116.955 398.989 117.011 398.867 117.008C398.65 117.005 398.518 116.887 398.471 116.656C398.445 116.531 398.467 116.377 398.537 116.195C398.841 115.388 399.131 114.596 399.408 113.819C399.469 113.645 399.418 113.601 399.256 113.686C397.691 114.509 396.098 115.273 394.478 115.977C394.242 116.08 394.058 116.118 393.926 116.09C393.734 116.05 393.631 115.916 393.618 115.688C393.61 115.571 393.646 115.421 393.724 115.238C394.078 114.424 394.372 113.589 394.607 112.732C394.625 112.663 394.601 112.642 394.533 112.669C391.882 113.737 389.186 114.671 386.445 115.471C386.211 115.538 386.028 115.542 385.895 115.484C385.699 115.398 385.635 115.239 385.701 115.006C385.738 114.88 385.827 114.758 385.971 114.641C386.959 113.833 387.955 113.035 388.96 112.245C389.19 112.064 389.162 112.004 388.875 112.065C385.555 112.773 382.136 113.316 378.618 113.693C378.519 113.704 378.419 113.681 378.335 113.628C378.045 113.445 377.986 113.241 378.159 113.017C378.233 112.92 378.373 112.818 378.581 112.71C380.037 111.957 381.485 111.187 382.923 110.4C383.048 110.333 383.063 110.28 382.967 110.241C382.935 110.228 382.897 110.225 382.852 110.232C379.283 110.772 375.694 111.105 372.086 111.232C371.844 111.241 371.661 111.189 371.536 111.076C371.34 110.899 371.34 110.709 371.536 110.506C371.624 110.417 371.766 110.332 371.962 110.254C373.644 109.589 375.278 108.903 376.863 108.196C377.113 108.084 377.1 108.036 376.827 108.05C373.13 108.255 369.435 108.244 365.741 108.018C365.46 108 365.248 107.955 365.106 107.881C364.799 107.721 364.765 107.504 365.004 107.229C365.109 107.107 365.267 107.013 365.48 106.946C367.044 106.45 368.497 105.966 369.841 105.494C370.236 105.355 370.225 105.272 369.806 105.246C363.862 104.885 358.122 104.001 352.586 102.594C352.346 102.532 352.18 102.441 352.089 102.321C351.925 102.105 351.988 101.897 352.278 101.697C352.334 101.659 352.406 101.64 352.482 101.642C366.802 102.239 380.502 99.7441 393.583 94.1565C395.168 93.4798 396.28 93.0958 396.917 93.0045C398.753 92.7422 400.464 93.2066 402.051 94.3978C402.524 94.7513 402.995 95.1861 403.464 95.7019C403.976 96.2613 404.236 96.546 404.247 96.5562C406.727 99.1181 409.628 101.36 412.948 103.281C413.862 103.812 414.625 104.189 415.236 104.414C415.307 104.44 415.31 104.434 415.243 104.396Z" fill="white"/>
<path fill-rule="evenodd" clip-rule="evenodd" d="M739.651 382.633L739.651 419.39C739.651 423.593 736.244 426.999 732.042 426.999C727.839 426.999 724.432 423.593 724.432 419.39L724.432 390.247L705.323 390.247C701.118 390.247 697.709 386.838 697.709 382.633C697.709 378.428 701.118 375.019 705.323 375.019L731.506 375.019C731.683 375.007 731.862 375 732.042 375C736.244 375 739.651 378.407 739.651 382.61L739.651 382.633ZM709.372 397.992C713.439 397.992 716.736 401.399 716.736 405.602C716.736 409.805 713.439 413.211 709.372 413.211L708.881 413.211C704.814 413.211 701.517 409.805 701.517 405.602C701.517 401.399 704.814 397.992 708.881 397.992L709.372 397.992ZM686.384 411.781C690.587 411.781 693.994 415.188 693.994 419.39C693.994 423.593 690.587 427 686.384 427C682.181 427 678.774 423.593 678.774 419.39C678.774 415.188 682.181 411.781 686.384 411.781ZM693.838 400.313L693.838 382.633C693.838 378.428 690.429 375.019 686.224 375.019C682.019 375.019 678.61 378.428 678.61 382.633L678.61 400.313C678.61 404.518 682.019 407.927 686.224 407.927C690.429 407.927 693.838 404.518 693.838 400.313Z" fill="white"/>
</svg>
