<svg width="802" height="802" viewBox="0 0 802 802" fill="none" xmlns="http://www.w3.org/2000/svg">
<g clip-path="url(#clip0_51_2)">
<path d="M401 802C622.466 802 802 622.466 802 401C802 179.534 622.466 0 401 0C179.534 0 0 179.534 0 401C0 622.466 179.534 802 401 802Z" fill="#010314"/>
<path d="M410.867 99.7911C407.024 97.6152 403.744 94.7851 401.027 91.3008C400.378 90.4678 399.57 89.8371 398.605 89.409C397.561 88.9459 396.51 88.7839 395.452 88.923C395.13 88.9653 394.145 89.2692 392.498 89.8353C389.323 90.9264 386.09 91.8097 382.798 92.4849C382.432 92.5594 382.092 92.5563 381.776 92.4755C381.373 92.3738 380.981 92.2379 380.6 92.0678C380.424 91.9897 380.315 91.8916 380.27 91.7737C380.212 91.6185 380.258 91.4889 380.408 91.3845C380.492 91.3262 380.611 91.2945 380.765 91.2895C382.208 91.2348 383.649 91.1604 385.089 91.0661C385.125 91.0636 385.156 91.0555 385.184 91.0418C385.288 90.9885 385.284 90.9464 385.172 90.9153C382.089 90.0426 379.081 88.9639 376.148 87.6792C376.119 87.6668 376.093 87.6497 376.071 87.6285C376.05 87.6074 376.034 87.5829 376.023 87.5563C375.854 87.1392 376.014 86.9425 376.503 86.9661C378.973 87.0876 380.541 87.1567 381.205 87.1727C381.22 87.1734 381.235 87.1711 381.249 87.1666C381.263 87.1619 381.275 87.1549 381.285 87.1464C381.294 87.1376 381.301 87.1277 381.304 87.1169C381.308 87.1063 381.307 87.0953 381.303 87.0852C381.288 87.0467 381.248 87.0152 381.18 86.9902C378.344 85.9525 375.423 84.5742 372.418 82.8549C372.261 82.7643 372.156 82.6824 372.105 82.609C371.991 82.4466 372.026 82.2927 372.21 82.1473C372.295 82.0794 372.407 82.0479 372.52 82.0598L376.68 82.4974C377.018 82.5321 377.036 82.4695 376.736 82.3093C372.342 79.9671 368.152 77.1555 364.168 73.8747C364.118 73.8336 364.084 73.782 364.071 73.7276C364.003 73.4421 364.113 73.2677 364.402 73.2045C364.457 73.1923 364.518 73.2015 364.575 73.2303C375.84 79.0794 387.764 82.1181 400.347 82.3467C401.035 82.359 401.668 82.4502 402.245 82.6203C402.827 82.7915 403.386 83.079 403.922 83.4825C405.071 84.3426 405.856 85.4845 406.278 86.9083C406.401 87.3216 406.463 87.5309 406.464 87.5358C407.209 89.8248 408.207 91.9983 409.458 94.0563C409.501 94.1283 409.506 94.129 409.471 94.0584C408.42 91.9443 407.59 89.7516 406.981 87.48C406.605 86.0711 406.321 85.1749 406.127 84.7913C405.123 82.7928 403.383 81.6906 400.908 81.4845C398.13 81.2523 395.15 80.8259 391.969 80.2053C391.576 80.1284 391.262 79.9671 391.025 79.7211C390.868 79.5598 390.788 79.4768 390.783 79.4716C388.86 77.7015 387.026 75.8435 385.28 73.897C385.238 73.85 385.213 73.7935 385.21 73.7368C385.189 73.4092 385.318 73.2614 385.599 73.2938C385.708 73.3062 385.86 73.364 386.053 73.4668C387.328 74.1483 388.594 74.8056 389.85 75.4387C390.234 75.6324 390.279 75.5735 389.982 75.2619C387.738 72.9045 385.675 70.3996 383.795 67.7471C383.757 67.694 383.738 67.635 383.739 67.5795C383.744 67.3437 383.849 67.2107 384.054 67.181C384.173 67.1637 384.31 67.2046 384.465 67.3038C385.69 68.0821 386.921 68.8158 388.157 69.5048C388.273 69.5691 388.291 69.5487 388.211 69.4431C385.155 65.358 382.514 61.0205 380.287 56.43C380.21 56.2723 380.188 56.1353 380.222 56.0185C380.282 55.8063 380.431 55.7269 380.667 55.7802C380.786 55.8079 380.892 55.8756 380.966 55.9719C388.477 65.6379 397.576 73.202 408.261 78.6636C409.659 79.3773 410.47 79.8217 410.696 79.9968C411.451 80.5802 412.028 81.338 412.426 82.2702C412.926 83.4408 413.083 84.6498 412.895 85.8974C412.814 86.4349 412.773 86.7067 412.772 86.7128C412.328 90.6044 412.566 94.4206 413.485 98.1619C413.554 98.4375 413.677 98.692 413.856 98.9253C414.021 99.1402 414.241 99.3002 414.515 99.4057C415.282 99.7025 415.838 99.5398 416.181 98.9179C416.353 98.6101 416.448 98.121 416.468 97.4507C416.546 94.8342 416.49 92.2192 416.299 89.6063C416.207 88.3663 416.119 87.1257 416.034 85.8843C415.988 85.2066 416.129 84.4077 416.455 83.4879C417.167 81.4894 418.398 80.0613 420.149 79.2036C421.284 78.6474 422.486 78.4011 423.756 78.4643C425.159 78.5352 426.462 78.9721 427.666 79.7751C428.047 80.0296 428.454 80.2706 428.886 80.4976C429.886 81.0252 430.725 81.7333 431.403 82.6221C431.71 83.0244 432.074 83.6636 432.496 84.54C432.816 85.2053 433.131 85.8731 433.44 86.5434C433.768 87.251 434.029 87.9827 434.224 88.7387C434.293 89.0069 434.224 89.049 434.017 88.8654C433.248 88.1825 432.433 87.5061 431.572 86.8356C431.345 86.6595 431.068 86.5197 430.742 86.4169C429.194 85.9253 427.927 85.0489 426.94 83.7878C426.488 83.2104 426.159 82.845 425.953 82.6911C425.509 82.3608 425.038 82.1568 424.542 82.0785C423.051 81.8463 421.833 82.2807 420.887 83.3819C420.262 84.1093 419.989 84.9738 420.067 85.9755C420.323 89.2823 420.599 92.5873 420.896 95.8903C421.385 101.343 420.281 106.356 417.583 110.928C416.941 112.016 416.222 113.028 415.429 113.963C412.182 117.785 408.088 120.216 403.146 121.258C401.916 121.517 400.686 121.668 399.455 121.71C397.092 121.79 394.732 121.522 392.376 120.908C392.284 120.884 392.28 120.849 392.363 120.803C394.472 119.622 395.984 118.017 396.899 115.988C396.965 115.842 397.242 115 397.731 113.463C398.163 112.104 398.729 110.813 399.43 109.591C399.516 109.438 399.482 109.402 399.325 109.483C398.666 109.825 397.998 110.148 397.322 110.451C397.105 110.549 396.944 110.597 396.84 110.594C396.653 110.592 396.54 110.491 396.501 110.293C396.478 110.186 396.497 110.054 396.557 109.898C396.817 109.206 397.066 108.528 397.303 107.863C397.355 107.714 397.312 107.676 397.173 107.749C395.832 108.454 394.468 109.108 393.08 109.712C392.878 109.8 392.72 109.832 392.607 109.809C392.442 109.774 392.354 109.659 392.343 109.464C392.337 109.364 392.367 109.235 392.434 109.079C392.737 108.381 392.989 107.665 393.19 106.932C393.206 106.872 393.185 106.854 393.127 106.878C390.856 107.793 388.547 108.593 386.198 109.278C385.999 109.335 385.842 109.339 385.727 109.289C385.56 109.216 385.505 109.079 385.562 108.879C385.593 108.771 385.67 108.667 385.793 108.567C386.639 107.875 387.492 107.191 388.353 106.515C388.55 106.36 388.526 106.308 388.28 106.36C385.436 106.967 382.508 107.432 379.494 107.755C379.409 107.764 379.324 107.745 379.252 107.699C379.003 107.543 378.953 107.368 379.101 107.176C379.164 107.093 379.284 107.005 379.462 106.913C380.709 106.268 381.95 105.608 383.182 104.934C383.289 104.877 383.301 104.832 383.219 104.798C383.192 104.787 383.159 104.784 383.121 104.791C380.063 105.252 376.989 105.538 373.898 105.647C373.691 105.654 373.534 105.61 373.427 105.513C373.26 105.361 373.26 105.199 373.427 105.025C373.503 104.948 373.625 104.876 373.792 104.809C375.234 104.239 376.633 103.652 377.991 103.046C378.204 102.95 378.194 102.909 377.959 102.921C374.793 103.096 371.627 103.087 368.463 102.893C368.223 102.878 368.041 102.839 367.92 102.776C367.656 102.639 367.627 102.453 367.832 102.217C367.921 102.113 368.057 102.032 368.24 101.975C369.579 101.551 370.824 101.136 371.975 100.731C372.314 100.612 372.304 100.542 371.945 100.519C366.853 100.21 361.936 99.453 357.195 98.2476C356.989 98.1943 356.847 98.116 356.768 98.013C356.628 97.828 356.682 97.65 356.93 97.4786C356.979 97.446 357.04 97.4298 357.105 97.432C369.372 97.9434 381.108 95.8059 392.313 91.0195C393.671 90.4399 394.623 90.111 395.169 90.0327C396.742 89.8081 398.208 90.2059 399.567 91.2263C399.972 91.5291 400.375 91.9015 400.778 92.3434C401.216 92.8224 401.439 93.0666 401.448 93.0751C403.573 95.2698 406.057 97.1901 408.901 98.836C409.684 99.2903 410.338 99.6136 410.862 99.8062C410.923 99.8285 410.925 99.8235 410.867 99.7911Z" fill="white"/>
</g>
<defs>
<clipPath id="clip0_51_2">
<rect width="802" height="802" fill="white"/>
</clipPath>
</defs>
</svg>
