<svg width="802" height="802" viewBox="0 0 802 802" fill="none" xmlns="http://www.w3.org/2000/svg">
<circle cx="401" cy="401" r="401" fill="#010314"/>
<g clip-path="url(#clip0_4602_62)">
<path d="M355.808 75.4458L363.056 98.7162H363.329L370.546 75.4458H381.354L369.718 108.448H356.632L345 75.4458H355.808Z" fill="white"/>
<path d="M384.883 108.448V83.6963H394.382V108.448H384.883ZM389.632 81.118C388.407 81.1408 387.22 80.7128 386.328 79.9258C385.894 79.5666 385.547 79.1253 385.309 78.631C385.072 78.1367 384.949 77.6008 384.949 77.0588C384.949 76.5167 385.072 75.9808 385.309 75.4865C385.547 74.9923 385.894 74.551 386.328 74.1917C387.234 73.4247 388.411 73 389.632 73C390.854 73 392.031 73.4247 392.937 74.1917C393.369 74.5517 393.715 74.9932 393.952 75.4874C394.189 75.9816 394.312 76.5171 394.312 77.0588C394.312 77.6004 394.189 78.136 393.952 78.6301C393.715 79.1243 393.369 79.5659 392.937 79.9258C392.046 80.7151 390.859 81.1435 389.632 81.118V81.118Z" fill="white"/>
<path d="M414.09 101.777C413.908 101.824 413.614 101.877 413.209 101.938C412.881 101.999 412.548 102.032 412.213 102.037C411.866 102.048 411.52 101.993 411.196 101.876C410.946 101.768 410.74 101.587 410.61 101.36C410.477 101.087 410.412 100.79 410.42 100.49V90.1438H414.967V83.696H410.442V77.7681H400.947V83.696H397.572V90.1438H400.947V101.327C400.868 102.834 401.243 104.331 402.031 105.646C402.807 106.818 403.984 107.71 405.371 108.175C407.135 108.737 409.004 108.95 410.861 108.802C411.799 108.767 412.733 108.654 413.65 108.464C414.443 108.296 415.051 108.152 415.474 108.031L414.09 101.777Z" fill="white"/>
<path d="M426.228 108.836C424.697 108.864 423.175 108.602 421.756 108.065C420.514 107.57 419.458 106.74 418.724 105.68C417.943 104.455 417.56 103.043 417.623 101.617C417.587 100.424 417.84 99.2396 418.363 98.1516C418.832 97.2143 419.542 96.4006 420.429 95.7837C421.361 95.149 422.405 94.6741 423.514 94.3811C424.76 94.0478 426.04 93.8377 427.334 93.7541C428.802 93.6468 429.99 93.5176 430.898 93.3663C431.595 93.2805 432.263 93.0554 432.859 92.7063C433.05 92.5754 433.205 92.4032 433.31 92.2042C433.415 92.0053 433.467 91.7855 433.462 91.5636V91.4976C433.477 91.2078 433.412 90.9193 433.273 90.66C433.134 90.4006 432.926 90.1791 432.669 90.0166C432.066 89.6511 431.356 89.4709 430.638 89.501C429.86 89.4726 429.091 89.6684 428.435 90.062C428.147 90.2609 427.908 90.515 427.733 90.8074C427.558 91.0997 427.452 91.4236 427.422 91.7575H418.658C418.765 90.269 419.293 88.8339 420.187 87.5993C421.196 86.252 422.584 85.1926 424.197 84.5383C425.959 83.7628 428.152 83.375 430.775 83.375C432.496 83.3534 434.212 83.566 435.868 84.0062C437.248 84.3587 438.548 84.943 439.706 85.7305C440.709 86.4055 441.534 87.2877 442.116 88.3088C442.677 89.2889 442.966 90.3854 442.957 91.4976V108.448H434.079V104.971H433.872C433.398 105.832 432.741 106.594 431.942 107.211C431.188 107.784 430.315 108.206 429.378 108.448C428.353 108.717 427.292 108.847 426.228 108.836V108.836ZM429.312 103.23C430.013 103.237 430.708 103.096 431.343 102.817C431.971 102.552 432.513 102.135 432.912 101.609C433.326 101.046 433.537 100.374 433.515 99.6903V97.6277C433.26 97.7267 432.991 97.8174 432.704 97.9041C432.418 97.9907 432.132 98.0691 431.823 98.1433C431.515 98.2176 431.18 98.2919 430.823 98.3537C430.466 98.4156 430.118 98.4775 429.739 98.5311C429.108 98.6072 428.497 98.7873 427.933 99.0633C427.51 99.2668 427.154 99.5732 426.902 99.9502C426.679 100.301 426.565 100.702 426.571 101.109C426.553 101.412 426.615 101.714 426.75 101.989C426.885 102.265 427.09 102.505 427.347 102.689C427.924 103.07 428.62 103.26 429.325 103.23H429.312Z" fill="white"/>
<path d="M457.001 75.4458V108.448H447.497V75.4458H457.001Z" fill="white"/>
</g>
<defs>
<clipPath id="clip0_4602_62">
<rect width="112" height="35.84" fill="white" transform="translate(345 73)"/>
</clipPath>
</defs>
</svg>
