<svg width="802" height="802" viewBox="0 0 802 802" fill="none" xmlns="http://www.w3.org/2000/svg">
<circle cx="401" cy="401" r="401" transform="rotate(180 401 401)" fill="#010314"/>
<path d="M106.667 360.391C106.667 352.21 101.837 349.696 98.5843 349.696C92.3745 349.696 90.551 358.222 86.707 358.222C85.672 358.222 84.44 357.532 84.44 355.807C84.44 354.181 85.5241 353.442 87.5941 353.047C88.6783 352.85 89.5655 352.555 89.5655 350.682C89.5655 348.218 88.0869 346.788 86.362 346.788C83.8486 346.788 81.0394 349.943 81.0394 355.265C81.0394 361.327 84.6371 365.467 89.1712 365.467C95.7259 365.467 97.0072 357.434 100.556 357.434C101.492 357.434 102.921 358.025 102.921 360.046C102.921 362.066 101.492 363.101 99.3235 363.643C98.2886 363.89 97.5 364.235 97.5 365.763C97.5 368.079 99.1263 369.508 101.048 369.508C103.611 369.508 106.667 366.896 106.667 360.391ZM106.667 400.359C106.667 396.219 104.991 394.15 103.463 392.671C102.97 392.178 102.083 391.39 102.083 390.7C102.083 390.306 102.33 389.911 103.66 388.581C105.336 386.905 106.667 384.244 106.667 380.203C106.667 372.514 101.788 370.198 98.5843 370.198C92.4239 370.198 90.5018 378.034 86.7563 378.034C85.7214 378.034 84.44 377.344 84.44 375.668C84.44 373.993 85.7214 373.106 88.3333 372.761C89.3682 372.613 90.009 372.367 90.009 370.691C90.009 368.177 88.629 366.403 86.6084 366.403C83.8486 366.403 81.0394 369.656 81.0394 375.077C81.0394 381.237 84.6371 385.279 89.1712 385.279C95.6765 385.279 97.0072 377.936 100.506 377.936C101.492 377.936 102.921 378.576 102.921 380.498C102.921 384.934 95.1343 382.519 95.1343 387.349C95.1343 391.39 100.408 392.967 100.408 397.994C100.408 400.359 99.0771 401.986 97.2535 402.183C96.4157 402.281 95.9722 401.936 96.0215 401.246C96.0708 400.852 96.0708 400.458 96.0708 400.064C96.0708 392.77 91.6353 386.461 86.4606 386.461C82.9615 386.461 81.0394 389.369 81.0394 394.051C81.0394 403.711 89.8118 410.265 97.0565 410.265C102.33 410.265 106.667 406.717 106.667 400.359ZM92.8181 400.704C92.8181 401.739 92.5717 402.035 92.0296 402.035C90.551 402.035 85.5735 399.916 85.5735 396.219C85.5735 394.889 86.1649 394.051 87.2984 394.051C89.6147 394.051 92.8181 397.156 92.8181 400.704ZM106.667 448.608C106.667 441.363 100.161 438.652 90.0582 433.823L87.8898 432.788C84.44 431.161 82.5179 430.373 82.5179 428.894C82.5179 428.106 83.06 427.613 84.1443 427.613C85.2285 427.613 86.5592 428.106 88.4812 428.944L90.9453 430.028C95.578 432.048 97.2043 432.788 100.063 432.788C103.562 432.788 106.667 430.077 106.667 425.642C106.667 418.742 99.6192 416.081 93.311 413.419L91.4382 412.631C80.4973 408.047 77.491 401.641 77.491 394.889C77.491 391.538 78.2303 389.517 78.2303 388.728C78.2303 387.891 77.3432 387.644 76.4561 387.644C74.1398 387.644 70 389.418 70 396.663C70 407.013 77.5896 411.99 89.2698 417.116L91.2904 418.003C94.4937 419.432 95.578 420.122 95.578 421.354C95.578 422.142 95.1343 422.783 94.001 422.783C93.311 422.783 92.8181 422.586 90.4032 421.502L88.8755 420.812C84.7357 418.939 82.3701 418.249 80.2509 418.249C76.1604 418.249 73.647 420.861 73.647 425.346C73.647 431.408 78.2303 433.675 83.4051 436.139L87.742 438.209C91.5861 440.032 97.6478 442.595 98.3871 453.881C98.4857 455.359 98.9785 456 100.506 456C103.71 456 106.667 453.585 106.667 448.608Z" fill="white"/>
<path d="M375.615 85.575C376.908 85.7022 377.99 86.2323 378.859 87.1653C379.75 88.077 380.195 89.2963 380.195 90.8229C380.195 92.7525 379.559 94.2686 378.286 95.3712C377.035 96.4738 375.307 97.0251 373.102 97.0251H365.246V74.761H372.689C374.915 74.761 376.664 75.2805 377.937 76.3195C379.209 77.3373 379.845 78.7473 379.845 80.5496C379.845 83.3486 378.435 85.0237 375.615 85.575ZM372.53 77.9734H368.904V84.0801H372.53C373.675 84.0801 374.565 83.815 375.201 83.2849C375.859 82.7336 376.187 81.9809 376.187 81.0267C376.187 80.0514 375.869 79.2986 375.233 78.7685C374.597 78.2384 373.696 77.9734 372.53 77.9734ZM373.039 93.8127C374.141 93.8127 375 93.5158 375.615 92.9221C376.23 92.3284 376.537 91.5015 376.537 90.4413C376.537 89.5083 376.219 88.7556 375.583 88.183C374.947 87.5893 374.109 87.2925 373.07 87.2925H368.904V93.8127H373.039ZM381.784 97.0251V82.2036H385.251V85.0661C385.505 84.0695 386.004 83.3168 386.746 82.8079C387.488 82.2778 388.304 82.0127 389.195 82.0127C389.767 82.0127 390.223 82.0551 390.562 82.1399V85.3205C390.202 85.2781 389.746 85.2569 389.195 85.2569C387.965 85.2569 387 85.7128 386.3 86.6246C385.601 87.5151 385.251 88.798 385.251 90.4731V97.0251H381.784ZM395.117 79.341C394.63 79.8287 394.015 80.0726 393.272 80.0726C392.53 80.0726 391.915 79.8287 391.428 79.341C390.94 78.8321 390.696 78.2172 390.696 77.4963C390.696 76.7754 390.94 76.171 391.428 75.6834C391.915 75.1745 392.53 74.92 393.272 74.92C394.015 74.92 394.63 75.1745 395.117 75.6834C395.605 76.171 395.849 76.7754 395.849 77.4963C395.849 78.2172 395.605 78.8321 395.117 79.341ZM391.523 97.0251V82.2036H394.99V97.0251H391.523ZM408.445 74.761H411.911V97.0251H408.445V95.0213C408.021 95.7422 407.353 96.3253 406.441 96.7706C405.55 97.1947 404.639 97.4067 403.706 97.4067C401.394 97.4067 399.603 96.6752 398.33 95.2121C397.058 93.7491 396.422 91.8831 396.422 89.6143C396.422 87.3667 397.09 85.5114 398.426 84.0483C399.762 82.564 401.553 81.8219 403.801 81.8219C404.798 81.8219 405.709 82.0339 406.536 82.458C407.363 82.8821 407.999 83.4652 408.445 84.2073V74.761ZM404.214 94.3216C405.635 94.3216 406.717 93.8763 407.459 92.9857C408.222 92.0952 408.604 90.9714 408.604 89.6143C408.604 88.2573 408.222 87.1335 407.459 86.2429C406.717 85.3523 405.635 84.907 404.214 84.907C402.879 84.907 401.818 85.3523 401.034 86.2429C400.271 87.1123 399.889 88.2361 399.889 89.6143C399.889 90.9926 400.271 92.127 401.034 93.0175C401.818 93.8869 402.879 94.3216 404.214 94.3216ZM425.359 82.2036H428.826V96.3889C428.826 99.3575 427.935 101.488 426.154 102.782C424.988 103.651 423.291 104.086 421.065 104.086C418.902 104.086 417.164 103.641 415.849 102.75C414.343 101.732 413.559 100.386 413.495 98.7108H417.121C417.439 100.386 418.743 101.223 421.033 101.223C422.496 101.223 423.578 100.863 424.277 100.142C424.998 99.4423 425.359 98.2761 425.359 96.6434V95.0213C424.935 95.7422 424.267 96.3253 423.355 96.7706C422.465 97.1947 421.553 97.4067 420.62 97.4067C418.372 97.4067 416.591 96.6752 415.276 95.2121C413.983 93.7279 413.336 91.8619 413.336 89.6143C413.336 87.3879 414.015 85.5326 415.372 84.0483C416.75 82.564 418.531 81.8219 420.715 81.8219C421.712 81.8219 422.624 82.0339 423.45 82.458C424.277 82.8821 424.914 83.4652 425.359 84.2073V82.2036ZM421.129 94.3216C422.486 94.3216 423.557 93.8763 424.341 92.9857C425.126 92.074 425.518 90.9502 425.518 89.6143C425.518 88.2785 425.126 87.1653 424.341 86.2747C423.557 85.3629 422.486 84.907 421.129 84.907C419.835 84.907 418.786 85.3523 417.98 86.2429C417.195 87.1123 416.803 88.2361 416.803 89.6143C416.803 90.9926 417.195 92.127 417.98 93.0175C418.786 93.8869 419.835 94.3216 421.129 94.3216ZM444.785 88.851C444.785 89.2326 444.753 89.8688 444.69 90.7593H433.685C433.727 91.9255 434.109 92.8267 434.83 93.4628C435.551 94.0777 436.547 94.3852 437.82 94.3852C439.452 94.3852 440.555 93.8233 441.128 92.6995H444.626C444.393 94.0777 443.64 95.2121 442.368 96.1027C441.117 96.9721 439.601 97.4067 437.82 97.4067C435.487 97.4067 433.643 96.707 432.285 95.3076C430.929 93.9081 430.25 92.0103 430.25 89.6143C430.25 87.2395 430.918 85.3523 432.254 83.9529C433.611 82.5322 435.424 81.8219 437.692 81.8219C439.813 81.8219 441.52 82.4792 442.813 83.7938C444.128 85.0873 444.785 86.773 444.785 88.851ZM433.685 88.1194H441.382C441.361 86.9744 441.021 86.0945 440.364 85.4796C439.728 84.8646 438.816 84.5572 437.629 84.5572C436.42 84.5572 435.466 84.8858 434.766 85.5432C434.067 86.2005 433.706 87.0592 433.685 88.1194ZM452.804 97.4067C450.535 97.4067 448.733 96.6964 447.397 95.2757C446.083 93.8339 445.425 91.9467 445.425 89.6143C445.425 87.2819 446.083 85.4053 447.397 83.9847C448.733 82.5428 450.535 81.8219 452.804 81.8219C454.84 81.8219 456.473 82.3414 457.702 83.3804C458.953 84.3982 459.664 85.7658 459.833 87.4833H456.366C455.985 85.7658 454.797 84.907 452.804 84.907C451.574 84.907 450.61 85.3205 449.91 86.1475C449.231 86.9532 448.892 88.1088 448.892 89.6143C448.892 91.1198 449.231 92.286 449.91 93.113C450.61 93.9187 451.574 94.3216 452.804 94.3216C454.776 94.3216 455.964 93.5158 456.366 91.9043H459.833C459.664 93.5794 458.953 94.9153 457.702 95.9119C456.473 96.9084 454.84 97.4067 452.804 97.4067ZM467.76 97.4067C465.448 97.4067 463.657 96.6752 462.384 95.2121C461.112 93.7491 460.476 91.8831 460.476 89.6143C460.476 87.3667 461.144 85.5114 462.48 84.0483C463.816 82.564 465.607 81.8219 467.855 81.8219C468.852 81.8219 469.763 82.0339 470.59 82.458C471.417 82.8821 472.053 83.4652 472.499 84.2073V82.2036H475.966V97.0251H472.499V95.0213C472.075 95.7422 471.407 96.3253 470.495 96.7706C469.604 97.1947 468.693 97.4067 467.76 97.4067ZM468.268 94.3216C469.689 94.3216 470.771 93.8763 471.513 92.9857C472.276 92.0952 472.658 90.9714 472.658 89.6143C472.658 88.2573 472.276 87.1335 471.513 86.2429C470.771 85.3523 469.689 84.907 468.268 84.907C466.933 84.907 465.872 85.3523 465.088 86.2429C464.325 87.1123 463.943 88.2361 463.943 89.6143C463.943 90.9926 464.325 92.127 465.088 93.0175C465.872 93.8869 466.933 94.3216 468.268 94.3216ZM478.503 97.0251V82.2036H481.97V85.0661C482.225 84.0695 482.723 83.3168 483.465 82.8079C484.207 82.2778 485.024 82.0127 485.914 82.0127C486.487 82.0127 486.942 82.0551 487.282 82.1399V85.3205C486.921 85.2781 486.465 85.2569 485.914 85.2569C484.684 85.2569 483.72 85.7128 483.02 86.6246C482.32 87.5151 481.97 88.798 481.97 90.4731V97.0251H478.503ZM498.53 74.761H501.997V97.0251H498.53V95.0213C498.106 95.7422 497.438 96.3253 496.527 96.7706C495.636 97.1947 494.724 97.4067 493.791 97.4067C491.48 97.4067 489.688 96.6752 488.416 95.2121C487.144 93.7491 486.508 91.8831 486.508 89.6143C486.508 87.3667 487.176 85.5114 488.512 84.0483C489.847 82.564 491.639 81.8219 493.887 81.8219C494.883 81.8219 495.795 82.0339 496.622 82.458C497.449 82.8821 498.085 83.4652 498.53 84.2073V74.761ZM494.3 94.3216C495.721 94.3216 496.802 93.8763 497.544 92.9857C498.308 92.0952 498.689 90.9714 498.689 89.6143C498.689 88.2573 498.308 87.1335 497.544 86.2429C496.802 85.3523 495.721 84.907 494.3 84.907C492.964 84.907 491.904 85.3523 491.12 86.2429C490.356 87.1123 489.975 88.2361 489.975 89.6143C489.975 90.9926 490.356 92.127 491.12 93.0175C491.904 93.8869 492.964 94.3216 494.3 94.3216Z" fill="white"/>
<path fill-rule="evenodd" clip-rule="evenodd" d="M309.628 64.4404C309.628 61.9427 311.661 59.918 314.17 59.918H340.621C343.13 59.918 345.164 61.9427 345.164 64.4404V93.1062C342.55 92.1066 340.953 91.8473 340.953 91.8473C340.953 91.8473 337.387 91.0851 334.593 90.7549C331.967 90.4444 327.831 90.3981 327.831 90.3981C327.831 90.3981 317.92 90.3961 311.214 92.6053C310.658 92.7885 310.13 92.9745 309.628 93.1624V64.4404ZM309.628 95.3606V95.5177C300.67 98.503 299.027 102.101 299.027 102.101C299.027 102.101 301.857 99.7847 309.628 97.7842V108.405C309.628 110.903 311.661 112.928 314.17 112.928H340.621C343.13 112.928 345.164 110.903 345.164 108.405V97.689C351.096 99.2727 355.943 102.057 355.943 102.057C355.943 102.057 354.861 99.738 349.922 97.3749C348.081 96.4942 346.466 95.8705 345.164 95.4346V95.2961C344.486 95.0878 343.789 94.8944 343.081 94.7232C338.931 93.6089 334.047 92.7749 327.831 92.8727C327.452 92.8787 327.091 92.8839 326.745 92.8889C321.983 92.9576 320.003 92.9862 313.61 94.3666C312.144 94.6832 310.82 95.0188 309.628 95.3606Z" fill="white"/>
</svg>
